<mxfile host="app.diagrams.net" modified="2024-08-12T10:47:34.929Z" agent="Mozilla/5.0 (Windows NT 10.0; Win64; x64) AppleWebKit/537.36 (KHTML, like Gecko) Chrome/127.0.0.0 Safari/537.36" etag="ql63A5CpyQfEJKjhBCkZ" version="24.6.4" type="github">
  <diagram id="a45cf8ec-cd66-6f27-3ac3-be6e809c9e4a" name="Page-1">
    <mxGraphModel dx="1050" dy="-543" grid="1" gridSize="10" guides="1" tooltips="1" connect="1" arrows="1" fold="1" page="1" pageScale="1" pageWidth="827" pageHeight="1169" background="none" math="0" shadow="0">
      <root>
        <mxCell id="0" />
        <mxCell id="1" parent="0" />
        <mxCell id="WDrWdavG5AmVl67FFVOp-172" value="AP2" style="shape=image;verticalLabelPosition=bottom;labelBackgroundColor=#ffffff;verticalAlign=top;aspect=fixed;imageAspect=0;image=data:image/png,iVBORw0KGgoAAAANSUhEUgAAAesAAAHwCAMAAACxPLfLAAABCFBMVEUAAAAzP0kyP0ozP0kzP0kyP0kzP0kzP0kzP0kzP0kzP0kzP0kzP0kzP0kzP0kzP0kzP0ns7vAzP0musrbCxcg0QEpianLo6uzm6OqUmZ9JU1zX2t3N0NM/SlM8R1E4RE02QkyorLGssbVBTFU6RU9VX2fj5eelqq5ETldLVV5ZYmpRWmNxeH/g4uR3foWBiI57golGUFrd3+K7v8OhpaqQlpyjqK2EipGHjZS5vMCqrrNcZW2KkJbBxMh0e4LAw8ZqcnlfaHBOWGGcoaZtdXyNk5nS1djFyMyXnKF+hYva3N/Hy89kbXS9wcTKzdBTXGWZnqRnb3extbmeo6i0t7zU19q2ur7P0tVeW9MsAAAAEXRSTlMA6MX69O6n28yasbqJ4tSTg2RrWLgAAC+PSURBVHja7NddSsNAFMXxqU0/hFI7ZyhRqxRRHxQskr5oFUQfohU0mIe6/504iZRksoQz57eFP/deronOcJogGQ2NkJsMsJccGSHWQ1vPCKtZHx0abVIz1JbF6n51vUTt0Aij/9LbX1vJH65QMUIogff2bvfOCnh9I3QO4BWftpHdwhsbYQPvMrdti1NtcUZjAPONDe3mAKZGuMB7TW3HjwabzwTeR2Y71nM92XTGAM437uvOBtIbACMjTAYAnpxz5cIGtnq76MBbuUoY+0IHmw68Z1cpgzX+otZ04J242mNqG7la02m1drltLNSaTrv1LlVrZk1rL1NrZkHrb7VmFrReqzWzoHWp1syC1i5Va2Jh62O1JqbW8VDreKh1PNQ6HmodD7WOxx97dCAAAAAAIMjfepBLIdcfrj9cf7j+cP3h+sP1h+sP1x+uP1x/uP5w/eH6w/WH6w/XH64/XH+4/nD94frD9YfrD9cfrj9cf7j+cP3h+sP1R+zRsQ3AIADAsEosHaoO/H8snMCKYr9g1x2uO1x3uO5w3eG6w3WH6w7XHa47XHe47nDd4brDdYfrDtcdrjtcd7jucN3husN1h+sO1x2uO1x3uO5w3eG6w3WH6w7XHa47XHe47nDd4brDdYfrDtcdrjtcd7jucN3husN1h+sO1x2uO1x3uO5w3eG6w3WH6w7XHa47XHe47nB95PvH3Mb7XMz1Yu/O1tIIoigKg+IQjUnObptGEGgFESWI4hQVB3AElTj7/m8SLC2ksQWDDHUK/5tcJ+tLgbCt/oBhH6p8Pz1cfbVuzguHCQ9TX62bGkQdn4enhq19vzxfnlOH9zbubm6P4pxjN2wNsH4v0r7U8eM0CaWMjYohD0dNWsPr6W8jqAieUtVdGBUDHoYatI7iyQ9PP/uOiuQJ1diPcH0r06D11hKe9PVrtg9AdJUctrm+GW/Q+pGuTLavTe3xCxWbVOeI6X/shq1pienfql0mAIRLVKdss3zFHmjc+jEKYNjTt1Bxvf8m9jWAQQ8zA2jc2ioAGPf0LVSsG8ZkgBzmGR53w2jSmhZZnlbt/PeJbhuG8ZCgWvc2gO8eVtC0daqv/1+PAigYT+4CVCMQZPfS5kPFkd2gdSgOYMzTryYA7BjCpUUSx+NuHBX+ULRB6w30dWsvAL/x7IRq+Lm1RkXyPuva2lp/am39/WotW99ZjFsPo2KDXFs/5oG5NN3iq7VsbZwwbj0EoBBwa50+jsDcS9NjGMGv1saLS8atUTFFb1unr1aA5CxRdg7JebfWXo4fBrfeWrJYtzbP61sHTothIF7MEmV3EH1Yfdt6gO13ep9snWXb+heAeFq0XjeE2bU/xYIJRJcfiSibh3lIb1p/G4Qw+M2jP2fre7atvz+1TojWkdROPr+TCpuoKKyLv1O5AHuK3rT2QuC7zfhE60fWrc0yUTpoQoov5iYtqrAOI4iuUX3rUUj9MWNwtp5m3Ro5Igqcbmwu7e0t/dmofqFTvgCSqyRb1x3fC8ZaDMIgr88J+7t1/JzeOlm2YR6FqK71EIT48dPBn4nyns/2YWus7JOTtbsXB4KzFjlbj0Iwjx5JKPtNCCMefenUOh8Xb7qrrMlcygRiU2kiR+vhQQiFO5Ks2SAqtP4eTKfWy2crgDmXWbvZ2jJuN/0RVKQOEyTI1uPy+I5MBahG4jgCYZDvrzj1R+tvT62Nmb0YatgLmV2LyNl6EIL9+4TqPP42tV6R69XaMGZyB6mwDdix1EWxbJHTKqS/W+RiKwWNf0FEt9bCbMXTn1QnncGz2JVFrqyrGCrY7TT6t7VU19FYgGAvhehdoeWorh+k9U/r6Ws8W7ykhiZ3NP0grV9ap/9EISRvLWrCmgkCGu4a+qO1tR2EYC+X6APSf+IQfMymtF+tz/14tnNKHzR9wP2KCb1bF91bZzejEFZmLPow6y4FQKshg06tM26trfkVCNHNLP2XxFRYryGD7q1Pd/DMf07/LbRn6vTzl96tS0UbgvimqwX7ixr9/KVz69m1JIRoLk0tCqwltRkyaNx6vQDBPJimVsm3dlpcmaVt6zW/DaFwY9HnnF/oMWTQtPX2UuR1Y/RplhGEYLIeMujZ+li2OTqhlmk3ZNCl9XBN69u8CSH1YFG7nPy2uQ8Z9Gu9vRR3bIzaZusv8yGDdq1zKxDMvRC1TM8hg2atD3dMCHOr1DJdhwxatd7+HYcQPgxQZ5wyHjLo1NqfdHxJ3RqNhww6tX6xuEst03rIoF3r5JpFrdJ8yKBLay+EaDFL3cByyKBH6zETT8z8KXVJ4ozfkEGH1t99EFbmLeqe+yVuQwYNWk9AiG+mqWV9MWRg33ocgnlRpq4LbMghA4ufv5i3/jkIIWhY1H3MbmTg3doLIZJLUK+U+QwZOLcecGyMesUyFpjcyMC3tTy+CzfUY4l1HkMGtq3l8T2VoN7jMWRg2loe379PSA2rDIYMLFvLa+hSq6QM6zAGwVR2yMCxtRdC+CxAKimpPmTg11peQ7cUItVM5pX+II1b62GzehGGimZUvhGPWeshCLFDtY7vV+mcukMGVq1/QDCXS6Su6QNT0SEDo9bDZvUiDLU9KDpk4NN6CEJyQ9XjW/kbGbi0HoFgZ7LEQUjFIQOP1nJj5C8TF/vqDck5tP7lgxDctogP9YYMDFqPQIj+SRMvqt3IoHzr8Zfj+3qa+ClfqPTzl+Kt5UR0weB0fDuGDOrcyKB26wkIkWMVvqRmfyODyq3lRPRIlS+pW3OiyqMl1G390ycftsPz+K6xNafEkEHZ1vJL6in1PyZrLnCowo0MirYegGArszH6rFKx90MGJVvLjdHfLdJH729kULG1PL6v2L9Qq3Ujg3qtRyHYCm6MmN/IoFpreXzP7ZKO/u9GBr1bD8mLMPQ6vtUYMijVehRCVOmNEd8bGRRqLZ9UvDNJevvwkEHb1kMQgvPUdtnJ+fVMMTM1U1bkg5ndj/38pWnrH46H7bRT6SofxgszuKnGhzOBjZUPDBm0bD2GZ+3fGJWKETjEr0gJHxky6Nja53jYTjvdxFDPVCQ2la+bDRn0az0CIZ5LU7tt2HgrrMq7/KZDBt1aj6FzG6PJKNzckSqa3MigV+tfPsfDdtosD1cGqaPhjQxatZbH93qCOuDehBtTrZXi6vtDBo1ad3pjNANXQUV+yJasd4cM2rT+7uv0l9RFuDoi1bw3ZNCltZyIniWoUxbhap3Uc+p6I4MerQccD9vpjEQYrnp+H5oba9vlRgYdWsuJ6NwlddAJ3Cn669vpXKR+yKBBa29nH7YjbcGdsnuX+hsZ+Lce6PTDdqQZuFPsbXiDIQPz1nJjtLNLnTYFV3GFW1PAcSMD79ZeCLFubIxyDFvXDBm8vFvLjVF3LsLIwJWtdmuiyeqQgW/rl42RmT+nrsjAnfI3rgTmq0MGpq2HIKzMWOSuW60Z3LlSM2Rg2PpH9x+2cwx3D8TAdHXIwK318GAPHrZzBndnxEHNoyVYtR6CsDBL3bQNd3vEQ82QgU3rH/IijDR11SXcFdj8TsnrkIFH67GX4/vgkbosZMKVrcZs+D9vZGDQunoRBnVdIgl3a8RH4LY6ZFC89QiE8HqCesAPd37i5PXREiq3Huvxw3aO4S7K6BB/HjKYEEZUbe3YGPXEKt5xTMy83sigZOsJeRFGgNrOypZCoVKCmgjE4S7J7mq81yHDT+Vaj3fuYTvnUwcLEROwY4ublxY1cgQN3p29GTKo1Vo+6nJxn9osfVWA1PwFYhbvCHK7svjJVgrPRhVqPQEhdhugNjOCqGMf0vvSMW1esetuZFCk9UDHHrZj5Uy8ET2l9y3jHZFH4ugfe3falrwRRgHY7vsyhxkCaCCYsO+yg+ygYEFA1P7/f1KZGmwwBBISDW3vD22v9u16+g4hc+YZzUQGe7P+zsry7dxlO2XomZDd7iXs4D2ZF6UGRQY7s8Y3FjtGhYpAbPdHCHq6xMASu7jlFLZZgmYig11Zcz9aqYhWr4gDJtCVJwY62EU52Qk8VzVJLTLYmzV+NF0R9TrTMRL60BUmRrrYJeDanrjliQzWs04EsWbir6Q/CMPZE7b408LCzzVP7o3KhvDQVycy2JN17cbLVwoTFVEnL9vxQFfcZ6V1xqXd3ig1XWSwnjXxTfHi50M6Rs5ftnMNXT1i7CqAnbIn+jDOPbXNFhm+McqaPIkHffP65iMu2+labBQ9MOzUPuWwzU5k+BGGWZMsXhxYEXX4sp2U1dPUeew2PN3PbLNFhm+xJ+vV3qy//aDLdqKy1e/JmTl267llAJbTExl+xr6sw3hxwPKdcvyynTvF8pbVvYjdEn+Qk3ZokYE/UUlGWZfxYn9F1OCyHae/cl2S/R4k7BaskJOmmchg3AabDo2y9uLFnoqolH4izruBvoOSGjPsxtqnuMNpciIDX8Ku2gZZ34QMslY7RkXyESj0DcghqjDSL5LT9ue+IsMXAKQZ0c1aKIdQUx9hjSqi8sJHPsQtjplqJORhhOVdf3hzj+e54UQGvMgS3azvm8D8T9KSsLa7YyRl74gh59fwPDmIkIWhQuykv2oT4luoRYZv9b9asz/1sr7LhcCyGZLpg+HFzopockY+zLl0XNlbmMBYc0ZO25NaZNBvCvXI+6wvqgqQeCQkuoTS1vtzf/mMy3augtBV8B0a9ojBWPdktzm1RQb9R6vRdtZ34WkIkNfH7KJpsMEKL3SX79DkjnwkXwG62A051CoEY9KQnvZKfj7Xz1p9EdFGZHX5knNjURtGFKyTXj+oZJZAlZTwQm8MXfOWfLAk9IXJwZ5F7MG87hkubpoQK2B31mOeNSApisKwpiwbfFG8T4HVyLusvzAYhOGwrA3Hqf+MYK/+4kRfm9ImYJB1mhASTgYZ1lhwPrm8I2vCIojQQtjO+ktwSvWKfLyxHYc4onmGvYLt59Pb2b7LS6F83CBr5Yk/9vzx0Gg06hcZ8qrTBAp1QrRZ/2bUMXLeDDuYW3UbIg4QqJ7WJ7ewiqPZIgGDrNHLkHdaSwbWviNbWX9hOAjDeVEF+rrElKclwwFYIFc/mXenswgKg4uMcdZoXhCNTKwnAalnQrRZf+ncZTu++0t/tVq9rnSilo5TSzdmW7cyDiN3BxcnsJqft6XQpJISU1GjrPsMofxM/dcR7lfd4Pr3xnxEm7VaEe1eEJtFL9MyVGJ6ZuEDGznz/3EYDhVID25dXWjwjUX0Gt34qBP4wyjrXFUGmNhs53L5dIQ/oylddSt6k/Xv36iDMAS7kx7HobF+XbfLjQR9yhMxa5bE4ZiSnFTonTs/wOspBAbXYrtOacI4a08sW2BQMbFb0ramS9gI2j8I4yKCd7qC6W/YyBPTfKUAzFES09zi8Y+MzzhzwefjP+Jj3KRZqFpKJMOU7s/a47lcTLrNSCTpTefGf5ItJcC5QRi3It5jj2SXEnYIUWJeZizDAiamvMNJeVHxPNPb+1d/0NlDbOCvZbvNhKyIgV7u0Uccx4vD08a04G/RQ7LW2s4zmge4+TOx3VUCeqq7/4Sd4UR8xIKrcgHHYSq8E3B6t4AfCEiUqmK2SDmrWWvH1IuOXLZThq6JlcZBmViSGQfgmLaPOIf3E5TrQaDXoPT4rG+GakfniTihb7os+KRgh1CHWONrJBkcMiLOiV4rbNjoBcaUHp91dBR0dpP6JmT+BsScAyfxBJoV4Qg5QxwieALoVybypEhtyPqh7/RlOx7oko3+fudB7NLzEcvuVs785P6DOONiyYLlRcHrofT4rC+Wzl+2U7NyPsuPndICOcLFqI/jGS9R9p2/ZulwMjGg9PisM9cKuCYlzlmafDTjonPslBPIMYTb65SEIzl/SasQLiASy8q5GTWXdU0va0/gQzpGAejyE0MzySBsciThftyzMe4Fsd8fXoh+f3z5QKnJrK/fZ33v/ZjLdgQJuhrWln5uIpCjZR5yc3vy7grEblcTiWXDkVSJcvpZf3Ng1uqlIsx7S5z1ZHE32pfEbukosYHw5MlFgjgOS2eIzXylOJLhdLw2o8dnfVkOfFjH6Bb66mSPCxG7Nc+JTa46i/YRn99x+ydB0STkRVkcPlJ6fNb+FDilliGOmxllbf0kXqFDbBS9jdWWqSBMYpFBhtjsPMtC+XB/XqH0+KwrS+kjL9upW79Ryc+wmzIWiL2EzJ/PpVq2mRAVCcaYIgaa+dKfArGZbyCzZmMYH3Xo8VlfTkRwAY9APkId1s/Y5mFk+kSc4bu7oOvtrGq23e16vd5mKpXqeb3T7jCbr/oHscfbi3MfcUIxgvhgJKafKT0+63IfXPA6Sj5G/Yhzl742jIgld9YKrHpqs1Cu0ueb1EdnXZq+Lt82d4ysTBSskgP4lnsa/RfkX8M3Fpk33C2UO/T4rBv54CdctvMH9C3JIXxpGApVT/2Qreo5hcCqtu4YaXTCsZn5rEcJcKLfRz7QOfQVhMPCzsKYPHZ1I/BAfw6ZUlsFmg2q0RokGCtUTGZd6rHPuWxHCEGX9Cc5iFBjMJZYnXra0XKQLRvTgL9DNR74Zy7iz2ayrmWDBoMwnJWCvoptxy5R8J/0Sv6QQL9UFfNFqlGcKABXNZN10GAQhtPS0JcmhyoWsI+YO9mntPUm9fWg0PNQjdY4AFXSTNaclD0nn8APfcEoOdRTD3tJ08tTXMrVjtGiRbVGDBsBs1knO+RTFHH8gWrftYT95PzsxL5wC40AUrGJOJnRbVVsxMu6WX+xawxdfCWQz5EJQl9PIIcrJg48iNc5oZ/d914mlseF6cP28j34R9ahdl3/Ofy7HVNE83fk00yhj90SE67yDAcpZBun8aSWqSq6HaMHL6u9Zc3foh2StWYQxmdZYYchMWWWOnz/qfro9psfhFgckXBWrHaoRjEfAjZZ86MenfH+rL9zx0ivpxD0SS1iStQv4mBKKluiGdd+ftMmk/3+eHdr+e74A8AmayVfp7RVSgX2Zf0jOCn36SvaFDv0LOwOwIzgPF32/OG+T/DXjlG/RLUumwxvWTcvX37XY1eCcdabMXTTe/LpPNglTMy6XTKYxeLNdHXQmF08Xfl0dq3P/7x9qIxrtXH4gw5gCysRzXBarnWoRj0rAZus+VGPWTUIGGetLt+BhhsWMV8AO8TPiVnCzMtgDQsF5UI/kvQu/zZNRvqBuBhimx8gZ++J4zpJxBej+HbHqFMuAG9Ze4rr1+F9wDjrzRi6a5cMAhnb2sEUilMGp4SuibPuspI0iaXed4zyeFN7fR3OsCfrn18v2+m65rVhJo5dxtY2StsKnFIjzuGTY3vhbvy6RbcNsRGIqa/D92T9C7jEgxuW770/sUNFYsnTqABnSA4u48U5CoNruf1MNWY1zz+yVvhJvVgC2Js11pSRqx4+o33sEre6+kQ9UwlOKBNHqB0jPghDo5Ri4U3WzOvZfkcKr1HW8xviLo/YKXFOrHryzxlsVyWOiPqDbNpYvusYPSwZ3rLuD1p0K2teKtXN+meAgbVd9tpI6GKn1N1RB/H6DPYaEAcI647RehBGnWrMciKwyTqYK2r2PtTX4UZZA+LYXcPZnmTsNOdhW4+7nGSwT/Cc2O/mtWN0SbViCWCTNVs+vtvn4gt+fXfWAAsBqWcXPZwR0jDIo/8nOYpwXkkXmHtPXa43qbthb2DcolphEW9Zp1Yt+qa6eR1enKR0s/6eZ43gIsLAhm761Da8daVAbTims+jKDMdiE4HYTPAk1oMweMdIqxjAW9aN2fb+dWi94LcWCUQMs/Z4anEgWHbR03g0gt2UGLGBcF/JR0I4QtD+bf6LJYKjAR+EsS2Nt6y3VdFbL/iXPQak92TtCacVd33Lvokb/nyKElsIGVqaNOOSpaTzT8RmVzVFGoabCd4x2hIOARxLPtNt4/WCX88reDE2znpt0GRuentGZkEYSF4Q+/ieipVqei5KDAdicrdyR2yldozyYq5IdSw3HaMO1dPyB7Am1vdkzV0HXPRWnBBPCAaUhQMDCu7rFX81PU3248EQtjFFDsyby3ZtHCveEPvdeiGWF/HpA9XzrGCNfyrraTQ39w7tyPo3NWuu0VaAwKVbFvKYBCO9e+IUwRfNZJ4u/mi9mLVe0IuLq0w06uD82KtcSGrHkvzxWs81XjB+1OPxfdz1dgjgpDDVCqhZ//CWNbdqMmDqloV8wGBEqbnoYfI4QqWw7hjJ1RndYbrpGNXksEGPtEu1PPKVXtZcOQFIOZcs5OEQDBUq7noHdMwgDL9f7j7SXVpxKPxrWKn/7jm89Y+s5e197l6e7MqaH9D8/NaZ6iEIY3OPO/5Bj3GXD4Wysfm8RHcrSt5L/jpcwlbW9ezoLevQgmqEk82MbtaqkpcBvVviBp049ki65vnCGmElI9lIy9czaqC4WC/fVRHQZt0qx/HWGVZG2j+pLV5HiUfRzVrl7wNs4orbx54i2Ke/cslHjsVBGIVFWUzX6V6DBLCVdSwCbLJm2kf4zijevSH3U8Aga76Qi0B85YafMZkD2qDx6oUb/lHNO8/yy3YiMbqXZ8qwlfVzOgQ1a3WDcyMW6T8KmZoCw6y5ypIByRb5fMJKwV6SN3x6P7l9fvWyHbpPZxIEtFm3rmVgk3VQO4q0nhbLURIOQPXt2bf6WW8Gm7GsG7a2/5jjAMH2w2nF/by5bGe/R7wJ8b3OyhzYZF3TPsJ3ruX0E7ntQfXL2Zmatb7LnAyICxd8rYnWQjiEnA674iHjsE1qKVRd8Y6RqaxZMrZevoch/CPrmbamNJ/XydVk8yO+/vnMMGsu1pWAuRuudj/4eFaoWW654P/OQy/bKbeoqazVjtEQb2pbP7Qrj31CJQ7Vj2ecUdbcYs7A0i7Y2vaVgzgQC07LdVf//NZctmMma4Uv+J1/Zi0tNcv3rCpnz0krCRU/BGCcteqyGgdEvwt+qtwMGUydxhsX71zwj63jYn3ZzopftmMqa9YM8wfyxj+y7mteoLdWqUiR3OXflu8zlZq1ofAwBKTccLN7sQlzWLyX9Tdun1wVOe8YNXq8Y2Qma7VjpPyjMyzWOtqWaXzg8w1kvGI/npnImhskGVj3T/LpBM8c5jFJCSSH+dq40lhvET1xN5TWHxuVcS2fbibEYFCOZGN3xHnCZQIptWNkJmv+OpzPwNlkLQ01rYViTszfkWIEql/PuIOz5i5rBSDohhMDvkaKwSmi83s+91MWHPHLdsx53HSM3rLWvkBvLfpJur4JGdz7aTg/qlnvE24rQMINGw2CpwnHzM+Jk66qofUgjP6AWlHPhoBN1rL2lJfHW6gIvrEI1bdnW37al7V2a5st3bC1LcyGChzSE4hT+GU78zC/bMeCjr8AbLJOp7XLd17OXa1PEKi+P+MsZM1djgqAUnPFu6mb6wIcwWbEKbc9pl62YwG/9fEt6+LWJLve7dv3FL58W81a1cgqQCBM3MD30FWg4dpyP3c3kST1sh0LniVgV2f4svmSSbSs4NVXP5wdmTXHh9J63bG1Te5WzRDstiL2Uy/bacu1GbVmJkGl5GfaT3Gxllm/nFHx5fv4rF+HTYfc0lEif46bEuwk/UEc0GpCXpR5x8iqFDSncFUtf2F6v74JGRyfT2hL1txlPgjILukovbiLDWXYpkvsd5dlUj6WilToEa7BJRZbHaPEA8lch/Dqq9/ObMyad5Qkfquma0Rno2YQdgg8Ebvxy3bCw/h1hx5j1gQQnBS1TWF5lFm/nFF9ecbZlrXaUZLynz4K7Z+u6iPv0Xmn/iR2m2kv27FuVpu2HzTL9yje/ZPcTzXLt4HvrWStXuYkrlz1npmfxpskRVilVKPEZk9pdRCG7Srz1DO5qkrg+Ca1I1mrl7Ql3bC1vSVz4Rml52II5rBC7YbYLMov2+GDMEwrtntGfZXnoeyPCuECXrGfzjj7s+bGruko6fDddGLl7DIlMuwViifTC+ojNlMv28nWqXkdL1hj9x+t6XSMnMta7SgFXTZ+Y4vgu7mtNwbl62o7PZ02k6+m02E6VxuNK4+z+ztBIPbjl+1US3wQhgUrIDCjO5T4JvVEs3w7mTUXG0pApE7+ty06CrJlmF+2Y1qLf8UKrqi+x2584RNWmo6R01lz4wjAhk/kfxrrjlElxztGpo36ZUrrNd31QO0YdbQdI+ez5i5dN37j8/HLdvggDAtGDGmqj8+XTXbIeVa7Se181qpwOgT03dBRcofM35ftJMYtasEsALZa/zo/LdJtD9P4ineMTC7f3HfHZ807SgDc0FFyg0YA/VhenBSpJXWR5VuUtpbvR+DMJuLkanfHyPmsuUs+fmPklh2RT3TrZeogDNNiqWSH0lJsvR6UgMKM6mxSpzWb1M5mbdxRIv9trx2jxMDK8v0gQyy+bXUoC/qGd4zCgs8v4tVX3559StbcqsfccYnEpxEqr5ftzKgVeWBIX5Qjfkqfc2Ftx0isZsijZpP607LmHaUAEKr+ZxdyzWU75rTqfFZdZP0rP0P6/Tgr7z25GWp2ORzK2mRHyTVb2x/pKh9i2Zi1jlHdKw5efllarwedBNhge5xVoCFER0FwvGP0+Vl7PJWee8ZvfCTfSkZSvWzHNC9Q3uQeRLul3aQWa1HBo9mkdkXWnstyAghNXLW17bxZEvFxWR5a6xh5JMTXq3cj0uxQuhi0tPf1dC/IxfK45Zv7wuas1TlK8RL579BctmNS8SXdS0lcr/yPcYjFd03hhEeIXiuajpFF39icNVeZSvxS5f8G32IzCMO01kTqrUu/POLJu0F0z2mxzDepVS+b1C7Lmo/fgJR39RFou9Qj60EYsrWOkZ+hyX9jHXYaqeetOUbDG/KHl/1jk9qFWfOOEuTBv/6J/DzNpGqpb7VjlATG66S7conS53FRO8co9UwyubeK6M9n7sx6PX4jBMyL5N8sWn69bIeaV19vgvWU3Ou46DLVehxqBmHw5du1WXs84zmD1P73bm0Lj30ESlXZUsdoFZdewi7yRfshBPl5q2MUbz8R2mT/2KR2ddYn0VE6pmPEB2F069SCugz2wPeu1s/hLDjQ6Rjl3zpGv5+5PWt1/MYz+ffJjBS2bHj7jxlqRRmYrp/Dq4p3fXqjvj0IQ/CtZLz66sczW3yNF8qlxzHuuyLIvst2cnI5KtxTk2all2QHynSd75ghuf2Hc3LeqGNkHbiU3+OcWhxQ/l0dJX7ZzqKw/l/43PTqPUebquenm4B/e75sskXOs2yzfJ/ZZnP4r+JxTMNtVwQdKVNbb1I35+v6rI+aNQT+Yu/MFhJHwig8PbZtL9PdUz8VK6DsqyD7IpsgILKooCD6/m8yk4IGKmBIhIIE8t3M3dyc8YzmP3VOB0tiDyStnQk8j+WBFmEwR+qNcQIT7AmORk57lJ73w8iJm47thMaNb2+aHdwxru7PJZ0WqYmJzRh5O7Ieo83yGSZcZC380FH9xnrc18CebYcmz12iWAuZDMZVf59Ok4dAGGAWmjEaMRmjTfP9aGrkGQs33BWHniaCPkhXGttxh/2PiELusXquY4IDY1yln82zCzPVnpotSAJWBxf7nvELJjhiRQs3hiWjZ5TGYzuVUENEY86wBobCeHG+Gkxj3HaV2B6jmP0qhV6YHiNOHMMEW9PCDVq/4boy7Gn7OgzettU7O+mQFtZABYQsxrgQhor0D3kRxjl6uwHmSM2LL1MjLzUs3CjGdDQRpHlsx+WMBf3zdRJ3WCXFfEF6utO8Hi+gdjCLu3RhIdGyQo8RLyP3VTZp5DqeCNICaXih5L5M5giaElDt3j5o4gmPdrAPsCxjVI6ilRkjTkaeLHss3MhK9Rv6mAjSVISRfGra4ymmWhSr4zEJQob+/AYxrvbrOdmRmhZhrHxJzc3IwxyNnJ62QxkDXURGFTq2I6t1S2GVuAEeqlLuxDX5PZw9Ur+QVH5q359//7UtvsIE56Xbwo2cVOcS1lGPkiJim2aMkkwUWuUvZoV4Q0oEx+g4ogBJTGHHdkiRyRhtkU8wwXulysj3sH5jSRFG2b7wHWikRuo69Od/D2/iFWM7W+bb1Mj9T5b10f1EkDJ3l1IRRn3xs4Co5sc6Nnm1M8imMS4n89dsj1H/FXXjzNgOV5SN/IajkdOJIL++M0oiHdt5tslq01V/CO+DdyCp6oAmXsgY2Z9EkuFm39qN3B7netoGfUwEvQMZXEA9c+VdNocQxWoo31hmr+fZXjq7fGxnZ/w+ggmRtmUtjDER9O7YTsO2vELgHqunCFCrYtnYziPqxpxMxmh3/D2bfwpauEEzSnU9ZpQmRRjvVIN0sTrS+Yz0VfRyMWNEmCKMXfNzauSdooUb9LR9q7f6DWKRjtQdrzWAlkFaqjMofennmLFvOrbz2J87UuuA39PTdp3jadtTDulkImhhbEf2u4T2D+GJhVc7108XJYxG82M7OuEHTBAeOGaUaI/ShQfphXERRimSRizaP4T3wW6RF2HIM0b6YWrkjgTn07bwrI/TNgkmwR+MhRT+9u9hlVw9FGVFGPEUYsZ2dMU/R1vJKJVtOskotWogje1UzhR+7rFW2B4j3dn3MiOvccwo0fqNZJGgnZLquKQiDMWqbNLCH6FYk4owsvNFGHrk5+y07bbwgk4ECbV7xB/lsZ3LpPLz0hH+AIWYNx8lL/W5I7VO+efzVjJKWZs0EZRCOwKHwf6UpRkjBcTWB+w7uzC2o2O+wx+4ZpQS0mk7txMjP4sJzkQwsjIz84Y14w7XLbKxHX1zsp3T9o4mgsSGXRrbsa3MwkWxVl4r3maAeGz6t+8Z/06NPJm3qMYYE0FpOrbDZIzW+nuLLcKgGSND2PcyIw8/WfhBJ4IaItoad3Rsp37aQzPuibYP4dUhXkZuXIQxe0mtd/teEjZ13nK8iOSet9mjFLDSsZ2LIpkPCIcCmv7eyvT7eJEXOrYTnB/bMRJTIw/xzii5Yl3EHZoxSmbyTMaINLzOJtHwIfz1xgV9NWM7BmMaNoU+19P2duo33m4EXz5je35j/uf93uEt8M4ChwMA+irGdozHzMhvOBp5UDpt9wuIB+zYzml9/m04ybqgT9BSzvES3HVqc9YlYztiJqSjI/Warwa8cYsMI2WULBdwkbuyZwPzAeF4omz3a/kQHgcAp6wLqXqln4zR5oy8zr1+wxpAXOg9gzS2w3S5vNaFLAl4/SjQTCOG5S9w0/EmjoNQ8iyM7WB0FtPzleNDYVMX99N2/YWgjRPN+4Rbdy3ySpi/vaT/aUhaY+to1YdwGjyAPI7b2lX52E5GFJ+8ujxSr2Pk/Os3AISNTwSR4iRjJDIlhPb2iIy1FlNIjohlWE4FgDz2pOVjO7QIQ18Zo3X5tpXTtoeetstRtEHua9LYTpLtVLTCzbnVFpW0vlHxITyd8AGAkJUfqS90f6Re18j51m/4AGgefzOk4j7XpTvMzIB2r0kWKhFXJ1VFYk5U8SE8TP8jf7pmf9THRRj6zBity6et1G9kNli/QYIh6Ltj3vmMkVTG/poFKOFBPabmQ7gH4zqAI/6I5WM7es4YrW/kyqdtvU0Ejcd2vLEu8z9vZwhyWbi6fxbeez7aZYIHzmtcdz0P8DxVq006Ut8a40i95qsBoTa0LKCviaBUwumKuf3hKhsQLuGGpHXY4R2KysEjqmkS4Bo/D6+Xje3oPWO0Lp8MUr9BhrQII5QhaEbGKRVjZCStFU6pd3PBAwBJa3nGyF6OEsuFkY7Uaz3/4l+/sdZEUJWO7YTm/wXE/RaHKkJU61ILrUyEpytOAHDRhD8ztvMsje3ss30vM/IwTyNPOD6cUepWXK5OLsIIGrgCHIfWWOszgiiKH8Jz9D1jRp4xuhiQaN5nmIzRuvzkmlFiJ4KuPzq2YwsyR+rO5R+tg4q/96UmQjclrb3l62VjO7t/Sc0J5edfoTxHI6cTQVrrNwp9SDbK3vkePXEY8mWmWitaBbmnmt46L3HOJRvsqZalsZ3WqWDYI/WarwbAz7NHKa51ImhEx3YuTu+ZEkLh4RxNtVbkjAYP7ACXeBDEDLl+5BWl5sZ2jHikXtPIXTwzSrR+o59WnTHyCbQIA80gCQE6CFGtfeer/J8GD+B/KkvHdoIhg2aMNvZqwBvnmVHqg8qJIPISgYvhlbc8nzESo8kaNMdae87R6kT4lQsAnJUCe+WYjO3sw5F6XSPvc+9RaosqMkbO8tD2PC9oumY7G7nHWl+M0Cqi4xJRCLvlGaN+GqUSLp0UYeyGk6ml8a/fKKwc27kp1uoDNiAM0EJjrdMBtJIe1ZrurSmM7QhGzRht7NWAvbOjiSB2bIcJCDusz8KIaq2KLu2hi8nsOy59Ua+G9+tIvcarAe4TQR4po+TIiu8VYYCv2WCLMF4jwuVb25ckyA1ZpAbSotpihkY9XEVnsZl9/3XQnGypfsMHQGOgclJ5p3BbLMmCqBEovPZdPnhDA5VVW3eYIivCyBDxybGXR+qP8Xl7E0E35++M7bQD81sdcRSBW1e4WoFzpJIAlpPu2DspVNizjNFmjJx//UYSwFkOLBRhtEPMH2XRJPRJBKQjV6yfQio5X1qEMdrDjNG6/NpO/UbFx0wEpTp0bIcpwrg/dSezbRIBKaPQEpFKzvDC2I6bBLKmfS/jeDsTQVL9xuSZJckwYzsUcegULG4/kAgQpIEUZiiMx3bq+5oxWpcvsJX6jWlGCTNjOxTSuOlEXpDTFUPatO4auAiDP8pGXuKaUZJO25mEy5kI9tlihit4kFy79vRATjNINeRuoQiDRJu+Pc8Yrcvx9jJKEH65ZMIMqXzPkaBnkoSzggJINdF7dmznUDJGG3n+xb9+owlQDoQr8xmjXMhx7b6tIeIuOP0ajt7im3xsx4hFGLvhK2xhIigogOepJjIB4YfevUOI9WqCeyiqt++zFju2U6djOwYswtgNx7P6DU4ZJap1aTC/lGcrts7SSetTR7g902zfbMbIdkgZo/VfDXCeCKJa+zGakPP6yndxV+us6ag1Chrs+1xfYzvG5G9gJoI4ax1x4FzSkRV7QsiNVENG8s6bAkl1nIYuwtgNx8xEEGetfX6gF89CCqkmxdr3jb0tklzItO91jJxOBHHWGiIFpI0AY9+Pe1SEsRv+Zk7bPLW2p5AmyEg2thN+RN2EeaTeyPMv13OOp9beANJCqsVmjLxDUV9jO4Zk9vzL0SnqROtAj+28sSf2rwiDP8pGXrfy0vqy8NFv39dP9bA+x3aMydTIhdMcH60JUk23xWaMQszYjmAeqTf0aoBOBHHQWot9G2lsx5j8EGYZJQ8frbXbd9t22kJ3t2bGaNP8ZDJKO9GatW9PyeZG+h/bMSTUyJnT9na1jvZkGaN8lAwMMLZjTGZGbmt6eGutfKS2Jp/NjBFfTuAPpSF/rdkjNVuEYSHR8uEUYeyEfz8z9Ru8tFbOGF1KYztFQ43tGJPvwPQocdRaOWNk2jdvWCP3N7hrTe2bHdt5Qakr80i9Aj1llBit1R+p6diO26hjO4ZkZuShKw5aK2SM7syM0db5BcxEEBetyUhehGH8sR1jMpdRCvLQWn6klsZ2yDAEE47MI/UW+QJMRmnDWgdY+45LGSNsZox2xlcmo7RJrcloWRGGYGaMdsgxMxG0Ma27rH0/JIdEbOzT2I4h+XLE1G9sROtAb//HdozJV6Z+Y32t5Rkj256O7RiTT8xEkGatlTNGySAR93Rsx5B8O2LqN9bQOtA7pLEdYzILm9qyng9rLd7JxnZO931sx5jMwqalzAe17rZkYzueAxjbMSSzVwO+ivsDWkd7C0UYaGAWYeiUOSMve7RpLT9SZ5M356h3IGM7xuQTU7+hWuvFjFH9sMZ2DMlvJqO0UmuFIoyiWYShe34AMxGkQmvxfHFs5/7gxnaMyezVgL+xUuvFjBEd2/Ed4NiOIfnnMzMRpKh16l42tmMVSdAswjAQPwSliaCZ1uL5srEdwTxSG4qfKzJKVGuLLGPkN8d2DMnMyIWb3Dta5xbHduyHPrZjTH4wGSVlrdNxb+wMPZoZI8NywtRvKGjdqIexObZjbP79zE4EybWeHqlzRHwyj9QG5/tcRqm4VOt0wiuN7fTNjJHxOWEzSnKt22bGaJ84Zuo3GK3HRRhWc61hb/jOZJSmWofjMXs+RV7MjNFe8Us2EUS1HvgvpSIMc61h3zhmJoKo1oigaNm07z3ky1xGqTjW2hzb2Vu+ztVvSFr3HsyX1PvLzMj7ApSc5tjOPvPtCKaYR+p954+Rm/Z9CNCwqVmEcRh8OzLt+3D42zxSHxCfzIzR4fDbzBj9N9wAACgftkqMj5RyAAAAAElFTkSuQmCC;" vertex="1" parent="1">
          <mxGeometry x="1140" y="1440" width="59.39" height="60" as="geometry" />
        </mxCell>
        <mxCell id="WDrWdavG5AmVl67FFVOp-173" value="AP3" style="shape=image;verticalLabelPosition=bottom;labelBackgroundColor=#ffffff;verticalAlign=top;aspect=fixed;imageAspect=0;image=data:image/png,iVBORw0KGgoAAAANSUhEUgAAAesAAAHwCAMAAACxPLfLAAABCFBMVEUAAAAzP0kyP0ozP0kzP0kyP0kzP0kzP0kzP0kzP0kzP0kzP0kzP0kzP0kzP0kzP0kzP0ns7vAzP0musrbCxcg0QEpianLo6uzm6OqUmZ9JU1zX2t3N0NM/SlM8R1E4RE02QkyorLGssbVBTFU6RU9VX2fj5eelqq5ETldLVV5ZYmpRWmNxeH/g4uR3foWBiI57golGUFrd3+K7v8OhpaqQlpyjqK2EipGHjZS5vMCqrrNcZW2KkJbBxMh0e4LAw8ZqcnlfaHBOWGGcoaZtdXyNk5nS1djFyMyXnKF+hYva3N/Hy89kbXS9wcTKzdBTXGWZnqRnb3extbmeo6i0t7zU19q2ur7P0tVeW9MsAAAAEXRSTlMA6MX69O6n28yasbqJ4tSTg2RrWLgAAC+PSURBVHja7NddSsNAFMXxqU0/hFI7ZyhRqxRRHxQskr5oFUQfohU0mIe6/504iZRksoQz57eFP/deronOcJogGQ2NkJsMsJccGSHWQ1vPCKtZHx0abVIz1JbF6n51vUTt0Aij/9LbX1vJH65QMUIogff2bvfOCnh9I3QO4BWftpHdwhsbYQPvMrdti1NtcUZjAPONDe3mAKZGuMB7TW3HjwabzwTeR2Y71nM92XTGAM437uvOBtIbACMjTAYAnpxz5cIGtnq76MBbuUoY+0IHmw68Z1cpgzX+otZ04J242mNqG7la02m1drltLNSaTrv1LlVrZk1rL1NrZkHrb7VmFrReqzWzoHWp1syC1i5Va2Jh62O1JqbW8VDreKh1PNQ6HmodD7WOxx97dCAAAAAAIMjfepBLIdcfrj9cf7j+cP3h+sP1h+sP1x+uP1x/uP5w/eH6w/WH6w/XH64/XH+4/nD94frD9YfrD9cfrj9cf7j+cP3h+sP1R+zRsQ3AIADAsEosHaoO/H8snMCKYr9g1x2uO1x3uO5w3eG6w3WH6w7XHa47XHe47nDd4brDdYfrDtcdrjtcd7jucN3husN1h+sO1x2uO1x3uO5w3eG6w3WH6w7XHa47XHe47nDd4brDdYfrDtcdrjtcd7jucN3husN1h+sO1x2uO1x3uO5w3eG6w3WH6w7XHa47XHe47nB95PvH3Mb7XMz1Yu/O1tIIoigKg+IQjUnObptGEGgFESWI4hQVB3AElTj7/m8SLC2ksQWDDHUK/5tcJ+tLgbCt/oBhH6p8Pz1cfbVuzguHCQ9TX62bGkQdn4enhq19vzxfnlOH9zbubm6P4pxjN2wNsH4v0r7U8eM0CaWMjYohD0dNWsPr6W8jqAieUtVdGBUDHoYatI7iyQ9PP/uOiuQJ1diPcH0r06D11hKe9PVrtg9AdJUctrm+GW/Q+pGuTLavTe3xCxWbVOeI6X/shq1pienfql0mAIRLVKdss3zFHmjc+jEKYNjTt1Bxvf8m9jWAQQ8zA2jc2ioAGPf0LVSsG8ZkgBzmGR53w2jSmhZZnlbt/PeJbhuG8ZCgWvc2gO8eVtC0daqv/1+PAigYT+4CVCMQZPfS5kPFkd2gdSgOYMzTryYA7BjCpUUSx+NuHBX+ULRB6w30dWsvAL/x7IRq+Lm1RkXyPuva2lp/am39/WotW99ZjFsPo2KDXFs/5oG5NN3iq7VsbZwwbj0EoBBwa50+jsDcS9NjGMGv1saLS8atUTFFb1unr1aA5CxRdg7JebfWXo4fBrfeWrJYtzbP61sHTothIF7MEmV3EH1Yfdt6gO13ep9snWXb+heAeFq0XjeE2bU/xYIJRJcfiSibh3lIb1p/G4Qw+M2jP2fre7atvz+1TojWkdROPr+TCpuoKKyLv1O5AHuK3rT2QuC7zfhE60fWrc0yUTpoQoov5iYtqrAOI4iuUX3rUUj9MWNwtp5m3Ro5Igqcbmwu7e0t/dmofqFTvgCSqyRb1x3fC8ZaDMIgr88J+7t1/JzeOlm2YR6FqK71EIT48dPBn4nyns/2YWus7JOTtbsXB4KzFjlbj0Iwjx5JKPtNCCMefenUOh8Xb7qrrMlcygRiU2kiR+vhQQiFO5Ks2SAqtP4eTKfWy2crgDmXWbvZ2jJuN/0RVKQOEyTI1uPy+I5MBahG4jgCYZDvrzj1R+tvT62Nmb0YatgLmV2LyNl6EIL9+4TqPP42tV6R69XaMGZyB6mwDdix1EWxbJHTKqS/W+RiKwWNf0FEt9bCbMXTn1QnncGz2JVFrqyrGCrY7TT6t7VU19FYgGAvhehdoeWorh+k9U/r6Ws8W7ykhiZ3NP0grV9ap/9EISRvLWrCmgkCGu4a+qO1tR2EYC+X6APSf+IQfMymtF+tz/14tnNKHzR9wP2KCb1bF91bZzejEFZmLPow6y4FQKshg06tM26trfkVCNHNLP2XxFRYryGD7q1Pd/DMf07/LbRn6vTzl96tS0UbgvimqwX7ixr9/KVz69m1JIRoLk0tCqwltRkyaNx6vQDBPJimVsm3dlpcmaVt6zW/DaFwY9HnnF/oMWTQtPX2UuR1Y/RplhGEYLIeMujZ+li2OTqhlmk3ZNCl9XBN69u8CSH1YFG7nPy2uQ8Z9Gu9vRR3bIzaZusv8yGDdq1zKxDMvRC1TM8hg2atD3dMCHOr1DJdhwxatd7+HYcQPgxQZ5wyHjLo1NqfdHxJ3RqNhww6tX6xuEst03rIoF3r5JpFrdJ8yKBLay+EaDFL3cByyKBH6zETT8z8KXVJ4ozfkEGH1t99EFbmLeqe+yVuQwYNWk9AiG+mqWV9MWRg33ocgnlRpq4LbMghA4ufv5i3/jkIIWhY1H3MbmTg3doLIZJLUK+U+QwZOLcecGyMesUyFpjcyMC3tTy+CzfUY4l1HkMGtq3l8T2VoN7jMWRg2loe379PSA2rDIYMLFvLa+hSq6QM6zAGwVR2yMCxtRdC+CxAKimpPmTg11peQ7cUItVM5pX+II1b62GzehGGimZUvhGPWeshCLFDtY7vV+mcukMGVq1/QDCXS6Su6QNT0SEDo9bDZvUiDLU9KDpk4NN6CEJyQ9XjW/kbGbi0HoFgZ7LEQUjFIQOP1nJj5C8TF/vqDck5tP7lgxDctogP9YYMDFqPQIj+SRMvqt3IoHzr8Zfj+3qa+ClfqPTzl+Kt5UR0weB0fDuGDOrcyKB26wkIkWMVvqRmfyODyq3lRPRIlS+pW3OiyqMl1G390ycftsPz+K6xNafEkEHZ1vJL6in1PyZrLnCowo0MirYegGArszH6rFKx90MGJVvLjdHfLdJH729kULG1PL6v2L9Qq3Ujg3qtRyHYCm6MmN/IoFpreXzP7ZKO/u9GBr1bD8mLMPQ6vtUYMijVehRCVOmNEd8bGRRqLZ9UvDNJevvwkEHb1kMQgvPUdtnJ+fVMMTM1U1bkg5ndj/38pWnrH46H7bRT6SofxgszuKnGhzOBjZUPDBm0bD2GZ+3fGJWKETjEr0gJHxky6Nja53jYTjvdxFDPVCQ2la+bDRn0az0CIZ5LU7tt2HgrrMq7/KZDBt1aj6FzG6PJKNzckSqa3MigV+tfPsfDdtosD1cGqaPhjQxatZbH93qCOuDehBtTrZXi6vtDBo1ad3pjNANXQUV+yJasd4cM2rT+7uv0l9RFuDoi1bw3ZNCltZyIniWoUxbhap3Uc+p6I4MerQccD9vpjEQYrnp+H5oba9vlRgYdWsuJ6NwlddAJ3Cn669vpXKR+yKBBa29nH7YjbcGdsnuX+hsZ+Lce6PTDdqQZuFPsbXiDIQPz1nJjtLNLnTYFV3GFW1PAcSMD79ZeCLFubIxyDFvXDBm8vFvLjVF3LsLIwJWtdmuiyeqQgW/rl42RmT+nrsjAnfI3rgTmq0MGpq2HIKzMWOSuW60Z3LlSM2Rg2PpH9x+2cwx3D8TAdHXIwK318GAPHrZzBndnxEHNoyVYtR6CsDBL3bQNd3vEQ82QgU3rH/IijDR11SXcFdj8TsnrkIFH67GX4/vgkbosZMKVrcZs+D9vZGDQunoRBnVdIgl3a8RH4LY6ZFC89QiE8HqCesAPd37i5PXREiq3Huvxw3aO4S7K6BB/HjKYEEZUbe3YGPXEKt5xTMy83sigZOsJeRFGgNrOypZCoVKCmgjE4S7J7mq81yHDT+Vaj3fuYTvnUwcLEROwY4ublxY1cgQN3p29GTKo1Vo+6nJxn9osfVWA1PwFYhbvCHK7svjJVgrPRhVqPQEhdhugNjOCqGMf0vvSMW1esetuZFCk9UDHHrZj5Uy8ET2l9y3jHZFH4ugfe3falrwRRgHY7vsyhxkCaCCYsO+yg+ygYEFA1P7/f1KZGmwwBBISDW3vD22v9u16+g4hc+YZzUQGe7P+zsry7dxlO2XomZDd7iXs4D2ZF6UGRQY7s8Y3FjtGhYpAbPdHCHq6xMASu7jlFLZZgmYig11Zcz9aqYhWr4gDJtCVJwY62EU52Qk8VzVJLTLYmzV+NF0R9TrTMRL60BUmRrrYJeDanrjliQzWs04EsWbir6Q/CMPZE7b408LCzzVP7o3KhvDQVycy2JN17cbLVwoTFVEnL9vxQFfcZ6V1xqXd3ig1XWSwnjXxTfHi50M6Rs5ftnMNXT1i7CqAnbIn+jDOPbXNFhm+McqaPIkHffP65iMu2+labBQ9MOzUPuWwzU5k+BGGWZMsXhxYEXX4sp2U1dPUeew2PN3PbLNFhm+xJ+vV3qy//aDLdqKy1e/JmTl267llAJbTExl+xr6sw3hxwPKdcvyynTvF8pbVvYjdEn+Qk3ZokYE/UUlGWZfxYn9F1OCyHae/cl2S/R4k7BaskJOmmchg3AabDo2y9uLFnoqolH4izruBvoOSGjPsxtqnuMNpciIDX8Ku2gZZ34QMslY7RkXyESj0DcghqjDSL5LT9ue+IsMXAKQZ0c1aKIdQUx9hjSqi8sJHPsQtjplqJORhhOVdf3hzj+e54UQGvMgS3azvm8D8T9KSsLa7YyRl74gh59fwPDmIkIWhQuykv2oT4luoRYZv9b9asz/1sr7LhcCyGZLpg+HFzopockY+zLl0XNlbmMBYc0ZO25NaZNBvCvXI+6wvqgqQeCQkuoTS1vtzf/mMy3augtBV8B0a9ojBWPdktzm1RQb9R6vRdtZ34WkIkNfH7KJpsMEKL3SX79DkjnwkXwG62A051CoEY9KQnvZKfj7Xz1p9EdFGZHX5knNjURtGFKyTXj+oZJZAlZTwQm8MXfOWfLAk9IXJwZ5F7MG87hkubpoQK2B31mOeNSApisKwpiwbfFG8T4HVyLusvzAYhOGwrA3Hqf+MYK/+4kRfm9ImYJB1mhASTgYZ1lhwPrm8I2vCIojQQtjO+ktwSvWKfLyxHYc4onmGvYLt59Pb2b7LS6F83CBr5Yk/9vzx0Gg06hcZ8qrTBAp1QrRZ/2bUMXLeDDuYW3UbIg4QqJ7WJ7ewiqPZIgGDrNHLkHdaSwbWviNbWX9hOAjDeVEF+rrElKclwwFYIFc/mXenswgKg4uMcdZoXhCNTKwnAalnQrRZf+ncZTu++0t/tVq9rnSilo5TSzdmW7cyDiN3BxcnsJqft6XQpJISU1GjrPsMofxM/dcR7lfd4Pr3xnxEm7VaEe1eEJtFL9MyVGJ6ZuEDGznz/3EYDhVID25dXWjwjUX0Gt34qBP4wyjrXFUGmNhs53L5dIQ/oylddSt6k/Xv36iDMAS7kx7HobF+XbfLjQR9yhMxa5bE4ZiSnFTonTs/wOspBAbXYrtOacI4a08sW2BQMbFb0ramS9gI2j8I4yKCd7qC6W/YyBPTfKUAzFES09zi8Y+MzzhzwefjP+Jj3KRZqFpKJMOU7s/a47lcTLrNSCTpTefGf5ItJcC5QRi3It5jj2SXEnYIUWJeZizDAiamvMNJeVHxPNPb+1d/0NlDbOCvZbvNhKyIgV7u0Uccx4vD08a04G/RQ7LW2s4zmge4+TOx3VUCeqq7/4Sd4UR8xIKrcgHHYSq8E3B6t4AfCEiUqmK2SDmrWWvH1IuOXLZThq6JlcZBmViSGQfgmLaPOIf3E5TrQaDXoPT4rG+GakfniTihb7os+KRgh1CHWONrJBkcMiLOiV4rbNjoBcaUHp91dBR0dpP6JmT+BsScAyfxBJoV4Qg5QxwieALoVybypEhtyPqh7/RlOx7oko3+fudB7NLzEcvuVs785P6DOONiyYLlRcHrofT4rC+Wzl+2U7NyPsuPndICOcLFqI/jGS9R9p2/ZulwMjGg9PisM9cKuCYlzlmafDTjonPslBPIMYTb65SEIzl/SasQLiASy8q5GTWXdU0va0/gQzpGAejyE0MzySBsciThftyzMe4Fsd8fXoh+f3z5QKnJrK/fZ33v/ZjLdgQJuhrWln5uIpCjZR5yc3vy7grEblcTiWXDkVSJcvpZf3Ng1uqlIsx7S5z1ZHE32pfEbukosYHw5MlFgjgOS2eIzXylOJLhdLw2o8dnfVkOfFjH6Bb66mSPCxG7Nc+JTa46i/YRn99x+ydB0STkRVkcPlJ6fNb+FDilliGOmxllbf0kXqFDbBS9jdWWqSBMYpFBhtjsPMtC+XB/XqH0+KwrS+kjL9upW79Ryc+wmzIWiL2EzJ/PpVq2mRAVCcaYIgaa+dKfArGZbyCzZmMYH3Xo8VlfTkRwAY9APkId1s/Y5mFk+kSc4bu7oOvtrGq23e16vd5mKpXqeb3T7jCbr/oHscfbi3MfcUIxgvhgJKafKT0+63IfXPA6Sj5G/Yhzl742jIgld9YKrHpqs1Cu0ueb1EdnXZq+Lt82d4ysTBSskgP4lnsa/RfkX8M3Fpk33C2UO/T4rBv54CdctvMH9C3JIXxpGApVT/2Qreo5hcCqtu4YaXTCsZn5rEcJcKLfRz7QOfQVhMPCzsKYPHZ1I/BAfw6ZUlsFmg2q0RokGCtUTGZd6rHPuWxHCEGX9Cc5iFBjMJZYnXra0XKQLRvTgL9DNR74Zy7iz2ayrmWDBoMwnJWCvoptxy5R8J/0Sv6QQL9UFfNFqlGcKABXNZN10GAQhtPS0JcmhyoWsI+YO9mntPUm9fWg0PNQjdY4AFXSTNaclD0nn8APfcEoOdRTD3tJ08tTXMrVjtGiRbVGDBsBs1knO+RTFHH8gWrftYT95PzsxL5wC40AUrGJOJnRbVVsxMu6WX+xawxdfCWQz5EJQl9PIIcrJg48iNc5oZ/d914mlseF6cP28j34R9ahdl3/Ofy7HVNE83fk00yhj90SE67yDAcpZBun8aSWqSq6HaMHL6u9Zc3foh2StWYQxmdZYYchMWWWOnz/qfro9psfhFgckXBWrHaoRjEfAjZZ86MenfH+rL9zx0ivpxD0SS1iStQv4mBKKluiGdd+ftMmk/3+eHdr+e74A8AmayVfp7RVSgX2Zf0jOCn36SvaFDv0LOwOwIzgPF32/OG+T/DXjlG/RLUumwxvWTcvX37XY1eCcdabMXTTe/LpPNglTMy6XTKYxeLNdHXQmF08Xfl0dq3P/7x9qIxrtXH4gw5gCysRzXBarnWoRj0rAZus+VGPWTUIGGetLt+BhhsWMV8AO8TPiVnCzMtgDQsF5UI/kvQu/zZNRvqBuBhimx8gZ++J4zpJxBej+HbHqFMuAG9Ze4rr1+F9wDjrzRi6a5cMAhnb2sEUilMGp4SuibPuspI0iaXed4zyeFN7fR3OsCfrn18v2+m65rVhJo5dxtY2StsKnFIjzuGTY3vhbvy6RbcNsRGIqa/D92T9C7jEgxuW770/sUNFYsnTqABnSA4u48U5CoNruf1MNWY1zz+yVvhJvVgC2Js11pSRqx4+o33sEre6+kQ9UwlOKBNHqB0jPghDo5Ri4U3WzOvZfkcKr1HW8xviLo/YKXFOrHryzxlsVyWOiPqDbNpYvusYPSwZ3rLuD1p0K2teKtXN+meAgbVd9tpI6GKn1N1RB/H6DPYaEAcI647RehBGnWrMciKwyTqYK2r2PtTX4UZZA+LYXcPZnmTsNOdhW4+7nGSwT/Cc2O/mtWN0SbViCWCTNVs+vtvn4gt+fXfWAAsBqWcXPZwR0jDIo/8nOYpwXkkXmHtPXa43qbthb2DcolphEW9Zp1Yt+qa6eR1enKR0s/6eZ43gIsLAhm761Da8daVAbTims+jKDMdiE4HYTPAk1oMweMdIqxjAW9aN2fb+dWi94LcWCUQMs/Z4anEgWHbR03g0gt2UGLGBcF/JR0I4QtD+bf6LJYKjAR+EsS2Nt6y3VdFbL/iXPQak92TtCacVd33Lvokb/nyKElsIGVqaNOOSpaTzT8RmVzVFGoabCd4x2hIOARxLPtNt4/WCX88reDE2znpt0GRuentGZkEYSF4Q+/ieipVqei5KDAdicrdyR2yldozyYq5IdSw3HaMO1dPyB7Am1vdkzV0HXPRWnBBPCAaUhQMDCu7rFX81PU3248EQtjFFDsyby3ZtHCveEPvdeiGWF/HpA9XzrGCNfyrraTQ39w7tyPo3NWuu0VaAwKVbFvKYBCO9e+IUwRfNZJ4u/mi9mLVe0IuLq0w06uD82KtcSGrHkvzxWs81XjB+1OPxfdz1dgjgpDDVCqhZ//CWNbdqMmDqloV8wGBEqbnoYfI4QqWw7hjJ1RndYbrpGNXksEGPtEu1PPKVXtZcOQFIOZcs5OEQDBUq7noHdMwgDL9f7j7SXVpxKPxrWKn/7jm89Y+s5e197l6e7MqaH9D8/NaZ6iEIY3OPO/5Bj3GXD4Wysfm8RHcrSt5L/jpcwlbW9ezoLevQgmqEk82MbtaqkpcBvVviBp049ki65vnCGmElI9lIy9czaqC4WC/fVRHQZt0qx/HWGVZG2j+pLV5HiUfRzVrl7wNs4orbx54i2Ke/cslHjsVBGIVFWUzX6V6DBLCVdSwCbLJm2kf4zijevSH3U8Aga76Qi0B85YafMZkD2qDx6oUb/lHNO8/yy3YiMbqXZ8qwlfVzOgQ1a3WDcyMW6T8KmZoCw6y5ypIByRb5fMJKwV6SN3x6P7l9fvWyHbpPZxIEtFm3rmVgk3VQO4q0nhbLURIOQPXt2bf6WW8Gm7GsG7a2/5jjAMH2w2nF/by5bGe/R7wJ8b3OyhzYZF3TPsJ3ruX0E7ntQfXL2Zmatb7LnAyICxd8rYnWQjiEnA674iHjsE1qKVRd8Y6RqaxZMrZevoch/CPrmbamNJ/XydVk8yO+/vnMMGsu1pWAuRuudj/4eFaoWW654P/OQy/bKbeoqazVjtEQb2pbP7Qrj31CJQ7Vj2ecUdbcYs7A0i7Y2vaVgzgQC07LdVf//NZctmMma4Uv+J1/Zi0tNcv3rCpnz0krCRU/BGCcteqyGgdEvwt+qtwMGUydxhsX71zwj63jYn3ZzopftmMqa9YM8wfyxj+y7mteoLdWqUiR3OXflu8zlZq1ofAwBKTccLN7sQlzWLyX9Tdun1wVOe8YNXq8Y2Qma7VjpPyjMyzWOtqWaXzg8w1kvGI/npnImhskGVj3T/LpBM8c5jFJCSSH+dq40lhvET1xN5TWHxuVcS2fbibEYFCOZGN3xHnCZQIptWNkJmv+OpzPwNlkLQ01rYViTszfkWIEql/PuIOz5i5rBSDohhMDvkaKwSmi83s+91MWHPHLdsx53HSM3rLWvkBvLfpJur4JGdz7aTg/qlnvE24rQMINGw2CpwnHzM+Jk66qofUgjP6AWlHPhoBN1rL2lJfHW6gIvrEI1bdnW37al7V2a5st3bC1LcyGChzSE4hT+GU78zC/bMeCjr8AbLJOp7XLd17OXa1PEKi+P+MsZM1djgqAUnPFu6mb6wIcwWbEKbc9pl62YwG/9fEt6+LWJLve7dv3FL58W81a1cgqQCBM3MD30FWg4dpyP3c3kST1sh0LniVgV2f4svmSSbSs4NVXP5wdmTXHh9J63bG1Te5WzRDstiL2Uy/bacu1GbVmJkGl5GfaT3Gxllm/nFHx5fv4rF+HTYfc0lEif46bEuwk/UEc0GpCXpR5x8iqFDSncFUtf2F6v74JGRyfT2hL1txlPgjILukovbiLDWXYpkvsd5dlUj6WilToEa7BJRZbHaPEA8lch/Dqq9/ObMyad5Qkfquma0Rno2YQdgg8Ebvxy3bCw/h1hx5j1gQQnBS1TWF5lFm/nFF9ecbZlrXaUZLynz4K7Z+u6iPv0Xmn/iR2m2kv27FuVpu2HzTL9yje/ZPcTzXLt4HvrWStXuYkrlz1npmfxpskRVilVKPEZk9pdRCG7Srz1DO5qkrg+Ca1I1mrl7Ql3bC1vSVz4Rml52II5rBC7YbYLMov2+GDMEwrtntGfZXnoeyPCuECXrGfzjj7s+bGruko6fDddGLl7DIlMuwViifTC+ojNlMv28nWqXkdL1hj9x+t6XSMnMta7SgFXTZ+Y4vgu7mtNwbl62o7PZ02k6+m02E6VxuNK4+z+ztBIPbjl+1US3wQhgUrIDCjO5T4JvVEs3w7mTUXG0pApE7+ty06CrJlmF+2Y1qLf8UKrqi+x2584RNWmo6R01lz4wjAhk/kfxrrjlElxztGpo36ZUrrNd31QO0YdbQdI+ez5i5dN37j8/HLdvggDAtGDGmqj8+XTXbIeVa7Se181qpwOgT03dBRcofM35ftJMYtasEsALZa/zo/LdJtD9P4ineMTC7f3HfHZ807SgDc0FFyg0YA/VhenBSpJXWR5VuUtpbvR+DMJuLkanfHyPmsuUs+fmPklh2RT3TrZeogDNNiqWSH0lJsvR6UgMKM6mxSpzWb1M5mbdxRIv9trx2jxMDK8v0gQyy+bXUoC/qGd4zCgs8v4tVX3559StbcqsfccYnEpxEqr5ftzKgVeWBIX5Qjfkqfc2Ftx0isZsijZpP607LmHaUAEKr+ZxdyzWU75rTqfFZdZP0rP0P6/Tgr7z25GWp2ORzK2mRHyTVb2x/pKh9i2Zi1jlHdKw5efllarwedBNhge5xVoCFER0FwvGP0+Vl7PJWee8ZvfCTfSkZSvWzHNC9Q3uQeRLul3aQWa1HBo9mkdkXWnstyAghNXLW17bxZEvFxWR5a6xh5JMTXq3cj0uxQuhi0tPf1dC/IxfK45Zv7wuas1TlK8RL579BctmNS8SXdS0lcr/yPcYjFd03hhEeIXiuajpFF39icNVeZSvxS5f8G32IzCMO01kTqrUu/POLJu0F0z2mxzDepVS+b1C7Lmo/fgJR39RFou9Qj60EYsrWOkZ+hyX9jHXYaqeetOUbDG/KHl/1jk9qFWfOOEuTBv/6J/DzNpGqpb7VjlATG66S7conS53FRO8co9UwyubeK6M9n7sx6PX4jBMyL5N8sWn69bIeaV19vgvWU3Ou46DLVehxqBmHw5du1WXs84zmD1P73bm0Lj30ESlXZUsdoFZdewi7yRfshBPl5q2MUbz8R2mT/2KR2ddYn0VE6pmPEB2F069SCugz2wPeu1s/hLDjQ6Rjl3zpGv5+5PWt1/MYz+ffJjBS2bHj7jxlqRRmYrp/Dq4p3fXqjvj0IQ/CtZLz66sczW3yNF8qlxzHuuyLIvst2cnI5KtxTk2all2QHynSd75ghuf2Hc3LeqGNkHbiU3+OcWhxQ/l0dJX7ZzqKw/l/43PTqPUebquenm4B/e75sskXOs2yzfJ/ZZnP4r+JxTMNtVwQdKVNbb1I35+v6rI+aNQT+Yu/MFhJHwig8PbZtL9PdUz8VK6DsqyD7IpsgILKooCD6/m8yk4IGKmBIhIIE8t3M3dyc8YzmP3VOB0tiDyStnQk8j+WBFmEwR+qNcQIT7AmORk57lJ73w8iJm47thMaNb2+aHdwxru7PJZ0WqYmJzRh5O7Ieo83yGSZcZC380FH9xnrc18CebYcmz12iWAuZDMZVf59Ok4dAGGAWmjEaMRmjTfP9aGrkGQs33BWHniaCPkhXGttxh/2PiELusXquY4IDY1yln82zCzPVnpotSAJWBxf7nvELJjhiRQs3hiWjZ5TGYzuVUENEY86wBobCeHG+Gkxj3HaV2B6jmP0qhV6YHiNOHMMEW9PCDVq/4boy7Gn7OgzettU7O+mQFtZABYQsxrgQhor0D3kRxjl6uwHmSM2LL1MjLzUs3CjGdDQRpHlsx+WMBf3zdRJ3WCXFfEF6utO8Hi+gdjCLu3RhIdGyQo8RLyP3VTZp5DqeCNICaXih5L5M5giaElDt3j5o4gmPdrAPsCxjVI6ilRkjTkaeLHss3MhK9Rv6mAjSVISRfGra4ymmWhSr4zEJQob+/AYxrvbrOdmRmhZhrHxJzc3IwxyNnJ62QxkDXURGFTq2I6t1S2GVuAEeqlLuxDX5PZw9Ur+QVH5q359//7UtvsIE56Xbwo2cVOcS1lGPkiJim2aMkkwUWuUvZoV4Q0oEx+g4ogBJTGHHdkiRyRhtkU8wwXulysj3sH5jSRFG2b7wHWikRuo69Od/D2/iFWM7W+bb1Mj9T5b10f1EkDJ3l1IRRn3xs4Co5sc6Nnm1M8imMS4n89dsj1H/FXXjzNgOV5SN/IajkdOJIL++M0oiHdt5tslq01V/CO+DdyCp6oAmXsgY2Z9EkuFm39qN3B7netoGfUwEvQMZXEA9c+VdNocQxWoo31hmr+fZXjq7fGxnZ/w+ggmRtmUtjDER9O7YTsO2vELgHqunCFCrYtnYziPqxpxMxmh3/D2bfwpauEEzSnU9ZpQmRRjvVIN0sTrS+Yz0VfRyMWNEmCKMXfNzauSdooUb9LR9q7f6DWKRjtQdrzWAlkFaqjMofennmLFvOrbz2J87UuuA39PTdp3jadtTDulkImhhbEf2u4T2D+GJhVc7108XJYxG82M7OuEHTBAeOGaUaI/ShQfphXERRimSRizaP4T3wW6RF2HIM0b6YWrkjgTn07bwrI/TNgkmwR+MhRT+9u9hlVw9FGVFGPEUYsZ2dMU/R1vJKJVtOskotWogje1UzhR+7rFW2B4j3dn3MiOvccwo0fqNZJGgnZLquKQiDMWqbNLCH6FYk4owsvNFGHrk5+y07bbwgk4ECbV7xB/lsZ3LpPLz0hH+AIWYNx8lL/W5I7VO+efzVjJKWZs0EZRCOwKHwf6UpRkjBcTWB+w7uzC2o2O+wx+4ZpQS0mk7txMjP4sJzkQwsjIz84Y14w7XLbKxHX1zsp3T9o4mgsSGXRrbsa3MwkWxVl4r3maAeGz6t+8Z/06NPJm3qMYYE0FpOrbDZIzW+nuLLcKgGSND2PcyIw8/WfhBJ4IaItoad3Rsp37aQzPuibYP4dUhXkZuXIQxe0mtd/teEjZ13nK8iOSet9mjFLDSsZ2LIpkPCIcCmv7eyvT7eJEXOrYTnB/bMRJTIw/xzii5Yl3EHZoxSmbyTMaINLzOJtHwIfz1xgV9NWM7BmMaNoU+19P2duo33m4EXz5je35j/uf93uEt8M4ChwMA+irGdozHzMhvOBp5UDpt9wuIB+zYzml9/m04ybqgT9BSzvES3HVqc9YlYztiJqSjI/Warwa8cYsMI2WULBdwkbuyZwPzAeF4omz3a/kQHgcAp6wLqXqln4zR5oy8zr1+wxpAXOg9gzS2w3S5vNaFLAl4/SjQTCOG5S9w0/EmjoNQ8iyM7WB0FtPzleNDYVMX99N2/YWgjRPN+4Rbdy3ySpi/vaT/aUhaY+to1YdwGjyAPI7b2lX52E5GFJ+8ujxSr2Pk/Os3AISNTwSR4iRjJDIlhPb2iIy1FlNIjohlWE4FgDz2pOVjO7QIQ18Zo3X5tpXTtoeetstRtEHua9LYTpLtVLTCzbnVFpW0vlHxITyd8AGAkJUfqS90f6Re18j51m/4AGgefzOk4j7XpTvMzIB2r0kWKhFXJ1VFYk5U8SE8TP8jf7pmf9THRRj6zBity6et1G9kNli/QYIh6Ltj3vmMkVTG/poFKOFBPabmQ7gH4zqAI/6I5WM7es4YrW/kyqdtvU0Ejcd2vLEu8z9vZwhyWbi6fxbeez7aZYIHzmtcdz0P8DxVq006Ut8a40i95qsBoTa0LKCviaBUwumKuf3hKhsQLuGGpHXY4R2KysEjqmkS4Bo/D6+Xje3oPWO0Lp8MUr9BhrQII5QhaEbGKRVjZCStFU6pd3PBAwBJa3nGyF6OEsuFkY7Uaz3/4l+/sdZEUJWO7YTm/wXE/RaHKkJU61ILrUyEpytOAHDRhD8ztvMsje3ss30vM/IwTyNPOD6cUepWXK5OLsIIGrgCHIfWWOszgiiKH8Jz9D1jRp4xuhiQaN5nmIzRuvzkmlFiJ4KuPzq2YwsyR+rO5R+tg4q/96UmQjclrb3l62VjO7t/Sc0J5edfoTxHI6cTQVrrNwp9SDbK3vkePXEY8mWmWitaBbmnmt46L3HOJRvsqZalsZ3WqWDYI/WarwbAz7NHKa51ImhEx3YuTu+ZEkLh4RxNtVbkjAYP7ACXeBDEDLl+5BWl5sZ2jHikXtPIXTwzSrR+o59WnTHyCbQIA80gCQE6CFGtfeer/J8GD+B/KkvHdoIhg2aMNvZqwBvnmVHqg8qJIPISgYvhlbc8nzESo8kaNMdae87R6kT4lQsAnJUCe+WYjO3sw5F6XSPvc+9RaosqMkbO8tD2PC9oumY7G7nHWl+M0Cqi4xJRCLvlGaN+GqUSLp0UYeyGk6ml8a/fKKwc27kp1uoDNiAM0EJjrdMBtJIe1ZrurSmM7QhGzRht7NWAvbOjiSB2bIcJCDusz8KIaq2KLu2hi8nsOy59Ua+G9+tIvcarAe4TQR4po+TIiu8VYYCv2WCLMF4jwuVb25ckyA1ZpAbSotpihkY9XEVnsZl9/3XQnGypfsMHQGOgclJ5p3BbLMmCqBEovPZdPnhDA5VVW3eYIivCyBDxybGXR+qP8Xl7E0E35++M7bQD81sdcRSBW1e4WoFzpJIAlpPu2DspVNizjNFmjJx//UYSwFkOLBRhtEPMH2XRJPRJBKQjV6yfQio5X1qEMdrDjNG6/NpO/UbFx0wEpTp0bIcpwrg/dSezbRIBKaPQEpFKzvDC2I6bBLKmfS/jeDsTQVL9xuSZJckwYzsUcegULG4/kAgQpIEUZiiMx3bq+5oxWpcvsJX6jWlGCTNjOxTSuOlEXpDTFUPatO4auAiDP8pGXuKaUZJO25mEy5kI9tlihit4kFy79vRATjNINeRuoQiDRJu+Pc8Yrcvx9jJKEH65ZMIMqXzPkaBnkoSzggJINdF7dmznUDJGG3n+xb9+owlQDoQr8xmjXMhx7b6tIeIuOP0ajt7im3xsx4hFGLvhK2xhIigogOepJjIB4YfevUOI9WqCeyiqt++zFju2U6djOwYswtgNx7P6DU4ZJap1aTC/lGcrts7SSetTR7g902zfbMbIdkgZo/VfDXCeCKJa+zGakPP6yndxV+us6ag1Chrs+1xfYzvG5G9gJoI4ax1x4FzSkRV7QsiNVENG8s6bAkl1nIYuwtgNx8xEEGetfX6gF89CCqkmxdr3jb0tklzItO91jJxOBHHWGiIFpI0AY9+Pe1SEsRv+Zk7bPLW2p5AmyEg2thN+RN2EeaTeyPMv13OOp9beANJCqsVmjLxDUV9jO4Zk9vzL0SnqROtAj+28sSf2rwiDP8pGXrfy0vqy8NFv39dP9bA+x3aMydTIhdMcH60JUk23xWaMQszYjmAeqTf0aoBOBHHQWot9G2lsx5j8EGYZJQ8frbXbd9t22kJ3t2bGaNP8ZDJKO9GatW9PyeZG+h/bMSTUyJnT9na1jvZkGaN8lAwMMLZjTGZGbmt6eGutfKS2Jp/NjBFfTuAPpSF/rdkjNVuEYSHR8uEUYeyEfz8z9Ru8tFbOGF1KYztFQ43tGJPvwPQocdRaOWNk2jdvWCP3N7hrTe2bHdt5Qakr80i9Aj1llBit1R+p6diO26hjO4ZkZuShKw5aK2SM7syM0db5BcxEEBetyUhehGH8sR1jMpdRCvLQWn6klsZ2yDAEE47MI/UW+QJMRmnDWgdY+45LGSNsZox2xlcmo7RJrcloWRGGYGaMdsgxMxG0Ma27rH0/JIdEbOzT2I4h+XLE1G9sROtAb//HdozJV6Z+Y32t5Rkj256O7RiTT8xEkGatlTNGySAR93Rsx5B8O2LqN9bQOtA7pLEdYzILm9qyng9rLd7JxnZO931sx5jMwqalzAe17rZkYzueAxjbMSSzVwO+ivsDWkd7C0UYaGAWYeiUOSMve7RpLT9SZ5M356h3IGM7xuQTU7+hWuvFjFH9sMZ2DMlvJqO0UmuFIoyiWYShe34AMxGkQmvxfHFs5/7gxnaMyezVgL+xUuvFjBEd2/Ed4NiOIfnnMzMRpKh16l42tmMVSdAswjAQPwSliaCZ1uL5srEdwTxSG4qfKzJKVGuLLGPkN8d2DMnMyIWb3Dta5xbHduyHPrZjTH4wGSVlrdNxb+wMPZoZI8NywtRvKGjdqIexObZjbP79zE4EybWeHqlzRHwyj9QG5/tcRqm4VOt0wiuN7fTNjJHxOWEzSnKt22bGaJ84Zuo3GK3HRRhWc61hb/jOZJSmWofjMXs+RV7MjNFe8Us2EUS1HvgvpSIMc61h3zhmJoKo1oigaNm07z3ky1xGqTjW2hzb2Vu+ztVvSFr3HsyX1PvLzMj7ApSc5tjOPvPtCKaYR+p954+Rm/Z9CNCwqVmEcRh8OzLt+3D42zxSHxCfzIzR4fDbzBj9N9wAACgftkqMj5RyAAAAAElFTkSuQmCC;" vertex="1" parent="1">
          <mxGeometry x="1270" y="1440" width="59.39" height="60" as="geometry" />
        </mxCell>
        <mxCell id="WDrWdavG5AmVl67FFVOp-174" value="AP4" style="shape=image;verticalLabelPosition=bottom;labelBackgroundColor=#ffffff;verticalAlign=top;aspect=fixed;imageAspect=0;image=data:image/png,iVBORw0KGgoAAAANSUhEUgAAAesAAAHwCAMAAACxPLfLAAABCFBMVEUAAAAzP0kyP0ozP0kzP0kyP0kzP0kzP0kzP0kzP0kzP0kzP0kzP0kzP0kzP0kzP0kzP0ns7vAzP0musrbCxcg0QEpianLo6uzm6OqUmZ9JU1zX2t3N0NM/SlM8R1E4RE02QkyorLGssbVBTFU6RU9VX2fj5eelqq5ETldLVV5ZYmpRWmNxeH/g4uR3foWBiI57golGUFrd3+K7v8OhpaqQlpyjqK2EipGHjZS5vMCqrrNcZW2KkJbBxMh0e4LAw8ZqcnlfaHBOWGGcoaZtdXyNk5nS1djFyMyXnKF+hYva3N/Hy89kbXS9wcTKzdBTXGWZnqRnb3extbmeo6i0t7zU19q2ur7P0tVeW9MsAAAAEXRSTlMA6MX69O6n28yasbqJ4tSTg2RrWLgAAC+PSURBVHja7NddSsNAFMXxqU0/hFI7ZyhRqxRRHxQskr5oFUQfohU0mIe6/504iZRksoQz57eFP/deronOcJogGQ2NkJsMsJccGSHWQ1vPCKtZHx0abVIz1JbF6n51vUTt0Aij/9LbX1vJH65QMUIogff2bvfOCnh9I3QO4BWftpHdwhsbYQPvMrdti1NtcUZjAPONDe3mAKZGuMB7TW3HjwabzwTeR2Y71nM92XTGAM437uvOBtIbACMjTAYAnpxz5cIGtnq76MBbuUoY+0IHmw68Z1cpgzX+otZ04J242mNqG7la02m1drltLNSaTrv1LlVrZk1rL1NrZkHrb7VmFrReqzWzoHWp1syC1i5Va2Jh62O1JqbW8VDreKh1PNQ6HmodD7WOxx97dCAAAAAAIMjfepBLIdcfrj9cf7j+cP3h+sP1h+sP1x+uP1x/uP5w/eH6w/WH6w/XH64/XH+4/nD94frD9YfrD9cfrj9cf7j+cP3h+sP1R+zRsQ3AIADAsEosHaoO/H8snMCKYr9g1x2uO1x3uO5w3eG6w3WH6w7XHa47XHe47nDd4brDdYfrDtcdrjtcd7jucN3husN1h+sO1x2uO1x3uO5w3eG6w3WH6w7XHa47XHe47nDd4brDdYfrDtcdrjtcd7jucN3husN1h+sO1x2uO1x3uO5w3eG6w3WH6w7XHa47XHe47nB95PvH3Mb7XMz1Yu/O1tIIoigKg+IQjUnObptGEGgFESWI4hQVB3AElTj7/m8SLC2ksQWDDHUK/5tcJ+tLgbCt/oBhH6p8Pz1cfbVuzguHCQ9TX62bGkQdn4enhq19vzxfnlOH9zbubm6P4pxjN2wNsH4v0r7U8eM0CaWMjYohD0dNWsPr6W8jqAieUtVdGBUDHoYatI7iyQ9PP/uOiuQJ1diPcH0r06D11hKe9PVrtg9AdJUctrm+GW/Q+pGuTLavTe3xCxWbVOeI6X/shq1pienfql0mAIRLVKdss3zFHmjc+jEKYNjTt1Bxvf8m9jWAQQ8zA2jc2ioAGPf0LVSsG8ZkgBzmGR53w2jSmhZZnlbt/PeJbhuG8ZCgWvc2gO8eVtC0daqv/1+PAigYT+4CVCMQZPfS5kPFkd2gdSgOYMzTryYA7BjCpUUSx+NuHBX+ULRB6w30dWsvAL/x7IRq+Lm1RkXyPuva2lp/am39/WotW99ZjFsPo2KDXFs/5oG5NN3iq7VsbZwwbj0EoBBwa50+jsDcS9NjGMGv1saLS8atUTFFb1unr1aA5CxRdg7JebfWXo4fBrfeWrJYtzbP61sHTothIF7MEmV3EH1Yfdt6gO13ep9snWXb+heAeFq0XjeE2bU/xYIJRJcfiSibh3lIb1p/G4Qw+M2jP2fre7atvz+1TojWkdROPr+TCpuoKKyLv1O5AHuK3rT2QuC7zfhE60fWrc0yUTpoQoov5iYtqrAOI4iuUX3rUUj9MWNwtp5m3Ro5Igqcbmwu7e0t/dmofqFTvgCSqyRb1x3fC8ZaDMIgr88J+7t1/JzeOlm2YR6FqK71EIT48dPBn4nyns/2YWus7JOTtbsXB4KzFjlbj0Iwjx5JKPtNCCMefenUOh8Xb7qrrMlcygRiU2kiR+vhQQiFO5Ks2SAqtP4eTKfWy2crgDmXWbvZ2jJuN/0RVKQOEyTI1uPy+I5MBahG4jgCYZDvrzj1R+tvT62Nmb0YatgLmV2LyNl6EIL9+4TqPP42tV6R69XaMGZyB6mwDdix1EWxbJHTKqS/W+RiKwWNf0FEt9bCbMXTn1QnncGz2JVFrqyrGCrY7TT6t7VU19FYgGAvhehdoeWorh+k9U/r6Ws8W7ykhiZ3NP0grV9ap/9EISRvLWrCmgkCGu4a+qO1tR2EYC+X6APSf+IQfMymtF+tz/14tnNKHzR9wP2KCb1bF91bZzejEFZmLPow6y4FQKshg06tM26trfkVCNHNLP2XxFRYryGD7q1Pd/DMf07/LbRn6vTzl96tS0UbgvimqwX7ixr9/KVz69m1JIRoLk0tCqwltRkyaNx6vQDBPJimVsm3dlpcmaVt6zW/DaFwY9HnnF/oMWTQtPX2UuR1Y/RplhGEYLIeMujZ+li2OTqhlmk3ZNCl9XBN69u8CSH1YFG7nPy2uQ8Z9Gu9vRR3bIzaZusv8yGDdq1zKxDMvRC1TM8hg2atD3dMCHOr1DJdhwxatd7+HYcQPgxQZ5wyHjLo1NqfdHxJ3RqNhww6tX6xuEst03rIoF3r5JpFrdJ8yKBLay+EaDFL3cByyKBH6zETT8z8KXVJ4ozfkEGH1t99EFbmLeqe+yVuQwYNWk9AiG+mqWV9MWRg33ocgnlRpq4LbMghA4ufv5i3/jkIIWhY1H3MbmTg3doLIZJLUK+U+QwZOLcecGyMesUyFpjcyMC3tTy+CzfUY4l1HkMGtq3l8T2VoN7jMWRg2loe379PSA2rDIYMLFvLa+hSq6QM6zAGwVR2yMCxtRdC+CxAKimpPmTg11peQ7cUItVM5pX+II1b62GzehGGimZUvhGPWeshCLFDtY7vV+mcukMGVq1/QDCXS6Su6QNT0SEDo9bDZvUiDLU9KDpk4NN6CEJyQ9XjW/kbGbi0HoFgZ7LEQUjFIQOP1nJj5C8TF/vqDck5tP7lgxDctogP9YYMDFqPQIj+SRMvqt3IoHzr8Zfj+3qa+ClfqPTzl+Kt5UR0weB0fDuGDOrcyKB26wkIkWMVvqRmfyODyq3lRPRIlS+pW3OiyqMl1G390ycftsPz+K6xNafEkEHZ1vJL6in1PyZrLnCowo0MirYegGArszH6rFKx90MGJVvLjdHfLdJH729kULG1PL6v2L9Qq3Ujg3qtRyHYCm6MmN/IoFpreXzP7ZKO/u9GBr1bD8mLMPQ6vtUYMijVehRCVOmNEd8bGRRqLZ9UvDNJevvwkEHb1kMQgvPUdtnJ+fVMMTM1U1bkg5ndj/38pWnrH46H7bRT6SofxgszuKnGhzOBjZUPDBm0bD2GZ+3fGJWKETjEr0gJHxky6Nja53jYTjvdxFDPVCQ2la+bDRn0az0CIZ5LU7tt2HgrrMq7/KZDBt1aj6FzG6PJKNzckSqa3MigV+tfPsfDdtosD1cGqaPhjQxatZbH93qCOuDehBtTrZXi6vtDBo1ad3pjNANXQUV+yJasd4cM2rT+7uv0l9RFuDoi1bw3ZNCltZyIniWoUxbhap3Uc+p6I4MerQccD9vpjEQYrnp+H5oba9vlRgYdWsuJ6NwlddAJ3Cn669vpXKR+yKBBa29nH7YjbcGdsnuX+hsZ+Lce6PTDdqQZuFPsbXiDIQPz1nJjtLNLnTYFV3GFW1PAcSMD79ZeCLFubIxyDFvXDBm8vFvLjVF3LsLIwJWtdmuiyeqQgW/rl42RmT+nrsjAnfI3rgTmq0MGpq2HIKzMWOSuW60Z3LlSM2Rg2PpH9x+2cwx3D8TAdHXIwK318GAPHrZzBndnxEHNoyVYtR6CsDBL3bQNd3vEQ82QgU3rH/IijDR11SXcFdj8TsnrkIFH67GX4/vgkbosZMKVrcZs+D9vZGDQunoRBnVdIgl3a8RH4LY6ZFC89QiE8HqCesAPd37i5PXREiq3Huvxw3aO4S7K6BB/HjKYEEZUbe3YGPXEKt5xTMy83sigZOsJeRFGgNrOypZCoVKCmgjE4S7J7mq81yHDT+Vaj3fuYTvnUwcLEROwY4ublxY1cgQN3p29GTKo1Vo+6nJxn9osfVWA1PwFYhbvCHK7svjJVgrPRhVqPQEhdhugNjOCqGMf0vvSMW1esetuZFCk9UDHHrZj5Uy8ET2l9y3jHZFH4ugfe3falrwRRgHY7vsyhxkCaCCYsO+yg+ygYEFA1P7/f1KZGmwwBBISDW3vD22v9u16+g4hc+YZzUQGe7P+zsry7dxlO2XomZDd7iXs4D2ZF6UGRQY7s8Y3FjtGhYpAbPdHCHq6xMASu7jlFLZZgmYig11Zcz9aqYhWr4gDJtCVJwY62EU52Qk8VzVJLTLYmzV+NF0R9TrTMRL60BUmRrrYJeDanrjliQzWs04EsWbir6Q/CMPZE7b408LCzzVP7o3KhvDQVycy2JN17cbLVwoTFVEnL9vxQFfcZ6V1xqXd3ig1XWSwnjXxTfHi50M6Rs5ftnMNXT1i7CqAnbIn+jDOPbXNFhm+McqaPIkHffP65iMu2+labBQ9MOzUPuWwzU5k+BGGWZMsXhxYEXX4sp2U1dPUeew2PN3PbLNFhm+xJ+vV3qy//aDLdqKy1e/JmTl267llAJbTExl+xr6sw3hxwPKdcvyynTvF8pbVvYjdEn+Qk3ZokYE/UUlGWZfxYn9F1OCyHae/cl2S/R4k7BaskJOmmchg3AabDo2y9uLFnoqolH4izruBvoOSGjPsxtqnuMNpciIDX8Ku2gZZ34QMslY7RkXyESj0DcghqjDSL5LT9ue+IsMXAKQZ0c1aKIdQUx9hjSqi8sJHPsQtjplqJORhhOVdf3hzj+e54UQGvMgS3azvm8D8T9KSsLa7YyRl74gh59fwPDmIkIWhQuykv2oT4luoRYZv9b9asz/1sr7LhcCyGZLpg+HFzopockY+zLl0XNlbmMBYc0ZO25NaZNBvCvXI+6wvqgqQeCQkuoTS1vtzf/mMy3augtBV8B0a9ojBWPdktzm1RQb9R6vRdtZ34WkIkNfH7KJpsMEKL3SX79DkjnwkXwG62A051CoEY9KQnvZKfj7Xz1p9EdFGZHX5knNjURtGFKyTXj+oZJZAlZTwQm8MXfOWfLAk9IXJwZ5F7MG87hkubpoQK2B31mOeNSApisKwpiwbfFG8T4HVyLusvzAYhOGwrA3Hqf+MYK/+4kRfm9ImYJB1mhASTgYZ1lhwPrm8I2vCIojQQtjO+ktwSvWKfLyxHYc4onmGvYLt59Pb2b7LS6F83CBr5Yk/9vzx0Gg06hcZ8qrTBAp1QrRZ/2bUMXLeDDuYW3UbIg4QqJ7WJ7ewiqPZIgGDrNHLkHdaSwbWviNbWX9hOAjDeVEF+rrElKclwwFYIFc/mXenswgKg4uMcdZoXhCNTKwnAalnQrRZf+ncZTu++0t/tVq9rnSilo5TSzdmW7cyDiN3BxcnsJqft6XQpJISU1GjrPsMofxM/dcR7lfd4Pr3xnxEm7VaEe1eEJtFL9MyVGJ6ZuEDGznz/3EYDhVID25dXWjwjUX0Gt34qBP4wyjrXFUGmNhs53L5dIQ/oylddSt6k/Xv36iDMAS7kx7HobF+XbfLjQR9yhMxa5bE4ZiSnFTonTs/wOspBAbXYrtOacI4a08sW2BQMbFb0ramS9gI2j8I4yKCd7qC6W/YyBPTfKUAzFES09zi8Y+MzzhzwefjP+Jj3KRZqFpKJMOU7s/a47lcTLrNSCTpTefGf5ItJcC5QRi3It5jj2SXEnYIUWJeZizDAiamvMNJeVHxPNPb+1d/0NlDbOCvZbvNhKyIgV7u0Uccx4vD08a04G/RQ7LW2s4zmge4+TOx3VUCeqq7/4Sd4UR8xIKrcgHHYSq8E3B6t4AfCEiUqmK2SDmrWWvH1IuOXLZThq6JlcZBmViSGQfgmLaPOIf3E5TrQaDXoPT4rG+GakfniTihb7os+KRgh1CHWONrJBkcMiLOiV4rbNjoBcaUHp91dBR0dpP6JmT+BsScAyfxBJoV4Qg5QxwieALoVybypEhtyPqh7/RlOx7oko3+fudB7NLzEcvuVs785P6DOONiyYLlRcHrofT4rC+Wzl+2U7NyPsuPndICOcLFqI/jGS9R9p2/ZulwMjGg9PisM9cKuCYlzlmafDTjonPslBPIMYTb65SEIzl/SasQLiASy8q5GTWXdU0va0/gQzpGAejyE0MzySBsciThftyzMe4Fsd8fXoh+f3z5QKnJrK/fZ33v/ZjLdgQJuhrWln5uIpCjZR5yc3vy7grEblcTiWXDkVSJcvpZf3Ng1uqlIsx7S5z1ZHE32pfEbukosYHw5MlFgjgOS2eIzXylOJLhdLw2o8dnfVkOfFjH6Bb66mSPCxG7Nc+JTa46i/YRn99x+ydB0STkRVkcPlJ6fNb+FDilliGOmxllbf0kXqFDbBS9jdWWqSBMYpFBhtjsPMtC+XB/XqH0+KwrS+kjL9upW79Ryc+wmzIWiL2EzJ/PpVq2mRAVCcaYIgaa+dKfArGZbyCzZmMYH3Xo8VlfTkRwAY9APkId1s/Y5mFk+kSc4bu7oOvtrGq23e16vd5mKpXqeb3T7jCbr/oHscfbi3MfcUIxgvhgJKafKT0+63IfXPA6Sj5G/Yhzl742jIgld9YKrHpqs1Cu0ueb1EdnXZq+Lt82d4ysTBSskgP4lnsa/RfkX8M3Fpk33C2UO/T4rBv54CdctvMH9C3JIXxpGApVT/2Qreo5hcCqtu4YaXTCsZn5rEcJcKLfRz7QOfQVhMPCzsKYPHZ1I/BAfw6ZUlsFmg2q0RokGCtUTGZd6rHPuWxHCEGX9Cc5iFBjMJZYnXra0XKQLRvTgL9DNR74Zy7iz2ayrmWDBoMwnJWCvoptxy5R8J/0Sv6QQL9UFfNFqlGcKABXNZN10GAQhtPS0JcmhyoWsI+YO9mntPUm9fWg0PNQjdY4AFXSTNaclD0nn8APfcEoOdRTD3tJ08tTXMrVjtGiRbVGDBsBs1knO+RTFHH8gWrftYT95PzsxL5wC40AUrGJOJnRbVVsxMu6WX+xawxdfCWQz5EJQl9PIIcrJg48iNc5oZ/d914mlseF6cP28j34R9ahdl3/Ofy7HVNE83fk00yhj90SE67yDAcpZBun8aSWqSq6HaMHL6u9Zc3foh2StWYQxmdZYYchMWWWOnz/qfro9psfhFgckXBWrHaoRjEfAjZZ86MenfH+rL9zx0ivpxD0SS1iStQv4mBKKluiGdd+ftMmk/3+eHdr+e74A8AmayVfp7RVSgX2Zf0jOCn36SvaFDv0LOwOwIzgPF32/OG+T/DXjlG/RLUumwxvWTcvX37XY1eCcdabMXTTe/LpPNglTMy6XTKYxeLNdHXQmF08Xfl0dq3P/7x9qIxrtXH4gw5gCysRzXBarnWoRj0rAZus+VGPWTUIGGetLt+BhhsWMV8AO8TPiVnCzMtgDQsF5UI/kvQu/zZNRvqBuBhimx8gZ++J4zpJxBej+HbHqFMuAG9Ze4rr1+F9wDjrzRi6a5cMAhnb2sEUilMGp4SuibPuspI0iaXed4zyeFN7fR3OsCfrn18v2+m65rVhJo5dxtY2StsKnFIjzuGTY3vhbvy6RbcNsRGIqa/D92T9C7jEgxuW770/sUNFYsnTqABnSA4u48U5CoNruf1MNWY1zz+yVvhJvVgC2Js11pSRqx4+o33sEre6+kQ9UwlOKBNHqB0jPghDo5Ri4U3WzOvZfkcKr1HW8xviLo/YKXFOrHryzxlsVyWOiPqDbNpYvusYPSwZ3rLuD1p0K2teKtXN+meAgbVd9tpI6GKn1N1RB/H6DPYaEAcI647RehBGnWrMciKwyTqYK2r2PtTX4UZZA+LYXcPZnmTsNOdhW4+7nGSwT/Cc2O/mtWN0SbViCWCTNVs+vtvn4gt+fXfWAAsBqWcXPZwR0jDIo/8nOYpwXkkXmHtPXa43qbthb2DcolphEW9Zp1Yt+qa6eR1enKR0s/6eZ43gIsLAhm761Da8daVAbTims+jKDMdiE4HYTPAk1oMweMdIqxjAW9aN2fb+dWi94LcWCUQMs/Z4anEgWHbR03g0gt2UGLGBcF/JR0I4QtD+bf6LJYKjAR+EsS2Nt6y3VdFbL/iXPQak92TtCacVd33Lvokb/nyKElsIGVqaNOOSpaTzT8RmVzVFGoabCd4x2hIOARxLPtNt4/WCX88reDE2znpt0GRuentGZkEYSF4Q+/ieipVqei5KDAdicrdyR2yldozyYq5IdSw3HaMO1dPyB7Am1vdkzV0HXPRWnBBPCAaUhQMDCu7rFX81PU3248EQtjFFDsyby3ZtHCveEPvdeiGWF/HpA9XzrGCNfyrraTQ39w7tyPo3NWuu0VaAwKVbFvKYBCO9e+IUwRfNZJ4u/mi9mLVe0IuLq0w06uD82KtcSGrHkvzxWs81XjB+1OPxfdz1dgjgpDDVCqhZ//CWNbdqMmDqloV8wGBEqbnoYfI4QqWw7hjJ1RndYbrpGNXksEGPtEu1PPKVXtZcOQFIOZcs5OEQDBUq7noHdMwgDL9f7j7SXVpxKPxrWKn/7jm89Y+s5e197l6e7MqaH9D8/NaZ6iEIY3OPO/5Bj3GXD4Wysfm8RHcrSt5L/jpcwlbW9ezoLevQgmqEk82MbtaqkpcBvVviBp049ki65vnCGmElI9lIy9czaqC4WC/fVRHQZt0qx/HWGVZG2j+pLV5HiUfRzVrl7wNs4orbx54i2Ke/cslHjsVBGIVFWUzX6V6DBLCVdSwCbLJm2kf4zijevSH3U8Aga76Qi0B85YafMZkD2qDx6oUb/lHNO8/yy3YiMbqXZ8qwlfVzOgQ1a3WDcyMW6T8KmZoCw6y5ypIByRb5fMJKwV6SN3x6P7l9fvWyHbpPZxIEtFm3rmVgk3VQO4q0nhbLURIOQPXt2bf6WW8Gm7GsG7a2/5jjAMH2w2nF/by5bGe/R7wJ8b3OyhzYZF3TPsJ3ruX0E7ntQfXL2Zmatb7LnAyICxd8rYnWQjiEnA674iHjsE1qKVRd8Y6RqaxZMrZevoch/CPrmbamNJ/XydVk8yO+/vnMMGsu1pWAuRuudj/4eFaoWW654P/OQy/bKbeoqazVjtEQb2pbP7Qrj31CJQ7Vj2ecUdbcYs7A0i7Y2vaVgzgQC07LdVf//NZctmMma4Uv+J1/Zi0tNcv3rCpnz0krCRU/BGCcteqyGgdEvwt+qtwMGUydxhsX71zwj63jYn3ZzopftmMqa9YM8wfyxj+y7mteoLdWqUiR3OXflu8zlZq1ofAwBKTccLN7sQlzWLyX9Tdun1wVOe8YNXq8Y2Qma7VjpPyjMyzWOtqWaXzg8w1kvGI/npnImhskGVj3T/LpBM8c5jFJCSSH+dq40lhvET1xN5TWHxuVcS2fbibEYFCOZGN3xHnCZQIptWNkJmv+OpzPwNlkLQ01rYViTszfkWIEql/PuIOz5i5rBSDohhMDvkaKwSmi83s+91MWHPHLdsx53HSM3rLWvkBvLfpJur4JGdz7aTg/qlnvE24rQMINGw2CpwnHzM+Jk66qofUgjP6AWlHPhoBN1rL2lJfHW6gIvrEI1bdnW37al7V2a5st3bC1LcyGChzSE4hT+GU78zC/bMeCjr8AbLJOp7XLd17OXa1PEKi+P+MsZM1djgqAUnPFu6mb6wIcwWbEKbc9pl62YwG/9fEt6+LWJLve7dv3FL58W81a1cgqQCBM3MD30FWg4dpyP3c3kST1sh0LniVgV2f4svmSSbSs4NVXP5wdmTXHh9J63bG1Te5WzRDstiL2Uy/bacu1GbVmJkGl5GfaT3Gxllm/nFHx5fv4rF+HTYfc0lEif46bEuwk/UEc0GpCXpR5x8iqFDSncFUtf2F6v74JGRyfT2hL1txlPgjILukovbiLDWXYpkvsd5dlUj6WilToEa7BJRZbHaPEA8lch/Dqq9/ObMyad5Qkfquma0Rno2YQdgg8Ebvxy3bCw/h1hx5j1gQQnBS1TWF5lFm/nFF9ecbZlrXaUZLynz4K7Z+u6iPv0Xmn/iR2m2kv27FuVpu2HzTL9yje/ZPcTzXLt4HvrWStXuYkrlz1npmfxpskRVilVKPEZk9pdRCG7Srz1DO5qkrg+Ca1I1mrl7Ql3bC1vSVz4Rml52II5rBC7YbYLMov2+GDMEwrtntGfZXnoeyPCuECXrGfzjj7s+bGruko6fDddGLl7DIlMuwViifTC+ojNlMv28nWqXkdL1hj9x+t6XSMnMta7SgFXTZ+Y4vgu7mtNwbl62o7PZ02k6+m02E6VxuNK4+z+ztBIPbjl+1US3wQhgUrIDCjO5T4JvVEs3w7mTUXG0pApE7+ty06CrJlmF+2Y1qLf8UKrqi+x2584RNWmo6R01lz4wjAhk/kfxrrjlElxztGpo36ZUrrNd31QO0YdbQdI+ez5i5dN37j8/HLdvggDAtGDGmqj8+XTXbIeVa7Se181qpwOgT03dBRcofM35ftJMYtasEsALZa/zo/LdJtD9P4ineMTC7f3HfHZ807SgDc0FFyg0YA/VhenBSpJXWR5VuUtpbvR+DMJuLkanfHyPmsuUs+fmPklh2RT3TrZeogDNNiqWSH0lJsvR6UgMKM6mxSpzWb1M5mbdxRIv9trx2jxMDK8v0gQyy+bXUoC/qGd4zCgs8v4tVX3559StbcqsfccYnEpxEqr5ftzKgVeWBIX5Qjfkqfc2Ftx0isZsijZpP607LmHaUAEKr+ZxdyzWU75rTqfFZdZP0rP0P6/Tgr7z25GWp2ORzK2mRHyTVb2x/pKh9i2Zi1jlHdKw5efllarwedBNhge5xVoCFER0FwvGP0+Vl7PJWee8ZvfCTfSkZSvWzHNC9Q3uQeRLul3aQWa1HBo9mkdkXWnstyAghNXLW17bxZEvFxWR5a6xh5JMTXq3cj0uxQuhi0tPf1dC/IxfK45Zv7wuas1TlK8RL579BctmNS8SXdS0lcr/yPcYjFd03hhEeIXiuajpFF39icNVeZSvxS5f8G32IzCMO01kTqrUu/POLJu0F0z2mxzDepVS+b1C7Lmo/fgJR39RFou9Qj60EYsrWOkZ+hyX9jHXYaqeetOUbDG/KHl/1jk9qFWfOOEuTBv/6J/DzNpGqpb7VjlATG66S7conS53FRO8co9UwyubeK6M9n7sx6PX4jBMyL5N8sWn69bIeaV19vgvWU3Ou46DLVehxqBmHw5du1WXs84zmD1P73bm0Lj30ESlXZUsdoFZdewi7yRfshBPl5q2MUbz8R2mT/2KR2ddYn0VE6pmPEB2F069SCugz2wPeu1s/hLDjQ6Rjl3zpGv5+5PWt1/MYz+ffJjBS2bHj7jxlqRRmYrp/Dq4p3fXqjvj0IQ/CtZLz66sczW3yNF8qlxzHuuyLIvst2cnI5KtxTk2all2QHynSd75ghuf2Hc3LeqGNkHbiU3+OcWhxQ/l0dJX7ZzqKw/l/43PTqPUebquenm4B/e75sskXOs2yzfJ/ZZnP4r+JxTMNtVwQdKVNbb1I35+v6rI+aNQT+Yu/MFhJHwig8PbZtL9PdUz8VK6DsqyD7IpsgILKooCD6/m8yk4IGKmBIhIIE8t3M3dyc8YzmP3VOB0tiDyStnQk8j+WBFmEwR+qNcQIT7AmORk57lJ73w8iJm47thMaNb2+aHdwxru7PJZ0WqYmJzRh5O7Ieo83yGSZcZC380FH9xnrc18CebYcmz12iWAuZDMZVf59Ok4dAGGAWmjEaMRmjTfP9aGrkGQs33BWHniaCPkhXGttxh/2PiELusXquY4IDY1yln82zCzPVnpotSAJWBxf7nvELJjhiRQs3hiWjZ5TGYzuVUENEY86wBobCeHG+Gkxj3HaV2B6jmP0qhV6YHiNOHMMEW9PCDVq/4boy7Gn7OgzettU7O+mQFtZABYQsxrgQhor0D3kRxjl6uwHmSM2LL1MjLzUs3CjGdDQRpHlsx+WMBf3zdRJ3WCXFfEF6utO8Hi+gdjCLu3RhIdGyQo8RLyP3VTZp5DqeCNICaXih5L5M5giaElDt3j5o4gmPdrAPsCxjVI6ilRkjTkaeLHss3MhK9Rv6mAjSVISRfGra4ymmWhSr4zEJQob+/AYxrvbrOdmRmhZhrHxJzc3IwxyNnJ62QxkDXURGFTq2I6t1S2GVuAEeqlLuxDX5PZw9Ur+QVH5q359//7UtvsIE56Xbwo2cVOcS1lGPkiJim2aMkkwUWuUvZoV4Q0oEx+g4ogBJTGHHdkiRyRhtkU8wwXulysj3sH5jSRFG2b7wHWikRuo69Od/D2/iFWM7W+bb1Mj9T5b10f1EkDJ3l1IRRn3xs4Co5sc6Nnm1M8imMS4n89dsj1H/FXXjzNgOV5SN/IajkdOJIL++M0oiHdt5tslq01V/CO+DdyCp6oAmXsgY2Z9EkuFm39qN3B7netoGfUwEvQMZXEA9c+VdNocQxWoo31hmr+fZXjq7fGxnZ/w+ggmRtmUtjDER9O7YTsO2vELgHqunCFCrYtnYziPqxpxMxmh3/D2bfwpauEEzSnU9ZpQmRRjvVIN0sTrS+Yz0VfRyMWNEmCKMXfNzauSdooUb9LR9q7f6DWKRjtQdrzWAlkFaqjMofennmLFvOrbz2J87UuuA39PTdp3jadtTDulkImhhbEf2u4T2D+GJhVc7108XJYxG82M7OuEHTBAeOGaUaI/ShQfphXERRimSRizaP4T3wW6RF2HIM0b6YWrkjgTn07bwrI/TNgkmwR+MhRT+9u9hlVw9FGVFGPEUYsZ2dMU/R1vJKJVtOskotWogje1UzhR+7rFW2B4j3dn3MiOvccwo0fqNZJGgnZLquKQiDMWqbNLCH6FYk4owsvNFGHrk5+y07bbwgk4ECbV7xB/lsZ3LpPLz0hH+AIWYNx8lL/W5I7VO+efzVjJKWZs0EZRCOwKHwf6UpRkjBcTWB+w7uzC2o2O+wx+4ZpQS0mk7txMjP4sJzkQwsjIz84Y14w7XLbKxHX1zsp3T9o4mgsSGXRrbsa3MwkWxVl4r3maAeGz6t+8Z/06NPJm3qMYYE0FpOrbDZIzW+nuLLcKgGSND2PcyIw8/WfhBJ4IaItoad3Rsp37aQzPuibYP4dUhXkZuXIQxe0mtd/teEjZ13nK8iOSet9mjFLDSsZ2LIpkPCIcCmv7eyvT7eJEXOrYTnB/bMRJTIw/xzii5Yl3EHZoxSmbyTMaINLzOJtHwIfz1xgV9NWM7BmMaNoU+19P2duo33m4EXz5je35j/uf93uEt8M4ChwMA+irGdozHzMhvOBp5UDpt9wuIB+zYzml9/m04ybqgT9BSzvES3HVqc9YlYztiJqSjI/Warwa8cYsMI2WULBdwkbuyZwPzAeF4omz3a/kQHgcAp6wLqXqln4zR5oy8zr1+wxpAXOg9gzS2w3S5vNaFLAl4/SjQTCOG5S9w0/EmjoNQ8iyM7WB0FtPzleNDYVMX99N2/YWgjRPN+4Rbdy3ySpi/vaT/aUhaY+to1YdwGjyAPI7b2lX52E5GFJ+8ujxSr2Pk/Os3AISNTwSR4iRjJDIlhPb2iIy1FlNIjohlWE4FgDz2pOVjO7QIQ18Zo3X5tpXTtoeetstRtEHua9LYTpLtVLTCzbnVFpW0vlHxITyd8AGAkJUfqS90f6Re18j51m/4AGgefzOk4j7XpTvMzIB2r0kWKhFXJ1VFYk5U8SE8TP8jf7pmf9THRRj6zBity6et1G9kNli/QYIh6Ltj3vmMkVTG/poFKOFBPabmQ7gH4zqAI/6I5WM7es4YrW/kyqdtvU0Ejcd2vLEu8z9vZwhyWbi6fxbeez7aZYIHzmtcdz0P8DxVq006Ut8a40i95qsBoTa0LKCviaBUwumKuf3hKhsQLuGGpHXY4R2KysEjqmkS4Bo/D6+Xje3oPWO0Lp8MUr9BhrQII5QhaEbGKRVjZCStFU6pd3PBAwBJa3nGyF6OEsuFkY7Uaz3/4l+/sdZEUJWO7YTm/wXE/RaHKkJU61ILrUyEpytOAHDRhD8ztvMsje3ss30vM/IwTyNPOD6cUepWXK5OLsIIGrgCHIfWWOszgiiKH8Jz9D1jRp4xuhiQaN5nmIzRuvzkmlFiJ4KuPzq2YwsyR+rO5R+tg4q/96UmQjclrb3l62VjO7t/Sc0J5edfoTxHI6cTQVrrNwp9SDbK3vkePXEY8mWmWitaBbmnmt46L3HOJRvsqZalsZ3WqWDYI/WarwbAz7NHKa51ImhEx3YuTu+ZEkLh4RxNtVbkjAYP7ACXeBDEDLl+5BWl5sZ2jHikXtPIXTwzSrR+o59WnTHyCbQIA80gCQE6CFGtfeer/J8GD+B/KkvHdoIhg2aMNvZqwBvnmVHqg8qJIPISgYvhlbc8nzESo8kaNMdae87R6kT4lQsAnJUCe+WYjO3sw5F6XSPvc+9RaosqMkbO8tD2PC9oumY7G7nHWl+M0Cqi4xJRCLvlGaN+GqUSLp0UYeyGk6ml8a/fKKwc27kp1uoDNiAM0EJjrdMBtJIe1ZrurSmM7QhGzRht7NWAvbOjiSB2bIcJCDusz8KIaq2KLu2hi8nsOy59Ua+G9+tIvcarAe4TQR4po+TIiu8VYYCv2WCLMF4jwuVb25ckyA1ZpAbSotpihkY9XEVnsZl9/3XQnGypfsMHQGOgclJ5p3BbLMmCqBEovPZdPnhDA5VVW3eYIivCyBDxybGXR+qP8Xl7E0E35++M7bQD81sdcRSBW1e4WoFzpJIAlpPu2DspVNizjNFmjJx//UYSwFkOLBRhtEPMH2XRJPRJBKQjV6yfQio5X1qEMdrDjNG6/NpO/UbFx0wEpTp0bIcpwrg/dSezbRIBKaPQEpFKzvDC2I6bBLKmfS/jeDsTQVL9xuSZJckwYzsUcegULG4/kAgQpIEUZiiMx3bq+5oxWpcvsJX6jWlGCTNjOxTSuOlEXpDTFUPatO4auAiDP8pGXuKaUZJO25mEy5kI9tlihit4kFy79vRATjNINeRuoQiDRJu+Pc8Yrcvx9jJKEH65ZMIMqXzPkaBnkoSzggJINdF7dmznUDJGG3n+xb9+owlQDoQr8xmjXMhx7b6tIeIuOP0ajt7im3xsx4hFGLvhK2xhIigogOepJjIB4YfevUOI9WqCeyiqt++zFju2U6djOwYswtgNx7P6DU4ZJap1aTC/lGcrts7SSetTR7g902zfbMbIdkgZo/VfDXCeCKJa+zGakPP6yndxV+us6ag1Chrs+1xfYzvG5G9gJoI4ax1x4FzSkRV7QsiNVENG8s6bAkl1nIYuwtgNx8xEEGetfX6gF89CCqkmxdr3jb0tklzItO91jJxOBHHWGiIFpI0AY9+Pe1SEsRv+Zk7bPLW2p5AmyEg2thN+RN2EeaTeyPMv13OOp9beANJCqsVmjLxDUV9jO4Zk9vzL0SnqROtAj+28sSf2rwiDP8pGXrfy0vqy8NFv39dP9bA+x3aMydTIhdMcH60JUk23xWaMQszYjmAeqTf0aoBOBHHQWot9G2lsx5j8EGYZJQ8frbXbd9t22kJ3t2bGaNP8ZDJKO9GatW9PyeZG+h/bMSTUyJnT9na1jvZkGaN8lAwMMLZjTGZGbmt6eGutfKS2Jp/NjBFfTuAPpSF/rdkjNVuEYSHR8uEUYeyEfz8z9Ru8tFbOGF1KYztFQ43tGJPvwPQocdRaOWNk2jdvWCP3N7hrTe2bHdt5Qakr80i9Aj1llBit1R+p6diO26hjO4ZkZuShKw5aK2SM7syM0db5BcxEEBetyUhehGH8sR1jMpdRCvLQWn6klsZ2yDAEE47MI/UW+QJMRmnDWgdY+45LGSNsZox2xlcmo7RJrcloWRGGYGaMdsgxMxG0Ma27rH0/JIdEbOzT2I4h+XLE1G9sROtAb//HdozJV6Z+Y32t5Rkj256O7RiTT8xEkGatlTNGySAR93Rsx5B8O2LqN9bQOtA7pLEdYzILm9qyng9rLd7JxnZO931sx5jMwqalzAe17rZkYzueAxjbMSSzVwO+ivsDWkd7C0UYaGAWYeiUOSMve7RpLT9SZ5M356h3IGM7xuQTU7+hWuvFjFH9sMZ2DMlvJqO0UmuFIoyiWYShe34AMxGkQmvxfHFs5/7gxnaMyezVgL+xUuvFjBEd2/Ed4NiOIfnnMzMRpKh16l42tmMVSdAswjAQPwSliaCZ1uL5srEdwTxSG4qfKzJKVGuLLGPkN8d2DMnMyIWb3Dta5xbHduyHPrZjTH4wGSVlrdNxb+wMPZoZI8NywtRvKGjdqIexObZjbP79zE4EybWeHqlzRHwyj9QG5/tcRqm4VOt0wiuN7fTNjJHxOWEzSnKt22bGaJ84Zuo3GK3HRRhWc61hb/jOZJSmWofjMXs+RV7MjNFe8Us2EUS1HvgvpSIMc61h3zhmJoKo1oigaNm07z3ky1xGqTjW2hzb2Vu+ztVvSFr3HsyX1PvLzMj7ApSc5tjOPvPtCKaYR+p954+Rm/Z9CNCwqVmEcRh8OzLt+3D42zxSHxCfzIzR4fDbzBj9N9wAACgftkqMj5RyAAAAAElFTkSuQmCC;" vertex="1" parent="1">
          <mxGeometry x="1400" y="1440" width="59.39" height="60" as="geometry" />
        </mxCell>
        <mxCell id="WDrWdavG5AmVl67FFVOp-175" value="AP5" style="shape=image;verticalLabelPosition=bottom;labelBackgroundColor=#ffffff;verticalAlign=top;aspect=fixed;imageAspect=0;image=data:image/png,iVBORw0KGgoAAAANSUhEUgAAAesAAAHwCAMAAACxPLfLAAABCFBMVEUAAAAzP0kyP0ozP0kzP0kyP0kzP0kzP0kzP0kzP0kzP0kzP0kzP0kzP0kzP0kzP0kzP0ns7vAzP0musrbCxcg0QEpianLo6uzm6OqUmZ9JU1zX2t3N0NM/SlM8R1E4RE02QkyorLGssbVBTFU6RU9VX2fj5eelqq5ETldLVV5ZYmpRWmNxeH/g4uR3foWBiI57golGUFrd3+K7v8OhpaqQlpyjqK2EipGHjZS5vMCqrrNcZW2KkJbBxMh0e4LAw8ZqcnlfaHBOWGGcoaZtdXyNk5nS1djFyMyXnKF+hYva3N/Hy89kbXS9wcTKzdBTXGWZnqRnb3extbmeo6i0t7zU19q2ur7P0tVeW9MsAAAAEXRSTlMA6MX69O6n28yasbqJ4tSTg2RrWLgAAC+PSURBVHja7NddSsNAFMXxqU0/hFI7ZyhRqxRRHxQskr5oFUQfohU0mIe6/504iZRksoQz57eFP/deronOcJogGQ2NkJsMsJccGSHWQ1vPCKtZHx0abVIz1JbF6n51vUTt0Aij/9LbX1vJH65QMUIogff2bvfOCnh9I3QO4BWftpHdwhsbYQPvMrdti1NtcUZjAPONDe3mAKZGuMB7TW3HjwabzwTeR2Y71nM92XTGAM437uvOBtIbACMjTAYAnpxz5cIGtnq76MBbuUoY+0IHmw68Z1cpgzX+otZ04J242mNqG7la02m1drltLNSaTrv1LlVrZk1rL1NrZkHrb7VmFrReqzWzoHWp1syC1i5Va2Jh62O1JqbW8VDreKh1PNQ6HmodD7WOxx97dCAAAAAAIMjfepBLIdcfrj9cf7j+cP3h+sP1h+sP1x+uP1x/uP5w/eH6w/WH6w/XH64/XH+4/nD94frD9YfrD9cfrj9cf7j+cP3h+sP1R+zRsQ3AIADAsEosHaoO/H8snMCKYr9g1x2uO1x3uO5w3eG6w3WH6w7XHa47XHe47nDd4brDdYfrDtcdrjtcd7jucN3husN1h+sO1x2uO1x3uO5w3eG6w3WH6w7XHa47XHe47nDd4brDdYfrDtcdrjtcd7jucN3husN1h+sO1x2uO1x3uO5w3eG6w3WH6w7XHa47XHe47nB95PvH3Mb7XMz1Yu/O1tIIoigKg+IQjUnObptGEGgFESWI4hQVB3AElTj7/m8SLC2ksQWDDHUK/5tcJ+tLgbCt/oBhH6p8Pz1cfbVuzguHCQ9TX62bGkQdn4enhq19vzxfnlOH9zbubm6P4pxjN2wNsH4v0r7U8eM0CaWMjYohD0dNWsPr6W8jqAieUtVdGBUDHoYatI7iyQ9PP/uOiuQJ1diPcH0r06D11hKe9PVrtg9AdJUctrm+GW/Q+pGuTLavTe3xCxWbVOeI6X/shq1pienfql0mAIRLVKdss3zFHmjc+jEKYNjTt1Bxvf8m9jWAQQ8zA2jc2ioAGPf0LVSsG8ZkgBzmGR53w2jSmhZZnlbt/PeJbhuG8ZCgWvc2gO8eVtC0daqv/1+PAigYT+4CVCMQZPfS5kPFkd2gdSgOYMzTryYA7BjCpUUSx+NuHBX+ULRB6w30dWsvAL/x7IRq+Lm1RkXyPuva2lp/am39/WotW99ZjFsPo2KDXFs/5oG5NN3iq7VsbZwwbj0EoBBwa50+jsDcS9NjGMGv1saLS8atUTFFb1unr1aA5CxRdg7JebfWXo4fBrfeWrJYtzbP61sHTothIF7MEmV3EH1Yfdt6gO13ep9snWXb+heAeFq0XjeE2bU/xYIJRJcfiSibh3lIb1p/G4Qw+M2jP2fre7atvz+1TojWkdROPr+TCpuoKKyLv1O5AHuK3rT2QuC7zfhE60fWrc0yUTpoQoov5iYtqrAOI4iuUX3rUUj9MWNwtp5m3Ro5Igqcbmwu7e0t/dmofqFTvgCSqyRb1x3fC8ZaDMIgr88J+7t1/JzeOlm2YR6FqK71EIT48dPBn4nyns/2YWus7JOTtbsXB4KzFjlbj0Iwjx5JKPtNCCMefenUOh8Xb7qrrMlcygRiU2kiR+vhQQiFO5Ks2SAqtP4eTKfWy2crgDmXWbvZ2jJuN/0RVKQOEyTI1uPy+I5MBahG4jgCYZDvrzj1R+tvT62Nmb0YatgLmV2LyNl6EIL9+4TqPP42tV6R69XaMGZyB6mwDdix1EWxbJHTKqS/W+RiKwWNf0FEt9bCbMXTn1QnncGz2JVFrqyrGCrY7TT6t7VU19FYgGAvhehdoeWorh+k9U/r6Ws8W7ykhiZ3NP0grV9ap/9EISRvLWrCmgkCGu4a+qO1tR2EYC+X6APSf+IQfMymtF+tz/14tnNKHzR9wP2KCb1bF91bZzejEFZmLPow6y4FQKshg06tM26trfkVCNHNLP2XxFRYryGD7q1Pd/DMf07/LbRn6vTzl96tS0UbgvimqwX7ixr9/KVz69m1JIRoLk0tCqwltRkyaNx6vQDBPJimVsm3dlpcmaVt6zW/DaFwY9HnnF/oMWTQtPX2UuR1Y/RplhGEYLIeMujZ+li2OTqhlmk3ZNCl9XBN69u8CSH1YFG7nPy2uQ8Z9Gu9vRR3bIzaZusv8yGDdq1zKxDMvRC1TM8hg2atD3dMCHOr1DJdhwxatd7+HYcQPgxQZ5wyHjLo1NqfdHxJ3RqNhww6tX6xuEst03rIoF3r5JpFrdJ8yKBLay+EaDFL3cByyKBH6zETT8z8KXVJ4ozfkEGH1t99EFbmLeqe+yVuQwYNWk9AiG+mqWV9MWRg33ocgnlRpq4LbMghA4ufv5i3/jkIIWhY1H3MbmTg3doLIZJLUK+U+QwZOLcecGyMesUyFpjcyMC3tTy+CzfUY4l1HkMGtq3l8T2VoN7jMWRg2loe379PSA2rDIYMLFvLa+hSq6QM6zAGwVR2yMCxtRdC+CxAKimpPmTg11peQ7cUItVM5pX+II1b62GzehGGimZUvhGPWeshCLFDtY7vV+mcukMGVq1/QDCXS6Su6QNT0SEDo9bDZvUiDLU9KDpk4NN6CEJyQ9XjW/kbGbi0HoFgZ7LEQUjFIQOP1nJj5C8TF/vqDck5tP7lgxDctogP9YYMDFqPQIj+SRMvqt3IoHzr8Zfj+3qa+ClfqPTzl+Kt5UR0weB0fDuGDOrcyKB26wkIkWMVvqRmfyODyq3lRPRIlS+pW3OiyqMl1G390ycftsPz+K6xNafEkEHZ1vJL6in1PyZrLnCowo0MirYegGArszH6rFKx90MGJVvLjdHfLdJH729kULG1PL6v2L9Qq3Ujg3qtRyHYCm6MmN/IoFpreXzP7ZKO/u9GBr1bD8mLMPQ6vtUYMijVehRCVOmNEd8bGRRqLZ9UvDNJevvwkEHb1kMQgvPUdtnJ+fVMMTM1U1bkg5ndj/38pWnrH46H7bRT6SofxgszuKnGhzOBjZUPDBm0bD2GZ+3fGJWKETjEr0gJHxky6Nja53jYTjvdxFDPVCQ2la+bDRn0az0CIZ5LU7tt2HgrrMq7/KZDBt1aj6FzG6PJKNzckSqa3MigV+tfPsfDdtosD1cGqaPhjQxatZbH93qCOuDehBtTrZXi6vtDBo1ad3pjNANXQUV+yJasd4cM2rT+7uv0l9RFuDoi1bw3ZNCltZyIniWoUxbhap3Uc+p6I4MerQccD9vpjEQYrnp+H5oba9vlRgYdWsuJ6NwlddAJ3Cn669vpXKR+yKBBa29nH7YjbcGdsnuX+hsZ+Lce6PTDdqQZuFPsbXiDIQPz1nJjtLNLnTYFV3GFW1PAcSMD79ZeCLFubIxyDFvXDBm8vFvLjVF3LsLIwJWtdmuiyeqQgW/rl42RmT+nrsjAnfI3rgTmq0MGpq2HIKzMWOSuW60Z3LlSM2Rg2PpH9x+2cwx3D8TAdHXIwK318GAPHrZzBndnxEHNoyVYtR6CsDBL3bQNd3vEQ82QgU3rH/IijDR11SXcFdj8TsnrkIFH67GX4/vgkbosZMKVrcZs+D9vZGDQunoRBnVdIgl3a8RH4LY6ZFC89QiE8HqCesAPd37i5PXREiq3Huvxw3aO4S7K6BB/HjKYEEZUbe3YGPXEKt5xTMy83sigZOsJeRFGgNrOypZCoVKCmgjE4S7J7mq81yHDT+Vaj3fuYTvnUwcLEROwY4ublxY1cgQN3p29GTKo1Vo+6nJxn9osfVWA1PwFYhbvCHK7svjJVgrPRhVqPQEhdhugNjOCqGMf0vvSMW1esetuZFCk9UDHHrZj5Uy8ET2l9y3jHZFH4ugfe3falrwRRgHY7vsyhxkCaCCYsO+yg+ygYEFA1P7/f1KZGmwwBBISDW3vD22v9u16+g4hc+YZzUQGe7P+zsry7dxlO2XomZDd7iXs4D2ZF6UGRQY7s8Y3FjtGhYpAbPdHCHq6xMASu7jlFLZZgmYig11Zcz9aqYhWr4gDJtCVJwY62EU52Qk8VzVJLTLYmzV+NF0R9TrTMRL60BUmRrrYJeDanrjliQzWs04EsWbir6Q/CMPZE7b408LCzzVP7o3KhvDQVycy2JN17cbLVwoTFVEnL9vxQFfcZ6V1xqXd3ig1XWSwnjXxTfHi50M6Rs5ftnMNXT1i7CqAnbIn+jDOPbXNFhm+McqaPIkHffP65iMu2+labBQ9MOzUPuWwzU5k+BGGWZMsXhxYEXX4sp2U1dPUeew2PN3PbLNFhm+xJ+vV3qy//aDLdqKy1e/JmTl267llAJbTExl+xr6sw3hxwPKdcvyynTvF8pbVvYjdEn+Qk3ZokYE/UUlGWZfxYn9F1OCyHae/cl2S/R4k7BaskJOmmchg3AabDo2y9uLFnoqolH4izruBvoOSGjPsxtqnuMNpciIDX8Ku2gZZ34QMslY7RkXyESj0DcghqjDSL5LT9ue+IsMXAKQZ0c1aKIdQUx9hjSqi8sJHPsQtjplqJORhhOVdf3hzj+e54UQGvMgS3azvm8D8T9KSsLa7YyRl74gh59fwPDmIkIWhQuykv2oT4luoRYZv9b9asz/1sr7LhcCyGZLpg+HFzopockY+zLl0XNlbmMBYc0ZO25NaZNBvCvXI+6wvqgqQeCQkuoTS1vtzf/mMy3augtBV8B0a9ojBWPdktzm1RQb9R6vRdtZ34WkIkNfH7KJpsMEKL3SX79DkjnwkXwG62A051CoEY9KQnvZKfj7Xz1p9EdFGZHX5knNjURtGFKyTXj+oZJZAlZTwQm8MXfOWfLAk9IXJwZ5F7MG87hkubpoQK2B31mOeNSApisKwpiwbfFG8T4HVyLusvzAYhOGwrA3Hqf+MYK/+4kRfm9ImYJB1mhASTgYZ1lhwPrm8I2vCIojQQtjO+ktwSvWKfLyxHYc4onmGvYLt59Pb2b7LS6F83CBr5Yk/9vzx0Gg06hcZ8qrTBAp1QrRZ/2bUMXLeDDuYW3UbIg4QqJ7WJ7ewiqPZIgGDrNHLkHdaSwbWviNbWX9hOAjDeVEF+rrElKclwwFYIFc/mXenswgKg4uMcdZoXhCNTKwnAalnQrRZf+ncZTu++0t/tVq9rnSilo5TSzdmW7cyDiN3BxcnsJqft6XQpJISU1GjrPsMofxM/dcR7lfd4Pr3xnxEm7VaEe1eEJtFL9MyVGJ6ZuEDGznz/3EYDhVID25dXWjwjUX0Gt34qBP4wyjrXFUGmNhs53L5dIQ/oylddSt6k/Xv36iDMAS7kx7HobF+XbfLjQR9yhMxa5bE4ZiSnFTonTs/wOspBAbXYrtOacI4a08sW2BQMbFb0ramS9gI2j8I4yKCd7qC6W/YyBPTfKUAzFES09zi8Y+MzzhzwefjP+Jj3KRZqFpKJMOU7s/a47lcTLrNSCTpTefGf5ItJcC5QRi3It5jj2SXEnYIUWJeZizDAiamvMNJeVHxPNPb+1d/0NlDbOCvZbvNhKyIgV7u0Uccx4vD08a04G/RQ7LW2s4zmge4+TOx3VUCeqq7/4Sd4UR8xIKrcgHHYSq8E3B6t4AfCEiUqmK2SDmrWWvH1IuOXLZThq6JlcZBmViSGQfgmLaPOIf3E5TrQaDXoPT4rG+GakfniTihb7os+KRgh1CHWONrJBkcMiLOiV4rbNjoBcaUHp91dBR0dpP6JmT+BsScAyfxBJoV4Qg5QxwieALoVybypEhtyPqh7/RlOx7oko3+fudB7NLzEcvuVs785P6DOONiyYLlRcHrofT4rC+Wzl+2U7NyPsuPndICOcLFqI/jGS9R9p2/ZulwMjGg9PisM9cKuCYlzlmafDTjonPslBPIMYTb65SEIzl/SasQLiASy8q5GTWXdU0va0/gQzpGAejyE0MzySBsciThftyzMe4Fsd8fXoh+f3z5QKnJrK/fZ33v/ZjLdgQJuhrWln5uIpCjZR5yc3vy7grEblcTiWXDkVSJcvpZf3Ng1uqlIsx7S5z1ZHE32pfEbukosYHw5MlFgjgOS2eIzXylOJLhdLw2o8dnfVkOfFjH6Bb66mSPCxG7Nc+JTa46i/YRn99x+ydB0STkRVkcPlJ6fNb+FDilliGOmxllbf0kXqFDbBS9jdWWqSBMYpFBhtjsPMtC+XB/XqH0+KwrS+kjL9upW79Ryc+wmzIWiL2EzJ/PpVq2mRAVCcaYIgaa+dKfArGZbyCzZmMYH3Xo8VlfTkRwAY9APkId1s/Y5mFk+kSc4bu7oOvtrGq23e16vd5mKpXqeb3T7jCbr/oHscfbi3MfcUIxgvhgJKafKT0+63IfXPA6Sj5G/Yhzl742jIgld9YKrHpqs1Cu0ueb1EdnXZq+Lt82d4ysTBSskgP4lnsa/RfkX8M3Fpk33C2UO/T4rBv54CdctvMH9C3JIXxpGApVT/2Qreo5hcCqtu4YaXTCsZn5rEcJcKLfRz7QOfQVhMPCzsKYPHZ1I/BAfw6ZUlsFmg2q0RokGCtUTGZd6rHPuWxHCEGX9Cc5iFBjMJZYnXra0XKQLRvTgL9DNR74Zy7iz2ayrmWDBoMwnJWCvoptxy5R8J/0Sv6QQL9UFfNFqlGcKABXNZN10GAQhtPS0JcmhyoWsI+YO9mntPUm9fWg0PNQjdY4AFXSTNaclD0nn8APfcEoOdRTD3tJ08tTXMrVjtGiRbVGDBsBs1knO+RTFHH8gWrftYT95PzsxL5wC40AUrGJOJnRbVVsxMu6WX+xawxdfCWQz5EJQl9PIIcrJg48iNc5oZ/d914mlseF6cP28j34R9ahdl3/Ofy7HVNE83fk00yhj90SE67yDAcpZBun8aSWqSq6HaMHL6u9Zc3foh2StWYQxmdZYYchMWWWOnz/qfro9psfhFgckXBWrHaoRjEfAjZZ86MenfH+rL9zx0ivpxD0SS1iStQv4mBKKluiGdd+ftMmk/3+eHdr+e74A8AmayVfp7RVSgX2Zf0jOCn36SvaFDv0LOwOwIzgPF32/OG+T/DXjlG/RLUumwxvWTcvX37XY1eCcdabMXTTe/LpPNglTMy6XTKYxeLNdHXQmF08Xfl0dq3P/7x9qIxrtXH4gw5gCysRzXBarnWoRj0rAZus+VGPWTUIGGetLt+BhhsWMV8AO8TPiVnCzMtgDQsF5UI/kvQu/zZNRvqBuBhimx8gZ++J4zpJxBej+HbHqFMuAG9Ze4rr1+F9wDjrzRi6a5cMAhnb2sEUilMGp4SuibPuspI0iaXed4zyeFN7fR3OsCfrn18v2+m65rVhJo5dxtY2StsKnFIjzuGTY3vhbvy6RbcNsRGIqa/D92T9C7jEgxuW770/sUNFYsnTqABnSA4u48U5CoNruf1MNWY1zz+yVvhJvVgC2Js11pSRqx4+o33sEre6+kQ9UwlOKBNHqB0jPghDo5Ri4U3WzOvZfkcKr1HW8xviLo/YKXFOrHryzxlsVyWOiPqDbNpYvusYPSwZ3rLuD1p0K2teKtXN+meAgbVd9tpI6GKn1N1RB/H6DPYaEAcI647RehBGnWrMciKwyTqYK2r2PtTX4UZZA+LYXcPZnmTsNOdhW4+7nGSwT/Cc2O/mtWN0SbViCWCTNVs+vtvn4gt+fXfWAAsBqWcXPZwR0jDIo/8nOYpwXkkXmHtPXa43qbthb2DcolphEW9Zp1Yt+qa6eR1enKR0s/6eZ43gIsLAhm761Da8daVAbTims+jKDMdiE4HYTPAk1oMweMdIqxjAW9aN2fb+dWi94LcWCUQMs/Z4anEgWHbR03g0gt2UGLGBcF/JR0I4QtD+bf6LJYKjAR+EsS2Nt6y3VdFbL/iXPQak92TtCacVd33Lvokb/nyKElsIGVqaNOOSpaTzT8RmVzVFGoabCd4x2hIOARxLPtNt4/WCX88reDE2znpt0GRuentGZkEYSF4Q+/ieipVqei5KDAdicrdyR2yldozyYq5IdSw3HaMO1dPyB7Am1vdkzV0HXPRWnBBPCAaUhQMDCu7rFX81PU3248EQtjFFDsyby3ZtHCveEPvdeiGWF/HpA9XzrGCNfyrraTQ39w7tyPo3NWuu0VaAwKVbFvKYBCO9e+IUwRfNZJ4u/mi9mLVe0IuLq0w06uD82KtcSGrHkvzxWs81XjB+1OPxfdz1dgjgpDDVCqhZ//CWNbdqMmDqloV8wGBEqbnoYfI4QqWw7hjJ1RndYbrpGNXksEGPtEu1PPKVXtZcOQFIOZcs5OEQDBUq7noHdMwgDL9f7j7SXVpxKPxrWKn/7jm89Y+s5e197l6e7MqaH9D8/NaZ6iEIY3OPO/5Bj3GXD4Wysfm8RHcrSt5L/jpcwlbW9ezoLevQgmqEk82MbtaqkpcBvVviBp049ki65vnCGmElI9lIy9czaqC4WC/fVRHQZt0qx/HWGVZG2j+pLV5HiUfRzVrl7wNs4orbx54i2Ke/cslHjsVBGIVFWUzX6V6DBLCVdSwCbLJm2kf4zijevSH3U8Aga76Qi0B85YafMZkD2qDx6oUb/lHNO8/yy3YiMbqXZ8qwlfVzOgQ1a3WDcyMW6T8KmZoCw6y5ypIByRb5fMJKwV6SN3x6P7l9fvWyHbpPZxIEtFm3rmVgk3VQO4q0nhbLURIOQPXt2bf6WW8Gm7GsG7a2/5jjAMH2w2nF/by5bGe/R7wJ8b3OyhzYZF3TPsJ3ruX0E7ntQfXL2Zmatb7LnAyICxd8rYnWQjiEnA674iHjsE1qKVRd8Y6RqaxZMrZevoch/CPrmbamNJ/XydVk8yO+/vnMMGsu1pWAuRuudj/4eFaoWW654P/OQy/bKbeoqazVjtEQb2pbP7Qrj31CJQ7Vj2ecUdbcYs7A0i7Y2vaVgzgQC07LdVf//NZctmMma4Uv+J1/Zi0tNcv3rCpnz0krCRU/BGCcteqyGgdEvwt+qtwMGUydxhsX71zwj63jYn3ZzopftmMqa9YM8wfyxj+y7mteoLdWqUiR3OXflu8zlZq1ofAwBKTccLN7sQlzWLyX9Tdun1wVOe8YNXq8Y2Qma7VjpPyjMyzWOtqWaXzg8w1kvGI/npnImhskGVj3T/LpBM8c5jFJCSSH+dq40lhvET1xN5TWHxuVcS2fbibEYFCOZGN3xHnCZQIptWNkJmv+OpzPwNlkLQ01rYViTszfkWIEql/PuIOz5i5rBSDohhMDvkaKwSmi83s+91MWHPHLdsx53HSM3rLWvkBvLfpJur4JGdz7aTg/qlnvE24rQMINGw2CpwnHzM+Jk66qofUgjP6AWlHPhoBN1rL2lJfHW6gIvrEI1bdnW37al7V2a5st3bC1LcyGChzSE4hT+GU78zC/bMeCjr8AbLJOp7XLd17OXa1PEKi+P+MsZM1djgqAUnPFu6mb6wIcwWbEKbc9pl62YwG/9fEt6+LWJLve7dv3FL58W81a1cgqQCBM3MD30FWg4dpyP3c3kST1sh0LniVgV2f4svmSSbSs4NVXP5wdmTXHh9J63bG1Te5WzRDstiL2Uy/bacu1GbVmJkGl5GfaT3Gxllm/nFHx5fv4rF+HTYfc0lEif46bEuwk/UEc0GpCXpR5x8iqFDSncFUtf2F6v74JGRyfT2hL1txlPgjILukovbiLDWXYpkvsd5dlUj6WilToEa7BJRZbHaPEA8lch/Dqq9/ObMyad5Qkfquma0Rno2YQdgg8Ebvxy3bCw/h1hx5j1gQQnBS1TWF5lFm/nFF9ecbZlrXaUZLynz4K7Z+u6iPv0Xmn/iR2m2kv27FuVpu2HzTL9yje/ZPcTzXLt4HvrWStXuYkrlz1npmfxpskRVilVKPEZk9pdRCG7Srz1DO5qkrg+Ca1I1mrl7Ql3bC1vSVz4Rml52II5rBC7YbYLMov2+GDMEwrtntGfZXnoeyPCuECXrGfzjj7s+bGruko6fDddGLl7DIlMuwViifTC+ojNlMv28nWqXkdL1hj9x+t6XSMnMta7SgFXTZ+Y4vgu7mtNwbl62o7PZ02k6+m02E6VxuNK4+z+ztBIPbjl+1US3wQhgUrIDCjO5T4JvVEs3w7mTUXG0pApE7+ty06CrJlmF+2Y1qLf8UKrqi+x2584RNWmo6R01lz4wjAhk/kfxrrjlElxztGpo36ZUrrNd31QO0YdbQdI+ez5i5dN37j8/HLdvggDAtGDGmqj8+XTXbIeVa7Se181qpwOgT03dBRcofM35ftJMYtasEsALZa/zo/LdJtD9P4ineMTC7f3HfHZ807SgDc0FFyg0YA/VhenBSpJXWR5VuUtpbvR+DMJuLkanfHyPmsuUs+fmPklh2RT3TrZeogDNNiqWSH0lJsvR6UgMKM6mxSpzWb1M5mbdxRIv9trx2jxMDK8v0gQyy+bXUoC/qGd4zCgs8v4tVX3559StbcqsfccYnEpxEqr5ftzKgVeWBIX5Qjfkqfc2Ftx0isZsijZpP607LmHaUAEKr+ZxdyzWU75rTqfFZdZP0rP0P6/Tgr7z25GWp2ORzK2mRHyTVb2x/pKh9i2Zi1jlHdKw5efllarwedBNhge5xVoCFER0FwvGP0+Vl7PJWee8ZvfCTfSkZSvWzHNC9Q3uQeRLul3aQWa1HBo9mkdkXWnstyAghNXLW17bxZEvFxWR5a6xh5JMTXq3cj0uxQuhi0tPf1dC/IxfK45Zv7wuas1TlK8RL579BctmNS8SXdS0lcr/yPcYjFd03hhEeIXiuajpFF39icNVeZSvxS5f8G32IzCMO01kTqrUu/POLJu0F0z2mxzDepVS+b1C7Lmo/fgJR39RFou9Qj60EYsrWOkZ+hyX9jHXYaqeetOUbDG/KHl/1jk9qFWfOOEuTBv/6J/DzNpGqpb7VjlATG66S7conS53FRO8co9UwyubeK6M9n7sx6PX4jBMyL5N8sWn69bIeaV19vgvWU3Ou46DLVehxqBmHw5du1WXs84zmD1P73bm0Lj30ESlXZUsdoFZdewi7yRfshBPl5q2MUbz8R2mT/2KR2ddYn0VE6pmPEB2F069SCugz2wPeu1s/hLDjQ6Rjl3zpGv5+5PWt1/MYz+ffJjBS2bHj7jxlqRRmYrp/Dq4p3fXqjvj0IQ/CtZLz66sczW3yNF8qlxzHuuyLIvst2cnI5KtxTk2all2QHynSd75ghuf2Hc3LeqGNkHbiU3+OcWhxQ/l0dJX7ZzqKw/l/43PTqPUebquenm4B/e75sskXOs2yzfJ/ZZnP4r+JxTMNtVwQdKVNbb1I35+v6rI+aNQT+Yu/MFhJHwig8PbZtL9PdUz8VK6DsqyD7IpsgILKooCD6/m8yk4IGKmBIhIIE8t3M3dyc8YzmP3VOB0tiDyStnQk8j+WBFmEwR+qNcQIT7AmORk57lJ73w8iJm47thMaNb2+aHdwxru7PJZ0WqYmJzRh5O7Ieo83yGSZcZC380FH9xnrc18CebYcmz12iWAuZDMZVf59Ok4dAGGAWmjEaMRmjTfP9aGrkGQs33BWHniaCPkhXGttxh/2PiELusXquY4IDY1yln82zCzPVnpotSAJWBxf7nvELJjhiRQs3hiWjZ5TGYzuVUENEY86wBobCeHG+Gkxj3HaV2B6jmP0qhV6YHiNOHMMEW9PCDVq/4boy7Gn7OgzettU7O+mQFtZABYQsxrgQhor0D3kRxjl6uwHmSM2LL1MjLzUs3CjGdDQRpHlsx+WMBf3zdRJ3WCXFfEF6utO8Hi+gdjCLu3RhIdGyQo8RLyP3VTZp5DqeCNICaXih5L5M5giaElDt3j5o4gmPdrAPsCxjVI6ilRkjTkaeLHss3MhK9Rv6mAjSVISRfGra4ymmWhSr4zEJQob+/AYxrvbrOdmRmhZhrHxJzc3IwxyNnJ62QxkDXURGFTq2I6t1S2GVuAEeqlLuxDX5PZw9Ur+QVH5q359//7UtvsIE56Xbwo2cVOcS1lGPkiJim2aMkkwUWuUvZoV4Q0oEx+g4ogBJTGHHdkiRyRhtkU8wwXulysj3sH5jSRFG2b7wHWikRuo69Od/D2/iFWM7W+bb1Mj9T5b10f1EkDJ3l1IRRn3xs4Co5sc6Nnm1M8imMS4n89dsj1H/FXXjzNgOV5SN/IajkdOJIL++M0oiHdt5tslq01V/CO+DdyCp6oAmXsgY2Z9EkuFm39qN3B7netoGfUwEvQMZXEA9c+VdNocQxWoo31hmr+fZXjq7fGxnZ/w+ggmRtmUtjDER9O7YTsO2vELgHqunCFCrYtnYziPqxpxMxmh3/D2bfwpauEEzSnU9ZpQmRRjvVIN0sTrS+Yz0VfRyMWNEmCKMXfNzauSdooUb9LR9q7f6DWKRjtQdrzWAlkFaqjMofennmLFvOrbz2J87UuuA39PTdp3jadtTDulkImhhbEf2u4T2D+GJhVc7108XJYxG82M7OuEHTBAeOGaUaI/ShQfphXERRimSRizaP4T3wW6RF2HIM0b6YWrkjgTn07bwrI/TNgkmwR+MhRT+9u9hlVw9FGVFGPEUYsZ2dMU/R1vJKJVtOskotWogje1UzhR+7rFW2B4j3dn3MiOvccwo0fqNZJGgnZLquKQiDMWqbNLCH6FYk4owsvNFGHrk5+y07bbwgk4ECbV7xB/lsZ3LpPLz0hH+AIWYNx8lL/W5I7VO+efzVjJKWZs0EZRCOwKHwf6UpRkjBcTWB+w7uzC2o2O+wx+4ZpQS0mk7txMjP4sJzkQwsjIz84Y14w7XLbKxHX1zsp3T9o4mgsSGXRrbsa3MwkWxVl4r3maAeGz6t+8Z/06NPJm3qMYYE0FpOrbDZIzW+nuLLcKgGSND2PcyIw8/WfhBJ4IaItoad3Rsp37aQzPuibYP4dUhXkZuXIQxe0mtd/teEjZ13nK8iOSet9mjFLDSsZ2LIpkPCIcCmv7eyvT7eJEXOrYTnB/bMRJTIw/xzii5Yl3EHZoxSmbyTMaINLzOJtHwIfz1xgV9NWM7BmMaNoU+19P2duo33m4EXz5je35j/uf93uEt8M4ChwMA+irGdozHzMhvOBp5UDpt9wuIB+zYzml9/m04ybqgT9BSzvES3HVqc9YlYztiJqSjI/Warwa8cYsMI2WULBdwkbuyZwPzAeF4omz3a/kQHgcAp6wLqXqln4zR5oy8zr1+wxpAXOg9gzS2w3S5vNaFLAl4/SjQTCOG5S9w0/EmjoNQ8iyM7WB0FtPzleNDYVMX99N2/YWgjRPN+4Rbdy3ySpi/vaT/aUhaY+to1YdwGjyAPI7b2lX52E5GFJ+8ujxSr2Pk/Os3AISNTwSR4iRjJDIlhPb2iIy1FlNIjohlWE4FgDz2pOVjO7QIQ18Zo3X5tpXTtoeetstRtEHua9LYTpLtVLTCzbnVFpW0vlHxITyd8AGAkJUfqS90f6Re18j51m/4AGgefzOk4j7XpTvMzIB2r0kWKhFXJ1VFYk5U8SE8TP8jf7pmf9THRRj6zBity6et1G9kNli/QYIh6Ltj3vmMkVTG/poFKOFBPabmQ7gH4zqAI/6I5WM7es4YrW/kyqdtvU0Ejcd2vLEu8z9vZwhyWbi6fxbeez7aZYIHzmtcdz0P8DxVq006Ut8a40i95qsBoTa0LKCviaBUwumKuf3hKhsQLuGGpHXY4R2KysEjqmkS4Bo/D6+Xje3oPWO0Lp8MUr9BhrQII5QhaEbGKRVjZCStFU6pd3PBAwBJa3nGyF6OEsuFkY7Uaz3/4l+/sdZEUJWO7YTm/wXE/RaHKkJU61ILrUyEpytOAHDRhD8ztvMsje3ss30vM/IwTyNPOD6cUepWXK5OLsIIGrgCHIfWWOszgiiKH8Jz9D1jRp4xuhiQaN5nmIzRuvzkmlFiJ4KuPzq2YwsyR+rO5R+tg4q/96UmQjclrb3l62VjO7t/Sc0J5edfoTxHI6cTQVrrNwp9SDbK3vkePXEY8mWmWitaBbmnmt46L3HOJRvsqZalsZ3WqWDYI/WarwbAz7NHKa51ImhEx3YuTu+ZEkLh4RxNtVbkjAYP7ACXeBDEDLl+5BWl5sZ2jHikXtPIXTwzSrR+o59WnTHyCbQIA80gCQE6CFGtfeer/J8GD+B/KkvHdoIhg2aMNvZqwBvnmVHqg8qJIPISgYvhlbc8nzESo8kaNMdae87R6kT4lQsAnJUCe+WYjO3sw5F6XSPvc+9RaosqMkbO8tD2PC9oumY7G7nHWl+M0Cqi4xJRCLvlGaN+GqUSLp0UYeyGk6ml8a/fKKwc27kp1uoDNiAM0EJjrdMBtJIe1ZrurSmM7QhGzRht7NWAvbOjiSB2bIcJCDusz8KIaq2KLu2hi8nsOy59Ua+G9+tIvcarAe4TQR4po+TIiu8VYYCv2WCLMF4jwuVb25ckyA1ZpAbSotpihkY9XEVnsZl9/3XQnGypfsMHQGOgclJ5p3BbLMmCqBEovPZdPnhDA5VVW3eYIivCyBDxybGXR+qP8Xl7E0E35++M7bQD81sdcRSBW1e4WoFzpJIAlpPu2DspVNizjNFmjJx//UYSwFkOLBRhtEPMH2XRJPRJBKQjV6yfQio5X1qEMdrDjNG6/NpO/UbFx0wEpTp0bIcpwrg/dSezbRIBKaPQEpFKzvDC2I6bBLKmfS/jeDsTQVL9xuSZJckwYzsUcegULG4/kAgQpIEUZiiMx3bq+5oxWpcvsJX6jWlGCTNjOxTSuOlEXpDTFUPatO4auAiDP8pGXuKaUZJO25mEy5kI9tlihit4kFy79vRATjNINeRuoQiDRJu+Pc8Yrcvx9jJKEH65ZMIMqXzPkaBnkoSzggJINdF7dmznUDJGG3n+xb9+owlQDoQr8xmjXMhx7b6tIeIuOP0ajt7im3xsx4hFGLvhK2xhIigogOepJjIB4YfevUOI9WqCeyiqt++zFju2U6djOwYswtgNx7P6DU4ZJap1aTC/lGcrts7SSetTR7g902zfbMbIdkgZo/VfDXCeCKJa+zGakPP6yndxV+us6ag1Chrs+1xfYzvG5G9gJoI4ax1x4FzSkRV7QsiNVENG8s6bAkl1nIYuwtgNx8xEEGetfX6gF89CCqkmxdr3jb0tklzItO91jJxOBHHWGiIFpI0AY9+Pe1SEsRv+Zk7bPLW2p5AmyEg2thN+RN2EeaTeyPMv13OOp9beANJCqsVmjLxDUV9jO4Zk9vzL0SnqROtAj+28sSf2rwiDP8pGXrfy0vqy8NFv39dP9bA+x3aMydTIhdMcH60JUk23xWaMQszYjmAeqTf0aoBOBHHQWot9G2lsx5j8EGYZJQ8frbXbd9t22kJ3t2bGaNP8ZDJKO9GatW9PyeZG+h/bMSTUyJnT9na1jvZkGaN8lAwMMLZjTGZGbmt6eGutfKS2Jp/NjBFfTuAPpSF/rdkjNVuEYSHR8uEUYeyEfz8z9Ru8tFbOGF1KYztFQ43tGJPvwPQocdRaOWNk2jdvWCP3N7hrTe2bHdt5Qakr80i9Aj1llBit1R+p6diO26hjO4ZkZuShKw5aK2SM7syM0db5BcxEEBetyUhehGH8sR1jMpdRCvLQWn6klsZ2yDAEE47MI/UW+QJMRmnDWgdY+45LGSNsZox2xlcmo7RJrcloWRGGYGaMdsgxMxG0Ma27rH0/JIdEbOzT2I4h+XLE1G9sROtAb//HdozJV6Z+Y32t5Rkj256O7RiTT8xEkGatlTNGySAR93Rsx5B8O2LqN9bQOtA7pLEdYzILm9qyng9rLd7JxnZO931sx5jMwqalzAe17rZkYzueAxjbMSSzVwO+ivsDWkd7C0UYaGAWYeiUOSMve7RpLT9SZ5M356h3IGM7xuQTU7+hWuvFjFH9sMZ2DMlvJqO0UmuFIoyiWYShe34AMxGkQmvxfHFs5/7gxnaMyezVgL+xUuvFjBEd2/Ed4NiOIfnnMzMRpKh16l42tmMVSdAswjAQPwSliaCZ1uL5srEdwTxSG4qfKzJKVGuLLGPkN8d2DMnMyIWb3Dta5xbHduyHPrZjTH4wGSVlrdNxb+wMPZoZI8NywtRvKGjdqIexObZjbP79zE4EybWeHqlzRHwyj9QG5/tcRqm4VOt0wiuN7fTNjJHxOWEzSnKt22bGaJ84Zuo3GK3HRRhWc61hb/jOZJSmWofjMXs+RV7MjNFe8Us2EUS1HvgvpSIMc61h3zhmJoKo1oigaNm07z3ky1xGqTjW2hzb2Vu+ztVvSFr3HsyX1PvLzMj7ApSc5tjOPvPtCKaYR+p954+Rm/Z9CNCwqVmEcRh8OzLt+3D42zxSHxCfzIzR4fDbzBj9N9wAACgftkqMj5RyAAAAAElFTkSuQmCC;" vertex="1" parent="1">
          <mxGeometry x="1530" y="1440" width="59.39" height="60" as="geometry" />
        </mxCell>
        <mxCell id="WDrWdavG5AmVl67FFVOp-176" value="" style="rounded=0;whiteSpace=wrap;html=1;" vertex="1" parent="1">
          <mxGeometry x="700" y="1560" width="240" height="180" as="geometry" />
        </mxCell>
        <mxCell id="WDrWdavG5AmVl67FFVOp-177" value="Room" style="text;html=1;align=center;verticalAlign=middle;whiteSpace=wrap;rounded=0;" vertex="1" parent="1">
          <mxGeometry x="745" y="1740" width="60" height="30" as="geometry" />
        </mxCell>
        <mxCell id="WDrWdavG5AmVl67FFVOp-178" value="AP1" style="shape=image;verticalLabelPosition=bottom;labelBackgroundColor=#ffffff;verticalAlign=top;aspect=fixed;imageAspect=0;image=data:image/png,iVBORw0KGgoAAAANSUhEUgAAAesAAAHwCAMAAACxPLfLAAABCFBMVEUAAAAzP0kyP0ozP0kzP0kyP0kzP0kzP0kzP0kzP0kzP0kzP0kzP0kzP0kzP0kzP0kzP0ns7vAzP0musrbCxcg0QEpianLo6uzm6OqUmZ9JU1zX2t3N0NM/SlM8R1E4RE02QkyorLGssbVBTFU6RU9VX2fj5eelqq5ETldLVV5ZYmpRWmNxeH/g4uR3foWBiI57golGUFrd3+K7v8OhpaqQlpyjqK2EipGHjZS5vMCqrrNcZW2KkJbBxMh0e4LAw8ZqcnlfaHBOWGGcoaZtdXyNk5nS1djFyMyXnKF+hYva3N/Hy89kbXS9wcTKzdBTXGWZnqRnb3extbmeo6i0t7zU19q2ur7P0tVeW9MsAAAAEXRSTlMA6MX69O6n28yasbqJ4tSTg2RrWLgAAC+PSURBVHja7NddSsNAFMXxqU0/hFI7ZyhRqxRRHxQskr5oFUQfohU0mIe6/504iZRksoQz57eFP/deronOcJogGQ2NkJsMsJccGSHWQ1vPCKtZHx0abVIz1JbF6n51vUTt0Aij/9LbX1vJH65QMUIogff2bvfOCnh9I3QO4BWftpHdwhsbYQPvMrdti1NtcUZjAPONDe3mAKZGuMB7TW3HjwabzwTeR2Y71nM92XTGAM437uvOBtIbACMjTAYAnpxz5cIGtnq76MBbuUoY+0IHmw68Z1cpgzX+otZ04J242mNqG7la02m1drltLNSaTrv1LlVrZk1rL1NrZkHrb7VmFrReqzWzoHWp1syC1i5Va2Jh62O1JqbW8VDreKh1PNQ6HmodD7WOxx97dCAAAAAAIMjfepBLIdcfrj9cf7j+cP3h+sP1h+sP1x+uP1x/uP5w/eH6w/WH6w/XH64/XH+4/nD94frD9YfrD9cfrj9cf7j+cP3h+sP1R+zRsQ3AIADAsEosHaoO/H8snMCKYr9g1x2uO1x3uO5w3eG6w3WH6w7XHa47XHe47nDd4brDdYfrDtcdrjtcd7jucN3husN1h+sO1x2uO1x3uO5w3eG6w3WH6w7XHa47XHe47nDd4brDdYfrDtcdrjtcd7jucN3husN1h+sO1x2uO1x3uO5w3eG6w3WH6w7XHa47XHe47nB95PvH3Mb7XMz1Yu/O1tIIoigKg+IQjUnObptGEGgFESWI4hQVB3AElTj7/m8SLC2ksQWDDHUK/5tcJ+tLgbCt/oBhH6p8Pz1cfbVuzguHCQ9TX62bGkQdn4enhq19vzxfnlOH9zbubm6P4pxjN2wNsH4v0r7U8eM0CaWMjYohD0dNWsPr6W8jqAieUtVdGBUDHoYatI7iyQ9PP/uOiuQJ1diPcH0r06D11hKe9PVrtg9AdJUctrm+GW/Q+pGuTLavTe3xCxWbVOeI6X/shq1pienfql0mAIRLVKdss3zFHmjc+jEKYNjTt1Bxvf8m9jWAQQ8zA2jc2ioAGPf0LVSsG8ZkgBzmGR53w2jSmhZZnlbt/PeJbhuG8ZCgWvc2gO8eVtC0daqv/1+PAigYT+4CVCMQZPfS5kPFkd2gdSgOYMzTryYA7BjCpUUSx+NuHBX+ULRB6w30dWsvAL/x7IRq+Lm1RkXyPuva2lp/am39/WotW99ZjFsPo2KDXFs/5oG5NN3iq7VsbZwwbj0EoBBwa50+jsDcS9NjGMGv1saLS8atUTFFb1unr1aA5CxRdg7JebfWXo4fBrfeWrJYtzbP61sHTothIF7MEmV3EH1Yfdt6gO13ep9snWXb+heAeFq0XjeE2bU/xYIJRJcfiSibh3lIb1p/G4Qw+M2jP2fre7atvz+1TojWkdROPr+TCpuoKKyLv1O5AHuK3rT2QuC7zfhE60fWrc0yUTpoQoov5iYtqrAOI4iuUX3rUUj9MWNwtp5m3Ro5Igqcbmwu7e0t/dmofqFTvgCSqyRb1x3fC8ZaDMIgr88J+7t1/JzeOlm2YR6FqK71EIT48dPBn4nyns/2YWus7JOTtbsXB4KzFjlbj0Iwjx5JKPtNCCMefenUOh8Xb7qrrMlcygRiU2kiR+vhQQiFO5Ks2SAqtP4eTKfWy2crgDmXWbvZ2jJuN/0RVKQOEyTI1uPy+I5MBahG4jgCYZDvrzj1R+tvT62Nmb0YatgLmV2LyNl6EIL9+4TqPP42tV6R69XaMGZyB6mwDdix1EWxbJHTKqS/W+RiKwWNf0FEt9bCbMXTn1QnncGz2JVFrqyrGCrY7TT6t7VU19FYgGAvhehdoeWorh+k9U/r6Ws8W7ykhiZ3NP0grV9ap/9EISRvLWrCmgkCGu4a+qO1tR2EYC+X6APSf+IQfMymtF+tz/14tnNKHzR9wP2KCb1bF91bZzejEFZmLPow6y4FQKshg06tM26trfkVCNHNLP2XxFRYryGD7q1Pd/DMf07/LbRn6vTzl96tS0UbgvimqwX7ixr9/KVz69m1JIRoLk0tCqwltRkyaNx6vQDBPJimVsm3dlpcmaVt6zW/DaFwY9HnnF/oMWTQtPX2UuR1Y/RplhGEYLIeMujZ+li2OTqhlmk3ZNCl9XBN69u8CSH1YFG7nPy2uQ8Z9Gu9vRR3bIzaZusv8yGDdq1zKxDMvRC1TM8hg2atD3dMCHOr1DJdhwxatd7+HYcQPgxQZ5wyHjLo1NqfdHxJ3RqNhww6tX6xuEst03rIoF3r5JpFrdJ8yKBLay+EaDFL3cByyKBH6zETT8z8KXVJ4ozfkEGH1t99EFbmLeqe+yVuQwYNWk9AiG+mqWV9MWRg33ocgnlRpq4LbMghA4ufv5i3/jkIIWhY1H3MbmTg3doLIZJLUK+U+QwZOLcecGyMesUyFpjcyMC3tTy+CzfUY4l1HkMGtq3l8T2VoN7jMWRg2loe379PSA2rDIYMLFvLa+hSq6QM6zAGwVR2yMCxtRdC+CxAKimpPmTg11peQ7cUItVM5pX+II1b62GzehGGimZUvhGPWeshCLFDtY7vV+mcukMGVq1/QDCXS6Su6QNT0SEDo9bDZvUiDLU9KDpk4NN6CEJyQ9XjW/kbGbi0HoFgZ7LEQUjFIQOP1nJj5C8TF/vqDck5tP7lgxDctogP9YYMDFqPQIj+SRMvqt3IoHzr8Zfj+3qa+ClfqPTzl+Kt5UR0weB0fDuGDOrcyKB26wkIkWMVvqRmfyODyq3lRPRIlS+pW3OiyqMl1G390ycftsPz+K6xNafEkEHZ1vJL6in1PyZrLnCowo0MirYegGArszH6rFKx90MGJVvLjdHfLdJH729kULG1PL6v2L9Qq3Ujg3qtRyHYCm6MmN/IoFpreXzP7ZKO/u9GBr1bD8mLMPQ6vtUYMijVehRCVOmNEd8bGRRqLZ9UvDNJevvwkEHb1kMQgvPUdtnJ+fVMMTM1U1bkg5ndj/38pWnrH46H7bRT6SofxgszuKnGhzOBjZUPDBm0bD2GZ+3fGJWKETjEr0gJHxky6Nja53jYTjvdxFDPVCQ2la+bDRn0az0CIZ5LU7tt2HgrrMq7/KZDBt1aj6FzG6PJKNzckSqa3MigV+tfPsfDdtosD1cGqaPhjQxatZbH93qCOuDehBtTrZXi6vtDBo1ad3pjNANXQUV+yJasd4cM2rT+7uv0l9RFuDoi1bw3ZNCltZyIniWoUxbhap3Uc+p6I4MerQccD9vpjEQYrnp+H5oba9vlRgYdWsuJ6NwlddAJ3Cn669vpXKR+yKBBa29nH7YjbcGdsnuX+hsZ+Lce6PTDdqQZuFPsbXiDIQPz1nJjtLNLnTYFV3GFW1PAcSMD79ZeCLFubIxyDFvXDBm8vFvLjVF3LsLIwJWtdmuiyeqQgW/rl42RmT+nrsjAnfI3rgTmq0MGpq2HIKzMWOSuW60Z3LlSM2Rg2PpH9x+2cwx3D8TAdHXIwK318GAPHrZzBndnxEHNoyVYtR6CsDBL3bQNd3vEQ82QgU3rH/IijDR11SXcFdj8TsnrkIFH67GX4/vgkbosZMKVrcZs+D9vZGDQunoRBnVdIgl3a8RH4LY6ZFC89QiE8HqCesAPd37i5PXREiq3Huvxw3aO4S7K6BB/HjKYEEZUbe3YGPXEKt5xTMy83sigZOsJeRFGgNrOypZCoVKCmgjE4S7J7mq81yHDT+Vaj3fuYTvnUwcLEROwY4ublxY1cgQN3p29GTKo1Vo+6nJxn9osfVWA1PwFYhbvCHK7svjJVgrPRhVqPQEhdhugNjOCqGMf0vvSMW1esetuZFCk9UDHHrZj5Uy8ET2l9y3jHZFH4ugfe3falrwRRgHY7vsyhxkCaCCYsO+yg+ygYEFA1P7/f1KZGmwwBBISDW3vD22v9u16+g4hc+YZzUQGe7P+zsry7dxlO2XomZDd7iXs4D2ZF6UGRQY7s8Y3FjtGhYpAbPdHCHq6xMASu7jlFLZZgmYig11Zcz9aqYhWr4gDJtCVJwY62EU52Qk8VzVJLTLYmzV+NF0R9TrTMRL60BUmRrrYJeDanrjliQzWs04EsWbir6Q/CMPZE7b408LCzzVP7o3KhvDQVycy2JN17cbLVwoTFVEnL9vxQFfcZ6V1xqXd3ig1XWSwnjXxTfHi50M6Rs5ftnMNXT1i7CqAnbIn+jDOPbXNFhm+McqaPIkHffP65iMu2+labBQ9MOzUPuWwzU5k+BGGWZMsXhxYEXX4sp2U1dPUeew2PN3PbLNFhm+xJ+vV3qy//aDLdqKy1e/JmTl267llAJbTExl+xr6sw3hxwPKdcvyynTvF8pbVvYjdEn+Qk3ZokYE/UUlGWZfxYn9F1OCyHae/cl2S/R4k7BaskJOmmchg3AabDo2y9uLFnoqolH4izruBvoOSGjPsxtqnuMNpciIDX8Ku2gZZ34QMslY7RkXyESj0DcghqjDSL5LT9ue+IsMXAKQZ0c1aKIdQUx9hjSqi8sJHPsQtjplqJORhhOVdf3hzj+e54UQGvMgS3azvm8D8T9KSsLa7YyRl74gh59fwPDmIkIWhQuykv2oT4luoRYZv9b9asz/1sr7LhcCyGZLpg+HFzopockY+zLl0XNlbmMBYc0ZO25NaZNBvCvXI+6wvqgqQeCQkuoTS1vtzf/mMy3augtBV8B0a9ojBWPdktzm1RQb9R6vRdtZ34WkIkNfH7KJpsMEKL3SX79DkjnwkXwG62A051CoEY9KQnvZKfj7Xz1p9EdFGZHX5knNjURtGFKyTXj+oZJZAlZTwQm8MXfOWfLAk9IXJwZ5F7MG87hkubpoQK2B31mOeNSApisKwpiwbfFG8T4HVyLusvzAYhOGwrA3Hqf+MYK/+4kRfm9ImYJB1mhASTgYZ1lhwPrm8I2vCIojQQtjO+ktwSvWKfLyxHYc4onmGvYLt59Pb2b7LS6F83CBr5Yk/9vzx0Gg06hcZ8qrTBAp1QrRZ/2bUMXLeDDuYW3UbIg4QqJ7WJ7ewiqPZIgGDrNHLkHdaSwbWviNbWX9hOAjDeVEF+rrElKclwwFYIFc/mXenswgKg4uMcdZoXhCNTKwnAalnQrRZf+ncZTu++0t/tVq9rnSilo5TSzdmW7cyDiN3BxcnsJqft6XQpJISU1GjrPsMofxM/dcR7lfd4Pr3xnxEm7VaEe1eEJtFL9MyVGJ6ZuEDGznz/3EYDhVID25dXWjwjUX0Gt34qBP4wyjrXFUGmNhs53L5dIQ/oylddSt6k/Xv36iDMAS7kx7HobF+XbfLjQR9yhMxa5bE4ZiSnFTonTs/wOspBAbXYrtOacI4a08sW2BQMbFb0ramS9gI2j8I4yKCd7qC6W/YyBPTfKUAzFES09zi8Y+MzzhzwefjP+Jj3KRZqFpKJMOU7s/a47lcTLrNSCTpTefGf5ItJcC5QRi3It5jj2SXEnYIUWJeZizDAiamvMNJeVHxPNPb+1d/0NlDbOCvZbvNhKyIgV7u0Uccx4vD08a04G/RQ7LW2s4zmge4+TOx3VUCeqq7/4Sd4UR8xIKrcgHHYSq8E3B6t4AfCEiUqmK2SDmrWWvH1IuOXLZThq6JlcZBmViSGQfgmLaPOIf3E5TrQaDXoPT4rG+GakfniTihb7os+KRgh1CHWONrJBkcMiLOiV4rbNjoBcaUHp91dBR0dpP6JmT+BsScAyfxBJoV4Qg5QxwieALoVybypEhtyPqh7/RlOx7oko3+fudB7NLzEcvuVs785P6DOONiyYLlRcHrofT4rC+Wzl+2U7NyPsuPndICOcLFqI/jGS9R9p2/ZulwMjGg9PisM9cKuCYlzlmafDTjonPslBPIMYTb65SEIzl/SasQLiASy8q5GTWXdU0va0/gQzpGAejyE0MzySBsciThftyzMe4Fsd8fXoh+f3z5QKnJrK/fZ33v/ZjLdgQJuhrWln5uIpCjZR5yc3vy7grEblcTiWXDkVSJcvpZf3Ng1uqlIsx7S5z1ZHE32pfEbukosYHw5MlFgjgOS2eIzXylOJLhdLw2o8dnfVkOfFjH6Bb66mSPCxG7Nc+JTa46i/YRn99x+ydB0STkRVkcPlJ6fNb+FDilliGOmxllbf0kXqFDbBS9jdWWqSBMYpFBhtjsPMtC+XB/XqH0+KwrS+kjL9upW79Ryc+wmzIWiL2EzJ/PpVq2mRAVCcaYIgaa+dKfArGZbyCzZmMYH3Xo8VlfTkRwAY9APkId1s/Y5mFk+kSc4bu7oOvtrGq23e16vd5mKpXqeb3T7jCbr/oHscfbi3MfcUIxgvhgJKafKT0+63IfXPA6Sj5G/Yhzl742jIgld9YKrHpqs1Cu0ueb1EdnXZq+Lt82d4ysTBSskgP4lnsa/RfkX8M3Fpk33C2UO/T4rBv54CdctvMH9C3JIXxpGApVT/2Qreo5hcCqtu4YaXTCsZn5rEcJcKLfRz7QOfQVhMPCzsKYPHZ1I/BAfw6ZUlsFmg2q0RokGCtUTGZd6rHPuWxHCEGX9Cc5iFBjMJZYnXra0XKQLRvTgL9DNR74Zy7iz2ayrmWDBoMwnJWCvoptxy5R8J/0Sv6QQL9UFfNFqlGcKABXNZN10GAQhtPS0JcmhyoWsI+YO9mntPUm9fWg0PNQjdY4AFXSTNaclD0nn8APfcEoOdRTD3tJ08tTXMrVjtGiRbVGDBsBs1knO+RTFHH8gWrftYT95PzsxL5wC40AUrGJOJnRbVVsxMu6WX+xawxdfCWQz5EJQl9PIIcrJg48iNc5oZ/d914mlseF6cP28j34R9ahdl3/Ofy7HVNE83fk00yhj90SE67yDAcpZBun8aSWqSq6HaMHL6u9Zc3foh2StWYQxmdZYYchMWWWOnz/qfro9psfhFgckXBWrHaoRjEfAjZZ86MenfH+rL9zx0ivpxD0SS1iStQv4mBKKluiGdd+ftMmk/3+eHdr+e74A8AmayVfp7RVSgX2Zf0jOCn36SvaFDv0LOwOwIzgPF32/OG+T/DXjlG/RLUumwxvWTcvX37XY1eCcdabMXTTe/LpPNglTMy6XTKYxeLNdHXQmF08Xfl0dq3P/7x9qIxrtXH4gw5gCysRzXBarnWoRj0rAZus+VGPWTUIGGetLt+BhhsWMV8AO8TPiVnCzMtgDQsF5UI/kvQu/zZNRvqBuBhimx8gZ++J4zpJxBej+HbHqFMuAG9Ze4rr1+F9wDjrzRi6a5cMAhnb2sEUilMGp4SuibPuspI0iaXed4zyeFN7fR3OsCfrn18v2+m65rVhJo5dxtY2StsKnFIjzuGTY3vhbvy6RbcNsRGIqa/D92T9C7jEgxuW770/sUNFYsnTqABnSA4u48U5CoNruf1MNWY1zz+yVvhJvVgC2Js11pSRqx4+o33sEre6+kQ9UwlOKBNHqB0jPghDo5Ri4U3WzOvZfkcKr1HW8xviLo/YKXFOrHryzxlsVyWOiPqDbNpYvusYPSwZ3rLuD1p0K2teKtXN+meAgbVd9tpI6GKn1N1RB/H6DPYaEAcI647RehBGnWrMciKwyTqYK2r2PtTX4UZZA+LYXcPZnmTsNOdhW4+7nGSwT/Cc2O/mtWN0SbViCWCTNVs+vtvn4gt+fXfWAAsBqWcXPZwR0jDIo/8nOYpwXkkXmHtPXa43qbthb2DcolphEW9Zp1Yt+qa6eR1enKR0s/6eZ43gIsLAhm761Da8daVAbTims+jKDMdiE4HYTPAk1oMweMdIqxjAW9aN2fb+dWi94LcWCUQMs/Z4anEgWHbR03g0gt2UGLGBcF/JR0I4QtD+bf6LJYKjAR+EsS2Nt6y3VdFbL/iXPQak92TtCacVd33Lvokb/nyKElsIGVqaNOOSpaTzT8RmVzVFGoabCd4x2hIOARxLPtNt4/WCX88reDE2znpt0GRuentGZkEYSF4Q+/ieipVqei5KDAdicrdyR2yldozyYq5IdSw3HaMO1dPyB7Am1vdkzV0HXPRWnBBPCAaUhQMDCu7rFX81PU3248EQtjFFDsyby3ZtHCveEPvdeiGWF/HpA9XzrGCNfyrraTQ39w7tyPo3NWuu0VaAwKVbFvKYBCO9e+IUwRfNZJ4u/mi9mLVe0IuLq0w06uD82KtcSGrHkvzxWs81XjB+1OPxfdz1dgjgpDDVCqhZ//CWNbdqMmDqloV8wGBEqbnoYfI4QqWw7hjJ1RndYbrpGNXksEGPtEu1PPKVXtZcOQFIOZcs5OEQDBUq7noHdMwgDL9f7j7SXVpxKPxrWKn/7jm89Y+s5e197l6e7MqaH9D8/NaZ6iEIY3OPO/5Bj3GXD4Wysfm8RHcrSt5L/jpcwlbW9ezoLevQgmqEk82MbtaqkpcBvVviBp049ki65vnCGmElI9lIy9czaqC4WC/fVRHQZt0qx/HWGVZG2j+pLV5HiUfRzVrl7wNs4orbx54i2Ke/cslHjsVBGIVFWUzX6V6DBLCVdSwCbLJm2kf4zijevSH3U8Aga76Qi0B85YafMZkD2qDx6oUb/lHNO8/yy3YiMbqXZ8qwlfVzOgQ1a3WDcyMW6T8KmZoCw6y5ypIByRb5fMJKwV6SN3x6P7l9fvWyHbpPZxIEtFm3rmVgk3VQO4q0nhbLURIOQPXt2bf6WW8Gm7GsG7a2/5jjAMH2w2nF/by5bGe/R7wJ8b3OyhzYZF3TPsJ3ruX0E7ntQfXL2Zmatb7LnAyICxd8rYnWQjiEnA674iHjsE1qKVRd8Y6RqaxZMrZevoch/CPrmbamNJ/XydVk8yO+/vnMMGsu1pWAuRuudj/4eFaoWW654P/OQy/bKbeoqazVjtEQb2pbP7Qrj31CJQ7Vj2ecUdbcYs7A0i7Y2vaVgzgQC07LdVf//NZctmMma4Uv+J1/Zi0tNcv3rCpnz0krCRU/BGCcteqyGgdEvwt+qtwMGUydxhsX71zwj63jYn3ZzopftmMqa9YM8wfyxj+y7mteoLdWqUiR3OXflu8zlZq1ofAwBKTccLN7sQlzWLyX9Tdun1wVOe8YNXq8Y2Qma7VjpPyjMyzWOtqWaXzg8w1kvGI/npnImhskGVj3T/LpBM8c5jFJCSSH+dq40lhvET1xN5TWHxuVcS2fbibEYFCOZGN3xHnCZQIptWNkJmv+OpzPwNlkLQ01rYViTszfkWIEql/PuIOz5i5rBSDohhMDvkaKwSmi83s+91MWHPHLdsx53HSM3rLWvkBvLfpJur4JGdz7aTg/qlnvE24rQMINGw2CpwnHzM+Jk66qofUgjP6AWlHPhoBN1rL2lJfHW6gIvrEI1bdnW37al7V2a5st3bC1LcyGChzSE4hT+GU78zC/bMeCjr8AbLJOp7XLd17OXa1PEKi+P+MsZM1djgqAUnPFu6mb6wIcwWbEKbc9pl62YwG/9fEt6+LWJLve7dv3FL58W81a1cgqQCBM3MD30FWg4dpyP3c3kST1sh0LniVgV2f4svmSSbSs4NVXP5wdmTXHh9J63bG1Te5WzRDstiL2Uy/bacu1GbVmJkGl5GfaT3Gxllm/nFHx5fv4rF+HTYfc0lEif46bEuwk/UEc0GpCXpR5x8iqFDSncFUtf2F6v74JGRyfT2hL1txlPgjILukovbiLDWXYpkvsd5dlUj6WilToEa7BJRZbHaPEA8lch/Dqq9/ObMyad5Qkfquma0Rno2YQdgg8Ebvxy3bCw/h1hx5j1gQQnBS1TWF5lFm/nFF9ecbZlrXaUZLynz4K7Z+u6iPv0Xmn/iR2m2kv27FuVpu2HzTL9yje/ZPcTzXLt4HvrWStXuYkrlz1npmfxpskRVilVKPEZk9pdRCG7Srz1DO5qkrg+Ca1I1mrl7Ql3bC1vSVz4Rml52II5rBC7YbYLMov2+GDMEwrtntGfZXnoeyPCuECXrGfzjj7s+bGruko6fDddGLl7DIlMuwViifTC+ojNlMv28nWqXkdL1hj9x+t6XSMnMta7SgFXTZ+Y4vgu7mtNwbl62o7PZ02k6+m02E6VxuNK4+z+ztBIPbjl+1US3wQhgUrIDCjO5T4JvVEs3w7mTUXG0pApE7+ty06CrJlmF+2Y1qLf8UKrqi+x2584RNWmo6R01lz4wjAhk/kfxrrjlElxztGpo36ZUrrNd31QO0YdbQdI+ez5i5dN37j8/HLdvggDAtGDGmqj8+XTXbIeVa7Se181qpwOgT03dBRcofM35ftJMYtasEsALZa/zo/LdJtD9P4ineMTC7f3HfHZ807SgDc0FFyg0YA/VhenBSpJXWR5VuUtpbvR+DMJuLkanfHyPmsuUs+fmPklh2RT3TrZeogDNNiqWSH0lJsvR6UgMKM6mxSpzWb1M5mbdxRIv9trx2jxMDK8v0gQyy+bXUoC/qGd4zCgs8v4tVX3559StbcqsfccYnEpxEqr5ftzKgVeWBIX5Qjfkqfc2Ftx0isZsijZpP607LmHaUAEKr+ZxdyzWU75rTqfFZdZP0rP0P6/Tgr7z25GWp2ORzK2mRHyTVb2x/pKh9i2Zi1jlHdKw5efllarwedBNhge5xVoCFER0FwvGP0+Vl7PJWee8ZvfCTfSkZSvWzHNC9Q3uQeRLul3aQWa1HBo9mkdkXWnstyAghNXLW17bxZEvFxWR5a6xh5JMTXq3cj0uxQuhi0tPf1dC/IxfK45Zv7wuas1TlK8RL579BctmNS8SXdS0lcr/yPcYjFd03hhEeIXiuajpFF39icNVeZSvxS5f8G32IzCMO01kTqrUu/POLJu0F0z2mxzDepVS+b1C7Lmo/fgJR39RFou9Qj60EYsrWOkZ+hyX9jHXYaqeetOUbDG/KHl/1jk9qFWfOOEuTBv/6J/DzNpGqpb7VjlATG66S7conS53FRO8co9UwyubeK6M9n7sx6PX4jBMyL5N8sWn69bIeaV19vgvWU3Ou46DLVehxqBmHw5du1WXs84zmD1P73bm0Lj30ESlXZUsdoFZdewi7yRfshBPl5q2MUbz8R2mT/2KR2ddYn0VE6pmPEB2F069SCugz2wPeu1s/hLDjQ6Rjl3zpGv5+5PWt1/MYz+ffJjBS2bHj7jxlqRRmYrp/Dq4p3fXqjvj0IQ/CtZLz66sczW3yNF8qlxzHuuyLIvst2cnI5KtxTk2all2QHynSd75ghuf2Hc3LeqGNkHbiU3+OcWhxQ/l0dJX7ZzqKw/l/43PTqPUebquenm4B/e75sskXOs2yzfJ/ZZnP4r+JxTMNtVwQdKVNbb1I35+v6rI+aNQT+Yu/MFhJHwig8PbZtL9PdUz8VK6DsqyD7IpsgILKooCD6/m8yk4IGKmBIhIIE8t3M3dyc8YzmP3VOB0tiDyStnQk8j+WBFmEwR+qNcQIT7AmORk57lJ73w8iJm47thMaNb2+aHdwxru7PJZ0WqYmJzRh5O7Ieo83yGSZcZC380FH9xnrc18CebYcmz12iWAuZDMZVf59Ok4dAGGAWmjEaMRmjTfP9aGrkGQs33BWHniaCPkhXGttxh/2PiELusXquY4IDY1yln82zCzPVnpotSAJWBxf7nvELJjhiRQs3hiWjZ5TGYzuVUENEY86wBobCeHG+Gkxj3HaV2B6jmP0qhV6YHiNOHMMEW9PCDVq/4boy7Gn7OgzettU7O+mQFtZABYQsxrgQhor0D3kRxjl6uwHmSM2LL1MjLzUs3CjGdDQRpHlsx+WMBf3zdRJ3WCXFfEF6utO8Hi+gdjCLu3RhIdGyQo8RLyP3VTZp5DqeCNICaXih5L5M5giaElDt3j5o4gmPdrAPsCxjVI6ilRkjTkaeLHss3MhK9Rv6mAjSVISRfGra4ymmWhSr4zEJQob+/AYxrvbrOdmRmhZhrHxJzc3IwxyNnJ62QxkDXURGFTq2I6t1S2GVuAEeqlLuxDX5PZw9Ur+QVH5q359//7UtvsIE56Xbwo2cVOcS1lGPkiJim2aMkkwUWuUvZoV4Q0oEx+g4ogBJTGHHdkiRyRhtkU8wwXulysj3sH5jSRFG2b7wHWikRuo69Od/D2/iFWM7W+bb1Mj9T5b10f1EkDJ3l1IRRn3xs4Co5sc6Nnm1M8imMS4n89dsj1H/FXXjzNgOV5SN/IajkdOJIL++M0oiHdt5tslq01V/CO+DdyCp6oAmXsgY2Z9EkuFm39qN3B7netoGfUwEvQMZXEA9c+VdNocQxWoo31hmr+fZXjq7fGxnZ/w+ggmRtmUtjDER9O7YTsO2vELgHqunCFCrYtnYziPqxpxMxmh3/D2bfwpauEEzSnU9ZpQmRRjvVIN0sTrS+Yz0VfRyMWNEmCKMXfNzauSdooUb9LR9q7f6DWKRjtQdrzWAlkFaqjMofennmLFvOrbz2J87UuuA39PTdp3jadtTDulkImhhbEf2u4T2D+GJhVc7108XJYxG82M7OuEHTBAeOGaUaI/ShQfphXERRimSRizaP4T3wW6RF2HIM0b6YWrkjgTn07bwrI/TNgkmwR+MhRT+9u9hlVw9FGVFGPEUYsZ2dMU/R1vJKJVtOskotWogje1UzhR+7rFW2B4j3dn3MiOvccwo0fqNZJGgnZLquKQiDMWqbNLCH6FYk4owsvNFGHrk5+y07bbwgk4ECbV7xB/lsZ3LpPLz0hH+AIWYNx8lL/W5I7VO+efzVjJKWZs0EZRCOwKHwf6UpRkjBcTWB+w7uzC2o2O+wx+4ZpQS0mk7txMjP4sJzkQwsjIz84Y14w7XLbKxHX1zsp3T9o4mgsSGXRrbsa3MwkWxVl4r3maAeGz6t+8Z/06NPJm3qMYYE0FpOrbDZIzW+nuLLcKgGSND2PcyIw8/WfhBJ4IaItoad3Rsp37aQzPuibYP4dUhXkZuXIQxe0mtd/teEjZ13nK8iOSet9mjFLDSsZ2LIpkPCIcCmv7eyvT7eJEXOrYTnB/bMRJTIw/xzii5Yl3EHZoxSmbyTMaINLzOJtHwIfz1xgV9NWM7BmMaNoU+19P2duo33m4EXz5je35j/uf93uEt8M4ChwMA+irGdozHzMhvOBp5UDpt9wuIB+zYzml9/m04ybqgT9BSzvES3HVqc9YlYztiJqSjI/Warwa8cYsMI2WULBdwkbuyZwPzAeF4omz3a/kQHgcAp6wLqXqln4zR5oy8zr1+wxpAXOg9gzS2w3S5vNaFLAl4/SjQTCOG5S9w0/EmjoNQ8iyM7WB0FtPzleNDYVMX99N2/YWgjRPN+4Rbdy3ySpi/vaT/aUhaY+to1YdwGjyAPI7b2lX52E5GFJ+8ujxSr2Pk/Os3AISNTwSR4iRjJDIlhPb2iIy1FlNIjohlWE4FgDz2pOVjO7QIQ18Zo3X5tpXTtoeetstRtEHua9LYTpLtVLTCzbnVFpW0vlHxITyd8AGAkJUfqS90f6Re18j51m/4AGgefzOk4j7XpTvMzIB2r0kWKhFXJ1VFYk5U8SE8TP8jf7pmf9THRRj6zBity6et1G9kNli/QYIh6Ltj3vmMkVTG/poFKOFBPabmQ7gH4zqAI/6I5WM7es4YrW/kyqdtvU0Ejcd2vLEu8z9vZwhyWbi6fxbeez7aZYIHzmtcdz0P8DxVq006Ut8a40i95qsBoTa0LKCviaBUwumKuf3hKhsQLuGGpHXY4R2KysEjqmkS4Bo/D6+Xje3oPWO0Lp8MUr9BhrQII5QhaEbGKRVjZCStFU6pd3PBAwBJa3nGyF6OEsuFkY7Uaz3/4l+/sdZEUJWO7YTm/wXE/RaHKkJU61ILrUyEpytOAHDRhD8ztvMsje3ss30vM/IwTyNPOD6cUepWXK5OLsIIGrgCHIfWWOszgiiKH8Jz9D1jRp4xuhiQaN5nmIzRuvzkmlFiJ4KuPzq2YwsyR+rO5R+tg4q/96UmQjclrb3l62VjO7t/Sc0J5edfoTxHI6cTQVrrNwp9SDbK3vkePXEY8mWmWitaBbmnmt46L3HOJRvsqZalsZ3WqWDYI/WarwbAz7NHKa51ImhEx3YuTu+ZEkLh4RxNtVbkjAYP7ACXeBDEDLl+5BWl5sZ2jHikXtPIXTwzSrR+o59WnTHyCbQIA80gCQE6CFGtfeer/J8GD+B/KkvHdoIhg2aMNvZqwBvnmVHqg8qJIPISgYvhlbc8nzESo8kaNMdae87R6kT4lQsAnJUCe+WYjO3sw5F6XSPvc+9RaosqMkbO8tD2PC9oumY7G7nHWl+M0Cqi4xJRCLvlGaN+GqUSLp0UYeyGk6ml8a/fKKwc27kp1uoDNiAM0EJjrdMBtJIe1ZrurSmM7QhGzRht7NWAvbOjiSB2bIcJCDusz8KIaq2KLu2hi8nsOy59Ua+G9+tIvcarAe4TQR4po+TIiu8VYYCv2WCLMF4jwuVb25ckyA1ZpAbSotpihkY9XEVnsZl9/3XQnGypfsMHQGOgclJ5p3BbLMmCqBEovPZdPnhDA5VVW3eYIivCyBDxybGXR+qP8Xl7E0E35++M7bQD81sdcRSBW1e4WoFzpJIAlpPu2DspVNizjNFmjJx//UYSwFkOLBRhtEPMH2XRJPRJBKQjV6yfQio5X1qEMdrDjNG6/NpO/UbFx0wEpTp0bIcpwrg/dSezbRIBKaPQEpFKzvDC2I6bBLKmfS/jeDsTQVL9xuSZJckwYzsUcegULG4/kAgQpIEUZiiMx3bq+5oxWpcvsJX6jWlGCTNjOxTSuOlEXpDTFUPatO4auAiDP8pGXuKaUZJO25mEy5kI9tlihit4kFy79vRATjNINeRuoQiDRJu+Pc8Yrcvx9jJKEH65ZMIMqXzPkaBnkoSzggJINdF7dmznUDJGG3n+xb9+owlQDoQr8xmjXMhx7b6tIeIuOP0ajt7im3xsx4hFGLvhK2xhIigogOepJjIB4YfevUOI9WqCeyiqt++zFju2U6djOwYswtgNx7P6DU4ZJap1aTC/lGcrts7SSetTR7g902zfbMbIdkgZo/VfDXCeCKJa+zGakPP6yndxV+us6ag1Chrs+1xfYzvG5G9gJoI4ax1x4FzSkRV7QsiNVENG8s6bAkl1nIYuwtgNx8xEEGetfX6gF89CCqkmxdr3jb0tklzItO91jJxOBHHWGiIFpI0AY9+Pe1SEsRv+Zk7bPLW2p5AmyEg2thN+RN2EeaTeyPMv13OOp9beANJCqsVmjLxDUV9jO4Zk9vzL0SnqROtAj+28sSf2rwiDP8pGXrfy0vqy8NFv39dP9bA+x3aMydTIhdMcH60JUk23xWaMQszYjmAeqTf0aoBOBHHQWot9G2lsx5j8EGYZJQ8frbXbd9t22kJ3t2bGaNP8ZDJKO9GatW9PyeZG+h/bMSTUyJnT9na1jvZkGaN8lAwMMLZjTGZGbmt6eGutfKS2Jp/NjBFfTuAPpSF/rdkjNVuEYSHR8uEUYeyEfz8z9Ru8tFbOGF1KYztFQ43tGJPvwPQocdRaOWNk2jdvWCP3N7hrTe2bHdt5Qakr80i9Aj1llBit1R+p6diO26hjO4ZkZuShKw5aK2SM7syM0db5BcxEEBetyUhehGH8sR1jMpdRCvLQWn6klsZ2yDAEE47MI/UW+QJMRmnDWgdY+45LGSNsZox2xlcmo7RJrcloWRGGYGaMdsgxMxG0Ma27rH0/JIdEbOzT2I4h+XLE1G9sROtAb//HdozJV6Z+Y32t5Rkj256O7RiTT8xEkGatlTNGySAR93Rsx5B8O2LqN9bQOtA7pLEdYzILm9qyng9rLd7JxnZO931sx5jMwqalzAe17rZkYzueAxjbMSSzVwO+ivsDWkd7C0UYaGAWYeiUOSMve7RpLT9SZ5M356h3IGM7xuQTU7+hWuvFjFH9sMZ2DMlvJqO0UmuFIoyiWYShe34AMxGkQmvxfHFs5/7gxnaMyezVgL+xUuvFjBEd2/Ed4NiOIfnnMzMRpKh16l42tmMVSdAswjAQPwSliaCZ1uL5srEdwTxSG4qfKzJKVGuLLGPkN8d2DMnMyIWb3Dta5xbHduyHPrZjTH4wGSVlrdNxb+wMPZoZI8NywtRvKGjdqIexObZjbP79zE4EybWeHqlzRHwyj9QG5/tcRqm4VOt0wiuN7fTNjJHxOWEzSnKt22bGaJ84Zuo3GK3HRRhWc61hb/jOZJSmWofjMXs+RV7MjNFe8Us2EUS1HvgvpSIMc61h3zhmJoKo1oigaNm07z3ky1xGqTjW2hzb2Vu+ztVvSFr3HsyX1PvLzMj7ApSc5tjOPvPtCKaYR+p954+Rm/Z9CNCwqVmEcRh8OzLt+3D42zxSHxCfzIzR4fDbzBj9N9wAACgftkqMj5RyAAAAAElFTkSuQmCC;" vertex="1" parent="1">
          <mxGeometry x="850" y="1570" width="59.39" height="60" as="geometry" />
        </mxCell>
        <mxCell id="WDrWdavG5AmVl67FFVOp-181" value="Coure Router A" style="shape=image;verticalLabelPosition=bottom;labelBackgroundColor=#ffffff;verticalAlign=top;aspect=fixed;imageAspect=0;image=data:image/png,iVBORw0KGgoAAAANSUhEUgAAAggAAAF0CAYAAABG9MFEAAAgAElEQVR4Xuy9V5Bl13UluPa976X33puyQAEkSJCE4EgCJEGjFiV1aEoTMT0f+gJjPqBoKFoiNT98+uiW2GKIEcQX8NUf89FDRHerR2qJpEgQhiAJCCBAgDDl0ptKU+ndM/fuiXVenqyLh5eFzHxpXmadi0BUVeY15+5z7jnr7L322gJ3OAs4CzgLFKkFEomEp5WVTXGUPCQafjWELkvo//3UuLz11FN/ugxAi7TprlnOAsfeAnLs38C9gLOAs8CJswCBAdBe5pWu3yWefF08/bwAZ1UlBeCSiv4kA/xoaWL4yve+970NBxRO3BBwL1QEFnAAoQg6wTXBWcBZYMsCkkgkygOv+mxJiX+/58nnFPgMgG5Ay7JnyYYIrqriFyHCX6aSmRdW5yauO6DgRpGzwP5awAGE/bWnu5uzgLPA3iwgTzzxREljd3d9PIx/Sj08AvEeE+BuVfVVgTAMzZ09z4NkZ65VehNE5O/TmfCleLj23ptvvjn77LPPBntrgrvKWcBZIGoBBxDceHAWcBY4cgskEomaWHnNOUAfBPyLInJeobUA4kEQigUHlnIg4iEW80MRZABvHdCfBIofh+nUL5BeHUokEgQPjp9w5D3rGnCcLeAAwnHuPdd2Z4FjboH/8Ld/W1kVlDTG/OCTgPcHEuKLEDSHqqVhqF4Q0BmgKCsrQ21NNfjvxaVlpFNpeL4H8Tz4xqMgS6o6KtBfZkL/7z0P7wdr/hQws5ZIJLKuB3c4CzgL7MoCDiDsylzuZGcBZ4FCLZBIJGLrZWWV5VpaL4I7fc/7HEQfFJUzoWpbGIYePQaqitLSEjTW16GrqwNdHe3IBAFGxyYwMXkdC4tL2NjYgO/78Dz+L0lP5EYIeR8avqqZ4GXEgveWVaf/8ze/ueI8CoX2nLv+drOAAwi3W4+793UWOEILPPHEE6W1LT0dZWX+J1Tl8wLvPIDzgHYynJDJBJLJZLLAoKEe3Z0d6OpsR3NTI2pragxoWFhawtT0LMbGJzAyOo65+XmEocL3GXaIqQiY6TCqissqeNsL9IWVcP3V0lRqOZFIpB1QOMIB4B59rCzgAMKx6i7XWGeB42kBm7YYK1+9APG/BNHPQeU+EdSqqqfMX0ylhGTE+rpadHV24FRfj/EaVFdXGWIiwYGImP/TmQyWlpYwPnEdVwYGMT4+ieVV0g6A0pISFRH+n1botCjeUMWPMqK/WtPUlYr19VUXdjie48i1+nAt4ADC4drbPc1Z4LazwBNPfL+0oT3d63uxez3RL0DwIES6BagkOEgmk0IPAL0Gne1tOHOmHz1dXWioq6VHAFBFqGoAAg8LEvgnQw6zN+ZwbWAIA0PDmJqeQTKZgh/zURKPq+d5JDEkAb0WKl4W1Zf9UF9JJpdGEokEPQ3ucBZwFtjGAg4guKHhLOAscCAWINegvLyhLaPhXep5Dwr0UQB3QFAThmE8EwQSBIHEPB+1tTXo6e7EHefOoLWlGeVlWcmDLEkx/2GBAoHD2vo6xicmMTA0gtGxcSwurSAIA0NgzHIUJAnIHBRXQ8VzELwqqfQ75871jP3xH/+xS4s8kBHgbnrcLeAAwnHvQdd+Z4Eis8DFixf90/feW1OByj7f1wcV+lWB3K1AC6DlBAVBECLUEBXl5cZrcPpUH/p7u02mAlMYuejfTG3MviABgT2sN8H+nCCA3oSFhUXDTbg6OITJySmsrq3xSsNP8DwvFPE2IJiB4hI0/OdQw5+tIj30nW99a7HIzOia4yxw5BZwAOHIu8A1wFngxFjAe/LJJ0tr29oafZTcD8gficjdVEFU1WrSB1LptASZACUlcbQ0N+Hs6VPGc9Dc2GBSGUlQ5JELAPJZKPccCyB4/xvz88abwNDDxPUppNNpxOPxm0ABWFWR64D+PAj0v4XrmX8VWV0CkHL8hBMzHt2LFGgBBxAKNKC73FnAWcBYwPv3/z5RU99V9xkvwBfFk88KcJ7AAEAslc4IuQalJSVobWlCb083Tvf3GpDAn3Fxt6mNufaMeg6iv4sChOjPjdIiBGvra5iamcXA4DAGh0cwN7+IVCplgEJJSZyEBhXIDBC+r4rX04H3U0klfw2sTTuQ4Ea1swB9b+5wFnAWcBYowAKJxN81SJn3Gc/zHhMJL7CoEiD0GsTTmYyk02nxPR8N9XXo7+sxoYTmpibUbGYnWGCwE6/Bds3MBQuWn0AOw/LKikmLHB2fwNDwKGbn5sAQR0k8jng8RhGlJASzUHkHincV4S8zSP3i3ddem3KyzQUMDHfpsbeAAwjHvgvdCzgLHI0FEonv13iV4Z2ieFBVv+h73hcAlHOx5gJMtz6P6qoqdHaQZ9CL3u4u1NXWGo8BF+8oz2A7T8Fe3s4CBnoTyE/gvxcXlzA8Op5Ni5yYxOoq+QkgSDDnAAgVWBLFb0LBv6jKz1fD0je/861vOH7CXjrBXXPsLeAAwrHvQvcCzgKHa4HHH3883txzvq28VD6t8P5QFF8D0MgwA9MVVUNkMoEpqNTS3IxzZ0/h/JlTxmvABZs8A5udYHf6B/EGUa8CAQBTJvncG3PzuHT1Gi5fuWbSIglSqMS4SWQ0QAGQG4A+r6r/NVjHrxcXR6ZctciD6CV3z2K2gAMIxdw7rm3OAkVkgYsXf+Dfddd4dTwuPRr3/hCifyjAKVWtFBGfKojpTNp4B+glIMfgjrOnDc+ABMSsZ+HDGYX76TmImisfR8F6FNiO8cnrePf9y7h0+SoWlpYRj2U9Cb7vq+eBDV1XlcEQ4Y9Vw39SCd7D2tqc008ookHpmnKgFnAA4UDN627uLHD8LZBVQUSZX1HfCcXDHsLfg8i9CmkDTFEl6hlgI7lh0hYZRrhw5zn09/SgvLwsLwHxoEDBdtbO5TfEfB9BGGJxacnUdnj/8hWMTVzH+sYGPPFM2MHzPKoxUkxpRqFXofiXdCr8ScrbuFaaSi0mEolsyoU7nAVOqAUcQDihHetey1mgUAsQGKxUVpbXJaVJ47F7xMNjAu9TqsraCXVUPqY8Ml30zAxobm7Eqb5e9HV3obW1GRVlZWYRzs1OOGxwsJ1XwWQ7sHBDKoXZuXkMDg1jaGQMM7OzWF/fMHoMDEv4vh9AsA7VYQXeAuRlDYPnV+bSI5/+dP+aE1oqdKS564vVAg4gFGvPuHY5CxydBeT73/9+ydz6erMflt3tefiMQh+Ah09A0RSGGrdlmEviJaipqTJcgzOn+kzthKqqyi0SYiGZCQf1+h/yJsR8AwaWlpeNZsLIyJip8TC/uIiNjaThUmTVGD2qNbGs9CUAL4YSvuQheCtYXZ165513ki7j4aB6zN33qCzgAMJRWd4911mg+CwgiURC1tbKK2sayu5R0Qc8wYMq8kmBdqjCpwoiUxeZtkiPAQEBqy22NDWZ6ouUNqaiYa4KIl/1KD0H23kR7M/ZNlsQimmR16dnjCLj8MgY5uYXkEqnzbvFYqzvIGkoFhV4HdBXVfWNIMSbSC6OJRIJcheyRSPc4SxwzC3gAMIx70DXfGeB/bJAIvG9OlRmuuJB/BPqyVcB3A9BK1TLwjD0CQz4LNZJIDC44/xZI5PMaosxz9sqqJRPk2C/2rjf97FttX/SU2BFm1ZWV01aJItA0aOwsrJiykp7vq/xmB+KyIYC60yLVOAnGoS/8kJ5L51euOH4CfvdU+5+R2EBBxCOwurumc4CxWMBeg1KtbSmK+bJx8XzHtIwfMzzvA5Aa4IgNOEEyzNobGwwJMSzp/uN14Bkvu1UEIvFY7ATU28n28zKkAw1sAAU1Rinp2+YwlA27JDVT9BlQCah+m4A/V8h8OuyMHntW66+w05M784pYgs4gFDEneOa5ixwkBZgtUWtrGzwEe+XUL7u+fogFGdU0Q6IH4aBmNoIIqipqkJPdxdO9fWgvb0VtdUsqvRheeTjBAry2TbX+2F4B4DhIkzPzGJoZBTDo2Pm79R6yOor+AwpUPhhBapXBfrLEOEPAwS/xtraQiKRSLqww0GOZHfvg7KAAwgHZVl3X2eBIrUAsxMWF2tKa5q1O+bHHgLwu57ovRBpD0Mtt0JH/LOiogLtrS3o76MKYifq62oNs99WW7QL6kEKHh22GfOBBAIFelJWVlZxfXoaV64NYWBwyMg4U2TJelJEJC3AJFTeBvSFFMIXkmHySlkyuezCDofdk+55hVrAAYRCLeiudxY4RhbIahpUNUiZ/zu+731BVB8AcDdEKsJQvWQqKUkWNPJjRh753JnT6OvpRkND3VZRpXxiRzTBcfce2G7crgiUJTLy/UlcZMjhklFjnMa6yXYQ8jPU97xQRZgWOQrgTRW8gA19cXraH3jqqT+lN8EdzgLHwgIOIByLbnKNdBYozAKJRKIEpbUdvu9dgOrHPPEeBPQTCrRQ7CiZSomGanbCNdXVaG3Jpi2yFDPDC6b0oWpRZycUZqH8V2+nxsifk58wPjlpMh0mJqcwt7Bg9BN4xOMx9X0/o8AyFJeh+qtQ8AbC8I2ZjaXhpxKJZRd2OIgec/fcTws4gLCf1nT3chYoPgtIIvHdxlhV7AJCvQ/iPSzAxyFo1lDLgyD0MsxOEKC+rg4dbW3o6+1EW2uLkUtmxUMSFIs5bfEwTJ4PKJhQCxRLi8uYnp3F2Pik4Sew1kMqlYbnCXw/Fvo+0yJlQSHDGoYviy8vbWyk3rz01qsjTjvhMHrPPWOvFnAAYa+Wc9c5CxS5Bf7kTxJlZ85UN6PEf1Ag/w4inwC0SVVLGRFIpzNGIjkW89HV2YEL58+hr7cbdTXVTOUzMXcbTuACeZJ4Bnvtug/zE6ifYCpBGplmVol87/0rJjVyeWXV8DVoX8/zQgEyKrKGUN8KVf8B0B+tIjXyyg9/uPr888872ea9doq77sAs4ADCgZnW3dhZ4GgscPHiRf+uL32pNLaS/LiEwe8DclEhLVCtYFElih2Rlc/shJamRtx94TzOnjmFhrq6rYqHXAjz7ZpPCs9grz2TT+PBgicjtBSGWFhawtVrQ3j30mVMXp9GJsiAipOxWIwiS4wsrEHlhkIvCbz/R73UC1PDw9evX7+ecR6FvfaMu+4gLOAAwkFY1d3TWeCILEBwcO+9D3YHvve/ieiXoHInBF0i4tEbkEwmQRIieQan+/tw4Y6z6OnqNNUWeeSGE253QLCTbszN5KDNNjY2MHPjBq4NDuPKtUHMzMyauhRlpaUGhG3adVVVhwB5UzX8+4xX9uJf/fn/Nb2TZ7pznAUOwwIOIByGld0znAUO2AIkIZaV1bdlJPysiHxWFQ9DpB9QZicgnU4bj0BZWakhIPb3dZvshGaKHcViWwWVoovdATf5RN0+6nGhJ2FLtnl5BaPjE7g2NIyxsQksLi+T7mGKW1mNBQUWPE9e11BfRIjnF2bTr3/3u3++5kiMJ2qIHMuXcQDhWHaba7SzgLGAXLx40btw332Nvvp3+ioPq3i/L4J7yDMgMAhD8ghCEwevrakxYkfnzvSjva0VlRUVBjQQPNjDeQwKG1nREERWRCmWrRZ5Y86ILF2+OoDpmRtIp1OmQBRDDpuAIoDqOItAKfCP6Uzwxmo8HK9aXV1PJBJhYa1yVzsL7M0CDiDszW7uKmeBI7XA408/He+dXW8ISjNdGsQ+ERP8ngKfE5FqVY1T5Y8hBS4+1dWV6O7sQH9vj5FJrqmpNsCAvz9OdROO1OA7fPh2aZHsB6pSjk1cx+WrVzEyNoGFxUVk0hkTbvB9n2mRIbMnAR2Eh38INPyFF8rVYN0fB+ZWHFDYYSe40/bNAg4g7Jsp3Y2cBQ7eAhQ6Kisrqw680v5Avfs9D78L6J2i0qzQ6jBk2mK2dkJFRbkppsSiSgQIVZUViDE7IQwdMDjgrtouLZL9srq2ZqSaR0bHcHVgCDfm5xEGarw8JDICSEOwAMg4FK+ohv+yWS3yeiKRWHehhwPuPHf7mx5FZwtnAWeBY2ABVUn81V9V+hUVrRrGPuN5/mOA3isifapKrwGBgQSbjPnW1hac6u9BX3c3mpoajApirjyyiVGw6pA7DtQCUbBg+Qksic3qkAQKlG0mT4EeBYpVESjQowCAcYhZAIMKvIRM+JMgmX73nQt9M8/+8R+zrLQ7nAUO1AJudjhQ87qbOwsUboGnn346PrG0VF8Sxu9RwRcA+R2BXlCgURWxrF5BxhQOorgRtQz6e7rR1taC6qoq04BodoIDBYX3yW7vkA8kWGLj7NwcRscmMDg0grGJSeNh8D1TBMqEiFjfgbLNocirquHPBOmfBmtrU++88866S4vcbU+483djAQcQdmMtd66zwCFagOGElcrK8oa09GZi/oMe5EsCeUChHQBiXPTT6YxR86McckdHG870Ux65CzXVVQYw8Jxo7QQHDg6xA7d5VBQs2JRHpkVOzcwY/QRmPCwsLBrOAvuQ/5t+E1kS1XdC4BfQzM+D0H9zYrBi/JlnvkGRJXoc3OEssK8WcABhX83pbuYssD8WePzxx+Ptp083x6X0ARX8jqh8VgBqGlSGYehHVRApi3z6VB9O9/WipblpCxjkEztyAGF/+qeQu+Qjhm6lRa6sYmRsHAODw6bOw9LSMpiNsslPCLPeBKwp8K8i+EWYkZeDZOrNd955Zd55EwrpFXdtPgs4gODGhbNAkVngP/2n7zeHXninCj4jnnxVoOcBNAVBWBoEgWcXjOqqSnR2tOPs6X50tLehqrLS7DRzqy06UFBkHbzZnO2AAus43Jifw8joOIaGRzE1MwujfAk1IQfyE0RkFcCMKt7UUP85HvdencusD/znb36TRaDc4SywLxZwAGFfzOhu4ixQmAWMPPJdv1Pvl/vN8PRBUe+LgNwvwtoJqAiCwKeegUlbrKpES0uTUUDs7elGfW2t2WFaj4ETOyqsLw776ihQsPUuGC9g2GF6ehZDo2MYG5/A3NwCNpKsFpnVTvB9L4CAgGAQIV5QwU8zmeBymaRmksnkokuLPOyePHnPcwDh5PWpe6NjZIEsMPhSqe8vtocl8ft9ka8DuBuCViiaLIeAPIPKikp0dbSjr6cLbW2tqKutMdK9PHieAwbHqONzmpoLEvhrggX+nCWkWS2SZaVZBIpCS/w5+Qu+79GbQKWrGQWGVPEbT/AcUsGrmczyDeIMBxSO77g46pY7gHDUPeCef9tagCRE1comr9z/Hd/3vizAZ6ByBwTVNEo6nfFYOyEejxnlwzvPnzViRzU1Vab4Ty4wsIZ0IYXjN6Ty6SbwLTyRrcqaK6uruD41gytXB0xZ6YXFJSufrZ7n0elA1SWCgkEAv5Ig/MlK6L/21//33A3AqTEev1Fx9C12AOHo+8C14PazgCQSiUqU1X/Cl/BR8eQBAT4GSDNl+jOZjEd5Xh61tbXo7+3G6f5+dHe1b8kjW02DXNM5cHD8B1M+boLtV4pczc8vYnRi3KRFjo5NGj0FZjqUlpYQKISqGohgSiFvaRi+rKH34/np4N3vfe/PKLLkDmeBHVvAAYQdm8qd6CxQuAWefPLvyutbS05B05/xPO8L8HCfAF0AysJQvVQqKaowKohtLc04c7rfcA3q62pNgZ/caovOa1B4nxTrHbYjMRIssCIn+QmDwyMYHBo2RMY00yI9HyUlcYYdQgXWqZ8gwPOh6k8CpF7F+vqECzkUa48XX7scQCi+PnEtOoEWYDgBQB1Kaz8e87yvi+APIThlPQEkIHLxJ1OdqYoEBnecO2ukknmwoJLTMziBA2MXrxQFDASL5CCsr68bFca33n4PgyMjWF1dswTGLf0EEdmA6m9U9Adhxv/Z2uLq0N/8zbco5ey0E3Zh/9vxVAcQbsded+98iBZQeSLxVHVLediuoT4gvvfvRPTjUDSEqrEwCI0gDhf/srIyXLjjLO6+cB4d7e1GHnmLpEi3QuRwoYRD7MIieVQ+noIVUVpcWjKVIi9dvoaJ61NIpVOI+YbECM/zqZ+QgegSgNdD1R/EAzw/kVycbQTWEokEhZbc4SzwIQs4gOAGhbPAAVhAVeXPv/vdiqrVWLNXJg+KyNc9wf0KJc+gjGJHqTQVdJmdUIG21macOdWP0/19aKivBfEAgYMDBQfQOSfglrlZDwQKqVQS07Nzm2GHEczemDceBs/3EI/F6FkIKbIEActK/1Y977/G0sGvp0t18nt/9mfMn3QehRMwNvbzFRxA2E9runvd9hZgKGGxpqa0JZlszfhl/0aUYkfeHQrtZ/TAyCNnMlvAgGmLvT1daG9tQUNDvfEaMMc9WorZeQtu+2G1rQGiqa0cNxxfa+vrmJufx8TkNIZHRjF5fQrrGxvwYzFTzZPeBAHmIbisId4F9IWMJl/CxgYLQ7m0SDfctizgAIIbDM4C+2SBx59+Ot4xudAqZSX3eB4eE5HPAnIGqjWcyLNFlUKyzdHU2GD0DPp6e9Dc2GBIiRTAodfA6RnsU4fcBrfJDTvQk2Blm1n0aXJqGtcGhjA0PIJ5pkWGIXw/ZoS1RITyGnMKfTsM8aJ48ssAyTextjaXSHw77TgKt8EA+ohXdADBjQFngQItkBU7uqs8Vl5zRwjvfk/0S4D8GxHxNsswIwyz1XlraqrR292FM6f60N3ZgcrKSgMIoh4D2xznOSiwY26Dy7fVT8hKMptxNb+waASWrl4b3JRt3jCxBHoTYrGYmrRIyLQKXlHFTzWjr4WpzDVX3+E2GEAOILhOdhY4OAskEomKjF/bW1qCu8STL0O9BwVhjwLVNpxAQkFpaSlamhtx7sxpnOrrNSqIttpivnS2g2uxu/NJtUA+sEBvAo9MJsD16WmjnTA0Moqp6VlkWCLc85g+u5UWKZAJKH6hqs8rwleD9cXhRCJB/QTHTzipA+cW7+U8CLdhp7tXLtwCTzzx/dLGLjQLwjt9wRcA+YIAvQrUqoalmSAQZijQldtQX2d4BgQGrS3NqCgvN16DbFrjzcN5DArvF3cHbIWoop4oy0+gGuP0zCyuDgxheHR8s1pktsYHZZs9kbSKtyAIh0PgOUB/EoT++xPXSqeeeeYblHR2x21kAQcQbqPOdq9auAUeSSRijwAVXmn1aS8WexSKRwV6QSEdqspqi5KtixCitqYGXZ3tONXXY6ouVldVGa9BLjhwwKDwfnF3yG+BqFeBIMBW+1xaXsHo2LgBCqPjk1hbs/oJ5DBIKOKlBLgOkV9D9blgI/PzMFweBbDk0iJvn9HmAMLt09fuTQuwAHkG/f2frqhu9poQxj8mHh4D5CENcRbQStVQ0mlK4QsqK8rR3NyE0/29prhSQ329ISbmqiA6YFBAh7hLd2yB3JRIAgX+z2qR16dnMDA0ghHWdlhYMtkOPLL6CR7E8xagehWKN0y2QxC8vu5lJucHBtaeeeYZ51HYcS8czxMdQDie/eZafYgWSCQSMZSXtwlKPh8T+ZRCPyYidwKstqglqVRaMkFgMhE629rQ19uFrs4Ok6lQEo+bluaGE/gzBxAOsRNv40fl4yZslZVWBcMOM7NzmJqeMUCBoMF4FHyf43ezWqQsQvUSgCsAXhMPP3/z1Zfff/bZZ7NFQ9xxIi3gAMKJ7Fb3UvtlgW9/+29bYpUln4bifvH0s6JyDqL1BAbpTOAFQUYoe9vU0IC+3m709XSbGgplZaUGAETLMNs2OWCwX73j7rNbC+SCBUNi3BynxqMwNW0qRY6MjmP2xhxSqTRi8ZjGY7FQQH4CCAiuIdSXAg2fSy6t/+rKlTdnn3322WyajjtOlAUcQDhR3eleZr8skC2qFD+jXubhGLyvqOinBVIPaGkmE/rUKyADvLq6Cp2d7SacwLoJ1VXVjOHmBQbOa7BfvePuU6gF8mXOkB/Dcb28soLxyeu4cnUQY+MTWF1jzSc1hFvf9+lRSCl0FiHeChH+kwe86ofJK3/5l385X2i73PXFZQEHEIqrP1xrjtgCjzySiD34WF1jWdw750P/dwV+VwQtqloehqFHjwAn0Vgsjs6ONpw9fcpoGjBtMeox4N+d4NERd6Z7/C0tsF1apFXynJ6dxZWrA7hybQgzN25siSxt8hMCKJIqegPATzTUf5R0+K+ZTNWNRGJyA0h8MEXH9cWxtIADCMey21yj99sCBAYXHkFZS2V9X0yDPxT4XwBwtwL1qhpjVkK2omKImuoqnD93FnecP4OWpkaUl5U5AuJ+d4i736FZIJ83wYbBWMuBnAR6E64ODmFxcYmCn0YSXIRZEQghmANkVAQvIsA/pNZSb4uszrlsh0PrwgN7kAMIB2Zad+NjZAFJ/PX3+v2YPCahfF1E74KgFZAyCsxsbGwI6ydUV1Wip7sLF86fRX9fD8rLyyDIegqc2NEx6m3X1A9YYDs1RoIEI9schlhaWcXk9et4/8o1DA2PYn5hAfFYHBUVFep5pmx0JlSd8yDvKfS55MbG/5gaG7jsMh2O92BzAOF4959rfQEWSCQSJUBtl1fm3Sce7hfgARHcLSLl1DNIpVIIwtCkLTY2NqC/pxu9JCE2Z0mIzFxwYkcFdIC7tGgtEAUNtqQ0Q2uzc/OmrgNTIym4xAwIT4RqjEa2mcWeVHWEaoyh4HlRvBKsL4w6Ncai7epbNswBhOPZb67VBVjg8ccfj7e3n272yks/5ok+IJBHIbggIvUsw8yJkBr2JSVxtDS3GKGjjrZWtLY2o7K83HANbEVGmy5WQHPcpc4CRWuBKFAgCCBYYAokww6DBAqDw5ibWwBLl5Oca4tFicgyFO8A+jIkfG0jwNsL44NXn3rqKWZBONnmou3xDzbMAYRj0lGumYVbgKWYgdoaxHHK9/GQeN7vQfReAepY5C4MAyHHgACB4YRTp/pw153n0dfdtaWA6IoqFd4P7g7HxwLbZTsQCCSTSYyMjeO9S1cwNDKGpeVl0hPMt8JsBwCBiASiuBxAf4xA/0kCvTQy8v60Cz0cjzHgAMLx6CfXysIsIH/xF9+pKqkubykrDe4T8Vw4r8MAACAASURBVH4fqvdBpNVmJxAUMFxQUlKCjrY23HnHWVM/oa6mxsRh+fvo4bQMCusQd/XxssB2QIHfDNMiCRQuXx3A6NgkSGwUz0NsU40RQAqCJaF+AuR/QsN/Tq/5A4nEny47b0JxjwMHEIq7f1zrCrQAVRBVy1u88vinYp7/GEQeUoQ9UNQxO4EeARIR4/EYWpqb0Nfbg/Nn+lFXW2dCDDyiPAMHDArsEHf5sbdAvvoO9CbMLy4agSXWd6DgUjKZstoJJiwnwDpURlXwrxLiH9cy6V8mS3X2u3/+52sOKBTnsHAAoTj7xbWqQAtcvPgDv79/sKK6uqRLSuXfKvCQB/m4QllUyegZEBzQO1BXW4vurg7093ajra3VeA1YopkExVwd+wKb5S53FjgxFojqfNiy0mvr65iYvI5rA8NGkZGgQUPdDDuYYlEhRJjt8NsA4StQeXE9ra+XpBcWE4lE0gGF4hoeDiAUV3+41hRmAXnkkYT/yCOI+X5lu8Ti9yKGzwH6Vah0b4YTDDBQBSrKy9De1opT/b0mnNBQV2cmsmhRJecxKKxD3NUn2wK53gSrxkiZZoYdBgZHQMGltbV1811RZMn3Y5v6CTIJxasCfUnD4JVMTC9jZWUhkUhQttkRGYtg6DiAUASd4JqwLxaQJ598sqymuavb8+LnfS/8pEA+B8H9AEqCIIil0xnj56SwUUN9Hbo7Oww4aG1pNsIvuWWY2SoHEPalb9xNjrkFcr8D+2+rAZILFPi6zGwgOBgZGcPYxCRmZ+ewsrqGUENqKGgs5oeqmhTBBBQ/D1RegZ9+PVzxryQSVGRyaoxHPWwcQDjqHnDPL9gCTzzxRGljx6l235e7oXKfJ7hfEZ4T8RrDMKxiGWZOYCy5zAqLvd1d6GhvRXNTE6oqK016lhM7Krgb3A2OkQVuBXy3E06KfiNGVlwVofHGqSn4xNokNtSwJbKkCoYdbtyYx+T1KQyPjZsQxPr6hjmX2gmeJ0TuSyoYg+CVUPUlBMHbMxvLg08lEo7IeITjygGEIzS+e3TBFpBv/fVf11Wg/Iz4eNiDfA3AWQgawjCsUFVqGgglYevra9HT2Yn+/h60t7YYLwLdoQ4YFNwH7gbHyAIc71FwsOUB4DtsKoJy4Tc/D8NsuM3+PNStImSUHufPbdpveVk5qioruOB/gLdDEGBrlLBa5Nz8Ai5dGTAaClRjZFpxNi3SC0W8lAjmVTEM0V9pOvgpguC92tqysT/90z8lP8Edh2wBBxAO2eDucftiAXny7/6urBFo0LT3KU/wVUAeAPQsqQWqKpy4KGYU92MmjHD2zCl0dbSjproa8Zi/Nek5EuK+9Ie7ySFbYDsPQBTwmpBZdLHf+ruC/3Fxtgu95d2QUJi9JjQk3dCckwUMFiwQSERBAxf4hrpa1NfVbgGE3O8qKii2srKKoZERUwRqbGIC/DeBBLkJvu/RHcGww6yqvgfgxXQq/KFklgYmJiaWnX7C4Q40BxAO197uaQVagGmLQE2NV4GPifqPiacPGa+BohlAnB4Dxj5jvo/6+jqc7u/DHWfPoKW50WgcRAmIuU1xfIMCO8ddvisLbBfXz27msxy96J/ReP/W4h9mF/ObCzZ3/Td/lh3vzMgJoFzswYV+M0OHWTo2jVfJCvzgM+3zo3yD6Avae9Mb19hQj9qa6i3vxHZhiiwQ8LGRTGJubh7DY2Mm42FqagYbSYYdfKYXs6Q0335NFWMI8a4CPwrCzAvvvLEy8OyzCaoxuuMQLOAAwiEY2T1ifyxArkFzZ98dHrwviu89ANV7xZNOlqrPZAIvmUqa8cw0xZ6eLpzu7zVeA/IMbPnlfIIv+9M6d5fb2QJ2EY0u+tGS3/kWe/7MLOyRdFouuhyjNsV2a7HfdO/TM2aW+egiH9ndm/HNe26CiyjAMB+HmF9vgY/tFvJbgRf7u2yqcIjq6ko0NTSgorw87xDI981Z2xAoTM/cwPDoKAaHRjE1PYNMkEFJvIQaCiwZHYoI6zu8nyUyhs/pxtILCcdNOJTPzQGEQzGze0iBFpDEd77TGZPSBxTyeQE+C0EfVCs2sxPIkUJZWZnJSKCeAYsqNTc1Gk+CnXSjbXDeggJ75IRenm+h/8Aia3a2N3f29u+32vFH3fyBXcwD7voJBrJCXFn3fWgWfgsasr83W/usi99WDY0AgNzn5+uWXNBizynkG+C1BCsECOT3ECCUlZZ+qHhZtD3WRhYcWCKjVWMcn5jE5auDGB2fwOpmtgO/33g8TkiTFuA6RH4TIHwuDMJX1+en3/nOd76zeEKHYlG8lgMIRdENrhH5LPDII4/EHnzsD5rLvKALnv9QzJM/UMjHVLU2DNVnxUVOLrGYj7q6WvT1dOPcmVNGEZFuT7MTC5hSffMoZFJ0vXT7WCDqzjeLcJ4duQWeNxf4zTj95s76Znx/k9xnXPpZF79R57ScgIha54dJs2LA760W9Wh8fzc9VMi3YDkJ/LO5sQH1dXUfIijeqi1Rr4INO1DOfGpmxoCE4eFRzM7NgRlIfH+GHnzfY22HNIBpBX6KTOZHmVj4TjKdnipNpeYTicQH9dB3Ywx3bl4LOIDgBkbRWeDixYv+XXc9WI14ui9eEv+awP+yqn4MgpogCOOcXE3tBA1RX1uLs6f7cfbsKXS1txtgwN+xFLMDBkXXtQfaILvoRFPt7AOtXPbWor7p2reufOO631y4t3bymwt6dtFmOIAe783dPM/lNYz/m5j/TSJfrjch96WjC3q+RXovC/derimkM6wdySdobWpCdXWVIRpuF7LIfVb0PPt3WwmSHKIbc3MYGh7FtcFh0LNg5dA3z+HHnVLItITh64HoP0sy9dLk5Pp4SwvWEgmnn1BI335g3tyvG7n7OAvsgwUkkUiUoqSqz495XxH4/4cAXQqtB1AahqHHySPIBGZCYijhzvNn0dXZYYABj9xwwmFPnPtgA3eLPVqACw0zV1gXgIs2dz9cwAOz8BMAZBdz687f+vvmbj4a9882ISrml91LcTe7XUx9J83+qPH4Ub/fyTMO45wsoAoN74BhPfv97fbZ+QAFgQa1SVKpNBYWl0wRqPcvXzFcBT63vNykKBORBYCsAphV4FeKzH8N1oLXgLVZ503YbU/kP995EPbHju4uhVlAHn/88Vhzz/m28njsC/DwRQE+qYozgJaZiT9Nr0DGTERdne04c6rfKCEytBDfzL3Odc8el8m2MNO5q60F2P/0Hi0tr2BlddUo+XERy2Xh51vgc3+2UzLrdmPMejFOau9Y/YOammq0NGYzhHbqPdjOJlGOQtTLsrq2ZkSWGHq4em3A9K8f81ESjxugoAQKgjkofqsqLweKH2Nj/l2XFln46HMAoXAbujsUYIGLP/iBf++1azWBV3k+lPBLPuRLCnwc0FoAHl2L6Uya0qwmlep0fw/6WFSppQXl5eVbBK/o5FJAc9ylx9gCNi6eTqeNpO/K2ho2NpIIgmxoOjdWn4+QmO+8Y2ySA2m6tTNv3lhfb2TLcwWSCn1wNFxEhUaGDGfn5jE4OIxrg0OYnpk1qZIUQSMHKQvIZAOCUai+ppCXNUj/qtQLLr/22mtrzz777AdjjoU28Da53gGE26Sji+01E4mEBzRX+OWpbhF8QiCfV8VXIOhiGeYszyD7TdOlSGnkO8+dxam+XlRWVpjJ3ro57aQe3UnavzsvQrH1/MG1h4uKBQEcP5TzpSfBehOiv9+O2X9wrTs5d7ZhPC7KLU1NoBeBi3ihHoRcC0XvR+4BQQjDR8OmpPQgRsfGMb+wZLxGDElQaIl/ighVF68o9DkN9QWk0r+5FqyN/xdXLXLXg9ABhF2bzF1QqAVM7YTOM62+px8XyGdF8KiqnlVFVRiGfhBkhJODH4uhpanRiB2dPtVrvAaclKx7M9qO6IQfnVgcQCi0t47P9bnMeLaciwe9CUsrK6DUL/8d9RLsNQPg+Fhl/1tqM4MYVmhrbjYA/iC+s3xhHgIFPn99Y8OUkx4YHMbo+CSWlpcNQPGyHgX1PI/ZDqtQfV+BH4YIf7Y2l/zt3/zNXy64SpE7HxMOIOzcVu7MAi2QSCRKYrHqVsT8fnhyP6BfFsE5qDQGGpYFmcDjR15SEkddbQ062ttNhkJrS5MhQ1mvQW4zcien3HADdzx0O/O8WCxudhnO21BgZxbh5dsBQ/6c7ui1tTWsrq0jmUptgUxbK+AgFrgiNNG+NIkgi/Zi7YXW5mazsz9I+20HFMgxWVhcxNjYJK4NDeH69AzWVtcNUMiWlfapyEg1xuuAvhaG+P/8IPVuOs1/r80lEk6R8aMGhAMIH2Uh9/uCLWDkkauq6rx0rN/z5YsQPAjFOUA71IgdhX5WPS1uNAy6uzrR2d6G5qYGUzvBpk/ZVDW7A4w2LBcUWDEWAoPllVWz4yAwIMmxorzCgBAezttQcPcW7Q1yxwR3ngQH9CSsrm+YP+1u2HoSDnKhK1pD7bJh/Ka4k6f2QVND/VYFx13eZk+n5xIZeROGHW7Mz5uS0qOjE7g+NYPV9TWTxbKpn5AGZAGsFhmG74t4L6fT4S81lRmbnKyZf+aZb9Db4I48FnAAwQ2LA7NAVs/grlItqe7yY97DHrwvAHovRLo1DKuyrPPAiMfQTUmho7On+g04YFwzSzyyRWVuppzlstKjL2DZ49YNyfgzAYLZ9bBYQzyOigpWnqs0ym/c/eQDGvlAyIEZyt34QCyQC/4saCTQJFBgkSAy5OldsPyEaPaBAwsf7BZrT35L/G7IP6Cn77CPD4SSRCCb/AduAmZvzGF4ZAxDI6OYmb1hUiWzZaX9TX4KFqAYUMEbktGfp6A/l+TS2Le//e2kiETzWg/7tYryeQ4gFGW3HP9GPfJIIvbI1xraRDOfinnyqIr3GUDvhoLAQNLpjLCADHf0lERmZgK5Bo31dSZligMzV+zIWiUfQIiS08zkv0p3MlnsG1upblFmNMFBZUUFqqqyQMEuHjtNbzv+PXTy32A775AdP1zo1tbWDT9hbX19i59gww654+3kW+zWbxgVmyotKTH6BwTa+01O/Cg7R58XBXbsNyvbfH1qGoPDoxghkXF+0XiKuDlgtUgR4a6EEs3vhhq+iBA/8XX97TfeeGPBZTt80PoOIHzUaHS/360F5C/+4jtVlY1ln/YQPiiePATFvSJerWpYkk6nTeoidyCNDXXo6e5Eb3e3yVLggs0jGkq41SQdZaXz74xJcsJfXWNIIWkmfENc2qxJz3vx3/b+1E9gqmR1VaXhONhY6q1CGbs1hju/uCyQ66K2/BRyE5ZJZEwyLTKbPeP4CR/sO/td0Iam7klzlht02ADBtirfc6MexMWlJUNgHBgaMRkPrO/A329Wi1QRJFUxqYJfeCovpdPhqyvzmSvf/e6frzkiY9bKDiAU1/x1rFvzH/72bysb0mXdYSzzSYX8HoDPeCJtqloZBIEBBty9VVdVob29Baf7etHZ0W54BnQB8oPf7Q6e9+N91zfWTTobAQJ1E4ySnshWfNR6CCxIsM/ihMHdECc6pk/So8H4qv29czMf6yH5ocbn8ypkya+h8TatEFyub5gQhAWgzpOQtUBUpZTfCiWW6e076mNboEAEsBl2uDIwhMGhYczNLxjRNX738XhMPU8yCiwKZFChLwca/Fwz+g5SK0OJRGLjqN/tqJ/vAMJR98AJeD5JiKqVDX6lf6eoPAqR3/VEzoShVgPqZzLZokqUqW1rbTWZCSzFTOEjuv1ssZuoKXaatmhFcbj7o5s46lXYLoXNTigWBFgvgwk7VFagurLKkBgdODgBg/MjXiHXo0CwuZHcMLwVhqhy0yJPvkW2f0P7nXJxJahnCjLBdDEd+XgnnHfoIWK44dLla4bMSP6J3UAw7OB5klJgGZD3BfhJkA6eC5LBJZFVZjvctkWgHEAoptF9vNoiTz/9dGxubq4qLaUdvuc/ooKvAbgARYcISsgzyKZEAdVV1ejp7sAd586iq6PNuPZzdyXb7dQ+QEoyxMVsfjsBgSGaReLHdlHfSX57FCDYv3PCozeBJMnK8nIDYKJeB7ebPF6D9KNamzu2snFsNWGqG/MLWM8BnR91v5P8ewIEG8tnBgOrOB5VeOFWds5tE7OXmM1AThP5CMOjo7g6MATyFOgtyqY/WxKjtyaCGQ31MoC/DzV8IdyIjT7//H9fe/755287oOAAwkn+og/w3RKJpyti5at3Q7wvAXo/4J0RoEOhlRQ7WltfF4qWNDY2mKJKJCFyx2HTFvPxDG61+NoFP5VKmZ0ddwRkLdODECUqbeeFyGeKXLJTNKxAVbbyslJTFIpAoXSz1v1O+REHaHp36wItkG9Rs2GlrF7CugGfHF/Wrb4TwFlgs4r6cvttECCQf9Dc0IDa2pq8fKGjfpF8/Ws3DgSARj9hYRGTU9NGkZEZDysraybUWFpaQhJjqMA6FKOqegkizyMZ/vitt35x+XYjMTqAcNSj+fg9X/7jf/xem8a8LwOgpsFnRNBNReQgCMRUWwxCqamuMgTEM/296OzsMGWZ+ZFaN+Vu4rtWPZGT9uLSsuEbMI4YdQ/nK/G7U9PeCiiYtMiyMgMUyE+waZGOyLhT6xbfefk8UhZ4MrRgiYpRbxTf4nYOOUUzGCorKw3Yp6ftVkC/GHr+w94EVorMykJzrpqemcG1wREMDA2b+g7ccMTjcaUmi8l2AFYVGNJQX1PRX3gx/dHI++9PP/PMM7eFdoIDCMUwio9JGxKJ7zZ5Jf5ZLyZfFJGvAHoPINX82Ojy56LNBZSux7NnTpn/mxobDDLXMDQf5K28BPnih+beQYDV1VUsLC0Zl6Ct0HeQLHM+NxpzLaM3obISnBz5PnaSOSZd55qZRxTLAlaSE00FyLU1ECgwxJB1S2cXE3d8kKBYx/BCQ33R8Q920k/RTYXlPy0vLxtewpVrrO8wYfgn/PY5l9nQA6DLUFwKVf6Xp+lfptaDt//qr745sZNnHudzHEA4zr13SG1nOCFTsdgZ17L7fAn/AIKvCaRcVX2yv03RJGVt+DJTgvmuO88bTQPyDAgcLNFrO/d/LsqP6hwQEFBnfXl1ZUv0JJq2eNC7OgsS+Cfd0Aw3kJ9QVVVlCtTYIxfcHFLXuMfswgIfJCR6SKdTWCbwXFwyYQWKcrGPo+GEgx5fu2j+kZ5qvwOTnlxfj/q6rEfwuB35PArWKzg/P4/L1wZx+coAJqemzHyzKdlsU15DQFKq+nKo+t+DIPjJZGp57JlEIjt4TuBx/Hr4BHZCsb4Siyo1dHU1ildyRyyU/9NIJAMdgFSqhp5Z/ClAEoujva0Fd5w7g1N9PairrYXHcMIO0xZzmeRW6W5picBg1ezqeEQZ04c1Odm22Vg0/039BIYcaqurTTzWCrTcyjtSrH18u7Urm9IYYM0AzyXDZaFbOdcbdVjj67jYn+Of3ztVSJvIP6gpTv7BTuyZCxL4b84tlp9ANcZrg8O4fOUaZm/cMCmwBBH8PTMeAKVOwqSqvJgOgv9XvPS7N8bGZp566ilWkTxRhwMIJ6o79+dlmLa4tlZeXl4TvzNeEvu6Al8UCU9DUaeqJfxgqDXAj4qxyFP9vTjV24vm5kajSmjd87tZMK1OAcEAVRDpMdjYSH4onLA/b7i7u9gJxRK1+CcnC3ISWLDGhB2oxpjjxo4Cn9098eDOzufpOEnej+28UTfDCUkDOldWVkzIy/YlLX67ExG3G3V23DMFtLq6Es0NjUaB1ApKHdxoPfg75459Gzok32licgqXrlw1iozkPtFjGI/HTBEoAKzvMA/VSwp5SZD5x9UgeeVGY+PSM984ObUdHEA4+DF4XJ4gjz/+dKz+1HxFeVjRGfP1M4rwUc/zHgDQG4ZaGoaB2UXYQi0d7W3o7+1CZ3u7mTBuVVTpVosQfxeEWaGa3PxzO3EXSyzYgh/+mU2PihmyFoGCqe0QjxvvCY9iBgjRMI59F2vr4zJgc9uZCw7s+3D3S+DJSd9mv0SLNBVbLn+x2T9KUGRooaGuznjOip2guBs7RseO9SalMxnMzc1nazuMjpk6D0yrZjjV93xTVlqADQXGAPw6pCJjGP5iNdgYXJmcXDkJHgUHEHYzik7ouSyqdOpTn6qqTMX7pNT/NEQ/5kE+HQJ3ClAXBNlwAolbjL1TFrmP8sgdrSYeSVEhy0XYzmuwHUDgfdeTSZNvTrcvK7Nx8rYEsWJ09dodlZ0gjXxrPG4mzWy1yLIthTm7+BbbLp125QTIhVMgIAmzGG29m08uF5Dx3/QScGwxNZby2wwnREHncX/n3dhnr+dGUz2bGxtRW0Pl01hRaiDs9R3tddHv1IYdWCZ8evaGKSdNyeapqRnj5eS5JDGazYvICoArULyhCF9TT14LV7xL77zz0upxTo10AKHQEXW8r5c/+ZNEae/5mi5fcK/vefebcALQr0BpEISxTBiQTCClpSVGe72/r3dLBdFOElEJ1ihAiE7YuZO35RlQH53scQIDm51Q7CSx6CQSDTtkPQpxVFWUm0mUYQebXx/1KGwHovZzKOUDJFGvARdOqk+SBErvB2PKxy0zI/cdo54QW82THqm1dWYn3Awn2PHlwMHORpwlKFJWmSFFFmg6qbbL9UJFuSkE1KwQOTQ8YsIOFFpKJlOGyBiLGdnmAJC0qg5A5AWo93wmyLw+dGlx4r/8lwT5CceOyOgAws6+kRN3ViKR8JIlJY3lsbI7PHiPQvCoQM4D2hCGWpIJAgkNOcdHfX0d+nu60d/XYyq4UReA8ojbAYNcNB7NJ8+6e9Nm0iYKZ855tkbDh2PAx2ESshPKzdADyZQeykpKUFlVaSZTehdsiOSwPAm5z7EcD+OxYc0BxuE3d0G2bG8u2bLYB30+W1rgaap5rq6aCZwu4VxQcBzGVrHYn2CLtqYMOccKvWT5wjnF0t79aEfu+3G8ZMF+iI1kChOT13H56gCGhkdNiix/TrVGE3YQZjpgAUKPgv4oHYSvksiI9fXrx0222QGE/RhNx+geBAYAqryymm7A+5Tv4TEI7gekVRUVQZBh7QQzoXIX3NXVYYoqtbe1GuY+iTq5wCB3ss33cdFE5BnQ3RvlGfDcXJGj4zh5W0+C9RRk3Y9UY8wSGclTsIVtDoObEH2GZe6T9ElvDd3tDC1Y2Vx6hnaicFlsw9y+o/V8sMAS3cEWeAas5hkhHzoS4u570AJfXknlRGYwEPCedIAQtVTu90qgQKDNwk8jo2PGm0BVRs5tPLLZDj4n0XUBpkLV90TwLwjDX2T8cAgrK6zvEO6+Nw7/CgcQDt/mR/bERCJRko7VNJfEvQs+9Ksi8oACZwHUUx6ZAjEc+PQatLW24NyZUzhzqg91tTWg9HDUnc6XiC7k+SYMOyFbrwH17blzZSw4N5xwHEHBdh0ZTYnke5GjUV6WLStNnkLskArcbGWGpNPZmhVrqyYzhEDNHhSLoduYFTaP42GzEwh6uJMjQKAr2E7UUe/VcXy/o26zHctc9Fhcra6mdqvy6lG37bCfHwUKNo2b3tDZuTmjxDg0PIaZWaoxkshNkS3yEyQUkWVVnYDIawjDH62ng5/HMytTiUTxhx0cQDjsUXYEz2PaIr0G8YraUwr5KiD3C/QeBdqy4YQMgkxgPnzuEiiRbEsxc1EjcIh6DfIt5rnu3qicqamdwFLM6xtbqVEnPQ4cBVPWS0IFRoYcmPHBjAe7gNshsV+eBeuRseGExeVlIwQUBJSnzj7N9iHTtloambZWvAAhXyjBym9zgmaJ5uXlFROusjwEvl+xZL4cwSe/b4+03z2BJAmKJlvpGAok7ZdB8s5zAKjGeH1qxpSUHh4dx/zCIjiv0tvCzdVmCHVWoe9C8WII/WG4FlwCVpYSiQSZs0XJT3AAYb9GTpHeh2JHzR19F7yY/5BCHvCAexXogmp5OhN4mUxaKPzDcAJLMff3daOzo93IClsS4nYhg1w3XNSFS7Y4d6vLa6tmcbJFlU5COGEnXR21WRRc0dZl5Qw7VBouBydeaxObFbFXb4q1P4EB3e1M6SMwo8eGMdIoKLPto3eDcWVqOWyhh5284CGeEw0l2HCJzU5gOIHAkym4FhzkjrFDbOqJe5RNB2WIrLkpq3Oy1/F5EoyTz1O69f0GIRaXlzAyOo6B4RHDU1hezso2E4iXlJSQxJiEhNc1xOsQ/RUC79XMRvDut7/95LyIFB1IcADhJIzaPO/w5JN/V97Q5vUIwvsh3v0Q3AfIGQ8gMIilM2nhh87wAeWRCQoYi6YbkbHyaOzR3n47rkEUGERJcAQI2eJNrHmSjc3dbi7ffECB6aLxeAnKSksMR4GS1PQuMLb5UZ6aXG+DtSv/pJ25i7a5/jZllF4DPjNqewtG+FxO/AQsxRRXzt2p2VBCluCarbbI9+P4itZOiHpHTuinfaivxTFF27P4WnNT06GFxw71JffwsHybJgsUODZvzM1j8voURscnjOASQ3wQKDcI5CeIyIpCh1TxFoA3EegbQTL4LVBc/AQHEPYwOIr5kosXEyV3fbq8RcP4hZgnn/M876sK7RegikA2k8kId1sm9tzchLOn+03aIuu7E+Vyso0S7nLBQT53L8/hzzlZc8fKWDAXKsszOAqJ5GLrI2u3aOiBEy8nDAIEEhm5SEfTIm/1DlFXOs8zHoPVVaMSSGBGoGaBW74d9QcBQpN5frEBhFzgSU9BNjVzHSlTzTPrFbHj63be2e73eLfjlOOEnBlmMlHzxNn4w5bOF3ZgSIFgdmY2y08YGBrB7OwNM0cSrDMtUkTSAllXYBrQ1wT4YTqTeQ2plaFEIkE55yM/HEA48i7YnwZksxMaqhBP9sRi8UdE8PsK3CMitZRHDsNQSJ4hOKitrTU1E86fPW08B8zXZ7XFfMpo23kNojtXLkZbJLH1NZO2GPUWuFjwzT7O9ShYEEWvDYmC9OhwV293zBZ8ZkCmvAAAIABJREFURUdJdOHk/RjCIc+Ai2dW0CpbROpWPI8tgGD0LZqLwnWcy8GwY48ZFwSdfEd6DaJegpPOZdmf2WH3d4kCBIahmL1QU1Nj5MTdcWuQYMenFXvjvDs2MYFLl6/i2tCwKQ5GOzKES9lmlpVWYAPANQ31hxroP4QpfW9ionL5mWeOVrbZ9ffxH+2SSCTizE6oKPG+COCPAHxCgWYRKVNVsa5YxhFZZfHCnefQ1dGOyooKs4jkVlu8VSjBmsuSxMgaX2Sp3NXV2zqUsJdhZBfErBBNNvzIXPO6mhqzoydosCI19v52x8yf00vDglZLrCuwWdBqp2EcG8ooLy9DK3Pby8uPzIOQ67mw78DdFl2zrOZJ7YbjIqS1l7FQbNdEQ4wcGyzhzvnDHbe2QD4vHIEAF1qO4fGJSbzx9jsYGBw23y9JjBEeEtW85lRxRUP8d5XYj+enrg3U1tYmjyot0gGEYzzi6TXYKC2tLUPZp3zf+0OR8GFAugWoDUOWYg7Mjqu0tAxdHW04e/Z0ttpidTU8I/qRzU6ILj5Rc2wXZ+PPOdjJHCeDnGI00d1fdJE6xuY9tKZH0yL5UE4YnIypTUDZZluO1tqYhE8CsqxK4PoHbB/1LtzqBaIAoY0ehEMWv8k3kdrMAwJWvpdJW1xfM2ljuR4R5+o+2OHJ/rGS5/RsNTVm9Q/csXML5As98GdMhbw6MIyrA4NGjZGhCH7zDPGKMC0SDDuMSai/CSE/DtZT/6u9vfbGN77xDX4Ih0pkdABh5/1dNGdevPgDv7f31bKapo4+z/ceFejnmaEgkA4TSshk0xYZ66qrq8vyDPp60drabLIT+OEzF347PoF90ejvo6lzdGlz18pJ3Hof7OTuJu69D5Oot8DUd2BaZAWrRVaYMBCzDKwKoi1TbLkIuwVlFiBUVFSgrbnJTFCH2Xf5SIgkU24kN0ylxZW1LAnRAljrrt27dd2Vu7EA+yeriRIDCzSRf+BChbux4AfPtd+p5RgR4JPESJGl4dExLCwsbuon+BYo8HtchOr7qvIyvODF9SRei2eWqJ9A1vehAAUHEPbe54d+JYHBXXe9WxmU1fSWqndOfDwAka8AejoMtZwFk8xA9MTElBsa6nD+zGnDNairrd1yV+80nS6XWJclId4sxczf24Imh26ME/xACxSsfRluYLZDqJotOmTS+ijtSjGWm5khuzGJHQP0VDB75aABQi4gsBOmbXO2dkISC4uL5h0te94Bg925tPcD5Fn+AfuANVgIDmprak0uvzv2boGol9WmkM/PL2BwZMSQGKemZzb1SrLfNsWWTH+aQlD6EkL8UxhmXlnXkqEbjaULzxyCR8F1+d77+1CvpJ5BXWf/mTLfvytU3O8JHgZwAUBJEAQx1k4gpuRus721Bd1dHYZnwEwFG8vOrd++k8mECwl3rQQGJrVsU6I36jHYyX0O1VjH/GFRYHYzE8QzMgV24YyGEvZif3tfAgSOEWZT7OU+OzX1dt4qhkvWNjawvraBtY11k4Fh63I4PYOdgYNccqcNx+y0b3LPswCBfzLE1djQYPhK7ijMAtHvmneymytuvCjbTH4CvQnj45NGLpzfAdUY4/GYAroByKiGeEUELwaib4eSuYaVlYWDrO/gAEJhfX7gVz/++NPx9valer/SPy+h/JH43iMAOkW1MlQtz7CQCvMXNwVvGE7o7ekyNdutnoH94G1jd7MQcEFaXFrG3MI8ksms4Fc0rcy5HQ9uCOR6cKL9t1OuwXat2wIIFRWGpMj450EeuYvYzWqLDFVtmDgsx1Y0K2E34/Qg216s97ZeoHzhmkJsx/vZ8UH+AbVRmFnjjsItkI97Y+dQgmVmODDT4eq1QVM5khsyzrexbLYD0yJXFZhVDX8j8P4x1ODXq0iNlG9sLB8EkdEBhML7/EDuYAmIFVLSI573oEeJZJF7ALSGYVjGD9h4BETQUFeLvt4eUzfBpKyVlW6V7r0VCfGjGm4Hs5WzpReBzNtc4aNCJqOPaoP7fVZjIneBLdTm1hNB6VwCBEuEPEh729RNcguWbbXF1AcJrny+A50f3Qu5glq2NoAdJ4V4X3gPjg/DP6itMRopUS2Tj26dO2MnFsgH7HgdOV7Xp2cwPDKKoZFRzN6YM4CNfeD7pqx0RhVLAh0A8Fqo+hy8zOvB6ir5CawYtW/8BAcQdtKTh3jOZrXFsnSsurG8xH9QRD6nqvcBOC8ilUEQeiQPUSSGzPOO9laTutjb3YmG+votNb5cTYO9LCjRAcy/M1uB8WESbGwZ3dwY+F6ec4jmdY/atIAFCNwhkoOwXwvAdqEEPpbeLqbFmuyLtXWjVe88BjsfklHbWpDORZxhAO7wk6m0CQdGicPR73Gn36blwNADmeUfVB9o+GnnFjiZZ0b71XJu2If8TsYnJ3F1YAgTE9exvLIMZkPbcKAnkgZkRgXvQvVnYUZ/to71y6Wp1OJ+hR0cQCiiMceiSql4bXOpLx/3PTwI4GEI7oZKIzdW6XRaOHAMcaihwYCCU8xOaMl6DaxrMN8r7XRyiF6bO3D5O05MJovBpqBFFPv2MhkVkflvq6ZYQaWaqiq0NDcbQlQhx61cpwQG9BowrmpLTedqGuxlfBbS3uN0bW6oif/mQkJQwBoaLKjGFERqYdhy3lmZ7WwK825AvPVWsX/IT+E8Q5KsOw7OArnfjuV3sd8Ydpi5MYfRsQlcGxjExPUpw9MxYYcYPQo+vQUpI7Kk+JUgfCnU1C+D9fXR/fAmOIBwcP2+qzsnEokyr6zmrO/5j6jg84DeB5VmVY2nMmkvSGeEg4KSpxYYkIxIUiIHUtTlaB9c6KSbb+DynllvQjI7GeWEHVy64666/chO3gII1dWGpOhvqi/utUH53KUck1kJ6CwwsPLbdtGKPqvQsbrXdh+H6yzw55+0E8EAv3sSB+lF5I6SB39PMGbqcayyvPe6AQ32uqi3Zrv3joazeH/yDyiUVKyFvI5D/+20jdsBBf6cqeskMV4ZGMTw8BjmF5kWmTbfbTweV8/z6E1YFsGlEPqyQH6ZXtl45d13X5t69tlns8Vw9nA4gLAHo+3fJSrf/OZ3asprY52xePy8qn5WBI+ISl+oWp0JAj8MMkIAwI+1va3FcA16ujpNXJA6B9EPer+AQe775ca/7e+3igNtZjikMyzMlN217GQy2j87ujvt1gIWINRWV6N5nwCCXeTthMZ0TIajNjY2zARnd772PAcKtu+1XK8BGe0MJxAQVFdUggqYTE21wCD67XNLmWF2yPqGEZpiP9D+Ua/NdjwPO5+wbxh+aqivcwTF3X5cBZ6fDyhwc8j5dn5hAaPjkxgaHsXUzKwBguzbTenm0BOhFvkNFbwtIX4aivd2EARXJwbfG33mmWfIBN7V4QDCrsy1fyc/+eST5TUt3Z0xz7sgAoocPQTBaVVtDMOwJJMJJNSsm6+ttRm9Pd3o6+4ywIAhBh57SVss9A1yww52MaBHgRMRUyGjhZr2mqdfaDvd9be2AAECJx0DEJqaDNgs9OCislWGeY0pi9zBUj02u/ONLkoOHNwaHESBP/upvKzUbBI4H5AbEAVjuXeK/s70RyRN2fIT7HeZ2w/WW8Fnsi4IZb+NVLATQSj089jT9dHNmekDfmOpFOYXFnH9+rThKIxPXsfi4tIWAPf9WCCia1ADFN7TUF/KIPwZ1sKByckr87sBCoXPCnt67dv3IvIMksmS2vLqijPi69dFssCAPANVLQuCjMdiR4wJswzvmVP96O/tRtNmLfboxBHdERyWRXNdyVH3Jd2brLRHcg3/z+5Ss2WG3a7xsHpoZ8/ZAgg1NWhpaipIBMeGnbgQUWGTIQXr2mZrtluMdtbS2+Os6Hdlw4WGZ1BaulXpk39ntkJ0lx9dQLYLCVJgy/ATKM+9VWmVPIaboM1+nzcJinFDeiZHxYH8ox2DuR5c21dZIuMKRsayhaDGJq6b0C9TlgnwRDwV0RWqOyvwWw/6P0KkX16clonvfnd1HUjc1Nnf5hUdQDjEvr948aL/yU/efzrwvK94nvwBgNMAmhUoD0OVZDrFWJ9Qw4A1E06d6jOiR7ZISr5wApt/mOg+dxKKms8uFAQKJKQtbxbZse7snRYSOsQuuW0f9QGA0NxUUJU+S0AkOMjW5ciWYc4FhYc5To9bx9qde7Zol24BA7r5qYpqv53oHGC/NzsH5Ps2o/1ga7MwxZQLiwVxUbXKLEDICiSx/gJLkLvjaC2wXb8SLBLZ85ubmpnBtYEhXBscwvTMDRNOInGdZaV5iHjLyrRIxRuq+j8za+lfiazOfVS2gwMIh9P38s1v/k1NdX3F5+CHXwLks1DcKYK4qnqpVErSmcAQj3q7OnHmdL8prsRiPVaScz/SFvf7VbcbuHyOJaixGt+ySYvMlum1O0qX677fvbG7++0HQDBFo1htcTULDOzO14UTdtcX/I64ePPPbNoiC3VVGXKgTWmLfmvbcYLsU3O9fLmtMURG4+1huim9PVmRqug3SWBAgECJ71ttCnb3pu7sQixwKwDI3zGzjOEGVoocGWN9hyUD0jcLQREnpAWYB+StUPEreOFzK7PJN77znW8tbaed4ABCIT22g2sTiUSNV1J3p8T0PoH3ZYh+SiAtBAbpdEaYCx7zfFMQpb+/B+fOnEZHW6thKrOgUi4wOGyPwQ5eMW/Rp6gbjNwEggQy2bMaDjcV8xxQ2ImF9/+c/QAI5JowFrq4tAQbFnNeop33lQVU9nvgRE6PAcEBvQZRD8HO7/rRZ9pvkx4ELir8NgkYrHfCcFNqqo0GgiVCfvRd3RmHZYF8QGFLtjmVwo25eSPZzGqRU9M3spszES2JxzZBoCQVOgnVV1XwL0Ha+yVScwOJRGIj9x0cQDigXn3yyb8rr2jUprIS/x6B/FuI/p5Amllt0aog8k8SjggI7rpwB07395qYn2Ehby6kxQgIPspk0QFsB65Rz1teweLy8gfS3exu07mfP8qq+/t7CxBYxKuliTIbuz9MWea19a3ce/472o8udp3fplGJZH4rtBO9BlyUCRC4KNOjUIgK6na9GfU+8NsksKMXYWF5yXBHbAVHpjdybBSa/rr7UeWu2K0Fcudbjh/249j4BN55/7IJO7DWg+8Z3QTDb9vcmHGpuRSGeFbF+1EsI++nUrMfEFlyAGG3vfER57OoUmN3d70fxC+I5/0bEXxZob2AVKiGWa/BZhnVtpZmnD17CudO9xtCIiBbFRejjzlui+d2ZCm+E7McWNuBJX2ZnmMBkI2VHrd33efhc2i3swChvrZ2c+zt/NHR/uVEY4DC+oYBf1xsbHZNtE9v936Ncgcs34CTNTcI3BRUV1dtpRMepNcw99u0II7hInJIyE3gDqW2psYIMDkP386/i6M6M59HwUqnkzhMkaU33/otRsbGjTeBBaD4+02SKkWWbijwThjq/wwz+vPldDCWujG8/NRTTyUdQNinXmV2QklJSW0mVnbBV/9rEP2cipwWoIFiRwQGdMkyf7mzvc2QELs6O9DUUG9ym3nkpi0eR+9B1JzbxUq5oBgxl7X1bIXIZHJLazy6kNzui8o+Dc28t9kvgBAlIt5MccwKaNGFbT1EhdQGOEg7HMa9LTiwwMDqGVRVUOyo3BAS84mdHeT4z/02+SzLG7J1GBjmPMg2HIbtb7dn5PJPONbYr/QgMOwwMjpu+AlLS8vwCFDjcXoVKKS0rtAZVVyC6Is+5LnUqveeAwgFjiACAwBVGqs5E4t7nxcPDwnwMVV0ACjLZAIvk0nDEw/1DfUmjHDuTL9JISIB6LAnhgJfd8+X505IhpgVhib2aSV4uYux8djbeUHZs5F3cWEhACH3MbbP+HP+3ZAXWbNjZdUoKebm3h934LsTM0cn6ih5k2CAHgNqGlDPxHpZoh6Gw7ZPbv/ZfoxmQOzknd05xWOB3FASW8YUdHr5RkYnTBGoicnrRruGnoSsR8EjUFhR1Ql4eAuBPO8Awh771BZV8svLuwVl90HChwHvgWzqolYQhVNVkB8ZU4ba21tN3YS+nm4jX8pjqyLjIacq7vGVC7osF9nayYc24M7TFoGizni02IwDCgWZfduLbZiLQjjZ8Nbej+hkZHec2XLO9BJlCzMRKOTWXzjshXDvb7jzK7cDBlmvQRYckG/AOLHdte/87gdzZu63eTBPcXc9CgvYvuU8GvN9w2+jd296ZhaDwyMYGhnD3Py84aKwtsMWKBQsQPGyAwh76LXHH3883tNzR4uW4GNQedjzvEcVuFuAyjA01RaF4iRkIjc2NuBUbzdO9feZiZgunSgwsI8/6a68fHEyu0BYtrYR2lleMYtKOp2Vhs0FCCfdTnsYjnu6ZAsgkIPQ2LCne9iLogAhOiHx9/QmkJ9AkR6Gk6JZLLnx7ZPQt9FwAv9OnkHZZlElFj2iB8GO9+1CcAV1xh4udgBhD0Y7Jpfk44PZyq0Usxsx2Q5DGJuYNEA+ImyXVuBdBxB22dGUSG5q77kzBEMJ3u8C+IQAdaEaeWTP1u2mhnlvd5dJXaSmASuvqWa9BtHjJEyKuzRh3rxqi1y34tis78C0yM38cPt7R5rarbXzn28BAkW5WLFvv0rIb7fokY+wur5uwg4Eglm+DZX8slPQcXdn2/e2PAOO02xRpUqQa0DvQe7YLRaAsD8jyt2lmC2QCxQ2QwrGszc6No43fvNbE3aw65eIpFXxvgMIO+zVRCJREYtVNWuJdyfg/b4neEAhpzQMq+g1YDyd/hu6Dzs723DuzClDRmTakiWK5ENzO3z8iTxtu50Lf34z7LCGZJILys0iUCdhQTnqDiVAoJubWQwUxNnOw7Of7eQzGEJaXl0xvJN8lQZt3+7ncw/6XlGvAZ9lxY4oNsTwomWUu536QfeEu38+C+SOO5u5wjmAmgkDQyO4fHUAszduRAuqOYDwUcNpk2dQoVpeI+X+mRi8h+F7XzE8A9WmINDSMAxMXMeEExrqTaXF/r5utDY3mxSm3MnjdvQYfJSd87mq+TPazhSaWaM34YNFoKI7TmfTnVr45nlRgMDQV77Uut3fNf8VuTvlbNhh3YAEZrPkan4cF29C7rdtaieYcEKFkSjm3/kze97t7jncr/Hk7rNzC+TygyjPzPRyhhcmr09thhcmDFkxx6PnAMItzCyPP/50rLd3vSGMh/dA5UEV+bgH3AEIyzKbzATuapm2yAm2q7PdCB61NDcZr0FudoJbxD56UOfuYq1LlgPa6v2TiXu7EN4+2mJ7P+MoAELUO2C8RKlspUH7v5XjLmY1xlwSIusWkNzFDQKlkSvKykx2gq2AmAsO3Dyw9zHrrtyZBbbjHdjiTuQbUBthfGLSAAUzJlVNCNwWZXEhhlvYOpFIlCFeecaP+18EvEcEco8IWgCUZjJBjBMZJwACg/6+HlNtkd4DhhdIALFpTW7HsLMBnetByLWbJXVZ/QQS3qihQBe1XXROIuFtd9bb3dlHDRBsv/FbMUJLJt01WxuABFWrn1Bsuhi58shlJaWoqCz/gMcgd/y60MLuxqY7e+8WyLfJ4prEjRWrPl4ZGMTg0AhWV1dNrZ/OznYDaMfHJzE/v2i84ZtERedByO0GVlu85577OzTufcoT+ZwCnxfIaYUyO8FPpTPQMBRTVKmn22ga0HNA1bFoGVbHNdj7AM8FC7kLRHbnmTIuaoYe6Bpzioy7tzcX5ZKSOCxJ8SBDDDtpne1XUwWUVSHzpEUe5e7bkg+tR4D8DWoZmGqLZaVbRZUcCXknve3OOSgL2LXHStwznEeewdVrg3jv8lXMLyyYTSyJyWdP96Ovp8toI/zr629iamoG/z97bxocWXqd6Z2bCaCw7zuqgEJtvVRv7L1bFCVKHM3IMbtnJmLscPiHHVKEHZoIjjXiaH7Bw5ZkkmORlCLmBx3hX44Y2x1he0ajnSLZXJrshb2QXV17Aagq7DsKO5B5Hc+5eRJf3boAEkACyARuRlQDjbzr+bb3e897zvESpGHWSqwxQLBG+qf/9P9OXr480FJSfuqC76Ve8xKJX/V872lf/KZ02i9NpTY0OqGkpFSLKl04d1YuXTynxUxMZ3CQ6VEPqjMV83U1f8LauiwuL+nOE/GbtYFR1Ee5oBS6bQ0g0IcbGxslrVEFR/uhvYhusMRZyiY4xb2OoraDqzPgd9MZoDGgqBLjPxy2GDOHR9uPTtrdo0SI2IAiXLgRbt7q13oMVFytq6uRluZmFSe3tDQpCz47N6cAYXRsXNMwxwBhswd5v/3bX6usa/U7k/6p1/2E/D1f/FfF9xp8P12u0QkkPEqnpaaqWrq7u+SJxy5qSebyigqdVOMdw+ENx6iBgP1hErS+w+KiJvzApRaDhO3bpdAAQlhMBUtENkYKfKFRcJMsmXviIAGgPY8xB9wTtyK5DGANKisrNfFM7E48vPEf3+lhC0S5ExgTsAaTUzNy4/YduX7jloxPTkj5qXLp7elWtjvtp/UYjmXDC6NAFMPY+ERWqHjiGQSSHTWdPVtfnqh4MZn0/kvP917yRXpE/Brf97219XUtqoT46HRnhzx26YJmQcTAySQ7naAUc3iSOshJ66QPkKhQPLO3hkVm6GmLswckxJkYo3sNfZukPU0N9Vq1L8q2h9nfwpEO3NvcDgipAH+0K38L6xPyOeZcYGDgACCAABHGALeClUDeyi2Tz+c5zDaI71X4FogapzbP8R0uhNv9g3L1+k3Na1CSLJGO9lZpb2tVNzjZTdHKtbW16FjieDZVpF2enJpWoeKJZxAAB6d7H3sqkUz+Q0/k131Pznvi1aXTfpKdC/+YPEmP/PjF8woMSHzEDsLdUdhOpvC71fF7wjCbYJMyNBo+bOg1i7Pn7eMESw/3AQMIFAsD9B41QIjqodamLMS4kPCVAhSsXWlTdj/5XJCxg5Va5tpEKcEY1FRVZdMjx5EJx28+KZY3cseppk8uKdH+Pzs/L3fuDMonn16T/rt3pQx3eGODNNTVKiCANWAcsdmlSCClxScmpxREIPgeGR3XlMtE5ZxIgGA5DZJVda/6Ke/VRIIMiN5lX/wLvu+XoJxOpRBulWmoIvkMus90SUdbq1ZbpBFcOjGfk1KxdM5Ce84odbj5sfFdI2TEvwZosF1nob3DYT+P2Yy+jHq5ubFR1cyFCBCMLTAfP7QoLAI5MZZWiGIJinsZANxL/gTXHu61gnwGVUG1xbIgbNFYjah+d9jtGN/v5FggPDbp5xYtx2ZomHwGt/s1SgHwjD4GrQHHwCAABhob6hToNjc3aWZPwMXQyKj0AxAWl2RkZEymTihA8Pr6vl6XOJXuLSkpeU4872+nU+lfFk/ajA1gx4DBqqurpKuzQ9WdZzo7tUY7f2e3ZXRiDAwKZ2BGLWq2o/TTafVhg5JZVGKAELSb7X75ifoekWIhAwTrbdZ+PDdAAd0JrgfCt9AI8fewiHGnserawup+4D5gx1VTXaXVVqOyIBbOCIif5DhbIAoYZF2qa2syOj6hIYu4FKamp5XhYnPb0tQkvjBONqSutlo6Ozqks6NN3WOkTma80N9HxsZk8N6QhhYPAxCmTxiDQCnm9ZKajnLCFpOJL0ha/p54fouIRz6DRIosiOlgouxob5ML53rl3NluFW4w2RjV6HbCnSad49xhC+HdttvpWta6QI+A33op67eO3QwPAwQmCPp9c1NTABBCNUIKsa1t7BmjsEoUy+KizBMWubqa1Sfw7O44dX93+48LECjHXlUFMKiRysoKraPAJ0pnVAi2iZ/h+Fogao4z1oC5bXZ2Tgbv3ZdrN27pws461dbaLO1tbVJWWqLMWiKZkPbWFg3HJ5U64gLOtbHB9WAeuM6JAwjkM7h8+XKdlFZ2l5Se+jvi+b8uIo974jX6vp9MpdLe+vqaJEl21NSkjMH53rPS3NSgKMydOGJwUFgDcSuRDn/XhDvLy7qzXFom4U5KkslE0RcCymcLWN9m4cO/rgChuvpAUy3n8/nD41H1CatrMjc/r/oE2AUDgy6gsPPcsW2sAy4EFSBm0iMbALG+Fm8KDqoF4+tGWSDswjL2DDBMeeZrN2/J4N37mgOmvq5WBYjk5gkiuDx1J5DAr6G+XvNzGNB12TiOUwbh7n1l404EgxDoDFoqkxXrXZ6kX/W9xK8lPO9FX/xOP+1XBmGLAR1ZU1MlZ06flscvnZeO1sDA4fTI4Z1I3J2P3gJhgKBMTzqtVDP+OPzTFjtv7RcLFDfbzV0godDZXeCbPOpESfvpWUx22ZwYWi1yOVst0mWOwsBfqy1WVylAwhZbMQ0xQNhP68Tn5mqBKGDgeQllxxAQXr91W25SVGl6JohEaGnJuME9jT4ALKCZa2pq1HBcA7rcPwx2TxpA8Pr6+kiG3uz5ZU8nkt7nPfFeE99/wvf9hlQqyGeAkhPDtre1yLmeHunpPq3GJIzJ9Aguysq1YePjDs4CWwnCVDRq/uhFkiUtyNLyw/HyexGtHdybFMaV3UWSsUCK8GIGCLyPtTNjHBo1SLS0qOLUoKx04HKwvqTRCeXlOonilyViySbRrfpbYbRe/BTHzQJbMaImtia/C5EGt+8MaCgimyHCkomqQ2TM+YGwvkk629sVJISj7aIA7okBCH19fWWrZWU1FaUVl5Jp77OS8F7zxX/RE2lPpdKl0C58MCa+VkABtRPQHKD2NJ1BTCcW3tDbSqSj+ftTqWwBJ3xoa+triqKNjot3fdHtaQCBbwOAEOw2ipVBcMettTmuJoSpAAVcTrgdzJ3AZEoJZsIWAQaABaNg4z5TeHPAcX2irXQGCgxI/ra4KGPjk3J7YFDu9A/KysqKAgEYP0C9sd0I6Vubm9TNwHrGdQ0Ub7fZPREA4Ytf/GJFQ0v3c4mk9xlJeK+K+C974nWl037F+sZ6YmN9wyNEEcaA+E/ol/Z21JxBUaUwa2A7jePaKYvtvcL142VeAAAgAElEQVSTP/+voW7LKxrmRmx8XNlxd63qAgTGAWGOJAGKmrB2d+WjOToK2BtbYGGRxHkzaaI14F0RZ8Ia2ifeHBxN253ku4aZKgtbnH/wQPUA/YP3VCOwsLAo5afKpKamRvtveUW5usQQ0hJp41YPdse2a9sTxyD89m9/raqupfS058lzIt4XEp685Pty1pd0ZSqVLtlIpbyEeFJdXS093V1y8cI5LcUMrRhXWyz8YRlF87LDZVeIzoBsYMT7urUXDNzFu8Dt2/chgFBVKc0NDUUNEHbqzfQRNClaSyVZIqWlQWKZuHbKTpaLvz8IC4TnNtNHsdEZn5jUfAaELc7PP5BSLaZWJ42NDSpApKw4LoS21lYV1AN2DejuNuX/sWQQtAxzeUNr0k89mUgkPyee/7dEvDMifn0qnSZ0ETmG7hDaW1tVydlz5rRSMkQnWKKjeMdwEF0/f9c0v7JdETDALlDBwfKyag9cfUGsNcjd9saaYTMoSVItFzODsNWb76Ql2On73C0aHxlbIDcLuH3OcnbgDiML4v2hEbl1Z0CLK/E3XH+E21NxlRBkIu7Y5OIaByQYA86d99KXcwIIIp+SN6HgP4Qtnnvhheoqv/Scl0j8nYTnfV48eVzEa/d9KUmlNjwN8Uh4CgbQGFw8f05am5tVe2BG3IshC944x+ABw+1iLAC0MCE46ktWncHDcbyFGp1QyHS9AQRshx+eiQhAXcjPvJcuHo/1vVgtPuegLOD2R1vc2eyQi4BCSbgUcCfU1lZns/cy/3EeokTy88AkEHljLrTwmN0Ne7oTQBCRNRG/4AGC9xu/8RslHR3nW0qryn7JE+/viOe9LCKnfd+v0qJKa+vKDOCjOdvdpcmOKE6BIDEqbNE6wG6MeVCdJr5uYAGX0bEEVYhySIADQKCN3U+hMwb5Xmz3er2tzrPkP4wRyr1SkGyv9yjUPhwDhEJtmZPxXFHjyWqHoI0ZGRvXEsw3b/fLxMSkpvNva23J1kUBHJAu+XRnpwoTSZdsrrGtxupu1rSdAILneasi/ieFzCB4//pf/0F9VVP5s57v/ap4ic8StkgeiI2NVMnq6qpH7QSUyJYeGZRVX1+/pV8mBgeFOTitw1vSG82CuLSkyt3At+ZZAREtJoIb6Sg++wUm+WI8tnqORyeIh+1k35M9FLatuqpaaUzET8cNIBxF/4jvGVvALBBmDJKJhM5aJHG7fvOWFlUam5gU/s4YrKurldISsnf6Gl3U0kJmxBZprK9/KNImbOHdgILwJmuHREkAhJ8VHEAg2VFZWVnDarL6YomX+kxCvM+KyKu+eJ3pdLpsfWPD89MpD00BrMGZrk65cK5HOjvaVZRIrFtco724BqoJ5xAfPnjwQBaXl9UPx2ezXPNO77TZlSM7tbf7rm6Dzx2E0Yrg4NkeOk6znj/8CQOELQGHcyq/kiwlC275/4T+NcSqPHx/tV34nT0veEYtcOQpXYkLzkL9drJw/H1sgdgC21sgrDMwFlvrwkxMyp2BQbl1Z1C1VOQrqK+v1UgiBLScW11TpVoDohMseVcuYYu7bZccGYSCAgje73zlK9XVfsk53/OeS3rJz3mevC4iZ3zfr0inSY+8ofMbIo0zp7vkzOlOFSGS6MWo6aid0F5R1m6NHh+/NwuYX5yYdUIYESGyuJFPPJe28x5ZLCPAgLNYBovuzs/6yI6fBTbiNJ4xvBg/8twR53qJzYXfLvvIoh5Aj02AkHl4/UvES7jPtxNjYcAsDG52tkx8xEFYYD8+5YN4nviauVsg7NKysbe0siJjYxMyeO+e9A/ck8mpKRXMs6GtKD+l6xYaIFwMuBHY8NbV1akwcbeRCbk/bbCZKBoGgaJKIi3NyYr1lz1P/ivPS7zu+36T50lpOp0u2djYABxo7vjenh558vELcq73rFKjfOKiSrvpGoV3rAEEW6jcnbUNtO0o8OhdfQ4I4BBNkU8KP+paB3H9ncCZiaXyacat7pl1j2TKO0fd04p1ud/lcl7UtXZ6dxdccX6u9o86LhtdlXkQaOf9urPy2Sbxtba3QBgcWCj99MysXL1xQ65cvaFRCoQk9vSclu6uLs3nQg0RQALJ+053daprgXY3ceJOzOV+2qVYAIL3W7/1W2UtXb2XvKT3jz3f+/sick5EqkUEYKDpUqFUQVzPPvWk9Hafkfr6OqVF+T5G3fvpJoVxbiwoK4x2sKcI06QwFQa3HlF/+BSWdT5bLODhBTVqUY0EPhGLr94vpEUJn6ugM+JZwsdFaVqCvz38iXx+PWTz2IfOwy5R988cr2dl/hPkafDlVGmp1NbWPFIXorB6R/w0UX2XBVdzEniekOwIN8InVz7VTIgAQJhutHIUj0OHgEuh+0yXdJ/plNrqQFAf1cd2Aqp7bY3CBgh9fYk+kbJksuGMfyr9i0kv8eu+L097Ij1pP12uyU3WNxRNEeKBES9dPC+nOzqyIVkxPbrXrhGfF1tgZwswvigS42aqjAIQKhndXO02l8wwcEgHC+bDS2/o/3RRzWFhjlh8g2uHr/fozn67nX72u21YiqwNuFuEVnYnJsG+D1izwCalJUmpIDNeVZVWlLQKfDu3UnzEYVsgqn2V5aRg2OqajI5PqAiR6ATKMjc01GvZZdhvCgXyaWysl66Odo0gQmdggOMwN0qFChC8f9rXV9pb0dha5a2/lvRKXvXEf833yYgop6i2GJRr9TQdMkkhzvZ0K9JqaWpUxSc5+A/TkIfdAeP7xRYoCAt4nlaQm52bV6aOnY9qIbbZFT+66370TXJdQN0zOWc3O6monVhB2DTzEPZ8LCxlpWVaC4N/+KFd3chu3rmQ3u84PstWwID2ggGanJyWu/eHFBiMjo0r600WREIU0RzgNtCiSs1NyoYDHEqTSa27YFqDw2zvggMIRCesrpY1VNRUXkiU+q+JeP/AE+8zvu/XgaQJWWTuKS1Nah3rs5rsqFdLWhLKqAV6Msr2g/TNHMfOHb/T3i2wFRg9CSCV1K/Ts7OahwKXnmki8zWR7eY6uzl2p9bO57V2upfLurgLASmfyWCpefUrgtowfFxh2lE8Z67vc5KOC4MDA3G0FcLqkdExuXbjtgoRcR8gmicSgfBFwAPgoLamWnUGiBCJXjCdgWvHw2zvwgEIfX2JLy2X11Q3nur0vORzIqlf8zzvV0WkOZ32yzY2UknKMMMOoOLsPnNazvf2KHtAKVYTbYQ75GEa8yQNhvhdH7bASQYIE5NTmgYWVi8ACIUl/NxPXz2sdzG2wPoRiwuAgEI7lZSazuSgOEz/837sdhLPtbajzxg4INpqbGJC0yMPDN6TmdlZHSOEJ1KKmfUs5ftaVAlQ0N7SIlVVlWq+cNgifzus/mjtd+QAAcZguby8ptoDGHhPii+f9RPyUsLzLqRT6aa07yc31te9RCIpNTVVqi84c6ZLjWm5puN8BidxOBbGO4d3DQwoo7qjviuMp87vU4xPTsncvLkYjhdAyK+lokGlu+izeJCxEnDAxofQNutTnH0SGKmDtHm+rx1uDwMHK6urMjk1LffuD8mdgbsyNj6hjIAmHDt1KmjjygrVHNTV1kpXR5vUqAgxmD8KpZ2PFCB88Yt/WNHYWdruSfoZ35dfTYg8J550+77fnE6nKzY2Uglf0lJZUal1rM+fOytnujqUmsHAPHwYHBw2wsp3h4uvV1wWiBrICPag29lI00+ZGI7zJwYIu29dlzHgd4ABLAGgAF0VfmhjY3bSY+z+7vEZ+bCA2y7GGODenpt/oImOBu7ek/HxSV2jyNxbV1udcRF5yhJ0tFFtsTELBHmmg8xpsJd3PhKAEOQzqKtOlG084SVLvuB5iVc9TwAJbSK+5jNAyYn/DQXnubM9muyIHNSoOQNlb7pgUNZeDB+fU5wW2I4VCEpNr8rC4qL6HAn6q62p0mqITPhRO8FiB7QI9HExxAzCzv3Z7TsGEGh/MlUqY5ARIBIG5/aVna8cH3FYFogCa6YLYQyQxwDGgFLMa2urupltaW7UqBPEcyWlpVookAKBjQ11qi8Jb3TdOSFqA3KY7EIuAMH3/Z/nzanY19dXdupUbXcq4b0invcFz/NeFd8/44toFsTVtTUv4QV5pxEgUoq5q6NDKivKs4MmrtF+WMMhvk/YAuHBaSlSCfWzUtMwCOY/1Mm/EvV5ldKJFpp2FIrkg2hN7GEMAu983DQI+bKZ9Ztgc5MJWyxNKjtK3wAgsCGyxcK9b7GDyHzZ8CivEwZ3tIlVW6R67OjouNy8fUdu3unXiB6YoObGBk3zr5E9nqgroa2lWQX1gEEDgbkwRBwbdfxB941cAIKI7L9YE6WYL19+qaW0vPSFtJd4LUF6ZE+eEt+vS/l+yfr6eoLiMPjcEB5SbZFyzOgMoGiZUAuNfjnKDhvf+2gsYPoCG5hQitSEePBgQfOmo0bm4w5cfjf6mMXA6hrkMjEczVvmflfegWIy7J4YnzFAiLZdNguihmImtD9UV1dqTgN80lslwAn3pdxbJj4ynxYIuxNoL0LpZ2Zm1ZVw7cYt1RnwQXxI3YREJqIH1rulpSlbhZFNQpTY1No6ahMC+0Coo80/9m6FABD2zSD87u//flOFVF6QZPqlpJf4W+J5T/u+35pKpSrSvu/56bRHxqiGhjqtnYBLAZAAa+D66g7LKPnsWPG1itcCUe4EQ/FM+DAFlJmmPvvq2qruDF0FM29u7jB+B+iiSWD3wA4DdsHSrRarlWKAsH3LPQwMPI11Z8GgD8Aa0Aesn7g/Y2Bw9CPCZX0ABLaLp00Z98MjY3Knf1DzGjxYWFDRIS5x3ApWKp2IOzIjtre2SmlZqWYa3U6E6M456rrwPFldWVUAzuaDMEhLtXwYFtqJQRDxVjzP/3gvLgavr6+vZr2kuqGirORFT+Tv+yKveZ60p9N+ZSqVTkJJkigCFN3V2S4XzvfK6c5AhGhFlVwjHDRaOgyDx/coDgtspTXA576+tq4aAyYFftKP6a+bFSU3h4s7ydjEAFDA7VBXU630cjF/mAjNxRAzCJst+bBLIWBWyKdfVUWbVwaalNBiEc9vhTMStnIlrq2tydTMjGoMbt8ZkPGJKSkpLZGO1hZpbGxQd8Lq6rq6i8js29lO9eAqwW0exRpEaU1sk8G8gtvy/vCwDN69r0zTU088piAkDCYPynI7AQTPk2WRxAc5AwTCFkWkTKSyPllR9rIn8rdFvNe8hEYn1FFUCSSEO4F84j2aZ7oryBpVF9ROcFE3L75TtbmDMk583ZNngSja3+hfGIOlpWUFBa47wfrndv3UZcLo3xzLgIdJYEcJW2bRDtvtMAqtRZjExicnZf7BQuxicBrH5rAAGJRrZIIyBmVl2vaxjqrQenLwPOHxT1sxLldWVmRkbFwG792XgYF7mtsAwSEZDxnHZaUl+hOdEesYDDjsgekUthMWut/ZHABDYYLHwbt3ZXb+gVzoPSuffe1ldVXgcoiqIZJvq+YCENK+5A4QfucrX6mpTpU+n0gm/qGX8F720/75RDLR6Pt+CRPsysqKx4AhW9QTj13UClUwBq54a6vdW75fPr5ebIGwBcK+RgYIOgMiEwhfWl5ZyQLYMGOw3Q4wLHIyEECkAxMNu0rGAUDBBcmFTjUbQCAzXCxS3OxNBhA0bW5Ls2ZCpH9EZcazs2IG4ejnIxunjG3T08zPP5CrN27Kx598KsPDo1oPo7OtVcstU0mLnAfUAtJER21BRl9zHeUCBO2egAN+JwUz97tx647MzMzJ0vKSJJMl8uzTT8rnXn9F9Q2qycuhFsh+LZo3gPAbv9FXebq3/nIi6X3e8+SzkvZfloQHF5JcW1vziAvH/wbiOneuR3UGDBx8suan3Q5l7fdF4/NjC+zGAuriSqd154ArgQUQetGdzM0vuZvr2rHhPq/59hGuVVVp9jxEbMWgT2DBQ6QIgIoBwqMAgTYE/NXWBNUXbRGIYqr20o/ic/JjgfAungyH8wsLcu/+sFy/eVvuDAxobhNE81D8ZWWk9Q+idohMwEXe2NCg4IBrhbMgbhW6aCAEih6gce3mbbly9boMDY/onAMQgImgyuNTTz6uUX2smVHAIz+WePgq+wYIfX195cnKhjNp8Z9PkOzI835RxD/ni5SRy4DdFzfB59p9ukOjE87CGtTUZA1pjRMj6INo4viaO1nA3TXYzl6jE5aWFByQLhXFsitUymdfdXeVTBhBit1qFbIZs1aIC4pOhOm0qrexVQwQHu5pbq4WFo5qkiCR6yATtRCmtPPZp3bq8yf9+61cibQBGwGyIFKC+fqN2+pCKy87JW1tLdLc1KDr2cZGWiPuKA54tvuMusvDoN/aM+pepjPIMk2lpTIxNSV/89aP5GefXFEXfHVNtW6oe3u65Vxvj1Z7ZBNxmHU49gwQCFs8fflyXUNV3WPJtPyaJBJ/z/flCaot+n46sbGR8lLplFItba3NcuniBbl0/lw2PTKTyXYo66R34Pj9D8YCUSwVfzOFMkBABYgPHsji4pIqh20w24DP90Ruz+Rqb1hEAAk1NdXKJmx1T3v2g7HWzlfFPgAEbGbainzbZ+enKOwjbK5TPUJFhdRlwF9JSelDqXWjFpTYlvlr261Ato1v3AW4EQfu3pcr127I3Xv3ZXV1TVqamlRwCAO0vr4h1ASC/SZPD6xBIuM6yuVJbZ6hLwCqp6dnZH0jpWWdAQh//Z235PqtO9LUUK9h/k8+/pgCEFgowLgVInSZzFzuu9dj9gIQvN/+7a9V1tWVdHtl8ryfSPx9T7xXxPfb0ul0WTqdSlg967q6Gnns4nl5/NIFDfOw6lRxPoO9Nld83n4tEAUQTEmM8BCx3cLSUtad4LoRDnKytucyBoOf0JyU9sXtkFW+Z2o9uK6Kg3yu7extuy1q2wMQeOb9uF3227aFen4YALI4IFpUlqiy8iFxaswqHFwr2tjiDu5Czf8vUVRpfFyufHpNbt4eUOYQVgBdAT8pREYYM9kPoftbmps1UiGc0deube3oAniLdGITsri4KFev35T+gbtSV1crn331JZlfWJS3fvhjTbT01JOPyZOPX1LB41Z5gNx7HZTVcgYIVlSpwj/VUOqVPOEnU39XfHlZRHotOmFjAxrWk+qqaulob9UyzIgRid00JXgMDg6qKePr5mIB151F50fow+BngWP3sLJCPoNUdgKxiSSXa+fjmDBQ4JoaFqnFezaV8O5xRwkQyCCJBoHdEJ8YIGzdC1wKmjaDLibE25Jnmeh1K0o6H/3rJF4jbE/8/SQx4u8wYNMzM9I/cE9u3LqtbBjuIJIdWWEldu3kODjdSbr/ZmUStkpsFdYaGGjWyJVUWpOqjY6Pa4jkteu3VPTMBvoLn/9FZSfuDQ1LSUlSWQPAo7thOCzWwO0jOQOE3/3d328pq6v61ZKEvO558oTny+O++K1BKWZo2CCVJOEdp7tIDNEizYg5SksfShZzGKjnJA6C+J2jLbAdY4AoCEAAc7C8uqqsgSH+o17o3InBJhnGEowCkQ5oesJJdg67DzB5YEMYBGwYA4SdWyA84Vv1RvzZuB9wLW2Vae+ogODOb1W4R4TBgYEwxjragqHhURUiksvD16JKdWp/1YxUVymAq6qu0voJ0P78fbusvu4GxKzC33BXDo+NydDQiAyPjikQgSlgzXzhM0/LL7zykoIOhJCaUK384fscVdvnDBC+/Adf/5VESeI3fV+IUmhxO3pZWalSLr3dZ7QUM8INDMkH8BBltMLtUvGTHScLRAEEKD6QOxkQYQ5gEFx0Xkh5N2ycubUboDZrq2uyO08rFuOyCoex21CAsLIioxMTCrQM/B/VZFZM/dZlE3huAwqaZbOiUtNxx/kS9t6ij7AGnqdaARgDFub7Q8Nyq39AsyHCfNdUV0pDfb1qflikSYNNQSUiFnABANz4uC6F7USIrqCZaIRrN27Kp1evKyhZWloRX3wNjSS3Ae4EihGSgtuYCVefd5TjKWeA8G+/8of/QzKR/E0Recr3/YRNWFAxPd1n5HxvELYI/aLUbVw7Ye+9Oz4zbxYwRoA+yaBjx0tIHhnKECD5fvqR9MhHOSDDLx5e9G1hCdI2k7K3IgAKjpDxsFTO2AmARdIYbBkDhNy7rbuAuYsOu1dYIs2JUVmhu1mbTw8D9OX+BoV35FauGQP8sFxQ+Ndv3lEBIn0XG5NXQLMdZrKhEspI2CJ/py1wSVgdhJ3e2oABmw6AB2B+emZW3vrRT+TnV67qZpmwRZIdne89q9EJRCrwcfUKURubne59EN/nDBC+/JU//J88L/nf4V7g4WEGqJ9AeuRnnn5Surs6syLEODrhIJoqvuZeLGACRHYOVjeBicH0MqYxKCRQEPWe4ckvGGOelJYEmfqqNcnSZkVAYx4O8r24Nj5V6FLLEXHYmo299IlCOsdtVwN/pk8gLBJxqpUELqTnLsRnCS+qtlizKZiZnZWBwfty/dZtmZycUsamqbFRGuvrgl27+JoFsaOtTdP9wyCQh2irfAM2r5gdDFzwDAgcKeCE5qC9vVUQ7X/3+z/S9MyUfj5/ticIW2xrzdZVsDWzkNhLA/wjY2Oa6tnqT0xNz6hgE70hqZZ9kQ+9N776zX/tefLfisjjbkduaWmWS+epvNitiksKUoT9bAc5SRViR42fqXAsoKzByqpGJpCRDPrQdXkV64IWVk8jeEObYKWDLcXrQbaEAoSlJWUQsGvMIOzP2mHdSUkyKafKyZ9QFRT3otiPU/Z3f3c7Xme74MCAAWOEqCTYgjsDg6o3IJsvfv/Gxvpskj7GCv9/uqND3Qy4d/hsJ6gPzyEcT9lnFs87/QPKFjQ1Ncrzzz6tbNC7H3ykOgSE+wgQc03DfNStlAuDICIfeW989Rv/xvO8/8YAQmBAapundWKiYpVFLZAJzrLAWVWrWIdw1E19PO8f1a+MkoX2VtZgcVFdC9YXi4U12KnFbEFx6UnYBCYkdp5kLg3vdHa65m6+V4CwuChjk5PqYjgudt2NDfJ9rNumtkABFKDCiQ5jrgUMWpu7Pw2g5fuZCvl6YdbAgDHJzcYmxtWdQCjh7Py8AgJE9KxPare0r/oC6gBRjhnGZidgYLaw+9r9Zufm5O69Ibl5u18G7t2TyclpLSXwi9ROaGuTkdExBXi4LWAqrN2itBKFZO89AYRwp8TdAFhAAXrubLcCBagaF4kVuiEKqVEK6VnCA7BQfGPhgerurPD/QX0jQkSMaMlFOMal8Iqd2TKfZZixC8IiYROqdTIyP3aYzt7vgoL9oFMRXsEgxABh/yM33Eauq4iolQAoVCk1beLUXPL97//JCucKUVoDS1nMWCcL4s07/XLj5m2ZmJpWQMWOHYYbTQG6I+wIxd/W0qL2JLQwChyE3zo8Z3C/kdFxuXbjlgzcvSuT0zNC6C9uheeffUpefflFzaXA+AgoeS+yqqPdp9DmpBwBwgePMAiaNc1LKPJix0IM+fjEhO7SCG/s7e4Oyl12tOv3UL1uFqhCM0ThdP/CepJiAAiG4hUYLC0rawAwCEcnWJ87bn0valFRP3ZpqQKEIDSyIitkjFJi76XXcY/5Bw80RAwNgqvc3sv14nMetoC1q8sqmD6BnBi4HdgVWwXAwxKnHnU7hd0JjH8ikyYmJ+Xu/WG5eeuODI+OSkV5hSY2SiaSaiO0HOTkYSNLyCJ5DgAPrn3DC3V4/oPN0Q2yJldalv6BQfn4k6ty9/59dSFwn9aWFg31v3iOPEAdCkDsHsUG5nIBCGnfe/cRgECDkOkNxoAoBgxAPCkNMzc3r9WnWlua5NKFc1p/obmpMRu2c1I68lEPpHzc352kuF4hiWgsJIi+SLgdjAHMQZD1LIhOcDUGxw0YhNvXncwMBDBGqVevQsbMzhPXA8eajfbST8yWc/PzChCweQwQ9mLJnc+xdnWBHTteIleqMvoEC4uMoq6PQ78Pswb0Nfo2Yx/3AfkFrt28JaOjE7oZra6pkubGBiktK5P1tXWtgUGSI9ImAxAs6icKHBiz5t5TGQoR3XigY2A8sRF59/2P5L0PPlKAjObgzOkuOX+uR7ra2zVk0gBF1DWLoV12Aggi3pJ43k8MICBSvIThtHiN52moBpmgCBMhf/3E5LTcuz8kQyOjupsDpQXHnNd0yxxnPuJCo6t3Hqon7whrI1T/a2ur4iUSmuOCwXlYnyj3lFF1DEyrtmg6A1MUFyptd9B2c0FdAMapNZHQ3SaTFowe7MJ+9AkuQCCTIuxgDBAOtmXDQIH/B+yxM9aEPpUVj6RttoXpYJ/sYK8eXie073merK6QpGtcyyITIYBrARugMyAXjxULZM0hbBE2GyaN86PKbrsLtt3T3JKMo5nZObl7f0jP7ek+rW71n7z7U/n02g0t4vT4YxeVNSCE0TR4dh93o3Kw1srv1XcECJ63EClSNIDQ29MjFy+c1YVfy1OTNWppSUZGxlWsQW3r1EZKWltb5MnHL8oTly4qm4BflDS3MZuQ3wY9iKsxWKDTUOjyO6VroeqM2gyzDPlGxlEThIYtLi4GtRMWFx+qA1CsgzHfbRemqBlrLChMkrQfjIKxMLu9d5hBsKqtse13a8ndHe9qEowFYt4l3h6QAACkfd0kSy4QzPfY3N3T7/7o8Nhn4WXRZbG+dWdA6xncGxrSkN/u053S2d6mN1laWpZkSYmc7TktPadPqwaB5Slc7MgFUGFXHffiH5qCkbEJ+eTqNXVftLY2yy+88rKUnyqTn396TebnH8jlJy4JayFCxHAOIK5brOMiF4Dg+/7HWzIIGOXC+bNK4dgkAf3liaeNODBwVwbu3ddkERiv+3SXFqGgsiOUjLIRTrZFtwsVW2feffcvjjPo8GQDo9oYgwVgwOLCoMMPamg5aqefzzc0rQEAdHZ2Th4sLmb7nAm24j4TbXF398nOhzEaRDtUaVpXKyuda3uZnXe62X4AACAASURBVBnXk9PT2g4mFMv1GvFx+7PAo0yRqDC8vqZWCwzB9G2CCJbHoEhRoX/c3bv9Tt9i3oElJMfAxz+7Ildv3FT3AfV+oPZLS5O6WMOWnT7dIY9dOK993EDVToy1+z33Uo3N/AO5dvO2XLl6TYaGR2R1bV0Z88++9rJmWXzwYEGfq762Rvs/G+ed7lPo9g8/HywNeRDYiLHxn5rZzIMgnregAOHffvUb/3PS8/65iFx0XQwuQIDuNaSkFDQ0EMVcxifURwQKYydKmAmlMi9nSlmiuOZYkGGxiTiKrbF3+7y0Ne0y9+CBgjw3IoDdKG2pWd8y1F04Pt/ul+vE5E4Odq4BEA1bXF5SYVxQVGlTZ1BI2ojd2viwjreJErvhMuKDP7axvl6p2d18dFcqIjMzswoc6SMxQNiNBfN3rNuuXBXwV1leITU1AHiSZ5XqzbZK+pO/J9n/laIYg6BGQVA7gbBFohOmZ2cV3KJz4yfvBlhobGzQtMXQ/LstdmT35n6wk/eHR9R9ASCZnXugz8A899wzl+WVFz6jTLiekwFd+RL/7t+Ke79CFFtLiGb/4D21ycjYuK4DligpCxC+/LVvvpHw/f9aPO9sFEAg7hra1+2IivqSSf07SIuiLgCFmbk5PY4Qk0sXz2n5TIwN4tWJJ07TvPcWPoAzEaDRZuQwd9E4vyNGraZ0bU2NVJQHimoDA7kyCuHj3J2O9TVEiKiEYQ9ISGLHHHVRpQMwd14vGaZNs5OgVhMsVXcRE6zF1ud684C2Fq2EB4MQA4RcLXdwx9kCRRszLgAGuH6riWBBN5RR4NsTFMpON2r8m/uSRRkR4r17Q3LjVr+CBDYp9FmS9LHu8N5sSAEHXR3tWomR/uzqDHLdoLBeMb989PNPNdnR8MioshZEAzU1BODjsYvnNdui1Rsylma3m6GD6wl7u3K4HehDVJgEIGEH7AxoQuvB2Cdsc08AgcezhYSGobFBtez6pqdnZXxiUrUJLDrQm8SJEgnR2daq6S8tf4Jdo9gNv7fmKoyzaD8GyPT0jMwvoEfZpCkDXxv+NVFVMOiaf7Spu+BsBwCsr7hva4OZXe7K6oqKXcmjHhYh5jroC8OSh/8UZnd3HLFIMLHRTkyuiBVNh7Abe5pfG10KlGMMEA6/fbe6o/nA+WmVASkABVNrQIH224pR2E0/2M9bb7WBsPuTHpmiSgP3huT+0IiK4GErAQIwl0QSlJ0q07mHaovdXV1SXlGuAGIvxY64L+OBjdCf/fXfyMc//1SBB65wwhXJgMhmFgDCsXu5R77sla822mpu5vrMv7gX7gzcVTuwLl+/eVvX7qCw1D4BwsOTflDXnhuTNIJQSBqdiAdC0zTLVVubXLwQpKK0spsuOsuXUfbTSCftXGzOrp1dIjv4qB277Vw4lgWIJCQIpihJ7Ib5bLVjcd0KNnGRCY3oBFIkw2BwjLmvrB/E/WH73hje2WgUQ0Z3YGFxex1fBhDYTUD3xgChcGYGd5y5Of5Z/GD6WFwB8KgRdgLvB/lWj7oTErrhWNL03ZPys08+lYG7QxrCDBPS0dYqVepOSOlaAutMsiMNZ8xE5US5OHOdJzgOLQ7Jjv76O29pembu+dilC3LubI80NNQH4vojYrgPgvEJt7+xTAsLC+pOwLVAHyJdAce+8/4HWgEzkUjuDyC4HSu8AGSra62syNjYuAwNj2mSJRgGis70nu3WsMgzXV26y1GXg+8fO/HHQQ6+fF2btmOhBiCgAQiHELpsEb8TWgSjAH1NJj/U8ixMtkvdzu3AAAUMID7EJYVehcEYDp/LdcDnywbFdJ0o1kB90pWVUpvRioTrNLjjM9d3NYAwMTmlAEFpXmLFi0AEl+s7HofjjD0KgGAgTsU3b2WliX6wz176wV5sFF7oDPivb6zLxMSU3O4fUK0Bu1eYj46ONg2XN+0MawJhhkQsKNCJyE64l35oG5yp6WkFJwgSL13olY729mzdhjAA2ct9drJZeL1022e7+XOn64a/d1l+awPNKzE3p21AhkjsS6VmwBgb+vc//Fh1R3kFCFFgwSZ90AlKURDj6Oi4htJ5CU9LRxNTev7cWa24RcILEG8sYtxtN9jf8bQPPkATKG63CLiTEb8rmwCVXR2khmUHEzkZQWetb2gSkoXFABhAb4WTHR3EYNyfdQrn7DAw4P81e1x5eXZB2G/ug4cZwSBlLEmSoIJjgFA4fSHqSaL0CYGbKYhisURABwkWohY3FSCuB4wyOQZYmIaHR/VvCA3r68h2GCT2KiktlbbmZk14xG6e/uz2e3v2/cwTnMv8g2KfasVEajGOwmwc99rPfbbqLa6NLFQVDR91IwB3YTH2bp8hijGy0FHE3xS0uj8yooJPNB6tzc1SVlYibASoMwF74OY82bMGYTsD2ENaNizU0CpGmZ2T4dExBQoLi0vacXvOdCm9c/p0l6bHNAr6KKmxwp4K8vt0tMv07JyQMQ+b5yIKNBAX7P49KS0NKg2S9Q2xD24H69habXF1NStA5HfuY4g2jk7Yvj3dcWB2x3aaZa+qShk4fjfq0EDcfic4G4foidASGSDc7YSV394aX207C0QB+CAbY6W6BWH6jF3KJ5sQBQy0/5AzZ3FRF6Vbd/q12BF6I9gNyiLDeHEMu9WGhlp1QSMUZA5hXsi3BsAFG8aUhoHBQfdvd20EGLAgj42P6/hCGGlJmHbbPtsxD7AG6Aqoejk1M6suKNJFE920vLIsA4P3ZPD+kK7PYUbXF1nwffnQ200Uw06d1EWpGNxtDHzPExOTcm9oWH0gdAJKcPaePaO5E8jGCF2aTOKvQiRHprjNz0E34EmaghRNLy2rewFEnWumvKjdLOcGixY17qsU/UN5whg8WFxSP6PrL411Brn1NJv0jW3BR8r4MBFXOE+/0bH5AAi0FzuLGCDk1lZHfZS7SLgLnzFNMH2AhdISsmxG6xN28w5bMQZcA1ei7krv9Mut2/26MDEnUFCpoXGTHdBoheamgDWor9fb70dnkMvaZJsTF0zng53IxXa2CWNsDd67Lx98/IkMj4xotNjTTz4un3n2aXXbRj1bLqxEduOFFnBjQxn7oZERmZiYFl/SGlnY1tKswAwXAwWoACm4/9ns0VecTVvaF5n3fXkXgPD7Cd//57mEOeZqiPBxBhSgMNixkleb5BQUggIQoCY9f7ZHazsQ/2phJnsJZ8nlGU/6MXQmaCcAAsDN3Au5gLDwZGQd2iYj2o6BDvBwiypZ58vlHie9fdwdFG3DDpAJXqMT8uib3crOtB9hZxb+GmsQiqNHhlknY+zoM/QfwCVgfr9j0b2PCdQZ68zniNPJhMjOFXcC94U1IG00Oia0EQCDrs4OdTGHmY2D2BS6z+sC6f2C6d30Cpv3YOZ+/O77qsVAJA5r8szlJ+X1V15QoLQXgIANaVNqSeDSmZyakuHRcd2cEe7c3t6qrA0bc1gDyiWgPyPhieve2JybvRlf/Kvi+3/qvfGVb/6vnuf/E/G8bh7OTbVMJkU3D8JuDMKx9rJ2Y8AAqTNBLRpGNT0tk5NT2rHwRyFeRMiIwpSQE8sYFjZavMjstiUePh57IkDDx0zkiXWw3V7VBp4hf3UtJZPa7ixyhmoPcyDu9h0K5fgwTYx6m8kcrQH/cMuZzzS8g8u3fVPptCZBA0Ryr3wAhK3GcDyW898Dw0wfd1CmjzBY+lNFUAV0t24+t9+5WjOA5MjYWFDUb2RUlldWtb8GVSnLpaa6Uk4RulhaouHu7W1BsiNjDcIWOI59gvHMokwOBuo84GpPpWHR6+TFzzwrzz59Wdtkp6RXYbBjLkHG6th4AOpxH+PeB5ixucC9Ozo2IQODd2VqejMyifXYmaM3fN+fEfFui/jXxJf3NlIb3/O+/L98/Y8SSe8fi3hd+QYIBhLcDpBVy/u+rKwG+gTQJlmdlgh7qQrCXlBYkmbTagMchso0/0O18K5oizchP/MP5hXVR0Uw5PrkUZORLVixO2FnK7rAwI5mUDMOmETdan72vdn8oCZSwB3Jz5jQ9gsQwv3Dfea4f+zcP/ZzhNu3bOGBTaivrdUNWK4AIbwoGTggTTvz9o1bt1UJTz4VwCwMAZkeobM1l0FTg1Lc3LO87JSK1cNrw0H15f3YL9dz3fFo7xEGxIAzcj9874c/1joT6LUY2+d6e+SVF5/XRFCuTcL2CG8KLHoMATibbcAZUQqEu3a2t2opeFgdBKL9A3eDtOnrQdp0m+8z90iJLwu++MMi/gde2vuzlKQ/Ti2nJj71Fme9N77yjT/2PO8fiyedBwEQXCOHDRmgF1FGYXxiSsUUoCCoKep9I2K8eL5XRRxQVLE2Idcuu/1xdCrLf2CLea6TxVZXjtohFvOgz4+lt76Ku3AG4Deg+6ACNYS0nAp+yR13FAfxnAAE6EgrlrUXBmGrXazteExb4fa7uL/krzXD/QvbslgDPC1fwnZjPoqlsoWFtqMez5Vr1+Xq9VvKAsMYILRjR0xf5hgKTJ3tPq2AISuUzIS2u29a7O1utnIFw2F2BIBA/oW//s73VbgJi3Pu7Fl5/tmn5ML53mweBrOLa5OtWAOi0MxlgEYJkEGUIGGBCENx9cAEqs4gGZTRdsay7/v+uog3LZ7/YTotfyFJ+XF6Yfa2iMz29fWpCPBIAIJrBAyBSAJhG2GRIFH0CdDfdEgNizzfK49dvKAdDaomqrZDsXey/E0N218p0B9Y/gMEKkF55/3a76Bp78Oyz0Hf51FgEESQsPNiQq2trlE/rTvB7LdtdvNO3Aut0F4BgtsPDNDb4kQyp5LSEtW9AD6sCFyuItndvMdJPTaqfyESJA8N4JNdq5svI6pvhccyxwR9MtAuUeDnyrUbWgERNqCro0MaGwNGgpwqpGZnU0eyo7q6Wt0thzcQxQ4QolgVfP6w4bjpyQCJMNPy/AAQ0B/89KOPtYR1W2urXH78kmZwpE1c3ZHNx+F20KRRIsrU9A/elcHB+7qZxmUD244LEkBASClr6NLyiuoMcCWEit7xWGsi0u9L+q8Sae/PJeX/bH19bqqvr4+/Zz+HChDsri6TYDsJy8yHkQm/Q2E5MjqaCYssl7NnTssTj1+U3u7uQO2ZUcxGIa6TOjnk8t4MdkujG1fqy8Vi+T3GFk3GABOqCsgyESAVmcRTtJE7oR4mQOBtoSZHJyY0RHW3LgaOd2PzrQw1u1ZcJiamAiAsLCxq0Tdmq2CjEPhE48/eLYD9TdzNoqDAk7oN1dW6S82lb7nzsy0szMvoDK7duK07YYoc1dfVqjKe3XDgqvSUQSABEdEJ3Du8kz4u83WYDYfeJ13xtRu31MZPPv6YPPf0kxrBgaaHvxHeCPNiqaWxFawO37u5YcxG5hYytwBaAkJH+wcH5cGDRc1DAwhraWpUwSOMARESs7PzspEK3AlWzdUZVxviy31f/Hf8tHw3kfLfKylZu/mlL32JfPtBadCjBgjuA7gToRaBKgnQ5uLisqIhGAVTxLY2N2kRKCgZwiKhrdwJ6bh0vr1PDzufib1IgkOHpgNauNzOZ8ZH7NUC1sddARJ2R5RkCycLqR3Hz6NcKAEII+PjGgq7G4DgugBZ7DdTQAfRFy6lDThlwoPNWlpeUrGsTbr70cTstY2K+bzwHIj9tKATkS+Z2gbMrbsRwLnK+InJSc3bf/3GbVXIs41FbAhLwL1IfoaLgQi0Tooq1ddLAibKKZF8lP05320bBlD04Z99ckVrPLCAnyovkxeee0Z++RdfV5eOATZsYOGEBuTc7wy82fMaYOZY7D54f1jFhqmNDc1CeaazQ+cJkhFev3lL3QqMKRJBBeNtE2z7vp/2PG+GEs4i8lZ6I/3dU8n1j5aXlxfNnRBlp0CkmEj8I/HkNA+SzyiG3TSMCxQACYErIa0iRipNDd69JxNT04rIuk93yZOPX5LzvWeVljWUFKZpYsDwcAtgY1AsVBc7OD62Q9hNW8XH7mwBl+rl6KB/B64cJlPoXvouO4itdlk73+VgjlCAMDaumee2AwjuO7q/a7nwqiqpra1VutkEVe4ChR3oe1Ck9EUFCkvLOpkysdmC4i4sx2mR2W/LhfuX7UDxM6PXIlMgjE1UtsDwQhR+lgQugXRaayfcvT8sn16/qawBotXmxkatqYPgkHZbW12T1tZmDVFnN6trCBkC6eyZTzG221bP7/7dMhVev3VbfvCjd3RD64uvoYXPPPWkvPbSC5qoajtg5l7PbQfGDOex4JMaAGaC+iiNDQ1aPwH7kwWXv1MmG2aCcUc0YAaIWwOkRbx58dP30iKfiKT+Q2qp7u2+vv9+Opc+6P3eV7/5DfHkH4lI3sMcc3kAOyaqQSxsjrANQiJHxiZkeHhEQzno+ACE3p5uzcpITmmAgotai7mD7sZ2uzkWKgqAQMys0bq7OT8+NjcL2KRgwDcIMyMePciCCP2K/cOLZm5XP9ijAAhkPkXMymcr6t+NLOI9XXeCpuAuK4sUFocnQv6fMU7oF/0TYGJhsnyHnezfwb558Vzd+k02OqG0VBkpwEFge5IiRVd2jAIINhdwPdoAgEiiozv9d+XBIsCgQf3qgIeyUvpxuWZSpUxyS1OTgl5jMsJWPI4AwexFxdO333lfPr16XcEu9iPHw6svPq9uhgjW/iHzhNc9axvAMjUr2ByvLAdasZ7uLqmvr9cslWgQKLg0NRVUXGXsuWGLGcbggS/+aMJPfLThrf/ndKrk+8MrM5MzV66svvnmm6lcerv3e1/9xr8Xz/sHIgcfxZDLA4UBg+ubpAGmJqdVgIFGAQSL+AOA8OQTl+RcT48iNkNfYXRWjB11Nzbb7lhsovUX5uaUiYlSkefrXif5OtbnXOqQPqrqcRIdkfY2Iwwt1P6pcdPjJFpZfQQguM+sjF2mNoQm4qmpUcbA3FZRuyN3DLrfm/uBMU5BLwp74fd2fbNRrMJJ62vh/mUCV/QAmi3RqWOAbaI2XuG/0R8p80v1XbL7kZsfIR2MAdfFnYvOgH5Bezc3N0nP6S7dzarOwHu0lk4xz7XhfoltLAOlmxUW+xJG+NYPfywDd+9JOhVEbpAV8flnn9ZdPmxK1Cc8NgyEI/IkdPRW/4DO1bARiPQBfWiCYHJu3RmU+YUHQXpkDwEiJZqz+h0W/jVf/GnPT7yX9jf+k8j62yXpmvHf/d3xOZEgOiHXj/fGV77+v0ki+Xc98duP0sUQfmCXQlM6EgNkaBfQFek8ydplix2NQVgk/8gchUHpzK7rwu5RzJ0314YNH0cHwr0wlSnjy/exe2Gv1nz0POuvUToDGAP6o2WdC/fJQuuPLATsIBEQ8nF9ofbs5noAEBgrAmPAJ1dmJGqS5Hx82lrHY2lRd7OuPsFlEgrNbvnrTdv3L+ymjFRZqabfrq4MCjO57ZTrosRx2BeGFlDAAsScioaADLcNdbVZ0MHmCzcCWrBaih0lg2ibfNdOOEg77nTtsAuBBZ58DyurK5lsplXZPs4vZBz9ybsf6I4ezQ2L+ROPX9KQT7fs9lZuHevPCBXJgojIcGRkTJIlSWVssDVJpoaGh7V9RkbGdUywFuKKz9S/wZ2gpY9E/Cnx5Zov3rf9VPrdVHL9077f+Z3Rnd57q++JYvjfxfP+C8+TtkICCO4D26SLMQORRxCKNTe3oJEOQyNjGhaJi6Gzs0OTLBF/21jfkK0YFvYDnaTJxSZtaFwELbH+YK/DZeuJO7xwoi1gN8GuDt2M+eE5rtD7Hq4FAAL9xQACP41C5vmD0Lmq7OJk8dU7CeG2srxNzDZh6ly0EVQCZYLmJ64Ps58reCx0e+6nt7kbJfudeQ5XggFPWAM+xraE7xfFVAU1b3ytt8FG6+atfrk3NKTgjIgHXAqwXqxyXB/FPYseoeZBxr+UHmuf49IGZivss76+obWDiA6gD+JOeebyE6obsn4IywWLwLyK7qb7zGm1FfYw4OT2addeBhpwrcHYjY2RnGxR2xWxZ2VluUYrABpIdsQah7SDkFNHXA4w2PB9WfLFv5EQ7+1UOvWTtCTflpWZ4b6+vmgKI8dOWRQAIaqDg56gfmggdsVkkhoaHdOdBwIwAAIlpbu7unQis8bYifbM0W5FeRi+XToyO0Nz3RTlixzxQ7t9KMwGUBCHsEWoQVegF0X1HvFrbHn7ZajmsfGHamnYwTB57FbJaWChc9stTrm+Y9S4NBAQsAlLGhYJUIhyOxgIzvV+hXxcVP+yRFpkItTiS7irMsDT1YJs5cIx+2y6coLNApEJFFZCDM7Cz46VUswk1uE5NJSutVWT8OBmcIGwa8PjBBAsT8TgvSF574MPVYuxkUqrOPPXf+3zKtQ0sGx9HzBA2WrAmxvN4wICa9dsv2btmpnVSD0S18EGAMJgaQDnrGm4GgAO6xvr2t4lJWw2NDrBWINVX2TUF/9D8f1vJ9YTP5icTN3++tf/JQKiR8IWd9vviwIg2EuFJ1lb5FDc4i8bHZ9U/w2AQatFNtRrpUjCIkm4hL/MGraYJuzdNmrU8cSaE3/LpBDrD/ZnUXeStH6UrZxHiuTM5B0GD8Wy2wJIIlJ0d+wAA/QTMCKk0WUsuaxIvhboqHFpuzHAAewXLka0CmHW4TgtUm4fyzI2lPmurs7YPsiVoSvFFhEDrn2CyJCE2g31O9X8bt0eUMEyx+GiRVtQAjBI+1J2qkyT+XS2t2UjxVxdTbH05d2OdOtD1Kp5570PNFMkKelhUUgI9Xd//QsqysRmJqS1sNyotSXMGPD/MBPTMzPK0pGFMsgc3CAd7a26caNNCCslvJ++DmAJwk6z0T00fMr3ZUY8/6qflnfS4v2lv7z+8fBwzdy3vvWb67t9762OLyqAEH4Jlw6CC2NCI8JhdBS6ZlwzTuEXPd3VIRd6e6X7TJdO3hZaFp7Aj8sEE7aT6g8yEwNI1RCsS9Pmq0Md5+u4E/Jm30uqG0urLeJOcOL9ixWEQnkOj44GIYeaRQ9fd4VqDdhFWlKzMHDP9/iJsh/9GACzsEQp8dWHQuqMys33cxxWnw7vztWlqjn7rTZHhbbFVv7srcACx2M36GuA353+AVXHs/gAOEi0gzuMD+1dW1erjAGRYexat9qgHZZd8nkfFzRFvRdAH7tcu3lLiyoRPoirC9aM0MVf/uxrmcqUqYcAatS1XHBgczAb2ekZEgGOyCL2r6rSzSvjC+Zu4C7uhEEtYAjusyyImT7N4696npDPYMhLyCcpX/7GS/s/TS2X3evr+x+JXd83a+Da+1gABCVcMpnYsCoTByh5YmpKazsQz4uY50xXp3R2tmkeBdJgMthcei5fu6B8duh8XIvOqfUXpqY1pnY35Z3zcf9iv0YYGPD/lqWOBVOrLRKdkExmd3TFuEjxzIwHqPzhsTH1c1YRNldZocVfoE8PgjXYqn+E3Q5mU50l19Z0nNOvAQwu21FsQMHdqNg7MzeRWTPoXxW6o2fxdkHATu4EZV5gVx8syP3hYU2kQ/TX3IMHKj5kcSotK5PKinLdOJVrYaVGZRMADoCT4zI/hvuSK+h0dTP0cUIX33nvQ/no55+oy5qxfbqzUz77+svqZjCmILxeRPXXYEz5srwSJP4DoFE0iZBn7FxVVaX9F+abtpmYmFJBJGxPiDVIiy9zvucPiO/9NJ32fyAl3pW0rA9eead75s03/1lOYYu7nYuLGiC4qI3GMZeDIWyoG4t2ACgwiUCPdp85IxesWmRtjUZIGH32EHo6JmlfGQzkUEedDErda3nn3Xau43C8DXqbKHVXV1KiGRDxw7O7Y+IO7+qKESDY4kM41ez8XCY6oUpFUe77HQUzEnYn2KKKUE71CYsLuiNzaV9rg0JuC7d/sZAo8Kw4JTVV1QrM0LQYtRzFeEYtSrb4oc9i3rt5+46QzGdhYUk1BQgQ6bvkjOF+zU0NKooLKogG0TZ8CjFHx17mFBfgm214N95f1wwnzwagyHIbfPTzKxoJR1GlZ59+UhMUhTNSuqDVfTa7D5FjLP6AM9wKzBfo4wAGhDTiRiACgkyJq6uBZwB9nQNgyIC4Lr7MiydvpcX/dsL331vYWB68deHC7Jv/7GCAQZb9KIYohp06RXiQcLz5hUDQCw/QJ5C2eTibWKKhoU4TLV1+4jFNGcqgoNMcp5AdF0DNzM1rKBMgKQYIO/Woze8NONLHLD1yoN6vdCujPeQHLmYmivekj6BZYTflLhZRk+FhLb5RoMTubRnntL6D5k9YfSjaoZBdafSvIHtkkEgLYED/wg0arg7osgfWx1y7sNEhkREL38zMrBbtuXHzjirkcX3hMgAYYLfVtVWpr61TRrWjrTX79/A9sgtFEW+WzEbYGJuyWSJvATVpWltapPt0p7oINa9Ahm3FdrfvDCpII3T+TFdHlnGO2kS6AJZ7uG1A+mXsT1ElLThYUiIIIMkOTNp7GISgqBJagyCfQXaspf0Fz/M+FU/+LL2R/gFhi1feOzvx5pv/jHwGeXUnRM2K3htf/eb/IZ73tzzxW3nJo0q1nPuUHX1kGCQYo6BJaTI+ONMnDI2MaswpvmPcDZcunlf3A5SPuR2iqmvt9xmP4nw6Gj401LIgWOxi4OkonqdY7mmMgdkL5K9FlSoDDYtR7ZGDqsgnU3tnF2AWA+hht8auWcMicTtkUv66zGKh9D+3f7FjrCyvUGCAKxTWIJe5P7woAerm5+dVX0BoHip4IpYABSxM9Nu0n9YFCldCe2uLxtoTMmnK+zDgOywAeJDtYv2Z98bt/Om1G1qNElcarMDLL3xGIwcsqZECThXELumOH7YwijkIg1abV6lKfHdoSIaGRhSs1tRWa4gkDA2aBkIW0RpwXLDxgDEgKi+wgud5LP5EJ9z2fP9HKUm8u7a68lZjVcnw/Pz86na1E/JtR+/LX/nGf/AS3hc8keZiBgiuYdyGs85hfncEKNA5wyOjGvXAREJYDymbCqqNfgAAIABJREFUL5w/K13tbTpIaezj4H9TRLy8rO4FkLNRV4W8q8p3J9/N9dyJm8lxM30w6vEgS6BLWR6HHVbU2DlKtmA37eWOdQNt6BNwNywtBmGRRiUXgjbBDYHjedlZ1mYqXaq7KhGEF+by4TgLyeOdUb+z8wUcoMFCYAhrwMbHxrsmO2ptld7uM1J6qiwymdxxAAVh+2EnwNJ7H3wkuA6g9rHJ45cuyudef1UXcLeGRBZU4mrJVCgNj3XbhJq9SDjFJpTcCegNvIRo2mXszYaTDMC4e4ZHxmVtfU0TTQXh+g5j4Ptrnnj3fU+uemn/rfUN/69lPXnnypUfLOaaHjmXvpPrMd4bX/3G/ynifYHEWccFILg7H2tE+8mEj88JNSmiENAc2bBoJBoSRHnxwrlNxJ0pxVmsC0GgP1iQyempbMiM2yFz7SjH+Th3wed3fMHYiEQl9bW1ugMzF5S7azvONimWd9vKvcjfjU0AGKNHMhbE7f+HsRi6/cv8+pYvo66mWirYkOxQ4ju8W91kRUQV72TZu3L1ulLXqdSG7oiJRAAkLJMy2xMV2JGWnv7MvBCVBvgw7HHYfcva+8btO/L9H/xYYJBZmPlQ9O/1V16Sjva2bYtMhftZWN+CawtXAuAMUAojTVZF7IwG4dr1m8oaLC4vaS2LktKSrPYhY48NX2TJE/+uL/5fiJf4j4m15NW1tcm5/SY72o+9jz1ACO+ObGBZJa7p6RkZGLyvjYjCn4WAcEg6DjkU6upq9RJuDHCxLRLQWghvSL4RRzBs9ojwxG35IXA91dbU6s4O+pXjtpog9jP44nP3b4EogOAucrQpbAJjGzEji6KxaAfNKET1L+4N1VxXW6suKwsZDfexrcRvWMwyJ8IaEM7986vX5cqn12R5eUUZg86ONu237JipiEsZZvzofGeMw1YsRTEBhDBo2ooJw+YIAt/60Y/lZ598KkvLK9oHyPnw6ksvaO0Eak6EhequLcL2MncCbcDaQUVF5liSKPWe7dbrIfb95Op1uX1nIJO9FkYyiATK9D3NZyDirYnvz4r476fS8qaXXP9RanFxpK+vj1znudFJ+x9KkVc41gAh/MY2CDdpdpw+ng4sQgChnUgkhG8INe+53rNy6UKv6hTIjMd5Fk5lu5EDape8XRaRJuJEdhk2OcbuhcC89AcmBRMnQfFCwaIzIKtc1GRaTBNo3jpREV4oDOIBx4jBgmqRKwqW3c3CQbyi9S9+svEgXE4jBTK5WLi/zUlb9Sv3+yDNfELDttkFU81PF6bpGWlra9E5igUIrQGuC0Ik21uapbW1RVXzFq1l71rsfTnsXrIcEelUKqs/MWEiAPFP//Jv5MrVa1p7oqmhQR5/7KK89Pyzmr3QXMpb9QO7lwm8CX8cGhmRgcF7qjMw1w0gDDbhzuCg9A/ck8nJoDCeApJMdIJzD2itEc/3f5z2ve+JpD7YKPNu9H3xi3NHDQyyfeQ4uxi2G/RG9ZlAhMVzZXlFyKBF6stxwiJTGzroNG1z71ml7Kizbq6YYthVAmhQytJpzc1ykgGCu6uz/kEf0ERHVRS9CeL9+WyV2/4gFpP4mvm1QBQlDxgki12QaAkh40o2ask2DfsB/u49TcvCdUmyo6AzI3C16IStwgi33K1S6W9sTGlstAZsZAANZOEj/z/noYJHcwAoqK2plrqaWo2OCKf/PW7ggLYlcoMqoOQlIYuuJXnC3tD+777/gVy9cVM8Sci53m558rFLaicDTiEtwEMdku+s3dhIDty7r1kQT5Wd0uiEeuyfTusGk7DFbFEl1TGV2LnGBmykfZnwvPR7Ionvp/3UT5PriWvr67NTR+lOiBqBJ4pBCFNQ7i4jCOlKagESfJboEwbv3ld9AmKSrs52TdmM24EBGBUrXGjInE7NwJiYnFSa1SaFkw4QXCYJpgCfLIxRdgeSTkdmScvvEhZf7bAtYAsAiyV++YWFBQXO0MTBXOC56Wz18XJZSKOAAedpsiP6VxXRCeQ0CASurjthO1eCjVOORzOFDxudAcWBADqNDXWaChmRNRoL5q+G+nrdyBC1cFxDt8PgD3BAAqJPPr2mTDDvjtugraU5yxRi58npGQ35xK3T2d6eBVVRKaStb7ptsLi4LONTk7ouAM7IPtlz5rTU19Uoi4MOhH+UaaYMM4ykhS1mGAGSHc2nxb/h+fJOyvf/YiW9/O4f/Jt/M10ojEF4TJ5ogBA1QdEhGMgMOBDi3fvDChYYoFB2uBsuP3FJO4a5HaKSLBUCWGBQEKozMUW0RuB3O+kCRXeChooF7NXV1ekuYqsiK4e9kMX3OxgLuBsCE+kxPuYXHqiAF389Ll9bFHIdK8YEWN+yLJvMD7gTXEYqlzdztREAfEt2dOPWHZmZmZHqmhrpwe1ZW61Z+dbWN3Sx6z17Rlqbm7PlmV2GohDmo1zePZdj3HZEUDw2Pi7vf/gzBU+4kBAc/srnfkEeu3j+IddBVn+VWY23m7cNHNIXcCewyRq8G2SihJE523NGaycQKglwIzphahoZga/2t+gEZ+Ff8cUbFd//yPflT1bW179z4+OFkcuXZeMwwxZzsa97jPflr33z/0qI/KrI8Yti2I0xXFRvAhTiUpeWGKATGluM2wEVKpnIqPn9+MUL6r+CynLPDyPc3TxHPo9loiHfw/jUlPpc2VHksiPK5zMU2rVcgGCJj6Bi2elpzgyn+M1Jt1Whtd1+n2ercWl1Ch4sLqg/2RIX5SJi5JpuODS+f+Lma6tr1LVgOgO3X7nMRJQ7gXOsqNKdgUG5fvO2zj0sOlojoblJn5Exzf34GwuWlmfOCKofmuSLOC9HVJubzWACKFf9wcefyEc/+0RFgXzICvmLr7+i1XyJDjGgFHYhhG1v7WLH4XYmbJFyy7A26VRaerpPa4QIYINQ+StXb8jYxIQCNXNXh4oqkQVxJu35dyTtf9tPp/4kvZq4feXK6bmDSo+833HyUN9542vf/H9E5POeSL351jFqb0+P5gWgNjUJR07CxxYP6yCagjNBoqHA7TA6ClAY1tKoDEw64vneHtUoNDQ0ZH1ehZQ/geJMxETT2U39fBLacqt3DGsQaGsAHuwQOgRcDifZBXOS+oZpcmzxhmVDm8BCE1Ut0hYQtw+ZTiWbZbOqUsGmsQZ27TDYDC9OJpjkerCVVPPj332SHZH1sK5OoxDopzAdXL+lpUkjFtAZAEb4HLf0yDYXR41b3ped+9vv/FTuDQ1p/QJYQZiDV19+XtmUKBAQBmvW57MuKN9XxhUAADCgjgKuG7Iplp8q1/kU0IBAEfE3rJNVXHTaWdMj+yLDnsh3NtKp76Z9uTI/LkNf//q/XC6Wcea98dWv/yfxEr/kidSedIDgNppLY5mafW11TTNhkQgDXxa7DRYVkmxcQMTY2aF+KZCtyygcBZrn/kQwkDwFcMP/m26iWDrnQT6nyyTwO20MdRjko69U0OAChUJhhQ7SJift2m6b0tb8v2VjxPUAvb++RtrpdNY1Z4yAAQP6DdEJJnK1MLbtFutwXzIFPYsSIrdbd/o1QmFxYVFKy0rVfUBYJOG3nAtYwM/e2tyUrcJYSJuSfPQjA29aoIp/MDVOuLEmPlpbkw8++rn8+N33dV4GJMGmvPDcM5odVzNHpnEbPfyJAmfaruLLyvKqTM1My8jYhBACj+CxqalB86FwDKCNNM3U+CF0Eo2BRZdk3AnkM1gVSQ/74r3v+/53kyLvz02u3f7qV78EmiiqDxqEPxHP+1wMEB5tN3eRp0Pawk8ZaSg//FGIUzZSG9LUUK/6hNNdndKhqD4IiwxPFLYLOehewrPjO2PCIWEMH1PhHvS9i+n6YYoYloWJpqqiUicHQIMtHltRksX0vvGzRo9zG5e2WMMgaEjk0rKOo3B4cxCdUK6VEGGd6Cvb5RjYijHgvmQ6JdKIWjH4s1l8ABqADv4hooU5oC+ia4A14KfqZpwsf8XuEgsDJ3W1rK1pae+SBEWsyrOZTLE13/3sk6uaHRGxKdS/5q+5cF7dPNuBgywAyQBDIlumpqZVyKh6lHRK2xXWhs/E5LQyCjAHHOuJp4AtM6eicE2L+Ey0IyLyM0nLuxvivesvz7zX19e3UKzjzvu9r33zP/kiMYMQ0YJuh+V3N3+CVpFbXFLVLB2HnxxTW1ujaZsvnuuV9vZWHeB8XEHMQQ9krm9UJQDBrXBXrB31oJ7bpS7d9jahmcWthylje56DbsuDeu/4upsWcNlCt10ZQ8TMwySwALEw+NQyKIVpChburYoqhe1rmw3VN6nrMqFsBUJowhbRGkBdswkhORuMQdC3fA3Za2tpCQS1tbXq6w4zBoe18TjIfmPtYBsrchfApACcWPDJcnumq+shlzf6MEAVgA72gKgOgIS7uXPHqNvW3Ifz2OzBCs/MzqrrGGaGGhWk6A7cDEHqZDZaiCKxv222MozShngyIb73se/LT9Ky8UPfS12ZKi+f+eN/8S/WCjVCIZe2jAFCDlaKAgo20BnkWgRqbFwzavG7hkV2tGlYJKKWxvqgCJSxCVETUg6PkfMhdFqNC56dEzQITCam4M35IifswDBQsB0GrgZC1Koqq7K1GAyAHYdJ+YQ1846vG7WLZSzBIrAhYGeJH5qwWBYTG9NRgDHMGgAMqLYIG4HvmkQ7127clpGRUVldW1d3QVtLk6ZelnRar098PVonGEqbQ9zF77gAVXdOZHwxj1pRpfHxCWlsbJDXX35BXvjMs6qnMhePijVJo+2LMiy5ZIpk7uY8QB9z9tDImC7+2BrReWV5eZDsaOCuAhSAip8mOuGRLIhpX+SBJ3LTF/898eU7Gyn/w/HVufF/39eHYvJR/8aOPbCwDogBwi7bI8p/yCVIazo5NaNAgX/4E0G9Z053yYVzZ3WQk2TJKMzwdXb5GNsebipoWI25uTn14cXuhdwsHAUUmNitmiOMENSy+kYzn4Nsy9yeOj4qXxbYyo2kOXEz1SGTZDTMtH+U64BneQQcZJiD5dVV3RHfvD2g5X5hDajiCJWtrEECf7tobD07Yqou4r6IcnMdJ/bK7GVJjT69ekPe//BjZWZxJSACf/3VF+XVF59XcGDVdk3caTaPciu4QJ7jmaspXkc7sIlibOO2QdsBCAS4keuAewNGED8SmeAk0/J9318S8UY9Tz70xPv2Rmr9J+lTicErb3c9KIbohFzHi/d7X/3Gf/Q975djDUKuJgsG/ybiZf2lAwUiJ2jI0dFxLbVqu3cynZ0/26PqWlKiImri2IOMUwYRE95Ih2dQxAAh9/a1I43GtbaGWtTdY1WV1BDfXlqqtj0uyvHdW+h4n7ET8ItiAqOAAX2EhebBgwW5PRAUVSKxDxoChM0o5MEbRCdAj7NYUYoZF4btiMOgoxjBwU720nfyPI0ceOfdD9TtwjmIEU93tssvvPqyPPPUkwoYotomCtwZODDWAOaGufnu/ftqbxLgEe2QLEnqxg53j23wECBaamXH3ogQ58WXGyL+t8VP/enS3Er/5OTg9Le+9a2gItgx+ni/9+/+6P/1ff9XYoCQe6uGXQ5uJwRpkuUMigz/Ff/4PZkge1eb5v9+7CLZGBuyi4uhYfcJ9jMB8HyosMcnJ/RZ+MQAIbp9t5pUXHbAZRX4O6plmAQYobA4bT/tlnsPjI88DAvkChCinsUF5QCDe/eH5PqtO5qGF992U329himiYVhaWVG3JL5vXJJELVjE0XaL3mHYIF/3iGJe3U2SMQFEhlGO+acffqw5DqxU0YufeUZeeuE5aW9rUwYgV4BgOW1gbvr7B6R/8L4CjMbGejnT2SlVVRWaiArgRjVGXAtETCQSgc4gwCzKFiJCXBfxJv20/1dpP/3ttfWN966nlgbf7OtDZ3AsP94bX/nmf5aEihSrMTqd96TmQdhtC4eBQtDJPU2zyXekc52emdGONzo2IUvLS6o+phb7Y5cuyOmuDk3DimAJkOAChb0uNJYhDr8Zymiew6XhdvuOx/34MIsTBf5s90Y23k0qNKFsAmI1/kFTxvkTjntv2RlkGjBgHkDcSKQTGRDv9N+VhcUFdU9R8Y8siLgtCJ0mZLGttVlampuztV62cnUUq4VdF4KyIul0NmzRDRllgSYq4b0PPtYshTAq5852y0vPP6cllC19dJQdXJtZ0iK0I2gYAGYTUzNaZZEMiIB75tv+gbuaHpmiSkSjAQycLIjZxHK+L1Mi8kPx/O+sr6beXVtcvXnr1oezb775ZqpY2ySX5ybM8due570qIlUxQMjFZI8eE4VmdaKg5jpimIVFDV0aHZ+QqakZFSmRDe1Cb4+ChObmRs28Zm4K17+2W6Cgyty1NZmamVVwYuBgt9fZmyWO9qydwpp2ejqzkftz83fO9h5KVc13p1TEGISjuRPLTveKvz8eFnBpc8vEqSFz0zMyeH9IFyCKCNF3KirLpaa6Ruo0cye6Ak9TMXefJp8/0Qkl2XTf4fFazOPXBQC0OpFV2ISIDZ37amqy4wp3Ankgrl6/peGf7PTJWHu6s0NFm25WROtB7vyru35CR1eDzRnz7dyDBxqNwhhtbW3SJFMTE1Nyb3hE7t0bEsLWCVvEZUib6EgPWIMNEX/A9+Wa78sVSaV+mFrz3haZn+/r6wMYHGkp5sMYQd4bX/vGdz3xXooBQv7MTYe1nTsdlo6XThMWiT5hTG71D6jroay0TFqamjSHOowCcbymT7Br2FPlOkFwHDsXBDYkSNpMG70pqsvfmx7MlbYSGu3kDnAGtj6Ya8Pw4m/HGutjOhJLkwoLFGRHS+jkgY9Sf/L/jqbDnolohzhS5GD6QyFe1e2LjnhNQ+Vu3OqXazduydDwiPZBdqxdHR1gBAXviBIZ6+gMYA3oT/w9avErxHff7TPxXpbmHe3FT979qYoAscOLzz8jzz39lF7SNkaW+ppEb7XVVVJdXf2QMNHGbnhjhh35G4WUAGd371HUal1tjVuXCBL+duPWbf1JngtcOwAPwP3mx9+gPpZ40u+n/T/1096f/PyDH31w3NmCqHYFIPyNJ94rMUDYbbff+vit6EH8jTAKpGomtvbuvfuKpL1kQs50dsjTTz4uFy+cl/raGnU7RMU6hxfB8FNwb0qekgUMoJAPBiGXhXkra+z1XHdnFgZL4XvxjgYAggXeVMf4EIPvVHCEkjyRkKSXUPsG4ClQJ2eBlMhDoMrOd+8Rvv9WgCZ/PSq+0lFbIKof8zfTCrDYAPqpKHi7/66Klakm2H2mSxPqkKGPsc9iRanhlsZGXbAQL4avnetm4Khtkuv9beywafneD38sV6/fUI0U2QlffuE5+aXPvqZ2NICgY1T9/8GCH2Uj997m2qMNRsbG5c6dQZmcmpKWlmY533tW80cA3Gibm7f7FRho5tQykqAljTWADcCJuOj73rCI95F4/n/YWFx958qV96bffPPNY6sz2K4dY4CQay/f43HhwW+7UsSD+MbuDY1oLC67fVTLF8+fkyceu6hZGYm/Z/FJp1IPcVnbTSAcjyiSAWE1NNwdzl5eY6cFerfgYNMmMC2Pnp1NSJVRNRvIsdoY2QU9Ez1iOSn0vETg2nlo0UcbkklOA4+ykyZjr6BmL7aNzykOC4T7hC1imkxneESuXLuhO1MobaISAAYUAQuyMG5IfX2tnOvtUdBQWvJo9MtOwL84rBT9lEFRpXn56OefyNs/eV9TGqO9IO/A66+8qPoCxuRWrtXtQhcDtyyZDic1bwIJjYgyuni+V3MasEm6fadfPrl6PevqCVIjPxy2iBzEF3/O9+V9Scv/50v67QVv/e5Xv/SlxeOQz2Cv/ScGCHu13C7Ps0V2MxsjDEGQjZE0nmTyAmHzQcSEMIf8CVCQ5afKFCCEB0qUnxJKjdjq2fn5bDKR/e5Ioqh6mzC3YkvMPMHuIQgFtUkwu9Czk898lwUBGZGnLfaaXCaz4G8es1m2Wq/lMAjuu2713u7fYzCwy458wg6PBAaZLIj4uBG4IUJk50pfJGSuoaEucCsStlhZkXElNGmcPcl2bBy7LFkxmnW757fvbL7rv3tPfvj2O5p8CDbPhPCf++wrKj4k5HCrsRj1d8snw8aKREe4c0hihf3JKQFrg+4LDQibMHRgnONkQbStyQbAICGJT3zxv5PeSP9oJeVfn7h7bfw4hi3utp9tDRDO9ugChYjGKJ79LjS7fbjjejwd3mhvFk4W9dm5OY12GBoa0WpuqOIZOJQsJdkSnZ6dsS3WUbQk1yRMiPwLXCPcXuFztlrct6I8wwtxoOPZXKB1d55Z4F3XxiZaz1D6tvPPTBR6bAYIuJS+oge9Q7Drt/cJ/wz3k70yHse1v8XvtTsLRC5IGQaK73AfMFbZsaKO1yyI2WRHgeAOphAGoaO9TaMU0BbxsZTr27msdve0R3O0O8ZcAG9/NxAEUGL9IPfD937wY5mYmtLdOyGGzz3zlDx9+XHVAFg6ePdtouYhAwbkeQGUESWCyLDi1Clpb2vRtNSAAdIv48INauWklLXJiIgNGCAyXPJ9GfTEf9sX/62NlLzzvdW5u9/r6zsZ5Ytz6DrRACGR0MQ+lHumdCkLmLsjzOG68SHbWCA8uEz9DptAOCRomIgHpSbrauRsT7c8fvG8ZmOkgIj55qIS9GjExPS0Fhxx6pI/AhaCLO9ZtW52d59Z8nVV1klMSA+LUE/UZ2o7dqVYo6h88+ln3AO6g3AWeIvUcN0e7oIfBWLiXX48nA7DAm4/MxDvhq6isGfBMaEbdDYfqGz+qdZgdU2qKipUa0CEUi0COyqr4iYM+dOKecPlvotGTq2va/ZYKl9WnCpXW/B+zG3UrcH98vY772vOAVwLzz/7lDz52CUFUSzgxi5uNdYVGPi4JlbVXUGV2pHRcUmlNhSAAcQ4F9Bw+w4i8DEVfuJOsGfJ9KEUuZc8TyZ98a+I730/nd748/TKg6t9xzifwV7HzxYAwVOAQFUsGAT8aBaqUsydeq9Gyvd5UYtg1qe5saF6BNI2Mwgo5sIAgkHQYiWdhEU2acgOuxQ32x/X5VzShwIuWNhtZ67pllmsM7ka3J26S/8HDID92xTzbbIDQaEZl9rfiuKP2g0YuMm3TePrxRbYrwXC49KSiwG2AQaagvfekI5L4vjr6+ulouKUVFYQ5lquRZwIXyQ7H/VXWJyi2KzjMIdusqBJdWniIkWkyd/Pdp/Rf1RFteNgSKlrwLFEdXR3dUpNTc1DQuyoucHYCcAHzOjYxIQsPFgQiiBQD4OEc7hgyfkyQGGn4RF125o7wQCe53mkR055nhC2eMP35EpqPfV9P1n2gbc8NRmDg+jRA0B4KxPmWEFj4gtibwkiw8VALnC3Frc7iI5DR9/vpLLf890JZJOWD9KuPoANmJjU1J+UIWVRBij09pxRVoEKbxUMwow+QYvKrKzKytqq0gMuQLAdu9H5AIbAQ5BxEdjvxipkQMJ+3y8+P7ZAMVggvCNmnECNAwxY2DTRzuSUMgHE7TMOdf7zREu7t7Y0SWtLs4IFigbx2cqFVwz22O4ZXXaFiIAPPv65hnWSWwBQhNvglZeeV5BkwkPmKC2ylEpLaVmp5kDYzhVoa0tQlXZR6ybArq5vrCtbQzpqmAlKNAMK7mdcs1RbDDZbmzolEVn3RSbFl0HfT/9lKi3fF2/1lqyszF65cmXxJIYv5toHqcXwE/G850TklDUYP/GBMwg62lo1WQVokNFwHMuM5mqsgzouPJG49DuDam5uXoZGRnUQ4EKorCzXlKPne3sUqZNkBV9fAPA26ToXwNnvNrhzeZedNAy5XCM+JrZAIVsgvOExKntpaUl1Btdv3tbaACTtARgQMofwkDwZfNhItbc2K21uOgP+bvNksWsNotoOm2EnmM2r127IT977QHfwzFWAo+eeviyvvfyCRnO4mgub1zh/qxBu7pdtAwTcU1PK2pCumhTUsDO4DJaXV2Xg7j1198BOWFGloHaCbnp030TOJPH9e75PFkT5S18SH815q6P/7l/9K6IT4s8OFvDe+Mo33vISiRdF/EpDvUED+rpjrampktbWFkXIDXX1UlIa0GauT+04DoKj7jk2CE2YSNpmfJ73M0WgVleDhCu9PUQ79KiQkTBJNjWWEtgmP3eh38rHd9TvG98/tsBhWSBqDJg7gYx7UNl3+ge0cA+RRcTLs1mqoRprJja/uqpKNQZoDajHYfT4cdAZbMUS299NVzQ1OyvffetHcqt/UDbW13XuASi9/MJn5KknH5OK8iBMe6frWbvbOkJ4NswNLoOp6Wl1pQY6j2ZlRomEABzQNjCmrjshM9dxy1XxZFZ8/1PPl7/yJfXWxvKDT/r6+hYOq58dh/t4X/7a19/w/MQ/8Tw5R00fAJwxCVA4NDq70yCHdZsWGGEhAqXxvWkT3EY+DoY56ndwF3dzPWDr+fkFGR0fl+Hh0SAs0hMN7bl08ZzG/pKZEVUw54Oq3U/sEjrqVo3vf5QW2IryJ/Uu2012wZRgvnW7X2lrnHBNTQ266HEMmyJE2y1Njbpp4idzY5QAsRjnwyhwY8CJdzRRtGor0mm5NTAof/Xt76nmie9gmcnhQvIjkhRhv+3cCK6NcDmQOZH8LTAGuFW5Jm4bwAH2H5+c1JBSmB2AQRAtsplUKaO7pimXRfxP0758X3z/h14y9eHY4ODoH//xH68eZf8rxnt7//YP/t0LXrLkcyLyuYTIc77Iac/zSqyz0Ej4w2kMFYU0NqjbgRzahpyhmmwxclW/xWiQQnlmd7CaW8CytiEanZud00gH1LqLi4taBAb67cK5Xk2yBB1npWJdt0OhvF/8HLEFDtsC7piyTH3Mb7gT7g+PytVMemTcCQABfOiwdMx95C+oq63VUDoAeeByDT7HgTUIv4e5A6yInFt2Okgdn9aU8X/57e9pZljEmWd7zshnnnlKk0RRvXanugkmQMR+CEGql9JmAAAgAElEQVTZ+KgbdXFRxfGAg6aGBq2lQMgi6ZlJiJRK+8rqIK52qi3yCksiMuCL/NRP+T/wJf2Then1gf7+95dincHeRpv3W7/1R6eaetZqkumy5xN++gvieS/7npz1xG8V8VS4CGVNUh+AAoitrq5OutrbpK2NmuVVWaGbq6iP3Q57a5CoswyFG5MQgDAG1YqKGAEJY5OTGo4KMECXgD4B5B2OdijGnU3+LBlf6aRawGXkbPEjlp7CQXf6B9WdMP9gQbP8kQLYSjEz97H4kQGR8VRTU60CO1djEOXKK0Y7u+/B+1FueWxsQjd/ypg0N6mLxVgFGMz3PvxIZmbmpKmxQaOsKKrksiruOhBmRdUPsLoqs/MPNFpLdQzrG+pKwKUDQ40GgfYhfJGNEdoPCws3d4KIrPgi477vX/FEfizpje9trCxcG+7omPvWb/7mZox+MTbKET9ztoLPF//wDyva1pItG+I9K176C1R49EXOe57UigiMAnEiSqfRcMTjI16k4yDcoXymJbE4zgKdo2qv8C7F8hDw99m5BzKG22F0TJXWfIhwILUrEQ9MbJXl5dloh618gkf1bvF9YwschAUiKfNMFkSo7Lv3hjU3P24FYux7znRJeUWFlJYkVaSN6BD3AosewJvtKtT6cRs/4fdh/maxJrnRjZu3lfrXyIQXn9d535IaBXPPvC7yMC24nvlsV5skcAskdTNDHRrmLO7FPYgGARzATBO1RVVHqi1St4Fz0L9ZeHXGnbDu+/6s70m/+PLDtO/9eclG+tPR0TvTsTshPyPqoRJ/fX19iaWliqrKhrKWEs+/LInkP/Q8+bxk2AT0CVobIA2rENTzLk2W6ODp6GxT1wMdhQ9x+OFP7APff6OFNR9G0wVhkQ9kZGRM6VLEPRxLtANFoED3Fprl+hNjRmH/bRJfofAsEF70LEEXeUJIj3z1+s1MtUWRzvZW6eho10UL8S8qeZKSkckUhpQd8VYL33GY08I7e8TQ73/4sVy7eUujB6g6e/mJS/Irv/RZjeRwhYduUSVdE3RtCDLFRs3/HE8mSnQetwcQN25IZ2ebsp5op0ZHx9XVQ30a3A5cJohMeChskaxTS+J5Q7543/Z9/89TqfSnw6tz49/q61s+CWWYD2vERdYAzgKFukRPaWnZ674n/8iT/7+99wqS5LqyBM/1UKm1FpWVpYGCJlQRgiBIUEx3s7e3F7Qd25/+Ir9IM9C6Sc7Mx0R/rDXZpBFjg90P4nPMdseMNTszPcNuSoAFQZAQJAhROrWq1FqG8Ld2rsfLckRlyczKyox8YZZWQGaEh/t9z/2dd++55+AEgApmEoKbJQAJmv6G0ZuoobYWrTlmL9G35SbYCVMIN9N2DczVvudqRKvgBmKvMd0i5zE8MqJkn7n5BZTk6oN333UEh/Z3BnVVupOk0+u7ITc2d3pk3fdvZQTsfULeDlPSi4vL6Bsc1LY89uwzXU3wTHDAHSvLCyRet7a0oL01yBhwweJro3uukIC1vT4uxCy7/OnD03j3/Q/02cFnPOPz0IP34cQjn9JyC7UM7Gcs5+xaZES+h+sDARgzBh989DHm5hbR0FCHo4cPgh0hc/Pzms1h1oBt3XyRY2DbFj8ZbzPtG/zUB/7Fz2TfX5r2h3/4w78j/2AD67etnFV771gbAgQbhueffz5y+IEHGhKR0vsEeDri4TmI3A2ALZE5oBCQGIkqORGs/jgJcxUV5TrAKpCRS805bsLtm2Savsv5NbAtksIl/YNDqnCWyWZQW0M1xk4cPNCJtuYmJWIFJNRAOyG4Ka85JW7fybsjuwhsMgLhRcoqk3Ju0/r3zLmLyoCnwRLLByzBVVYGvgl8PjE93tLcoKCBu2TbtlhIz60w0LHlYBtym4nkzv337/5BY8VOgUg0gn1tbXjyxKPY3956QytwOCNhuxPYttjT34+RkTHN0LA9lBlnAjgKUfX09WvnAgmiWk6IRj/hv5IDamOAfCDG/DqbNW/5qbnTyWRydpPTxn38GhG4odWAGQUkKvdFRJ7zPDxjBI8IpCUfKBAhMrPAhYe1pJamRu16oNof4USg0hi8CoXYs1NmV5jIqDdYuG1oYBiDQ0NaL+TN2d7aqt4OHfvalT9iRZauVjt0oGGnjLI7j3AErpVN4/toWEaBsbPnLurOlECA8sh8LpElz+cVswb8Xee+di3BWXOhjRj4uzH6NkY2i2uBgH0G282BLRVwoX7zd++qciQ/w0X8wfvvwX3H71YRpDBgCj/H82NjMwsUdiPBkP4y09OzKC0vwfFjRzQrwfbIrp4cQXR+XgEBn0/2XEJti+QadEHwlifm5+NDc6/+h//ggMF2zMcbAgg8EQUJQJFXVNHped5fi8hzMOYuiFTbbALLD5xATHPzxWwCOx1amxu184GpvqAjYmNrT7cQ3fqQb/SwZLyjkajW/MYnJpSUxY4H/j/HhpbSdx87qm1JBHUcnKulCt3Y3PrYuE9ufQQ2IiCuC+2kKbQzjfNd3boT5s60pKQY+1pbVdeAz6fllVWUlRajc38HDnfuV38Rm+kMn+1unvf5MbLZ3KWlFays8voDWWgLGvgvMwjv/OF9XOzpU/7F/ffcjeN3HdWsinX1ZXxshmUjYMDvpVESNyQEGnzm8NjtbS04cvgg0qkUzl3oVjdM9bXgwpKI5wMDFgzWjMiEMaZPfPyPtVT2F2+8+j/Onjp1yrktbv0tteERbxgg2E8//3wyfvyxsoqo8Z4C5C9F5CljpEqA8nC3g6aufbZFRrRtqLmZkqT1WnYgE5V/CzgMQTbBlR62ZsTDOwYeMVAZC9QvaWLCGiDRPMsPvOHZznXXkcPrvhvkjliQkJ+y3ZozdEdxEdh8BPKJdVzgs5mM7kqpskeeAQV11FemsQGNjQ36pcwa8JlE5dHW5iYVgFPZ4DxRMbsIbv5M79wRwgCBzwBuDJjOP3+xC5OT0zh25CDuOX6Xag0wLnwGk5fEzQTN4tjSyRixc2EjRcR8Iig/z/fNzs9r9wElqslD62hrRUtzs2ZrWGr44KPTKkRFd0wSINk6H5KX52HXBGbOQHqN8V8TRP77Unbx4lRf3/zLL7/s2ha3cUrdNECw55ZMvliFkvSBiIk+KF7kMwI8CIBlB/a6xGw2wbJaufCwLZItd0TxRKecFJa/EGa+7mbUvo1jd82vCpcLgh1CYN3MlKLapY5PYHxiSh+o/BtVMskkJkGLXAWSkfjKLzu4sdkpI7z3zmOjrEFQSmO//DSGh0fROzCg+vyct1z8qQPCH2YQCAwqKsp0rtMngOp8dlGz0Syk+R0uK5B8+NGZc/pD4ERxqLuPHcFnn3oCHfvadMdvX2zltJs7K5B0NaKm1WahPPL8/IK6LRIErK0GrY8s25DzQRIoxY6sdwI3hjy2BQc534S0gZkToNs35h3Jyhsms/bx9PTowIsvvsjuBPfa5gjcMkDgeSaTyagxpTWRRPQwojjqQZ4C8BhE2gUozrVFCkEAJxgXKjLqq6urVJGM4hpMbXOSWblSBxS2dgbYLICtCarISy4FyJuWbZGs03J3QRBH+dh9+9qCmmxdLeI5E6j83cLWnqU7movA1SNwtXICQQBT5YNDI9qSx1R20JNfpl0ITJ8TFFMBls8bcg3KS0t14Qo2J+yWu0x8LyRwYKNpyYg0nXr7vT/qvc4Sy+rqCu675zg+8+QJbee0AEEXfDq85sjO+eJ34VGyx6ZOwaWxMSVD08uCegZ8xhOUsTthaHgUo2NjWnJQ4mMkyGrmnklqqmSABQD9YvCmgXlDYM6nl9EHzM0nk8nL5DV3o2xrBDYFEMJn+u1vf7+8rK74AQ/+ZwRC6eYHDEwlZZutfkLg3ZDVyUHWMKU02eqiLUVciEAiY3DThm/WQrxxt3WUc19mswEECWQnM85UY2RKkRKnzCjwAUsCF7MJrBdStpkPWPsw2OhhfSeuxX1n4Udgo12rTUUHvJpJ3ZWeu9itrXF8htTU1KC2tiqndmh0LlvGPNvpLDAIZ8YK9fliy7ZcmN94622cPX9BF3DawPPB//QTJ3D/vXerhDRLDFd75Y+DjkGuTfrSGOXeL+UykZ6S062LI+2Zu3v7MDY+ibUUTZUiSORIiDkCog8DfvG0Ad41xvzW+JlX/bVFdiesFv4M3/lXuGUAIZdRKEpHyxrj8ejDEZgvAPIoRA4JQPUkVWLkjy0rBPrmVM+qR1NDA8oryjTtFIgxBVmH/Ju3UG/m7ZgqV97osl7mWVxcxMTktO4wCBSMn1XDlSMHD6Bz/z4dI+qfkzTCDMRGD283NtsxioX/HdcCBuQKTM/OqqMfxXZIQGQSgG6ztTVViEZjWvcmS76uploFj9ipY4WS9tK8VVBvfAwNj+CVU28qmGI7WaIojoOdnXjq049qu6fN4Ibv32uNAZ/NzD6S68GNBUuUzAazdMNnBJ8hBAYsZbBtkcAgkEf+hHcCswbTYnDawH876+OUL6kPZGVlPJlMOhLiDrnNtxQg8JqondD58MMlZSZ6wIt4nwW8p8WY+yHSTLKqFVoKgEKQLWCNirWqluZG1NXWorg4MEKxQMLGyhEZNz9rwjd+uEbJhwl3ERRHGWNb0qUx3ZVR3pREJQqatLW2oIap23hca5SOn7D58XBHuDIC+Wl/ansQlDJdPTg8gq7uPiW5sa5eUlKiCxPLY2rcw7bFiopgrlZXKVDga6MW3kIHtDbrx86E13/7e13Q+awlz+iRTz2oEtJ2Q8YYXQ0g2Ocuj0dlRfIM2Lo4NTWN0pJS7O9o03EgB4Hjw++hPwNJ6JEISwkSJqETGCzDmC6BvAcxv1ley/w2llmcoKeCKyfsrCfClgMEe3lqAtWGeoE5GhHzLIBPC+SIgakTEWqXakskHwZWPpipLuv7zW4Hy763mQf74HBAYfOTaKNSgU3fsk5ITweqMTJNuLqW0roi2yEPHexUzfqSomJ9GNuxCZ9RoT94Nx99d4SNIhC+v+2CxbnEshf1+pkxoKkSfRS40NE8iERERQbGaNmymbLJjY3qtmjnYaHzDK43myhZfKE7aPdkayP1Twj6bVYlvAHLj5W2MwI6BhYA0FER4mn7elVlFbLZjPI/2NLI5wblqq1QlQUHue9Yg8EYBB/5Wf9nBv6b/qoZPn367Rnntni9Ubwzf79tACF3OZJMJoszkerWWNTcF/HwRQieZDYhV3Zgt8M6SOB/U96UnATWDUmS44S2SLiQVM3uzHBvvFsLl3JsT7SmEecXtC+aJCM+lPk+ZnqOHD6AwwcDbwe1XVWW0SfLDg4k7JQR3vnnkQ9WrVsgM4xMZVMN9GJXj3qM8HcsJdRUVysIsO2JZOITGFDf42rCX3ttTobBO7OD9Mch94jW8CQi5otBbQSk+B6SENkazewAOQws5zBDw7KB8gx6+jTjSF4InwUkIX5C7MhgDcCSEXMJwKtZHz81K6mPTp1anjx1ypUTdvIdersBgr12L5l8scJLyGER8zA8eVJETgjQBICC5xGbSbDZBHY3sD+Xi1BVVUVOtvlyW2RYqGOv3fhbOaHyH84WLNiHtHVdIy+BZEYSnrhj289Oh/0daGtpQl11NRJ0i8yVjfLPz43PVo5Y4Rxrozq3Khlms5ientFaNp0WB4cv5eSQS3Vx07bF4iLdTBSXFAdWzPV1mlXYKKMV3iEXTvSufyU2Frz/1NMglw2wHK+NjmDfy/dwU0DdFJYLqFlAwmdNVdCdQC8LlnrIayCII3ALAwMRYeIhY4AVGJwzwNsG5r20n/1gMS4XXvzWt1zb4vWH8I6/Y7sAgmYMn08mYw/EqqqzYg5JTO4Rg+cE8hgEbfZhEQCFwAiKk5rSmyw9UB61qalBRTv4HvbdWgRsW/jueDR3+QmEx8D2NzNFSC4Id2qUTR0dn8DQ0IjuKuKJuIpfHVRb6X0qqx3LtVHanZ0rB+3ySXEbTz+8gLGcyNfy0jK6evtwvqtHd61ceCorK5RXQN0CCvmw/Ejxo9raGjX6YZcNnxWuA+qTg3Wt0spGXCRmBHQMllc0W9PXP6BgjZs0khAZ66kZ2mQP6djQFI7jEWgZ0HExWE5yG4IVY3DRwLwiwNuZtDm/6q32F62tLTgS4m28qbb40NsJEHKnbiSZ/PsYUFEWSeBRePJp8eQpgdxrjKmkGiPfaHejBAG8+QMzlUY0UI2xvEx3DwQRbJ0MT3YHFjY3Q/IfHDyaCpqwL5osotU1lbHtHxjS9GI6E/Q9s6558EAHWpsCdTpmGfZCn/nmor03P51/v3JucaFhOxxV/iiRTDDKe5wLE+eTtfylup+2R7P8WFam8zJ/noUWqb0Z4Bu46nw+lyUpk3xIPQOKHTG2ljhOHhK1DPr6ed+PY3l1RWXcCSrsMzcHDLIGZtT4eFdgXktnMq+uzPm9s7Pdqy+//DK7E5zj4g2Mz055yx0ACJcvPZlMxoHiBilJPBaB/BXEPCQG+yBSGt7NcgfLhwB7aLlr4KQlmVHV/ujtkJfadiBha6ZXPliwss08OtOPVK4jm3xqZkZrj9zVkZtw9PAhNNTVwMu1rO51ktjWjMbuPkp+OcFyXXhfLy4tabvcmbMX0NXbq/czSwbkIZHjwvQ2MwwEBsxWMaOo6jp5Qkc2Qq6kde25EgYHVheCxlYE/OR7UJKdoIxaKBSVmpyeVk+L3r5+1U2hjoJyj3LOr7lyL8WM6NPcR1OlrI//blYy7wOLsy5jsHvv3TsKEGzYvvGNbyRqWw60Rj35cxH5Xw3MvSKiks2XbaWNtuExo0CFNAIE6qlzJ8EyBPt9rUmUe1Bs7YS84uGurmtxzR5MTc1gcOgShkZGMDMzqwQx6iY89MC96GhvQ1lJiaqy5QuxuIf41o7RTj7aRuCAGQES3oaGh/Hx2fM4f7FHM1MEBUcOHVDwz3IDTZXqaqtx6OABBQ2cXy5jcGujnQ/UGUsKGFGv4Oz5Lm1vZmfIsaOH9N/pmVk1VLrQ1a08g1g0pvHP60zgYVdEMAmY94wx/yW9lHrttdd+Nu5MlW5tnHbSp3YEQGBAnnnmmehnPvNnNdEi3O1FYl8xBl8SQRtESqjEGLRFBtwENYLKZpUsQxMQ9Q+ordY6GBeijeprbkHa/LQLE8DsDpAPi7W1NCaoajc0jEuj41haXkZ1VYVmE2jtSiBHlTvWM/diP/rmI7/7jhCeK/bes3OG5YTJySk1VOICxNY4kpI7O9rV/ZU7WJay6CDY2blP+UfUM7BE5vxouHv76vMjH5xZbhE/QXG00+cuansi3RSPHjmE+tpajXPf4CBOnzmPsYlJfdaS/2E7E3LxzpEQzQKMvG+Af8pm5JUVb3m4eHWVPAMnj7z7btsrznjHAITcmckPfvCDknRaOvxI5EEj8gUBnoBIo8AUAaIsGt/3JcgWGJ201P2m6Af11inYERDrskqus6z88JW7B8qtz9wrQAK121kH9n0sLS1pmpKGLBNTU1r+4Y7w8KEDOHyoE411tYjF4p/w3XDjcutjsRM/uRE4t2Zh5KWQ2Haxuwdnz19UohuFdNi2SHleZg3oCUCwQFDALCFBAjOE+eDA3cM3Dgr4TqtxwvIN71OCAnpYcEzov0LFSYpNsXOkt29Ax4alHyovWp5BGBjAYNmI6Te++SeIeTNj0h+fee+9MadnsBPvyls/p50GENarA9/97j9UldQk7hHjUa75QYF5QCBtEHWL1IwCAUA6nVKQQIYt02J1dTX6UGFLjmU25+uuu4fLrU+Y8CftYmB3hlbUhi1qbE3jLnFpeUXVGNtbmnHwwH60tjRpqxTb1SwR1e0It2Y8dsJR8tPYnBME61TonJyaQt/AEPoHh7GyvIxEUQKlxSXaxkxgT1JcUXERmti22BCA/Y3miLt/bx4cMPtK3tDk1LQqUs4vLKjVMp+XfHZSlZLZP0pYc5zYhcRyArkfFhgYY7KALEHQI8a8g6z3Tsqk35TUwoDzTtgJd9/Wn8NOBQjrV/q9732vMoPYcXjRpwH/swLvHgjqSa7P+TtoNoEPISJdTna225EwV11dqbVyvsI7kDC5ZutDuveOaLMKgX1rrlVqaQUzc7MYGRlVsLC8sqzkMlVjPNCp/1aUlenDJ5yVcBmF3Td/wqQ3m7FTcbOsj6WVZYyNT+jCw84X1rLJISKYr66s1Bo49QuqKiv1fmXmgDoHFliEj737IrN9Z5xfSrBZg8Dxck3BOoHZ4tKilmaZseEzknoGHBd6JxA8UAWRoIBZm7DbIhuYAAwaYz4w8H+XTcsbSM996AiI2zfGd+KbdjxAYLaAttLxeF152ks9GYl4n4fB4zkTKGYTonaBsWUFAgVmEch6pvQq+6itbHOY4OS6HbZmyoU7TmyN08ab9WQ+nAZHLmF0dFyJjcwgHOjswKED+3WnyAVhI7dIt1PcmvG53UcJL+J8oJCUylIB3RYv9vShp69fdftp1hOYKlUHHgDGR2lxMZqbmvQ+5T3Ll1VMdWDxxkcuP3NDUSRqxbBdkQqIbE1k/JnB4086lVZNk4vdvRgcGlZgEGQMPmmqZAxWDcy4QM6I+K9nM9lfJrzshe5ubVu8ugXkjZ+6e+cOjsBuAAjrZYdkMllu4uVNsYicEC/y58aY4yLSDqDEGONZoGCzBXR2IwOaN0RDXZ2qrtm/5d9QO3iMdsWp2djbjMBloSVPH/jLy8uq186HFUsQrH3SwfPQgQ4c2N+hstpsnQqPIS/cgYSdO/zhe0jLTCJKRGU5gTVu8gyYPeD40ziJBDhm9AgMbNvivrYWVJQTwAcurhuR6nZuBO78meVnWGzmhUThsbEJDI6MqPARnVnJB4rHosoDOX+xWzuPVlZWVZiO43GlqZKZFchF35g3/TR+4afWTtfWFk9985vfpHSye+2BCOwmgKDDQbfIux99tDaWjR8C/McR8b4oxtwNSA0ExdZW2jpB8sFVXhbwE7hbraIbYSJYiPIfSG4x2poZHwYLYUVGtrVN0lJ65JK6wfHhxHQnjWMIEvZ3tKsPh8smbM043I6jbLSAW7VMpqvZMtfVE5gqsdbNMgKV+JglMjlSsbUG5lizO8GN962PlC3pWGDOMWBXCAmI9FKh2il1YxjruflFzRaQRMyWUitCx+4vqiHmXmR/LwOY9H3zthHzi4h470X91f7vfOc7i07o6NbHajd+ctcBBBvk55//SeT++wfaTDx23IP5POA9ZcQcgTElIkJvBwkITuy2CRAyU5jsdKAaI5UZY9HIum2xvdHW0xU5EZDdOKg75ZwtULAMarsQsOzAnSUzChRhyWayoELe4YOdKrLU3FivdWkOge1EcenmOz+q+Vk3kgo5SHT6m5mdQ0//gJoqsZbNBcu6LUZz8tskpjY21KmpEoV47HzglTmuwY2N70YkUMbaapJQBZGtiexBZHcCMzcsHZCASOBG8EBgTidWti7m7k2+nT8sGUwH3gnmjazJnvKX/dNnzrwz5boTbmx8Cu1duxYg5AZCvvGN/xivb00fi8L7tO/J50TkEcDUA0J2IssOaittgQIXHjrB0deBN1BpaXHQppcN9BXyXy6rcOtTPp+8xiPZXmrqVZCwRl6CGsLMzqp0a1trs5IYaQbFnSffb7M91sjLgbhbH5Ob/eTVyG92cZ+dm1PyW5CyvgTj+wrEqXhaWV6mEspcoNjKyBQ3+Se8B/ly99uNj0b+OIRdV+miyMwA/RPI/aAUPWNNFUSKHbFtkd0j7FzgA5+bpdx9aIFBBpAVA9MH37wGMb83a9574+My8NJL30y5rMGNj1OhvXO3AwQdD0o2p2Kx2kQ0cU/Uiz3uA/d4wAOAaQekiCDBPpDY8cB0Gluo6mqq0dBQpwxqprr5ezKv2dMfTt0V2qDfieux2QR+93pbJKAMay4y3Nkwq8Deay4gbc3NSmQMSG01moqmtC7HxgGE7RvBK3gG7E7wfXX1JJ+kr38QI6OjKmzEBSkRT6h5EtuM+S+zBso/qKtFaWkpUwVX8Ax4NQ6IX3tMw2DbdgoRVDMzQM4HgUEsFlVCNg3tqEAZlBqGlSzK8l6e26ImbmAwDTF0W/zAAz40qdTbC162/6GDB+e/+tWvstzgXns4AgUBEHIgwVtcXCwuq6+vFkQPR73o08Y3j4mH+wBpyHU7aNkhsDtl2YEmUKWaUWDHA9uswrubsF+6e4Bt7i7ZaCdq+QncdVJvn1LN3AXRtIcPPGZ3yBs51Llf2yLZmkVwYcfQAYXNjcm1Pn0FKz4Xd+5WueDQbZHtcSsrK+umSryXaOpDK2YCAmboOGbUNmCZIQwSw9/t7q2rj0QYGJAEyhedVCempjFy6ZICNZbnGuvpTUMb5lU1WyIHgWUflhP4yjdVMsZkRKQHMO/4Pk5FspnfpVLeKDC/mEwmWWpwpkq37/baNUcuGIAQiri88MKPimprTZ1EY/cZ8f9SPHkil00ozZUd1heZwMc8qjVR8hNUva2iPMgm+AGYUKhtjO5y3MNs83PbPvTCMdWUJ91eFhZUjZH6CaylZrIZTUuzJfKuY0d0fKj4lt/t4Hahmx8Xe4SNwEHWz2rLXG/foNayh4ZHNFXNXnrqjvDFXSrFj6hqyu4E276aD+jcWF1/rDbiGvBZxWxbr2ZtxjTbSd2Izs4OZDMZzeh09/bj0uiY6huQI2JdMEPPrjVjMCswg74xv8ia7M9XTfq0s2G+/pjsxXcUIkBY31iyLRKx0n3RePTzMPIXENwjQBUg1E5Q2q7NJvCGZIqO6VDKjjK1rSlRBERHR6La2tsjvJsMHl6AJ5720PNBOD+/iOGREZV+nZ6eVQc5Ljz0duADkWUhPgA3ao1zC9CtjVUYuAW7zqjOe1ovk19w5sJF9PcPquoeM25cnPietRRN1LJoa21Be1uLdi5YUyXLrnfZnuuPydX4HvwkMzfs/qGr4vzCEjraW/V+KCktVu+KDz8+i76BQS3R8TpqbrgAACAASURBVD6ywCBkrJQ1wAqM9Bv4b3omezLtp7rnxhNjL774rZXrn517x16MQCEDBB3Pr33ta7HmgwfrPRTd5cF/0hPvf4PgIIDi8A0ZBgpFRQlNkXIXxB0rpYLT6cwnsgnugbe522Wjh6Fd2ANmNTsYuGudxdDQiNoBzy3Mq1ImuQlHDx/Ewf0dmu0hr4TSsBu9XMbn2uN0tUWJYJniOQNDIzh7/gLO09FvfhG1OQDNcWCvPdM+dFmkjDbr34loTDsbLHDLj78bjyvH42pjYAm6LBmQBMruEGY6Of8Z87mFBQUM3d19mJ6ZQdYPvGmY/cxTi80amDkY/EIEP5V05k+p1GJfMpkkMHClhM09ygr60wUPEHKjJy+88EJRaU1zW1E89qh48hSMPAvBYf798s4pWJT4cOMOiDdjc3NgGsO2SNbxuBCFFyOnxrj5+yP8gLRlB8aVDzpjoEIvY+Pj6OsfUiIjn2gkmCpQOHRQGds0+uFDkWOTn57d/BkW7hHCsQrEcoKsDDUMzpy/gDNnL2B8ckqza3U1NXpPUICM90llRbm2LTbU16s6os0K5XcnOFBw4yAtmPd8zmQxNTOtmgUkIjITQGExzvVI1MPw8CV0sZxwaRQrq6uqksgxulJGXt0W/2R882vfN6+sYOVcIpWacW6LhXtPb+WV7RWAsB4zCi3d+9BjD3iR2HMi8gzg3wMIvR0C04Zc2YEZA7648LDcwHQqLaUtiTG/LdIBha2clpdb4Kz8K8eDO6ihoWEMXxpTrgL/1trcnMsm7NPWurDojgUbW3tmhXG0T5DfqIKYAwZMZROEnT57EX39A5qyLi5KaJxraqoCgOxn1UeD7agsNahsshJ/A76OAwQ3Pkfyx4ExZMmAbqgk7JK4y4wmSzd1tbWYn58P5Kt7+jA9O6ddISQncvOS92J2oN+H+aOI/DKTlVeS35keAZwN842PjnvnngMIdsj/9m9/UFpWJQ9GY9F/DeAh8aQDQE0IKAh3SWTTE51z58RMgm2LvJoao3tAbs1NFeYo2F0Vd7hWZGlsbFz5CWzxokrckUMHFSg0NdQpd4SMb1rbhjNEe3lsrlbSsbVqlgvYncB+eerzE4ixZMAdKzMFNO8hmZeLP/UpDuzfp+Zb+Rm1vRzj6838a5bVIoF/BTt4WFJgac2YgIRIThTbe9my+PGZ88oHIf+GzyCC5FCZwDfAEoyZEMEFH+a32VT6Z3OTl86++OKLjmdwvQFyf78iAnsWIDASf/M3f1PUcvj+6mIPRxHB/yLiPQ2YDhhUhNUYrdAS03zsMeauqWNfG6qqK7V9i+nAfEtpN9c2H4H80oMFCjzy2tpqwE+gbDNZ2ytrWgbq2NeKY0cPq700d1Zc0Eigy2GFPbu7zV+crGAVCYcsIZw5d0FNlWZm5jSbQABAfoctuVGivLWlGY11tetxDYM4BwyuP9/zx4Bzk+NA0TC2JPYPDmlJgRkDSo+TMM1MJX9PhUp29Vi9Azt+ImI5BCmaKgHyoTHyz5GM/CaVSo9PTUWXnNjR9cfGvWPjCOxpgJALibZF1tSk90ki8YBAvmCApwSmCSIlFP9juyPRvP3Xi0SUrKUmUPX12ofMmz/sFGnD7dKtm7/1wgtR8GC8nMZeXl7F6OgY+oeGMTExpWZBljR35FCnMuspKZsP4vbSghZOY69rTxij6pXMFnx85pyWbbgjbWxoQENdUKohSZGAmOqWBAcsNViRnnxwsJfieSszeqO2Rc5jCoVx8ScI4Bylb8K+tlaNP1sZ6WnBjILKI+cARdhUSfUMIAsGphvw/snPZH+TXctcfO21f54+derUxszdW7kA95k9GQEHEHLDTm7C8eOPVXvx6EGJ+o+LRD4jkIeN8RtFJJozgRIiegIB3sBUXyRZjmnY6poqVfvjywKFMDhwQGHr76+ArR0sZKzVDl9iNmFc2/JoUsMe/WPsdjiwX+V/rcjSRju5rT+7O3vEjYia9vrJKyAg6O7pVSVECu9wt8ofzmm+CIZZTmtqqFdyIn/PYzqDsxsf1/x5xv+3AIulstGJCQwODishlOUcih1xs0FSLlsWB4aGMTs7p6CXmcpQ1kAfMzBYM8CwiHk7m8XPsnH/HZmfH0omk4E6knu5CGwyAg4gXBlA+bf/54tNibj3aATmWRg8I5AOA1PKsoN1iyTaJxBgXZw1WpYd+EDlf7MuGH6YOqCwyVm6wcftDtaKwZBvQEvpyakZ7Rcn0Y5iMdSlv+voERzs7FAgxx0xXxvtgAthF7xRndu2yzEek5NTKrTT3dunwkfWdpkZMaZmjG+QKIqrPTqzL4xf4FXCMk2QzXZg99rzeaMxsDFjHMcnJ7Vtl6RbxruurkY1DZiZZCahu6cPo+MTWFtd0/Gx3Qk5TQlfRNKAmQLwkcnizYwxb2Ft7p1kMkm3RfdyEdiyCDiAsHEo5W9/8IOS0lTsYCxqnhXPe8IY8xCANhEhK0glm/lDoMDyAzXoKdXcSDXG+hxRLiTkY9/v1Bi3Zu5eWVP3EPEiuttamF/A6PikZhTGxycRiUbUUpqs+879+7Q8RBAX8BMui2DZM9uNC+BGWRFbTuCixMWIi0+Qsh7TBZ/E28AjoUTJhoyJCoU1NamqKMEX47kXMi6bnZVXIyBaJ1PGe2FhESNjY6oSytJCVVUF9u9rRzwWy7lh9qOnd0AzCpzLBAb28zkiInHwPASn4Zs/GuCVlQzenuw/M/3yyy9THtm9XAS2NAIOIFw9nJJMJmMoK6uIpCP3IIrPi5EnROSoMaaeZYdg0eduNHCLZE1RSYwNdco85gM4Ho+vL0R2MXItkVszh6+2W2YHA10EmZ4dHhlVCVqmbbkQspZ++OB+tLe0aFqXOzS+wkBhtwMEm4pmfGjaw4zK2fMXFTAtLC6pVDU7cirLy1XoiO9j5qu9rVUzYeRsWAXEjUoVWzN6hXWUjUBUuHWUJETKU09Oz6jYF7kGlBBn90jgtjio2a9sNqNz0gKD9blozIIBhgzkfTHyL6up1Xei2eVhAKtO06Cw5tJOuhoHEK4/GpJM/t+lSKQaBOb+aNR7zkDuF6Az1xaZsNmBYJHBuqsaa7c11ZXKBqd+gj502S9uKfUuXXv96N/gOz6ZoaFjZNAXTnIX2yEnJiZ1l7amZYdy7GtvU7na5ia28VWs9/LzM7stlW7P1wJPzjMuPCwhEBz19PRjenZWwWpZaYmCWC5SJCXyp76+TnkGdGNkrbtQsio3OHU2/baNCIhsS6SRFbUKpqdnFJixA4EZGj4P+BygFTO9E8YnpnRecoMR9k7I8QwWIRgDcN4YvJVOZV+VIr/n1OLi7Klk0pEQNz167gDXioADCDc+P+Q73/teRSnibRHIPkTkL42RT0PQwcQBux1oK20NnnizM0VYVlqmAkvcsbFfn7szPjyYcgyntHfjrvXGQ7c977QPav5r0+tWXZEZBKbZR8fGMTE5ra2P9HPoaG/D4UOdyt4nS3+37JyvLLGwu0PUFZM8A7YsUtOA18xFh6UEAgP6+0YjUS2HNdQFVtokxrGcYDMp4Xm5PSO3e78lHxwQpCnXY2padQsIAkjw1FJOSYmCT3YnsJ1xanoaS0sr63OVpNscyKPi1BpgJg1wBsa86sO87aX8voGBCyOunLB758tuO3MHEG5hxJLJZNxLlN3redETBvicJ/IohCZQSOSAgpYcrDYCgQINbJqaGlSatry8XJ0LWd/NV59zQOEWBiTvI2ECom0N47/ZTBYLi4uqm8DSA2u9/D3Jiwc796Ozox0NDfUK4sLKgDtlwdyopLJe46Y88ty8pqovXOzWrAmvgSCIJS/WuQlMixMJlQ/X9tyyUiTigYCo60648Xl3tXHgEZaWV9A/MKiZG+ob1NfV5MBnESanp9HT26/aHfS1IFgj1yAoKeijmCzQDP2xRMwFY+S1rJ99M5LxPxwYKB95+eWvO57BjQ+Te+cWRMABhFsM4td+/ONY/cRSQzwWORYR8wQEnxUjD0JQGU5T24VGINp6R9lmMpbJXI7HE/pgtmI0jsB4i4OxAUCwvwqn360JFG2JZ2fnFSiQTT6/uKDiPxRXOnL4ADo7ApVAytdS4nmnlBzyd6tcWLjzJ+jpGxzG+QsXVdeA/At6IzA7UFJcpNdgOxPIMeDf2JJrgdS1WPdbMyKFdZRwvCxfgBmqoZERzdrQG6G6skJ5SKUlxZiZndeWxYHBIS1zcfNAQJDXtpgDB2YQMK/6vrwmYv6QXZkbPH369MrJkycvpxwLK5zuanZwBBxA2MTgJJNJb26uIlFTk22SRPRxwHtaYB4F5CAE5QA8+xC2GYV4LIqKCso212nZoaysTEsRfN86mFD7Yzc0mxia9Y+GH+b8b6vGyPYyKy88ODSiKWHusCsryhQgsC2S+vcsEbFezGzPncwkhK/D9tLznGiFfbGnR8V2JtRUKaZSyCxn2XIJU9vMkpAYR+7BRmWUO3ltWzHO23WMMFi0KogsWQ0ODyuXgARZZmx4b/NFUyVmdaiCSE4CuTEEnvb+zv3rG2OmIN5pGP83GT/z6pqfOptIpeaSySQnnnNc3K4Bdt/ziQi4VWgLJkQgsnS81Csq7xQv8qxAnhXgAQgaAcTCtXHbT07CGB/kzY2BCRQZ9uG2u3DpwYGFzQ9SeAx4NNZ7gwd8RrsdLo2Nq8gSa8YCg6bGRtx97LC2Rip3JBZbT8NvJ7M/vCBdblsM3BZZRiAwIDue3ANyCdjOyS6FVDqju1SWGFg6qampXi+dbMS433yEC/cIG5EQSTRm2yKzUOQUzM8vKPmQsWbZhuTE3r5+5RpQmIoMRJauwkRSVnbYhWAMugDzR9/HK2tx/zex+fmpZDK55oBB4c6p3XJlDiBs4Uh97Wtfi9V1dNQUx4rvFyN/LeI9BaApJ7K0rp9gywrcxZaWlaChrh5trU3BQzy3EDkm+RYOTO5QYW4Cf2X5CdRJoCgNyX100AtqxPPq7XD40AHcc9dRFQ0KSIyBHfLttjTOX8Qt14DlA4pAnWU5gfr845PaTsuujOqqCrB8QuIbe+yp588sSCxKcOP0DG52Rm00BjwGQaXaYZ+7gOHRUVRVVOJA5z4F++xGON/VrW2lzOh4ORtmm/XJZW8yIrJmjJk2kD4D/z9FM5G3UqnpgWQyueSAwc2OlHv/7YqAAwhbH1nqJyTS0fL6ohgehHhf8kQ+awxaJeftEK79BhkFKGGsWZ3bGoMdazymtUoK2OTvIrf+lPfWETequasojXhYXV3D+PgERugWSaCwsKjWxncfO4LOzn3KHyE/gYOWzlzZZbaZbM/VyG9cXGiqxDQ1OQbnL3ZpSYTZAUohk9uittiRoLXz0IH9KtvLlkYtbGcynyhZbeYcC32mXG0MrKYBAVnf4KCCSfKK7jp2RHlFbKelQuX5C12qgkiCIudUHs+Aa3/KAFMw+IOB+TmQ/uXCpBnt7X1v2fEMCn127b7rcwDhNo7Zd773vcpiP9ocicb3ifH/TDz5EgL9BFXnCbdF8sHE2iR3rYHQUgAU+GDijsV1O9yegbJxZZwDJnlwS6Rz1rtUH1TlQbZFVlSoiyetpfmvlW3eCpOujXarXPS5uNOG+fzFbt2xTkxNq6gROSzkE6ylqLprVMGzvbVZOS0ENDaVnd/RcXuiWBhH3aj0wnuSQJ3ZgK7uPvVPKErE0bGvXUmgFDbqHxxGT08vxienFRgEJayIjkGoO4EiKcsG8rZB9qdi8DvJyOC/+3cvXCqM6LmrKMQIOICwDaP6/PPJ+PFHKu+JGnkcgs8DckIE1QDYY6ayzVyoKNtMkhMZ59VVVUosY7cDd4JMbdtuB5sedzvBrRm88CJqSYzsDmCGgK2DBAjsaZ9bWNAsA8fk2OFDOHzwgLaxkcm+UdnBjtPVzvJau1WONWvXZMVf6OpRed5UOqXqj1yYgi4EXxcidibQWZRiRzwXHpfA4nrfvzXR2/1HuVoXB3/PDBK5HswmUeiIPANKqTN7Q3JiV2+f/o18BM4BZg1ynQ2WWOgbYEGAbmT9tzKe/5pZTr8LrNJUiRwE93IR2LERcABhG4fmhRd+VFzTIE9IVP4KRh6C4Jgg6HYIAwVNXWvZoUx3itRPsCQzCyb4bxggOLCwNQMZztRYUpkVvuFCQLDARYNjQzvpw4cOoqWpQXfzNg19IyTAa4EDAgPyDJiyPnehS/kQbMNsaWrUFkUS5PxsVgV4grJUk55PADIdMLiZmbDRWPFeIhgYn5wCO1wmpgIuAW2YGxpqNcbU0fjo9DmMTUxoidBaYefuQ4IDX8sJBiPGmPcF8oaB+VV2Za47mUymbuYc3XtdBO5UBBxA2ObIU2QJicq2WARPQ7wvA7gPQCuAMpvfDtQYs5pR4A6xsrJcF4G21mZNa6ttb06y+Wq7n22+rIL5uitT/aLKg3xRLndiYmrdVpplh/raWm2JZDaBIkuJOLmol4WHbgS4hcsB5BZc6GbbYq+qPrLiQfIbO17i8aiWm4qKEsoxoAokOxfCnBY7EDfyvQUzaDd5IVe7Z1RMi6ZKi8waMGs0gkw2o86WJHuS48GOha6eXv0bLZspVR2JrAsd8UwIDtIwGAdw0Tf+6yaLX/kpcxaYn3VZg5scLPf2OxoBBxDuQPifeSYZffyLifIiP9IRjcU+LyKfh5F71dtBtOwQ0k/Ian8+655UvyM3gYuFpphBIBG4StofJ7a0NQMaJobaVL3NECwuLuoCMTA0omx2LhzcyR89fFDd+YLFnPyBQDshPDbhBdyOFf/OrAFb5j746Iy6LrKWzTS2diEoFyGr9WxK9hIYkCjJ73DdLjc/3vlja8eXY0CCIcWzZmZmVY6amhgEZBTWonx1/8AQ5uYXcr4JATDIATwCAyYTlgXoM755PWvMT9ey+NPKpJl98cUXVllNvPmzdZ9wEbhzEXAA4c7FHt/4xjcStS0tzZFI4pgn3rPGmM8IvI6cbLPyE4LaNgGAr2nOsvJS3dGQyEgSIxcJPpXcQnH7BjK8oFA/gex1quWR0T5CI6jJKRXBKS0t1TT0kcMHcfhgpwIHzfbkAFwYHNjfk/0+MTmJnr4BXYDU7a+kRIEAO1uEluFZHxXMIjU1BrK9xUVKpdzouLcvCrv/yPmZA2bnSEBcXVtVoMeSDjUxqFFCXgfbR1lOYNtrb9+gmi6x/Cces0qB2NF62yJAU4VJY8x5CH4mxryZXo50JZPfnN/9kXNXsFcj4ADCnR95+du//UFJRV3kgES8RwXmKRh5WERacmUH5rcVKFi2PIVYqMbI9qqa6moFDfydTZGG+Qku1bz5Ac4nMZJIyoU7m8lgfnER4+OTyhmwMrrced519LA6RdbV1KoIFkmPdlw4luQ1UJSJvIa+/kEFGwQfXPyZHSAZ0fonECxwwSIg5DiHCZFufK89vtcqJ1Bcios+RbJYVmD5hjEmz4PggcCPKojknSwtLeV0M9i66FlgQI/3ZRgzCZFzxsfvIZl3syb24Uj3x2POVGnz9547wp2NgAMIdzb+4W+XZPKHtdGi2DHj+Q8C8qgn8lign6AmUCw7CEECdz1cGJj65C6TCwilXbmweJHtEfLZOWG7/WeSv8jw/4NuB+WWKqHNukWS8T41NaMpaI4LMwodHe1obmxAaXGxKhyOT0zowsMOhemZmXUdDHausIRNjw4KHdFtkTbhLFlQHZGv2y3QdPujuX3fsBEB0ZaJrBU2488OIXYmkPTJv7Mjgd4JJCLOzs0rMGe7I7sTQiTEtDFmESK/gzHvGIM/raVSp8cbKgde/rozVdq+UXbfdDsj4ADC7YzuzR+bIksxoKyCQEFEnjBingTM/SJCImOOmxAsFCQycoHirpO7HrZF8t/gQUfC1WXFP7fTvPnB2OgT+Wn9oNc9+CFvgJK7JLL19Q0or4CLPTMJJDG2tTRhdn5eOxMowcvxq6yoRHV1lZoqcSGib0JtbY0uWAQGVkEx/3t5bm5Mbyx7YBUzlYC4sLhut8xyAdUnSQAmuNZxGxjEpUtjWmog98dKcud5JywZoAu+ec1I9leSwgeZzMLE6dN3p0+e/KozVdqaW80dZQdEwAGEHTAIG5yC/OhHPyqaS6ero0g87Ik8AzGfBoQdDwljDLeu6zVoAgHucNhqx0WF2QTuQLn75I6UBLfwbsqy5nfmpe/8s7paa5yNq/IKJiZ1wRmfnERqLaULEDMKBA0sLbBUwLIBwRxf/CzHb39Hm+ocFCWKNAvheAY3Nx+uljVghoctiSSCTs/MaQmBXUEsKXC8yCXpHRjE1BTFjuhjEXh15ISObEkhJZARA3xkjHkjm838T6QWh5zb4s2NkXv37omAAwg7e6wkmfyP5Z6XaZdE5FER/B8CHAZQB0FJGCTYujR796uqKhUkNDUGbpHWBCqcnnYgYWsH3i5MYUVGEt/Gxia0xs1aN2veLAu1NDXprpXgja1y7FJgOYHeCWxbtONlx9dlC258rMKEUsaRJEPyC9hxQnBAB0zGml0nFDVi18LZcxf1byz/kCsScAz4E2RpjDEZCKbFSB9g3vCz3i+zaytngJXRZDJ5pd72jZ+ue6eLwI6OgAMIO3p4gpNjW+SJE/HK4vLiIxLx/sITPGuAIyKqnRCxGQULEtjVwP5sZhOosEewwB0rH46uhn17Bjy/zTRIa7MDwWB0fBznL3RjZHQU+zv24b7jd2lmgOx4yiYTGNRUV2l5gb+3HSmuhHD9sQpnDMJlABJJV9bWMDY+ju6efuUSUAGTnBDGeX5hAV09/do5wpZGZgqoZxDOGgDIAmYZwJgP81sx8rN0Jvu+pMqGksmvrzhTpeuPj3vH7o6AAwi7aPySyd9EM5F3O2Ox6N2RiPcFMfKlnKV0kSUxhhcYXhpb7wgSWtXboUqJVqy9WsW98OW7BenWJ8PViIwkF7Jv/sy589qtcNfRI9jX3gqS5Ki+d+zIYW2ns22PLmtw42OwUdsi2w/peEn1QwIDtpBq+2l7KyrLy5HOpNHTO6ASySQoZrScQALiettiTgWRgpX+DOD9zjfZn8M3b/tr0n/6dNuc4xnc+Bi5d+7uCDiAsMvGL5lMesvLxaWVlfGDiHkPG+ARwDwKkUMClNmHJv+13ANmE2pqqlR9jztVlh0SCYrsBJr9tv3OAYStmQxh3gABAlPctP9l18KRg52o0IUqg4Od+1WFMVxSyKW0HQHxBoYiXNYhMGDGgMZWzNQsL61oJobeCdQNoagYywjM2pCEuLS8rGUEAgNbbsvN/6wxmAbwAcsJWR9vm9XUB6dOLU+eOpUkAdGJHd3A2Li3FEYEHEDYpeNIoDAFlNUnyg4jKk8IIp/xII8CaM6VHfTK+JAku56p0+KiYpSXl2rJQYV4ysu05kq2dr5b5C4Ny445bQu6mLFhOvvc+Yuq0McSA+Wyg+zBIa2Fh8s+DqRdewg3yhpwgZ+cmlJXRcpT8z2c3+zooZDYzMwcunr69G/UrWA3AzUmeE/wFWpdnAfMB7Ri9j3vrWg6+97a2hx5BmsOGOyYW8udyDZGwAGEbQz27fqqb3//++XlXvwRMfK8CJ42QItAaAIVPAEBzSawX5/+AWTLNzU0oK2tWb0EYjnJ3nwBHrdYbX7ENgIIdOek+dLRQweuAAib/8bCPUI+30CFwXwfc3NzapxEQSO2/N517DDaW1qwtLKsnhYffHxGwQGzDIy7LSeEIrVGSggEZ+DjZHrZe+Xv//4btGF22YLCnU7uym4gAg4g3ECQdsFbqJ+QiMUqq01MqJvwVyLySCCyJOQn6EYpMIGiIiPLCtAMQltLs+r9V1QEXlFWrZEfcKWHzY98PkDo3L9PARpLD0cOHdBuhnzi6Oa/tbCOECaA8sq482fMZufmVLeABNB4Lp6d+9qxsraqfI9z57twaWxMwTE7RWyHiQW+xhi2LS4A5lzW4P/NZrO/vtS3MNTSglVnqlRYc8hdza1FwAGEW4vbTv0UgUK5V1TRAYk84XnmX8PgbhGpBKA2g/Zhu94WGYspL4ELFUsPZWWl6hRpOx6c+dPmhtoBhFuL30YSyVY0amllRQFAV3cvFpaW0NHWiv0d7SgtKVbJamYThi5dwtrqmpYPOAZWHjmXFTCAWTOQXvj4uYj//6SXswOnT789c/LkSSd0dGtD5j5VgBFwAKEAB5WW0ulotD7qFd8fi0afguDLMDick2zWsgMfwFZpkS1eJSUlqKsN1Bjp71BUpF5R6y134f7yAgzZbbskBxBuLrRXE6HiUehfQUEjOmmS+MlyQWtzk7bzUqGyv38IvQMDmJ6eVZVKZhrsT+4ssjBYM2KmjJE34JtT2az87tSv/tu5U6dOOT2Dmxsq9+49EAEHEAp4kAkUskUVh+OePCvifRaQhwR+gzGIiQhlm1W6mdkC4xvdabEvv4kkxoY6VJSXaWqWTpIEE7bkYEPmOArXnzwOIFw/RvYdVwMH7Pig9DEFp9iBwI4EgtjGhjo1wiL34MLFbgwOX8Ly8rKCAjoyBl4ZyiPwAZOBkSnAnIbIbzN+5vXV2bWP/+Ef/u2k4xrc+Bi5d+6tCDiAUODj/fzzz0cefvjhkpQXfwy+96yIOQbgGERa2RapaYKcWyRbHslToNpfXU01GhsbdHdG4pcyvinik2ddzPA5oHD1SeQAwvVvsHxgYDUhKHk8v7ig5ld0yuTiH41F0dzYqJ0g7A6hOdaFrm7MzS3oTI7HAmAgIgQG/EkbmHFAzsP3P4bIm17Ge/3999+YduWE64+Ne8fejoADCHtg/NkSCXTETelkRSQjHV4k9jkRPAmDew1Mk4jE6BRpSw8kdVGJrqi4SLXq1Tiornbd7e6yYqNRcOAAggMIm7mN8uWROb8oLsXMwOj4GFKpDGqqK9HQUA9KiVPgiNmCkZFRzC8sancOgVhY0yBQQcS8MX6vwHvDR/bnWZP+eHFiYqasrGzFkRA3M2LuN1nThQAAHRhJREFUs3slAg4g7JWRzl1nMpksQlF1Q8TD3QJ8DjDPCKQTMJUQiV4mMQYdD1z8Sf5iJoHeDjU0EipKrEsC2/e4TMLGE8llEDaOy0ZZA75zZXUFo+OTGB6+pFmDkpIiNDc1ablrdXVVxab6B4ZUOpkZL2YLLHnR87xc1sCsATIImI+Nj9+kM+nXV+b83pKSlSUHDPbYA89d7qYi4ADCpsK3az8s3/7+98vKTGxfxIucgOCLgHkABs0I2iLp75CzlA6euXwIU5WOaowECvxvlh3s+8KRcBmFy9FwAOHKe2QjPQObNeju68fY+IQKeNHtknONZa/RsQn09PVpVmFtLaXeCZRIzvEMcqZKWBXBjIHpFZif+xn8LutFzmFlejyZTKZ27d3qTtxF4A5FwAGEOxT4nfC1QemhpCGSiN7nRSMnfON/VkTuEqy3RQpLD4F2gq+nrLLNVZVobQ1ElshPUBZYTo0xHxzsdbDgAEIw06/Wtsi/UfaYQkbMDMwtLChJliWtspISdbskaGDnwszsrM5D8hAoehSaWywnrBhjumDwJjx5NZLJfrS2Nj+STCZptuReLgIuArcQAQcQbiFoBfYRaicUZyIlrUWJOLMInxbBMybwdii2JlC8ZtsWyQezSjbX1ymRkTwFukWSwJgl0ZEqTCHy4l4GCXsdIFxLz4AlguGRSyqRTNGjRCKBdgLP+jrMzy8oYBgYGlarbHYyMIvFrFWY90IrZhFZgO//yjfyay9r3k2n584BSCWTSUtULLBb1l2Oi8D2RMABhO2J847/lmQyGV1ZKSotqijqiEXl0wb4jAgeEUEHgKjdBVr9BP7LbEJlRYWmghvqa1FeVopIVN+6bgLF/7ZmODs+CLfhBB1AuKxWHCgZeloiINGQ5kksJ4jnoba6Wu2Y6Z0wPDKqQkj8+/LKak7s6ApTJY7WrPHNxz7MOwb+v6zOrn24f3/t7Ne//vX0bRhKd0gXgT0XAQcQ9tyQX/uCv/bjH8c6p7NlGaw9CM971hPzOICDBtLExga7I7RlB2GaobgItTU1ChKqqipRWlKirPLgPZeF6fYiUNiLAOFqegbMGFDgiFbXE1PTWFxcUpDZ3NigCp7z84voHxxCT1+/ZhAILdi1YDMG1m0RBmMABn2Y8xFPXk2l/dcqEmbsW9/61qrTNHAPNBeBrYuAAwhbF8uCOhK7HejtkJXIEYlk/kyFlgQHBCgHtC1S/RwoosS2SD682ZteXV2pD/zm5kYVq7EgISyytJdKDnsNIGxEQOSNsUYVxNFx9U5YXllBdWUl9rW3KrikCBKBQXdvv4IHIoOwPHIwX0zWAEQNVEp6Pev7PzOQD4q91MR3vvPtRUB1D9zLRcBFYAsj4ADCFgazEA9FoFBUVN2QRfo4vOhfQjy2RraSr5jjJyjLnE91ggGCBgKF1pYm/SFgoBpjKpXe0JSo0MHCXgEIG2UNyBdg1mBicgpdPb0YHB5BeVk5Dh7oUCtmclq6unpwoacXU1PTOVOlaM5UScWOtLLFihUMJmDM741kf5LOyh9WvPRYyYprWyzEZ467pp0TAQcQds5Y7OgzIVCIREpa/UT8YU/kKwLzpVy3w7q3g9VQ0LKCCCrLy9HS3Ii21hbU1FQpkz2dTutCYF+FXnbYiwDB+h+QePjR6bMYGr6kGYED+/dp1iCVyaC7p08VECcmptU3wRIQraZBbn4YY0waImdhzH/xM/jV4uzImX/8x39c2NE3izs5F4ECiYADCAUykNt1Gd/97j9Ul1SU3mMi2S9GxHtOBEcBw7KDVWIU7gwJEviboqIidYtsbmpEfR1lm4u1h50yuvkGUIWYTShEgLBRZwLnn+0woAQy2xIHBoexlkqhpqYaTQ11qKqsVIXE8xe7lITI/+aLMYrFAq7BZbdFrAKmx7BtETiVzvp/mB6JDr700jfXtmuuu+9xEdjrEXAAYa/PgFu4fvo7HH/o0x2RCL4okKcAPARIe84tMnDIMUYIEmgEJRDtcGhqakBLUyMqKyuUrc7SBN+TbwLFzxcKWCg0gLBRKYGy3KwDZH0fE5OTmjGgrgFLTm0tLaqZYbI+hkZGcKG7R7sUCBwS8YTKI+dIiJZDkDEGQ8aYj0TMG37Wf2VipO/MSy+95IDBLdyr7iMuApuJgAMIm4nenv6ske985/sV5TXxoxCP5YanITgEmAZAyE9QEyh1i8xkc7K4EdTX16KtpVmd+JhN4IsLSQ5UfAIsFAJIKASAcLWMgR0fjt/i0jLGJybR09uHldU1VUA8dGC/clLGJyfR1d2L3v5BLC+vfCJj8AmeAbAIg4u+mN8Y4/+zvzz/wenTdy+dPPnVyzWpPX3PuYt3EdjeCDiAsL3xLrRvk79JJhMdpaUVXip+byTmf8HAOyFi9gukAUDcgoRAaZGdD0ZNn+jtQP0Eiizx/ymZy78HRMfCMYEqRIDARZ1cAfJJWCbQtsXJSf1vgr7mpgYtK1EF8UJXjwoe0VchKCcEegYhsaOsMZgWMZcAOeP7/smsWXsPq6vjObGjAD26l4uAi8C2R8ABhG0PeWF+4be//f3y4upYoyf+wYgXfdKA5QccFBFaSsfDbZEEAuQhFBcFbpFUzqNIDk2hgoxCACTsazdnEnY7QLjaOKyurWnLIpUQmSFS+e2WZognmJmdx9DwiHYtLCwsKpAQoQriZWOlXGfCkoEZNQavG+O/ms16ZyRtBoC5eWeqVJjPCXdVuysCDiDsrvHa8WebTCZLIsWVHcaTT3m+fAliHhaRVmNMiYh4lzsdgkwBFw0KK9XW1qC1uRHV1VXaFplvKc0L341AYbcChKuJHZE7MDMzqxLILCmwpbWpsQFVVRXKNaGeQW/fAEbHJ0AQwWwBfRMsgVFtmA3W4GEcxvwRxryazWbf8YsiF5MvvDC74ye4O0EXgT0UAQcQ9tBgb+elMqNQXh3/lOfhCeN5jwHmhMArM8aPh4EC++SZLGDqOQAJTVp+KC0t0cWFJEbLUbAAYTcBhd0GEK4GDDgG8wuLmjHg4k/hI6pmNjc2qiUzf9fXN4ihkUuaNSADJR6LrZcTct0JBAczAM4YmDfEN2+lV83byeS3+DsndLSdN6j7LheBG4iAAwg3ECT3lluKgPz4xz+ODkwsNsWj3j1eRD4rkBOAuVsgNTziZdnmoJuBXW4lJSUKENTRr7YGiSLyHWkUFQCFsFHPLZ3VNn9oNwMEu+tfXFzE8KUxjFwaVTJiWVkJ2ltbUFxUrA6LLCWQgDg/P6/lIYI9Xvcnsj7GpCDSZ4Df+jC/Tq2mf7c0HRl98UUnj7zNU9J9nYvADUfAAYQbDpV7461EQFsij38+kS5frC3yo58XY6id8Igx2CciMUtitLLNBAJcXMrLyrTjgUCBbZHU5Le20vn6CbdyXtv1md0AEPJ5Bla8iiWC6ZlZzRqwnEDAUF9Xq1LadOwkKOjt61elRCpl8loDQyYJl4NSBmYMPs5B8Dp8ObXkR852HWqYPflV152wXfPQfY+LwK1EwAGEW4ma+8zNRyCZ9P59aWmdl/KORyKRZyF4VjzpgEEtRGWbtSXSukUy48wFiZK8jQ312vFAi2lmECyJ0b5/J2cVdjpACIMtG0eCtMWlJdUruDQ2hpWVVdRUV6sqZsSLYH5xUdsZKXa0tLzyCbfFUNtiCgbzENPjG/MOMv6vxcf7mUzZVDL5tRXnnXDzt5D7hIvAdkfAAYTtjvge/z4lMUZKmhGP3S8efR3AskNrTrZZ2yJtqyMVGQkU2DrHnSsXKHY9JBKJHFAIiI7h107jJ+xUgJAfN+u+yRLC1PQ0RkbHMDc3rwRSgjNmcVZXV9HXP4TegQFMTk3Dz/oK4kg0DYG0tDFYBMyIAd43fvYX2az/oaSX+pLJ5Pwen/7u8l0EdlUEHEDYVcNVGCebTCaptlgWi1XvM17mqEQjjxmD5wA5YtUYqcTIRczqJ3AhYhskMwoNDXX6L/UTAn+HzBWB2SlAYacBBAsMrNaE5RmwRNA3OKAAgGJGNnNDsihtmdmdcGl0TDsYVtdSSkJkd0LIO8EHTAaQCeP7r4onP89mMuejJtWXSqUWkslkqjBmr7sKF4G9EwEHEPbOWO+4Kw34CcdLvaKKds/z7oHInwF4WtQtUqLhxYzZhKAtMqIkuYa6WjQ1NaogD9nyVtZ5p4ks7VSAoO2H0ShS6bSSD7t7+pVwWFRchP3tbeqfsLqymiMgBhkD6hnwxTEIm2wRjBmDZcC8Kganslnz1tLc2pni4tWlZDJJFUTXobDj7j53Qi4C14+AAwjXj5F7x22OAIHCiRMn4qsZPJw18pwn3tNGzP25soNmEvhiNkGdIuk1nUho2rupvh4NDbUoLy/T+jjbJukJwNdO4CbsFIAQ5hrYxX2OpkqDw0o25BpOnkFzc6OKHg1fGkVXT5/+neZLFDqioZLn0TshmBAKDIBpGL8L4r2JrJxCJvPHTGZ+LJlMXpnWuc3zyB3eRcBFYGsj4ADC1sbTHW0TESBQuP/+x1sQiz4DMX8hIvcCph2Q0nDN3JYVsn4WJcUlaGlqQFtbC+pqqhGJRtdFlqx+Ak/pTtlK30mAcDVNg1QqhcnpGV38h0dHNTb33XM3aqqqsLyygoHBIXx0+pxyEXwT6BlYnkEOGBCBpY0xwwK8n4X5ZTSz8t9SqdSMyxhs4gZwH3UR2GERcABhhw3IXj+dXNkhFo3WNZpo+isS8f53AY7kLKUDUYSchgLLDswYcCdL8mJ7W4saQZWUluh7AhGmO0tivFMAYaPWRf5uaXkZPb39ON/VAz+bRef+fTh25JBmX+i0+PHZcxgYGNYsDKWwg3JC+DFhMgaYF4MBAP/JXzM/Hxyc63/55eTyXp+77vpdBAotAg4gFNqIFsj1PPPMM9FnnvlKBWKyP+LhK17U+0tAjsH48VyTfagtMrCM5mJMcSVaDDc21qG0tFR/zx1zOJuwnaWH7QYI+YCICzzJhOxO6Onrx8WePiwtLaGjvRUHOju0VDM+PomPz5xT+WS2NFLq2mYMcpkXlaAI/BPMmG/kNd/4/3nVX3mvK5WaO+kIiAVy17nLcBH4ZAQcQHAzYkdHgEDhc//qX3UKYg/DeM+Ihydh0AoxpYBErH4CuQnMKHBBKystUZGlhrp69Qhg9wNXuDsh27xdAGEjYMCBZcmAWgYEAQuLS0jE4wqiKJNM4EQtA3IN6LbI+DB+AdeAjSZB2ACsGZhLMHjXwPzWZDLvTaSWzr7k2hZ39L3jTs5FYLMRcABhsxF0n9+WCCSTySoTrTgSjcsjIvIpGDwqgv2AFJFiYPUT6CzIxZKLHFv0alXgpwnV1ZW6Mw6XHrYjk3A7AcLVOAZkEaZTKYxPTGkXAm2Yy8tKlchZUV6ObDaD0bEJVUi8NDauwIFZhng88E6wXQfGYAXAoJoqAb/PIvuRkezZ0+/unzh50qkgbsvEd1/iInAHI+AAwh0Mvvvqm49AMpksihbX3mOQeU5EnhbgbgM0WtlmAgXLTSAHgQs0hX5aW5pUbImgIVBjDDoddDW8jdbStwsgXBUcQDA9O6uaBQQA1DBobmrE/n1tbDvQdsWLXT2qa0A+ArkHRUWJMImTgSE3cdkYvC8wv/Uz5l8mLkXee+mlb67d/Ii5T7gIuAjs1gg4gLBbR27vnrckkz+JoWygImIi9wHyJYE8AZgjAqlmmz5DY+WYA1VGX9UYKf7DxbKutlpr7x6BQk6M6XbpJ9xugECwY10vl5aWFQB09fapBDKzBjRVombE2MSE8g8G2LY4z7ZFyXknBL4J68JSxiwYYAjAh774/zW1mn33fHZp2PEM9u4N565870bAAYS9O/a7/colmUyWRkpKGgWxRw3kzz2Rh41BmwiKmUkIgEIgsMT6eqDGWKKZhKbGBi07xGNx+CZ4z+3oeNhKgJCf6eCizmuiqdLY+AT6B4cxNjaubYkHOvejurpCTZRowXzhYrcaL7EEQ7dFq4AY8k5YhcGYEZxB1n/FCH62NLM62t39x/mTJ08G4hPu5SLgIrCnIuAAwp4a7sK7WMo2x+Px2mys+LiIkMD4nACHYaQSOaBgJZstCOCiXVVZoSZQjY0NutMOsgn+eubB7qg3K9m8FQBhoxIIz4sllJXVNQwNj6iwEcEAyZkkIRYlEqpj0NXdp39fWllRxBSJRMOaBiQhplTsCOg1vv8rH/4bxqQvJr+7OgQkL9dhCm/quCtyEXARuE4EHEBwU6QgIvDCCz8qrqmJtCHu3w/B057I4wY4LBBmE9QESjMJOTVGD6JeDmpf/AkTqKA8YTMPmyUy3ipAyM9mcJC0nJBzs2R3AssGQ8OXtFOhrKwUjfX1qKmuxOzcPPoGhrScMDk1pdmTKFsX1Yp5nYRIpcMVYzAMMa/AmLfSGf8PklqgqZLzTSiIu8JdhIvA5iLgAMLm4uc+vaMikPSSyY64V7RwFF72kYjIQzB4DCKHAVA9KWKzCNbbgel2MvsJFGprq1FeVqZtknxlskFHRPh1sxmFrQIItiRA0uHo+ARmZ+ewsLiooIHcCnYoMKMwNjGpQkjkIqyurkE80ZJDWM/AGJBs2A+YD+Gbd8TDqfTyXBeAxWTSZQ121JR2J+MicAcj4ADCHQy+++rbE4Gvfe3Hsdr9UxWJaHF7xMcJ8eQpEXmcttKAxPNNoHgWiXgMJSUlqg/QTH5CVSXiCSYePqnIeLOSzZsFCOQY8LWyuoqx8UkMDg9jeXlVQUxlRTlqaqqwtpbSTAKFjqamZ7Cywu7EK8oJ/NUajBmGyHu+b96Bb97PeNFz00Nm6qWXvsmsgTNVuj1T0h3VRWBXRsABhF05bO6kbyACJDHG1uLxyhIpvheefEHLDsYcEU8abDaBxwlKCswW0HcgqhmFhsZ6NDXWo6KsHF7EW/d3uNluh5sBCGFDJZ4XwQh/R98Eti3yh+JGbNskydITD3Pz8+jpH8iZKgUZBeo90FDJlkeMMdSjngDMWYG87Wf8X2cj6TNYXp4HsOqyBjcwm9xbXAT2YAQcQNiDg77XLvlHP/pR8fKy34BI9GFE8WUYPCmQJgjKwmUHxoWlB9bsE4m4LsJtrc1afuBCT16C5SbwvTfCT7hRgBAuZVhgoKZK1C3o6VMgUFlRgX1tLco3YKmhu7df5ZPZtkhwQ3lkfjaU5WBGYMUYMwjIb40n/xxNZ/84njBjL37rW6suY7DX7gR3vS4CNxcBBxBuLl7u3bs2Aka+873vV1RGo60ZP/J4BPIXBviUiGYTlMQYZBMCEMAfWhxXVJRpJqGpsVHLDkz5B7LO2cvaATmwsFFobgQgWAtr27bI71Y9A9otDw8jEU+gc387WpqaNIPAjAHBwfjEJDLpDCLRwG8hD7DQbXFBgLM+/JMe5LWIv9b7hz/8YdG1Le7aSexO3EVgWyPgAMK2htt92Z2OwDPPJKMnTsSrSytLj0oETxngeQGOA6AOs3Y62LIDBZa4WHOR5+69pblRhZYqKsp1MbYmUNfKJFwPIPB41miKO//ZuTmcv9CtmQHjG3R2dqiddTwe11bG02fPKzBYS6VzbYsRzRzYjIaNrzE4L8DP/az/0+xa+uOR5sqpl7/+9fSdjr/7fhcBF4HdEwEHEHbPWLkz3cIIJJPJOBKVLXEv8rAv5ssQ87RAOnJAYf2buLunuBBr+rQ/rq6uRnNzA5oa6lFSHJhAsXsgnAUIdzpcDyC0t7Vqpn95ZVX1Ci50dWN1LYWa6mq1rmZ5Y2JySjsTuntpqjSr4IR6BuzAyOuqWDMGMxD5nwL/dd83f/jwvbcuuIzBFk4cdygXgT0UAQcQ9tBgu0u9MgIECl6i7H7xIp9XEyjgmIgcshkFm1UgSKDJkedFtKWwtakRjY31KC8vzZlAiYKEMNHQyhnPLyzg3PmL2mmwf1+76i9Q+vnY4YOoqqzURZ/+CaNj4wpGWpoaFRh4nmBsYgrnLnQpeLBWzDRVCikgEmAsA9JvgLPG98+YaOT/K/bXuv7u7/5uyY25i4CLgIvArUbAAYRbjZz7XMFEgGqMKytF5aVV0SNeJPYZAJ+DmKMC1ANSavkJXPzT6SBbwE4BSjVrR0FDvZYdlFxI/kJIO4HvCwOEzo59ahhFkyQCDJYwCAz4qqmuwsHO/apdMDh0CecvXNSyAoWQyH2gnkGu7VHrIMaYtAimjJEzAH6dgf/LkcqSj1wpoWCmprsQF4E7GgEHEO5o+N2X75QIECQAiK6uJkqLKmKNsVjsr31jvuwJjgJSl1uQtVuAJYGAqOirRTK1E1qbm9DYUIfSklKlO9puhzBAGBwawdHDB7U7ghmD+flF1V8gyNi/b592TtCB8dzFbvC91DNgiYLW1SRMMqMQvEwGkHkDMyQib2Sy5p/85fQH09MDcy+99JJzXNwpk8qdh4vALo+AAwi7fADd6W99BJ5//vnI8U99qtVD8eNeVL4sxn/OQCpJQwi3RQaOkTR6gnof1NXVoKW5CfX1NSgpKlYlRvIE5ubmcfb8RfT1D+LuY0fxwH3kREIzC+QxsNywtramLoxdXb2YX1xkekAzEswYhFUQ2bYIYMQAb/tZ83MR8/7cRGbghz905YStnwnuiC4CezsCDiDs7fF3V3+NCPybf/N/1ZZW+YeB7OMQ73MQuVdgGgCTAERbB6xuArMK5CdUlJepCVRrS7O2SBYXJTAzN4/TZ86ht28Ad991DE889jAqKyuwsryiYGDk0qg6MTJ7QGdG+i0wc2BVFNl9SUEjGEwb4EPA/42HyLup5dRpYHHaCR25aewi4CJwOyLgAMLtiKo7ZkFFIJn8YV2kGE/Ciz4uwBNKZIRUsiRhSYzMJrCbga8Eswm11QoSCBbSmTTOn+/SDMHxu47i0U89iJKiIuUX9FIFcWhEDZboJpmIx8PAgAUN3wDUMzgPg7cyIr8xS3h/ZCQx9vLLrm2xoCaauxgXgR0WAQcQdtiAuNPZmRF44YUXiisa2ltjXuQEBM9AzOMC6SQeyJEYA7fILLUTsvordjiQm0CPB2oXsIuBgkcd7W1YWlpWcDA1PYtMNqNCR8wahNoWmTVIw2AMxv99FvIajP+avzp/MZn892lKNuzMSLmzchFwESiUCDiAUCgj6a7jtkcgmUxGE4lEedZLHDTwPieCJ2HkiHhoR8BP0DZH/jCjQCJjcXECRUVFChxIOiwtLUUsGsXi0iKWl1e0LMFSQiC2FMg3A1gA1Ib5gvHlTNZkfrmW8c5N9p+dfPnll53Y0W0fafcFLgIuAoyAAwhuHrgI3FwEaAKVSEfL6+Ox6JGImCcAeSrXFlkHSNHlsgOzCUYX/aADQXLggckB/j7oTMgpMRq+BDIAwWnf939rxLzpef5AZnFx6vTp0ytO8OjmBsq920XARWBzEXAAYXPxc5/ewxFIJpMlSFQ2iMjRSARfEoOnILLfGFMpIlGbTbAhIhCwvwtAQyCRTLdFgSwZYNoY8xMfeMXAOzs1hImXXvqma1vcw3PMXbqLwJ2MgAMIdzL67rsLIgJ0i1z1o51+NvsgRD4vkKchpg0QkhgDFHDlKyAgGtBUYQzG/NH4+FnWz7yBVPlAMvn15YIIjrsIFwEXgV0bAQcQdu3QuRPfSRF4/vmfRI4fHy73SuWo+HjS8/BXEO9+GENL6StehgIKIvMEBoD8yoj/Xlayfzr99r6Zkye/GtQg3MtFwEXAReAORsABhDsYfPfVBRcB+fGPfxwdmJhoKo6VPm1EnvJEHjMwhwRigQJ1lbRt0cC8C4PXV9e896LZ6UvJZJIiSA4YFNy0cBfkIrA7I+AAwu4cN3fWOzgCgWxzRzwTmesojuMrBvIZeOY+GKkVYNLAfAiDXxiYV7Irc/0UQXJiRzt4QN2puQjs0Qg4gLBHB95d9jZEIJn0vruaqCyrKjluxPw5RD4tBu/64v9Xfzny0enTbyy5zoRtGAf3FS4CLgK3FIH/HyDZoofB3b+VAAAAAElFTkSuQmCC;" vertex="1" parent="1">
          <mxGeometry x="759.39" y="1200.005" width="150" height="107.31" as="geometry" />
        </mxCell>
      </root>
    </mxGraphModel>
  </diagram>
</mxfile>
